<?xml version="1.0" encoding="UTF-8" standalone="no"?>
<!-- Created with Inkscape (http://www.inkscape.org/) -->

<svg
   width="210mm"
   height="297mm"
   viewBox="0 0 210 297"
   version="1.1"
   id="svg1"
   inkscape:version="1.4.2 (ebf0e940, 2025-05-08)"
   sodipodi:docname="stencils.svg"
   xmlns:inkscape="http://www.inkscape.org/namespaces/inkscape"
   xmlns:sodipodi="http://sodipodi.sourceforge.net/DTD/sodipodi-0.dtd"
   xmlns="http://www.w3.org/2000/svg"
   xmlns:svg="http://www.w3.org/2000/svg">
  <sodipodi:namedview
     id="namedview1"
     pagecolor="#ffffff"
     bordercolor="#000000"
     borderopacity="0.25"
     inkscape:showpageshadow="2"
     inkscape:pageopacity="0.0"
     inkscape:pagecheckerboard="0"
     inkscape:deskcolor="#d1d1d1"
     inkscape:document-units="mm"
     inkscape:zoom="0.63482342"
     inkscape:cx="51.195339"
     inkscape:cy="100.81544"
     inkscape:window-width="1128"
     inkscape:window-height="1186"
     inkscape:window-x="0"
     inkscape:window-y="31"
     inkscape:window-maximized="0"
     inkscape:current-layer="layer1" />
  <defs
     id="defs1" />
  <g
     inkscape:label="Layer 1"
     inkscape:groupmode="layer"
     id="layer1">
    <g
       id="g7251"
       transform="translate(-13.270995,-78.256921)"
       inkscape:label="three_snow_flakes">
      <path
         style="baseline-shift:baseline;display:inline;overflow:visible;fill:#00ff00;stroke:#00ff00;stroke-width:0.264583;stroke-linecap:round;stroke-linejoin:round;stroke-dasharray:none;stroke-opacity:1;enable-background:accumulate;stop-color:#000000"
         d="m 61.483008,90.537055 a 0.5,0.5 0 0 0 -0.5,0.5 v 0.82031 l -0.61328,-0.24609 a 0.5,0.5 0 0 0 -0.65039,0.27734 0.5,0.5 0 0 0 0.2793,0.65039 l 0.98437,0.39454 v 2.45312 l -1.89648,-1.0332 -0.22461,-1.57032 a 0.5,0.5 0 0 0 -0.56446,-0.42382 0.5,0.5 0 0 0 -0.42578,0.56445 l 0.11524,0.80469 -0.92969,-0.5293 a 0.5,0.5 0 0 0 -0.68164,0.18555 0.5,0.5 0 0 0 0.18555,0.68164 l 0.78711,0.44922 -0.67579,0.19336 a 0.5,0.5 0 0 0 -0.34375,0.61718 0.5,0.5 0 0 0 0.61915,0.34375 l 1.62109,-0.46093 1.86914,1.01953 -1.87109,1.01953 -1.61914,-0.46289 a 0.5,0.5 0 0 0 -0.61915,0.34375 0.5,0.5 0 0 0 0.34375,0.61719 l 0.67579,0.19335 -0.78711,0.44922 a 0.5,0.5 0 0 0 -0.18555,0.6836 0.5,0.5 0 0 0 0.68164,0.18554 l 0.92969,-0.53125 -0.11524,0.80469 a 0.5,0.5 0 0 0 0.42578,0.566405 0.5,0.5 0 0 0 0.56446,-0.423825 l 0.22461,-1.57031 1.89648,-1.03516 v 2.25 l -1.05664,0.63477 a 0.5,0.5 0 0 0 -0.16992,0.685535 0.5,0.5 0 0 0 0.68555,0.17188 l 0.54101,-0.32422 v 0.93359 a 0.5,0.5 0 0 0 0.5,0.5 0.5,0.5 0 0 0 0.5,-0.5 v -0.93359 l 0.53906,0.32422 a 0.5,0.5 0 0 0 0.6875,-0.17188 0.5,0.5 0 0 0 -0.17187,-0.685535 l -1.05469,-0.63282 v -2.25 l 1.89453,1.03321 0.22461,1.57031 a 0.5,0.5 0 0 0 0.56445,0.423825 0.5,0.5 0 0 0 0.42579,-0.566405 l -0.11524,-0.80469 0.92969,0.53125 a 0.5,0.5 0 0 0 0.68164,-0.18554 0.5,0.5 0 0 0 -0.18555,-0.6836 l -0.78711,-0.44922 0.67578,-0.19335 a 0.5,0.5 0 0 0 0.34375,-0.61719 0.5,0.5 0 0 0 -0.61914,-0.34375 l -1.61914,0.46289 -1.87109,-1.01953 1.86914,-1.01953 1.62109,0.46093 a 0.5,0.5 0 0 0 0.61914,-0.34375 0.5,0.5 0 0 0 -0.34375,-0.61718 l -0.67578,-0.19336 0.78711,-0.44922 a 0.5,0.5 0 0 0 0.18555,-0.68164 0.5,0.5 0 0 0 -0.68164,-0.18555 l -0.92969,0.5293 0.11524,-0.80469 a 0.5,0.5 0 0 0 -0.42579,-0.56445 0.5,0.5 0 0 0 -0.56445,0.42382 l -0.22461,1.57032 -1.89453,1.03125 v -2.45117 l 0.98242,-0.39454 a 0.5,0.5 0 0 0 0.2793,-0.65039 0.5,0.5 0 0 0 -0.65039,-0.27734 l -0.61133,0.24414 v -0.81836 a 0.5,0.5 0 0 0 -0.5,-0.5 z"
         id="path7242" />
      <path
         style="baseline-shift:baseline;display:inline;overflow:visible;fill:#00ff00;stroke:#00ff00;stroke-width:0.264583;stroke-linecap:round;stroke-linejoin:round;stroke-dasharray:none;stroke-opacity:1;enable-background:accumulate;stop-color:#000000"
         d="m 18.576778,90.537055 a 0.5,0.5 0 0 0 -0.5,0.5 v 0.82031 l -0.61328,-0.24609 a 0.5,0.5 0 0 0 -0.65039,0.27734 0.5,0.5 0 0 0 0.2793,0.65039 l 0.98437,0.39454 v 2.45312 l -1.89648,-1.0332 -0.22461,-1.57032 a 0.5,0.5 0 0 0 -0.56446,-0.42382 0.5,0.5 0 0 0 -0.42578,0.56445 l 0.11524,0.80469 -0.92969,-0.5293 a 0.5,0.5 0 0 0 -0.68164,0.18555 0.5,0.5 0 0 0 0.18555,0.68164 l 0.78711,0.44922 -0.67579,0.19336 a 0.5,0.5 0 0 0 -0.34375,0.61718 0.5,0.5 0 0 0 0.61915,0.34375 l 1.62109,-0.46093 1.86914,1.01953 -1.87109,1.01953 -1.61914,-0.46289 a 0.5,0.5 0 0 0 -0.61915,0.34375 0.5,0.5 0 0 0 0.34375,0.61719 l 0.67579,0.19335 -0.78711,0.44922 a 0.5,0.5 0 0 0 -0.18555,0.6836 0.5,0.5 0 0 0 0.68164,0.18554 l 0.92969,-0.53125 -0.11524,0.80469 a 0.5,0.5 0 0 0 0.42578,0.566405 0.5,0.5 0 0 0 0.56446,-0.423825 l 0.22461,-1.57031 1.89648,-1.03516 v 2.25 l -1.05664,0.63477 a 0.5,0.5 0 0 0 -0.16992,0.685535 0.5,0.5 0 0 0 0.68555,0.17188 l 0.54101,-0.32422 v 0.93359 a 0.5,0.5 0 0 0 0.5,0.5 0.5,0.5 0 0 0 0.5,-0.5 v -0.93359 l 0.53906,0.32422 a 0.5,0.5 0 0 0 0.6875,-0.17188 0.5,0.5 0 0 0 -0.17187,-0.685535 l -1.05469,-0.63282 v -2.25 l 1.89453,1.03321 0.22461,1.57031 a 0.5,0.5 0 0 0 0.56445,0.423825 0.5,0.5 0 0 0 0.42579,-0.566405 l -0.11524,-0.80469 0.92969,0.53125 a 0.5,0.5 0 0 0 0.68164,-0.18554 0.5,0.5 0 0 0 -0.18555,-0.6836 l -0.78711,-0.44922 0.67578,-0.19335 a 0.5,0.5 0 0 0 0.34375,-0.61719 0.5,0.5 0 0 0 -0.61914,-0.34375 l -1.61914,0.46289 -1.87109,-1.01953 1.86914,-1.01953 1.62109,0.46093 a 0.5,0.5 0 0 0 0.61914,-0.34375 0.5,0.5 0 0 0 -0.34375,-0.61718 l -0.67578,-0.19336 0.78711,-0.44922 a 0.5,0.5 0 0 0 0.18555,-0.68164 0.5,0.5 0 0 0 -0.68164,-0.18555 l -0.92969,0.5293 0.11524,-0.80469 a 0.5,0.5 0 0 0 -0.42579,-0.56445 0.5,0.5 0 0 0 -0.56445,0.42382 l -0.22461,1.57032 -1.89453,1.03125 v -2.45117 l 0.98242,-0.39454 a 0.5,0.5 0 0 0 0.2793,-0.65039 0.5,0.5 0 0 0 -0.65039,-0.27734 l -0.61133,0.24414 v -0.81836 a 0.5,0.5 0 0 0 -0.5,-0.5 z"
         id="path7244" />
      <path
         style="baseline-shift:baseline;display:inline;overflow:visible;fill:#00ff00;stroke:#00ff00;stroke-width:0.264583;stroke-linecap:round;stroke-linejoin:round;stroke-dasharray:none;stroke-opacity:1;enable-background:accumulate;stop-color:#000000"
         d="m 40.029798,78.389212 a 0.5,0.5 0 0 0 -0.5,0.5 v 0.82031 l -0.61328,-0.24609 a 0.5,0.5 0 0 0 -0.65039,0.27734 0.5,0.5 0 0 0 0.2793,0.65039 l 0.98437,0.39454 v 2.45312 l -1.89648,-1.0332 -0.22461,-1.57032 a 0.5,0.5 0 0 0 -0.56446,-0.42382 0.5,0.5 0 0 0 -0.42578,0.56445 l 0.11524,0.80469 -0.92969,-0.5293 a 0.5,0.5 0 0 0 -0.68164,0.18555 0.5,0.5 0 0 0 0.18555,0.68164 l 0.78711,0.44922 -0.67579,0.19336 a 0.5,0.5 0 0 0 -0.34375,0.61718 0.5,0.5 0 0 0 0.61915,0.34375 l 1.62109,-0.46093 1.86914,1.01953 -1.87109,1.01953 -1.61914,-0.46289 a 0.5,0.5 0 0 0 -0.61915,0.34375 0.5,0.5 0 0 0 0.34375,0.61719 l 0.67579,0.19335 -0.78711,0.44922 a 0.5,0.5 0 0 0 -0.18555,0.6836 0.5,0.5 0 0 0 0.68164,0.18554 l 0.92969,-0.53125 -0.11524,0.80469 a 0.5,0.5 0 0 0 0.42578,0.56641 0.5,0.5 0 0 0 0.56446,-0.42383 l 0.22461,-1.57031 1.89648,-1.03516 v 2.25 l -1.05664,0.63477 a 0.5,0.5 0 0 0 -0.16992,0.68554 0.5,0.5 0 0 0 0.68555,0.17188 l 0.54101,-0.32422 v 0.93359 a 0.5,0.5 0 0 0 0.5,0.5 0.5,0.5 0 0 0 0.5,-0.5 v -0.93359 l 0.53906,0.32422 a 0.5,0.5 0 0 0 0.6875,-0.17188 0.5,0.5 0 0 0 -0.17187,-0.68554 l -1.05469,-0.63282 v -2.25 l 1.89453,1.03321 0.22461,1.57031 a 0.5,0.5 0 0 0 0.56445,0.42383 0.5,0.5 0 0 0 0.42579,-0.56641 l -0.11524,-0.80469 0.92969,0.53125 a 0.5,0.5 0 0 0 0.68164,-0.18554 0.5,0.5 0 0 0 -0.18555,-0.6836 l -0.78711,-0.44922 0.67578,-0.19335 a 0.5,0.5 0 0 0 0.34375,-0.61719 0.5,0.5 0 0 0 -0.61914,-0.34375 l -1.61914,0.46289 -1.87109,-1.01953 1.86914,-1.01953 1.62109,0.46093 a 0.5,0.5 0 0 0 0.61914,-0.34375 0.5,0.5 0 0 0 -0.34375,-0.61718 l -0.67578,-0.19336 0.78711,-0.44922 a 0.5,0.5 0 0 0 0.18555,-0.68164 0.5,0.5 0 0 0 -0.68164,-0.18555 l -0.92969,0.5293 0.11524,-0.80469 a 0.5,0.5 0 0 0 -0.42579,-0.56445 0.5,0.5 0 0 0 -0.56445,0.42382 l -0.22461,1.57032 -1.89453,1.03125 v -2.45117 l 0.98242,-0.39454 a 0.5,0.5 0 0 0 0.2793,-0.65039 0.5,0.5 0 0 0 -0.65039,-0.27734 l -0.61133,0.24414 v -0.81836 a 0.5,0.5 0 0 0 -0.5,-0.5 z"
         id="path7246" />
    </g>
    <path
       style="baseline-shift:baseline;display:inline;overflow:visible;vector-effect:non-scaling-stroke;fill:#00ff00;stroke:#00ff00;stroke-width:0.264583;stroke-linecap:round;stroke-linejoin:round;stroke-dasharray:none;stroke-opacity:1;-inkscape-stroke:hairline;enable-background:accumulate;stop-color:#000000"
       d="m 5.1543,46.169987 a 0.5,0.5 0 0 0 -0.5,0.5 v 0.82031 l -0.61328,-0.24609 a 0.5,0.5 0 0 0 -0.65039,0.27734 0.5,0.5 0 0 0 0.2793,0.65039 l 0.98437,0.39454 v 2.45312 l -1.89648,-1.0332 -0.22461,-1.57032 a 0.5,0.5 0 0 0 -0.56446,-0.42382 0.5,0.5 0 0 0 -0.42578,0.56445 l 0.11524,0.80469 -0.92969,-0.5293 a 0.5,0.5 0 0 0 -0.68164,0.18555 0.5,0.5 0 0 0 0.18555,0.68164 l 0.78711,0.44922 -0.67579,0.19336 A 0.5,0.5 0 0 0 0,50.959047 a 0.5,0.5 0 0 0 0.61915,0.34375 l 1.62109,-0.46093 1.86914,1.01953 -1.87109,1.01953 -1.61914,-0.46289 A 0.5,0.5 0 0 0 0,52.761787 a 0.5,0.5 0 0 0 0.34375,0.61719 l 0.67579,0.19335 -0.78711,0.44922 a 0.5,0.5 0 0 0 -0.18555,0.6836 0.5,0.5 0 0 0 0.68164,0.18554 l 0.92969,-0.53125 -0.11524,0.80469 a 0.5,0.5 0 0 0 0.42578,0.56641 0.5,0.5 0 0 0 0.56446,-0.42383 l 0.22461,-1.57031 1.89648,-1.03516 v 2.25 l -1.05664,0.63477 a 0.5,0.5 0 0 0 -0.16992,0.68554 0.5,0.5 0 0 0 0.68555,0.17188 l 0.54101,-0.32422 v 0.93359 a 0.5,0.5 0 0 0 0.5,0.5 0.5,0.5 0 0 0 0.5,-0.5 v -0.93359 l 0.53906,0.32422 a 0.5,0.5 0 0 0 0.6875,-0.17188 0.5,0.5 0 0 0 -0.17187,-0.68554 L 5.6543,54.953187 v -2.25 l 1.89453,1.03321 0.22461,1.57031 a 0.5,0.5 0 0 0 0.56445,0.42383 0.5,0.5 0 0 0 0.42579,-0.56641 l -0.11524,-0.80469 0.92969,0.53125 a 0.5,0.5 0 0 0 0.68164,-0.18554 0.5,0.5 0 0 0 -0.18555,-0.6836 l -0.78711,-0.44922 0.67578,-0.19335 a 0.5,0.5 0 0 0 0.34375,-0.61719 0.5,0.5 0 0 0 -0.61914,-0.34375 l -1.61914,0.46289 -1.87109,-1.01953 1.86914,-1.01953 1.62109,0.46093 a 0.5,0.5 0 0 0 0.61914,-0.34375 0.5,0.5 0 0 0 -0.34375,-0.61718 l -0.67578,-0.19336 0.78711,-0.44922 a 0.5,0.5 0 0 0 0.18555,-0.68164 0.5,0.5 0 0 0 -0.68164,-0.18555 l -0.92969,0.5293 0.11524,-0.80469 a 0.5,0.5 0 0 0 -0.42579,-0.56445 0.5,0.5 0 0 0 -0.56445,0.42382 l -0.22461,1.57032 -1.89453,1.03125 v -2.45117 l 0.98242,-0.39454 a 0.5,0.5 0 0 0 0.2793,-0.65039 0.5,0.5 0 0 0 -0.65039,-0.27734 l -0.61133,0.24414 v -0.81836 a 0.5,0.5 0 0 0 -0.5,-0.5 z"
       id="path14"
       inkscape:label="snow_flake" />
  </g>
</svg>
