<?xml version="1.0" encoding="UTF-8" standalone="no"?>
<!-- Created with Inkscape (http://www.inkscape.org/) -->

<svg
   width="24in"
   height="18in"
   viewBox="0 0 609.59999 457.2"
   version="1.1"
   id="svg1"
   inkscape:version="1.4.2 (ebf0e940, 2025-05-08)"
   sodipodi:docname="template.svg"
   inkscape:export-filename="tab.svg"
   inkscape:export-xdpi="96"
   inkscape:export-ydpi="96"
   xmlns:inkscape="http://www.inkscape.org/namespaces/inkscape"
   xmlns:sodipodi="http://sodipodi.sourceforge.net/DTD/sodipodi-0.dtd"
   xmlns:xlink="http://www.w3.org/1999/xlink"
   xmlns="http://www.w3.org/2000/svg"
   xmlns:svg="http://www.w3.org/2000/svg">
  <sodipodi:namedview
     id="namedview1"
     pagecolor="#a0a0a0"
     bordercolor="#c0c0c0"
     borderopacity="0.25098039"
     inkscape:showpageshadow="2"
     inkscape:pageopacity="0.0"
     inkscape:pagecheckerboard="false"
     inkscape:deskcolor="#909090"
     inkscape:document-units="mm"
     showguides="true"
     inkscape:zoom="0.37647582"
     inkscape:cx="950.92428"
     inkscape:cy="1001.3923"
     inkscape:window-width="1736"
     inkscape:window-height="1186"
     inkscape:window-x="574"
     inkscape:window-y="31"
     inkscape:window-maximized="0"
     inkscape:current-layer="layer1"
     inkscape:lockguides="false"
     showgrid="false"
     showborder="false">
    <inkscape:grid
       id="grid13"
       units="mm"
       originx="0"
       originy="0"
       spacingx="0.99999998"
       spacingy="1"
       empcolor="#0099e5"
       empopacity="0.30196078"
       color="#0099e5"
       opacity="0.14901961"
       empspacing="5"
       enabled="true"
       visible="false" />
  </sodipodi:namedview>
  <defs
     id="defs1">
    <rect
       x="823.28113"
       y="1379.4048"
       width="378.9274"
       height="124.03739"
       id="rect5" />
    <rect
       x="293.05536"
       y="1402.5767"
       width="293.05536"
       height="55.884979"
       id="rect9311" />
    <inkscape:path-effect
       effect="fillet_chamfer"
       id="path-effect31"
       is_visible="true"
       lpeversion="1"
       nodesatellites_param="F,0,0,1,0,0,0,1 @ F,0,0,1,0,11.999022,0,1 @ F,0,0,1,0,0,0,1 @ F,0,0,1,0,0,0,1 @ F,0,0,1,0,0,0,1 @ F,0,0,1,0,0,0,1 @ F,0,0,1,0,0,0,1 @ F,0,0,1,0,0,0,1 @ F,0,0,1,0,0,0,1 @ F,0,0,1,0,0,0,1 @ F,0,0,1,0,0,0,1 @ F,0,0,1,0,0,0,1 @ F,0,0,1,0,0,0,1 @ F,0,0,1,0,0,0,1 @ F,0,0,1,0,0,0,1 @ F,0,0,1,0,0,0,1 @ F,0,0,1,0,0,0,1 @ F,0,0,1,0,0,0,1 @ F,0,0,1,0,0,0,1 @ F,0,0,1,0,0,0,1 @ F,0,0,1,0,0,0,1 @ F,0,0,1,0,0,0,1 @ F,0,0,1,0,0,0,1 @ F,0,0,1,0,0,0,1 @ F,0,0,1,0,0,0,1 @ F,0,0,1,0,0,0,1 @ F,0,0,1,0,0,0,1 @ F,0,0,1,0,0,0,1 @ F,0,0,1,0,0,0,1 @ F,0,0,1,0,0,0,1 @ F,0,0,1,0,0,0,1"
       radius="0"
       unit="px"
       method="auto"
       mode="F"
       chamfer_steps="1"
       flexible="false"
       use_knot_distance="true"
       apply_no_radius="true"
       apply_with_radius="true"
       only_selected="false"
       hide_knots="false" />
    <inkscape:path-effect
       effect="fillet_chamfer"
       id="path-effect30"
       is_visible="true"
       lpeversion="1"
       nodesatellites_param="F,0,0,1,0,0,0,1 @ F,0,0,1,0,15.495876,0,1 @ F,0,0,1,0,0,0,1 @ F,0,0,1,0,0,0,1 @ F,0,0,1,0,0,0,1 @ F,0,0,1,0,0,0,1 @ F,0,0,1,0,0,0,1 @ F,0,0,1,0,0,0,1 @ F,0,0,1,0,0,0,1 @ F,0,0,1,0,0,0,1 @ F,0,0,1,0,0,0,1 @ F,0,0,1,0,0,0,1 @ F,0,0,1,0,0,0,1 @ F,0,0,1,0,0,0,1 @ F,0,0,1,0,0,0,1 @ F,0,0,1,0,0,0,1 @ F,0,0,1,0,0,0,1 @ F,0,0,1,0,0,0,1 @ F,0,0,1,0,0,0,1 @ F,0,0,1,0,0,0,1 @ F,0,0,1,0,0,0,1 @ F,0,0,1,0,0,0,1 @ F,0,0,1,0,0,0,1 @ F,0,0,1,0,0,0,1 @ F,0,0,1,0,0,0,1 @ F,0,0,1,0,0,0,1 @ F,0,0,1,0,0,0,1 @ F,0,0,1,0,0,0,1 @ F,0,0,1,0,0,0,1 @ F,0,0,1,0,0,0,1 @ F,0,0,1,0,0,0,1 | F,0,0,1,0,0,0,1 @ F,0,0,1,0,0,0,1 @ F,0,0,1,0,0,0,1 @ F,0,0,1,0,0,0,1 | F,0,0,1,0,0,0,1 @ F,0,0,1,0,0,0,1 @ F,0,0,1,0,0,0,1 @ F,0,0,1,0,0,0,1 | F,0,0,1,0,0,0,1 @ F,0,0,1,0,0,0,1 @ F,0,0,1,0,0,0,1 @ F,0,0,1,0,0,0,1 | F,0,0,1,0,0,0,1 @ F,0,0,1,0,0,0,1 @ F,0,0,1,0,0,0,1 @ F,0,0,1,0,0,0,1"
       radius="0"
       unit="px"
       method="auto"
       mode="F"
       chamfer_steps="1"
       flexible="false"
       use_knot_distance="true"
       apply_no_radius="true"
       apply_with_radius="true"
       only_selected="false"
       hide_knots="false" />
    <inkscape:path-effect
       effect="fillet_chamfer"
       id="path-effect21"
       is_visible="true"
       lpeversion="1"
       nodesatellites_param="F,0,0,1,0,0,0,1 @ F,0,0,1,0,0,0,1 @ F,0,0,1,0,0,0,1 @ F,0,0,1,0,0,0,1 @ F,0,0,1,0,0.65408706,0,1 @ F,0,1,1,0,0.65408706,0,1 @ F,0,0,1,0,0,0,1 @ F,0,0,1,0,0,0,1 @ F,0,1,1,0,0.65408706,0,1 @ F,0,1,1,0,0.65408706,0,1 @ F,0,0,1,0,0,0,1 @ F,0,0,1,0,0,0,1 @ F,0,0,1,0,0,0,1 @ F,0,0,1,0,0,0,1 @ F,0,0,1,0,0,0,1 @ F,0,0,1,0,0,0,1 @ F,0,0,1,0,0,0,1 @ F,0,0,1,0,0,0,1 @ F,0,0,1,0,0,0,1 @ F,0,0,1,0,0,0,1 @ F,0,0,1,0,0,0,1 @ F,0,0,1,0,0,0,1 @ F,0,0,1,0,0,0,1 @ F,0,0,1,0,0,0,1 @ F,0,0,1,0,0,0,1 @ F,0,0,1,0,0,0,1 @ F,0,0,1,0,0,0,1 @ F,0,0,1,0,0,0,1 @ F,0,0,1,0,0,0,1 @ F,0,0,1,0,0,0,1 @ F,0,0,1,0,0,0,1 @ F,0,1,1,0,0.65408706,0,1 @ F,0,1,1,0,0.65408706,0,1 @ F,0,0,1,0,0,0,1 @ F,0,0,1,0,0,0,1 @ F,0,1,1,0,0.65408706,0,1 @ F,0,1,1,0,0.65408706,0,1 @ F,0,0,1,0,0,0,1 @ F,0,0,1,0,0,0,1 @ F,0,0,1,0,0,0,1 @ F,0,0,1,0,0,0,1 @ F,0,0,1,0,0,0,1 @ F,0,0,1,0,0,0,1 @ F,0,0,1,0,0,0,1 @ F,0,0,1,0,0,0,1 @ F,0,0,1,0,0,0,1 @ F,0,0,1,0,0,0,1 @ F,0,0,1,0,0,0,1 | F,0,0,1,0,0,0,1 @ F,0,0,1,0,0,0,1 @ F,0,0,1,0,0,0,1 @ F,0,0,1,0,0,0,1 | F,0,0,1,0,0,0,1 @ F,0,0,1,0,0,0,1 @ F,0,0,1,0,0,0,1 @ F,0,0,1,0,0,0,1 | F,0,0,1,0,0,0,1 @ F,0,0,1,0,0,0,1 @ F,0,0,1,0,0,0,1 @ F,0,0,1,0,0,0,1 | F,0,0,1,0,0,0,1 @ F,0,0,1,0,0,0,1 @ F,0,0,1,0,0,0,1 @ F,0,0,1,0,0,0,1 | F,0,0,1,0,0,0,1 @ F,0,0,1,0,0,0,1 @ F,0,0,1,0,0,0,1 @ F,0,0,1,0,0,0,1 | F,0,0,1,0,0,0,1 @ F,0,0,1,0,0,0,1 @ F,0,0,1,0,0,0,1 @ F,0,0,1,0,0,0,1"
       radius="0"
       unit="px"
       method="auto"
       mode="F"
       chamfer_steps="1"
       flexible="false"
       use_knot_distance="true"
       apply_no_radius="true"
       apply_with_radius="true"
       only_selected="false"
       hide_knots="false" />
    <inkscape:path-effect
       effect="fillet_chamfer"
       id="path-effect20"
       is_visible="true"
       lpeversion="1"
       nodesatellites_param="F,0,0,1,0,0,0,1 @ F,0,0,1,0,0,0,1 @ F,0,0,1,0,0,0,1 @ F,0,0,1,0,0,0,1 @ F,0,0,1,0,0,0,1 @ F,0,0,1,0,0,0,1 @ F,0,0,1,0,0,0,1 @ F,0,0,1,0,0,0,1 @ F,0,0,1,0,0,0,1 @ F,0,0,1,0,0,0,1 @ F,0,0,1,0,0,0,1 @ F,0,0,1,0,0,0,1 @ F,0,0,1,0,0,0,1 @ F,0,0,1,0,0,0,1 @ F,0,0,1,0,0,0,1 @ F,0,0,1,0,0,0,1 @ F,0,0,1,0,0,0,1 @ F,0,0,1,0,0,0,1 @ F,0,0,1,0,0,0,1 @ F,0,0,1,0,0,0,1 @ F,0,0,1,0,0,0,1 @ F,0,0,1,0,0,0,1 @ F,0,0,1,0,0,0,1 @ F,0,0,1,0,0,0,1 @ F,0,0,1,0,0,0,1 @ F,0,0,1,0,0,0,1 @ F,0,0,1,0,0,0,1 @ F,0,0,1,0,0,0,1 @ F,0,0,1,0,0,0,1 @ F,0,0,1,0,0,0,1 @ F,0,0,1,0,0,0,1 @ F,0,0,1,0,0,0,1 @ F,0,0,1,0,0,0,1 @ F,0,0,1,0,0,0,1 @ F,0,0,1,0,0,0,1 @ F,0,0,1,0,0,0,1 @ F,0,0,1,0,0,0,1 @ F,0,0,1,0,0,0,1 @ F,0,0,1,0,0,0,1 @ F,0,1,1,0,0,0,1 @ F,0,1,1,0,0,0,1 @ F,0,0,1,0,0,0,1 @ F,0,0,1,0,0,0,1 @ F,0,1,1,0,0,0,1 @ F,0,1,1,0,0,0,1 @ F,0,0,1,0,0,0,1 @ F,0,0,1,0,0,0,1 @ F,0,1,1,0,0,0,1 | F,0,0,1,0,0,0,1 @ F,0,0,1,0,0,0,1 @ F,0,0,1,0,0,0,1 @ F,0,0,1,0,0,0,1 | F,0,0,1,0,0,0,1 @ F,0,0,1,0,0,0,1 @ F,0,0,1,0,0,0,1 @ F,0,0,1,0,0,0,1 | F,0,0,1,0,0,0,1 @ F,0,0,1,0,0,0,1 @ F,0,0,1,0,0,0,1 @ F,0,0,1,0,0,0,1 | F,0,0,1,0,0,0,1 @ F,0,0,1,0,0,0,1 @ F,0,0,1,0,0,0,1 @ F,0,0,1,0,0,0,1 | F,0,0,1,0,0,0,1 @ F,0,0,1,0,0,0,1 @ F,0,0,1,0,0,0,1 @ F,0,0,1,0,0,0,1 | F,0,0,1,0,0,0,1 @ F,0,0,1,0,0,0,1 @ F,0,0,1,0,0,0,1 @ F,0,0,1,0,0,0,1"
       radius="0"
       unit="px"
       method="auto"
       mode="F"
       chamfer_steps="1"
       flexible="false"
       use_knot_distance="true"
       apply_no_radius="true"
       apply_with_radius="true"
       only_selected="false"
       hide_knots="false" />
    <inkscape:path-effect
       effect="fillet_chamfer"
       id="path-effect19"
       is_visible="true"
       lpeversion="1"
       nodesatellites_param="F,0,0,1,0,0.86510736,0,1 @ F,0,1,1,0,0.86510736,0,1 @ F,0,0,1,0,0,0,1 @ F,0,0,1,0,0,0,1 @ F,0,1,1,0,0.86510736,0,1 @ F,0,1,1,0,0.86510736,0,1 @ F,0,0,1,0,0,0,1 @ F,0,0,1,0,0,0,1 @ F,0,0,1,0,0,0,1 @ F,0,0,1,0,0,0,1 @ F,0,0,1,0,0,0,1 @ F,0,0,1,0,0,0,1 @ F,0,0,1,0,0,0,1 @ F,0,0,1,0,0,0,1 @ F,0,0,1,0,0,0,1 @ F,0,0,1,0,0,0,1 @ F,0,0,1,0,0,0,1 @ F,0,0,1,0,0,0,1 @ F,0,0,1,0,0,0,1 @ F,0,0,1,0,0,0,1 @ F,0,0,1,0,0,0,1 @ F,0,0,1,0,0,0,1 @ F,0,0,1,0,0,0,1 @ F,0,0,1,0,0,0,1 @ F,0,0,1,0,0,0,1 @ F,0,0,1,0,0,0,1 @ F,0,0,1,0,0,0,1 @ F,0,0,1,0,0,0,1 @ F,0,0,1,0,0,0,1 @ F,0,0,1,0,0,0,1 @ F,0,0,1,0,0,0,1 @ F,0,0,1,0,0,0,1 @ F,0,0,1,0,0,0,1 @ F,0,0,1,0,0,0,1 @ F,0,0,1,0,0,0,1 @ F,0,0,1,0,0,0,1 @ F,0,0,1,0,0,0,1 @ F,0,0,1,0,0,0,1 @ F,0,0,1,0,0,0,1 @ F,0,0,1,0,0,0,1 @ F,0,1,1,0,0.86510736,0,1 @ F,0,1,1,0,0.86510736,0,1 @ F,0,0,1,0,0,0,1 @ F,0,0,1,0,0,0,1 @ F,0,1,1,0,0.86510736,0,1 @ F,0,1,1,0,0.86510736,0,1 @ F,0,0,1,0,0,0,1 @ F,0,0,1,0,0,0,1 @ F,0,0,1,0,0,0,1"
       radius="0"
       unit="px"
       method="auto"
       mode="F"
       chamfer_steps="1"
       flexible="false"
       use_knot_distance="true"
       apply_no_radius="true"
       apply_with_radius="true"
       only_selected="false"
       hide_knots="false" />
    <inkscape:path-effect
       effect="fillet_chamfer"
       id="path-effect18"
       is_visible="true"
       lpeversion="1"
       nodesatellites_param="F,0,0,1,0,0.59980932,0,1 @ F,0,1,1,0,0.59980932,0,1 @ F,0,0,1,0,0,0,1 @ F,0,0,1,0,0,0,1 @ F,0,1,1,0,0.59980932,0,1 @ F,0,1,1,0,0.59980932,0,1 @ F,0,0,1,0,0,0,1 @ F,0,0,1,0,0,0,1 @ F,0,0,1,0,0,0,1 @ F,0,0,1,0,0,0,1 @ F,0,0,1,0,0,0,1 @ F,0,0,1,0,0,0,1 @ F,0,0,1,0,0,0,1 @ F,0,0,1,0,0,0,1 @ F,0,0,1,0,0,0,1 @ F,0,0,1,0,0,0,1 @ F,0,0,1,0,0,0,1 @ F,0,0,1,0,0,0,1 @ F,0,0,1,0,0,0,1 @ F,0,0,1,0,0,0,1 @ F,0,0,1,0,0,0,1 @ F,0,0,1,0,0,0,1 @ F,0,0,1,0,0,0,1 @ F,0,0,1,0,0,0,1 @ F,0,0,1,0,0,0,1 @ F,0,0,1,0,0,0,1 @ F,0,0,1,0,0,0,1 @ F,0,0,1,0,0,0,1 @ F,0,0,1,0,0,0,1 @ F,0,0,1,0,0,0,1 @ F,0,0,1,0,0,0,1 @ F,0,0,1,0,0,0,1 @ F,0,0,1,0,0,0,1 @ F,0,0,1,0,0,0,1 @ F,0,0,1,0,0,0,1 @ F,0,0,1,0,0,0,1 @ F,0,0,1,0,0,0,1 @ F,0,0,1,0,0,0,1 @ F,0,0,1,0,0,0,1 @ F,0,1,1,0,0.59980932,0,1 @ F,0,1,1,0,0.59980932,0,1 @ F,0,0,1,0,0,0,1 @ F,0,0,1,0,0,0,1 @ F,0,1,1,0,0.59980932,0,1 @ F,0,1,1,0,0.59980932,0,1 @ F,0,0,1,0,0,0,1 @ F,0,0,1,0,0,0,1 @ F,0,0,1,0,0,0,1"
       radius="0"
       unit="px"
       method="auto"
       mode="F"
       chamfer_steps="1"
       flexible="false"
       use_knot_distance="true"
       apply_no_radius="true"
       apply_with_radius="true"
       only_selected="false"
       hide_knots="false" />
    <inkscape:path-effect
       effect="fillet_chamfer"
       id="path-effect17"
       is_visible="true"
       lpeversion="1"
       nodesatellites_param="F,0,1,1,0,0.71736501,0,1 @ F,0,1,1,0,0.71736501,0,1 @ F,0,0,1,0,0,0,1 @ F,0,0,1,0,0,0,1 @ F,0,1,1,0,0.71736501,0,1 @ F,0,1,1,0,0.71736501,0,1 @ F,0,0,1,0,0,0,1 @ F,0,0,1,0,0,0,1 @ F,0,0,1,0,0,0,1 @ F,0,0,1,0,0,0,1 @ F,0,0,1,0,0,0,1 @ F,0,0,1,0,0,0,1 @ F,0,0,1,0,0,0,1 @ F,0,0,1,0,0,0,1 @ F,0,0,1,0,0,0,1 @ F,0,0,1,0,0,0,1 @ F,0,0,1,0,0,0,1 @ F,0,0,1,0,0,0,1 @ F,0,0,1,0,0,0,1 @ F,0,0,1,0,0,0,1 @ F,0,0,1,0,0,0,1 @ F,0,0,1,0,0,0,1 @ F,0,0,1,0,0,0,1 @ F,0,0,1,0,0,0,1 @ F,0,0,1,0,0,0,1 @ F,0,0,1,0,0,0,1 @ F,0,0,1,0,0,0,1 @ F,0,0,1,0,0,0,1 @ F,0,0,1,0,0,0,1 @ F,0,0,1,0,0,0,1 @ F,0,0,1,0,0,0,1 @ F,0,0,1,0,0,0,1 @ F,0,0,1,0,0,0,1 @ F,0,0,1,0,0,0,1 @ F,0,0,1,0,0,0,1 @ F,0,0,1,0,0,0,1 @ F,0,0,1,0,0,0,1 @ F,0,0,1,0,0,0,1 @ F,0,0,1,0,0,0,1 @ F,0,1,1,0,0.71736501,0,1 @ F,0,1,1,0,0.71736501,0,1 @ F,0,0,1,0,0,0,1 @ F,0,0,1,0,0,0,1 @ F,0,1,1,0,0.71736501,0,1 @ F,0,0,1,0,0.71736501,0,1 @ F,0,0,1,0,0,0,1 @ F,0,0,1,0,0,0,1 @ F,0,0,1,0,0,0,1"
       radius="0"
       unit="px"
       method="auto"
       mode="F"
       chamfer_steps="1"
       flexible="false"
       use_knot_distance="true"
       apply_no_radius="true"
       apply_with_radius="true"
       only_selected="false"
       hide_knots="false" />
    <inkscape:path-effect
       effect="fillet_chamfer"
       id="path-effect16"
       nodesatellites_param="F,0,0,1,0,0,0,1 @ F,0,0,1,0,0,0,1 @ F,0,0,1,0,0,0,1 @ F,0,0,1,0,0,0,1 @ F,0,0,1,0,0,0,1 @ F,0,0,1,0,0,0,1 @ F,0,0,1,0,0,0,1 @ F,0,0,1,0,0,0,1 @ F,0,0,1,0,0,0,1 @ F,0,0,1,0,0,0,1 @ F,0,0,1,0,0,0,1 @ F,0,0,1,0,0,0,1 @ F,0,0,1,0,0,0,1 @ F,0,0,1,0,0,0,1 @ F,0,0,1,0,0,0,1 @ F,0,0,1,0,0,0,1 @ F,0,0,1,0,0,0,1 @ F,0,0,1,0,0,0,1 @ F,0,0,1,0,0,0,1 @ F,0,0,1,0,0,0,1 @ F,0,0,1,0,0,0,1 @ F,0,0,1,0,0,0,1 @ F,0,0,1,0,0,0,1 @ F,0,0,1,0,0,0,1 @ F,0,0,1,0,0,0,1 @ F,0,0,1,0,0,0,1 @ F,0,0,1,0,0,0,1 @ F,0,0,1,0,0,0,1 @ F,0,0,1,0,0,0,1 @ F,0,0,1,0,0,0,1 @ F,0,0,1,0,0,0,1 @ F,0,0,1,0,0,0,1 @ F,0,0,1,0,0,0,1 @ F,0,0,1,0,0,0,1 @ F,0,0,1,0,0,0,1 @ F,0,0,1,0,0,0,1 @ F,0,0,1,0,0,0,1 @ F,0,0,1,0,0,0,1 @ F,0,0,1,0,0,0,1 @ F,0,0,1,0,0,0,1 @ F,0,0,1,0,0,0,1 @ F,0,0,1,0,0,0,1 @ F,0,0,1,0,0,0,1 @ F,0,0,1,0,0,0,1 @ F,0,0,1,0,0,0,1 @ F,0,0,1,0,0,0,1 @ F,0,0,1,0,0,0,1 @ F,0,0,1,0,0,0,1"
       is_visible="true"
       lpeversion="1"
       radius="0"
       unit="px"
       method="auto"
       mode="F"
       chamfer_steps="1"
       flexible="false"
       use_knot_distance="true"
       apply_no_radius="true"
       apply_with_radius="true"
       only_selected="false"
       hide_knots="false" />
    <rect
       x="422.23398"
       y="322.14398"
       width="135.88377"
       height="105.39278"
       id="rect4" />
    <inkscape:path-effect
       effect="fillet_chamfer"
       id="path-effect10"
       is_visible="true"
       lpeversion="1"
       nodesatellites_param="F,0,0,1,0,0,0,1 @ F,0,0,1,0,0,0,1 @ F,0,0,1,0,0,0,1 @ F,0,0,1,0,0,0,1 | F,0,0,1,0,0,0,1 @ F,0,0,1,0,0,0,1 @ F,0,0,1,0,0,0,1 @ F,0,0,1,0,0,0,1 | F,0,0,1,0,0,0,1 @ F,0,0,1,0,0,0,1 @ F,0,0,1,0,0,0,1 @ F,0,0,1,0,0,0,1 | F,0,0,1,0,0,0,1 @ F,0,0,1,0,0,0,1 @ F,0,0,1,0,0,0,1 @ F,0,0,1,0,0,0,1 | F,0,0,1,0,0,0,1 @ F,0,0,1,0,0,0,1 @ F,0,0,1,0,0,0,1 @ F,0,0,1,0,0,0,1 | F,0,0,1,0,0,0,1 @ F,0,0,1,0,0,0,1 @ F,0,0,1,0,0,0,1 @ F,0,0,1,0,0,0,1 | F,0,0,1,0,0,0,1 @ F,0,0,1,0,0,0,1 @ F,0,0,1,0,0,0,1 @ F,0,0,1,0,0,0,1 | F,0,0,1,0,0,0,1 @ F,0,0,1,0,0,0,1 @ F,0,0,1,0,0,0,1 @ F,0,0,1,0,0,0,1"
       radius="0"
       unit="px"
       method="auto"
       mode="F"
       chamfer_steps="1"
       flexible="false"
       use_knot_distance="true"
       apply_no_radius="true"
       apply_with_radius="true"
       only_selected="false"
       hide_knots="false" />
    <inkscape:path-effect
       effect="fillet_chamfer"
       id="path-effect9"
       is_visible="true"
       lpeversion="1"
       nodesatellites_param="F,0,0,1,0,0.59143056,0,1 @ F,0,0,1,0,0,0,1 @ F,0,0,1,0,0,0,1 @ F,0,0,1,0,0,0,1 @ F,0,0,1,0,0,0,1 @ F,0,0,1,0,0,0,1 @ F,0,0,1,0,0,0,1 @ F,0,0,1,0,0,0,1 @ F,0,0,1,0,0,0,1 @ F,0,0,1,0,0,0,1 @ F,0,0,1,0,0,0,1 @ F,0,0,1,0,0,0,1 @ F,0,0,1,0,0,0,1 @ F,0,0,1,0,0,0,1 @ F,0,0,1,0,0,0,1 @ F,0,1,1,0,0.59143056,0,1 @ F,0,1,1,0,0.59143056,0,1 @ F,0,0,1,0,0,0,1 @ F,0,0,1,0,0,0,1 @ F,0,1,1,0,0.59143056,0,1 @ F,0,1,1,0,0.59143056,0,1 @ F,0,0,1,0,0,0,1 @ F,0,0,1,0,0,0,1 @ F,0,0,1,0,0,0,1 @ F,0,0,1,0,0,0,1 @ F,0,0,1,0,0,0,1 @ F,0,0,1,0,0,0,1 @ F,0,0,1,0,0,0,1 @ F,0,0,1,0,0,0,1 @ F,0,0,1,0,0,0,1 @ F,0,0,1,0,0,0,1 @ F,0,0,1,0,0,0,1 @ F,0,0,1,0,0,0,1 @ F,0,0,1,0,0,0,1 @ F,0,0,1,0,0,0,1 @ F,0,1,1,0,0.59143056,0,1 @ F,0,1,1,0,0.59143056,0,1 @ F,0,0,1,0,0,0,1 @ F,0,0,1,0,0,0,1 @ F,0,1,1,0,0.59143056,0,1 | F,0,0,1,0,0,0,1 @ F,0,0,1,0,0,0,1 @ F,0,0,1,0,0,0,1 @ F,0,0,1,0,0,0,1 | F,0,0,1,0,0,0,1 @ F,0,0,1,0,0,0,1 @ F,0,0,1,0,0,0,1 @ F,0,0,1,0,0,0,1"
       radius="0"
       unit="px"
       method="auto"
       mode="F"
       chamfer_steps="1"
       flexible="false"
       use_knot_distance="true"
       apply_no_radius="true"
       apply_with_radius="true"
       only_selected="false"
       hide_knots="false" />
    <inkscape:path-effect
       effect="fillet_chamfer"
       id="path-effect2"
       is_visible="true"
       lpeversion="1"
       nodesatellites_param="F,0,1,1,0,0.54442367,0,1 @ F,0,0,1,0,0,0,1 @ F,0,0,1,0,0,0,1 @ F,0,0,1,0,0,0,1 @ F,0,1,1,0,0.54442367,0,1 @ F,0,1,1,0,0.54442367,0,1 @ F,0,0,1,0,0,0,1 @ F,0,0,1,0,0,0,1 @ F,0,1,1,0,0.54442367,0,1 @ F,0,1,1,0,0.54442367,0,1 @ F,0,0,1,0,0,0,1 @ F,0,0,1,0,0,0,1 @ F,0,0,1,0,0,0,1 @ F,0,0,1,0,0,0,1 @ F,0,0,1,0,0,0,1 @ F,0,0,1,0,0,0,1 @ F,0,0,1,0,0,0,1 @ F,0,0,1,0,0,0,1 @ F,0,0,1,0,0,0,1 @ F,0,0,1,0,0,0,1 @ F,0,0,1,0,0,0,1 @ F,0,0,1,0,0,0,1 @ F,0,0,1,0,0,0,1 @ F,0,0,1,0,0,0,1 @ F,0,0,1,0,0,0,1 @ F,0,0,1,0,0,0,1 @ F,0,0,1,0,0,0,1 @ F,0,0,1,0,0,0,1 @ F,0,0,1,0,0,0,1 @ F,0,0,1,0,0,0,1 @ F,0,0,1,0,0,0,1 @ F,0,0,1,0,0.54442367,0,1 @ F,0,1,1,0,0.54442367,0,1 @ F,0,0,1,0,0,0,1 @ F,0,0,1,0,0,0,1 @ F,0,1,1,0,0.54442367,0,1 @ F,0,1,1,0,0.54442367,0,1 @ F,0,0,1,0,0,0,1 @ F,0,0,1,0,0,0,1 @ F,0,0,1,0,0,0,1 @ F,0,1,1,0,0.54442367,0,1 @ F,0,0,1,0,0,0,1 @ F,0,0,1,0,0,0,1 @ F,0,1,1,0,0.54442367,0,1 @ F,0,1,1,0,0.54442367,0,1 @ F,0,0,1,0,0,0,1 @ F,0,0,1,0,0,0,1 @ F,0,1,1,0,0.54442367,0,1 | F,0,0,1,0,0,0,1 @ F,0,0,1,0,0,0,1 @ F,0,0,1,0,0,0,1 @ F,0,0,1,0,0,0,1 | F,0,0,1,0,0,0,1 @ F,0,0,1,0,0,0,1 @ F,0,0,1,0,0,0,1 @ F,0,0,1,0,0,0,1 | F,0,0,1,0,0,0,1 @ F,0,0,1,0,0,0,1 @ F,0,0,1,0,0,0,1 @ F,0,0,1,0,0,0,1 | F,0,0,1,0,0,0,1 @ F,0,0,1,0,0,0,1 @ F,0,0,1,0,0,0,1 @ F,0,0,1,0,0,0,1 | F,0,0,1,0,0,0,1 @ F,0,0,1,0,0,0,1 @ F,0,0,1,0,0,0,1 @ F,0,0,1,0,0,0,1 | F,0,0,1,0,0,0,1 @ F,0,0,1,0,0,0,1 @ F,0,0,1,0,0,0,1 @ F,0,0,1,0,0,0,1"
       radius="0"
       unit="px"
       method="auto"
       mode="F"
       chamfer_steps="1"
       flexible="false"
       use_knot_distance="true"
       apply_no_radius="true"
       apply_with_radius="true"
       only_selected="false"
       hide_knots="false" />
    <inkscape:path-effect
       effect="fillet_chamfer"
       id="path-effect1"
       is_visible="true"
       lpeversion="1"
       nodesatellites_param="F,0,0,1,0,0,0,1 @ F,0,0,1,0,0,0,1 @ F,0,0,1,0,0,0,1 @ F,0,0,1,0,0.89584927,0,1 @ F,0,1,1,0,0.89584927,0,1 @ F,0,0,1,0,0,0,1 @ F,0,0,1,0,0,0,1 @ F,0,0,1,0,0,0,1 @ F,0,0,1,0,0,0,1 @ F,0,0,1,0,0,0,1"
       radius="0"
       unit="px"
       method="auto"
       mode="F"
       chamfer_steps="1"
       flexible="false"
       use_knot_distance="true"
       apply_no_radius="true"
       apply_with_radius="true"
       only_selected="false"
       hide_knots="false" />
    <inkscape:path-effect
       effect="fillet_chamfer"
       id="path-effect14"
       is_visible="true"
       lpeversion="1"
       nodesatellites_param="F,0,0,1,0,1.9219205,0,1 @ F,0,0,1,0,0,0,1 @ F,0,0,1,0,0,0,1 @ F,0,0,1,0,0,0,1 @ F,0,0,1,0,0,0,1 @ F,0,0,1,0,0,0,1 @ F,0,0,1,0,0,0,1 @ F,0,0,1,0,0,0,1 @ F,0,0,1,0,0,0,1 @ F,0,0,1,0,0,0,1 @ F,0,0,1,0,0,0,1 @ F,0,0,1,0,0,0,1 @ F,0,0,1,0,0,0,1 @ F,0,0,1,0,0,0,1 @ F,0,0,1,0,0,0,1 @ F,0,0,1,0,0,0,1 @ F,0,0,1,0,0,0,1 @ F,0,0,1,0,0,0,1 @ F,0,0,1,0,0,0,1 @ F,0,0,1,0,0,0,1 @ F,0,0,1,0,0,0,1 @ F,0,0,1,0,0,0,1 @ F,0,0,1,0,0,0,1 @ F,0,0,1,0,0,0,1 @ F,0,0,1,0,0,0,1 @ F,0,0,1,0,0,0,1 @ F,0,0,1,0,0,0,1 @ F,0,0,1,0,0,0,1"
       radius="0"
       unit="px"
       method="auto"
       mode="F"
       chamfer_steps="1"
       flexible="false"
       use_knot_distance="true"
       apply_no_radius="true"
       apply_with_radius="true"
       only_selected="false"
       hide_knots="false" />
    <rect
       x="890.23407"
       y="458.64859"
       width="424.46359"
       height="239.29492"
       id="rect3" />
    <rect
       x="920.14594"
       y="574.02295"
       width="344.69864"
       height="65.521233"
       id="rect1" />
  </defs>
  <g
     inkscape:label="Layer 1"
     inkscape:groupmode="layer"
     id="layer1">
    <g
       id="g72"
       transform="translate(0,-163.04311)"
       inkscape:export-filename="roof.svg"
       inkscape:export-xdpi="96"
       inkscape:export-ydpi="96"
       style="opacity:1;vector-effect:non-scaling-stroke;stroke-width:0.264583;stroke-dasharray:none;-inkscape-stroke:hairline"
       inkscape:label="roof">
      <path
         id="rect2"
         style="opacity:1;vector-effect:non-scaling-stroke;fill:none;stroke:#ff0000;stroke-width:0.264583;stroke-dasharray:none;-inkscape-stroke:hairline"
         d="m 19.199862,255.86707 v 2.99982 H 2.9998169 v 9.80063 H 0 v 10.399 h 2.9998169 v 19.6 H 0 v 10.4 h 2.9998169 v 11.8002 c -6.7e-5,2.94743 1.5723008,5.671 4.1248128,7.14478 2.552595,1.47378 5.6975453,1.47378 8.2501423,0 2.55251,-1.47378 4.124883,-4.19735 4.124813,-7.14478 4e-5,2.94754 1.57262,5.67113 4.12533,7.14478 2.5526,1.47378 5.697552,1.47378 8.250142,0 2.55251,-1.47378 4.124873,-4.19735 4.124813,-7.14478 -7e-5,2.94743 1.572303,5.671 4.124813,7.14478 2.55259,1.47378 5.697552,1.47378 8.250142,0 2.55251,-1.47378 4.124883,-4.19735 4.124813,-7.14478 4e-5,2.94754 1.572619,5.67113 4.125329,7.14478 2.55247,1.47358 5.697156,1.47358 8.249626,0 2.55271,-1.47365 4.12529,-4.19724 4.12533,-7.14478 -7e-5,2.94743 1.572303,5.671 4.124813,7.14478 2.5526,1.47378 5.697552,1.47378 8.250142,0 2.55251,-1.47378 4.124873,-4.19735 4.124813,-7.14478 3e-5,2.94754 1.572609,5.67113 4.125329,7.14478 2.55246,1.47358 5.697166,1.47358 8.249626,0 2.552714,-1.47365 4.125294,-4.19724 4.125334,-7.14478 v -11.8002 h 3.00033 v -10.4 h -3.00033 v -19.6 h 3.00033 l -5.2e-4,-10.399 h -2.99981 v -9.80063 -2.99982 H 85.199967 v 2.99982 H 68.999923 v -2.99982 H 52.199915 v 2.99982 H 35.99987 v -2.99982 z m -9.1999556,13.00024 h 2.5001056 v 10.00042 H 9.9999064 Z m 82.4998736,0 h 2.500106 v 10.00042 H 92.49978 Z M 9.9999064,298.86703 h 2.5001056 v 10.00042 H 9.9999064 Z m 82.4998736,0 h 2.500106 v 10.00042 H 92.49978 Z m -59.999955,16.82016 h 9.999906 v 2.99982 h -9.999906 z m 30.000236,0 h 9.999906 v 2.99982 h -9.999906 z"
         sodipodi:nodetypes="ccccccccccccccccccccccccccccccccccccccccccccccccccccccccccccccccccccccccccccccc"
         inkscape:label="body" />
      <g
         id="g27"
         style="opacity:1;vector-effect:non-scaling-stroke;stroke-width:0.264583;stroke-dasharray:none;-inkscape-stroke:hairline"
         transform="translate(-7.000077,9.867)"
         inkscape:label="shingles">
        <path
           id="path15"
           style="opacity:0.448276;vector-effect:non-scaling-stroke;fill:none;stroke:#000080;stroke-width:0.264583;stroke-dasharray:none;-inkscape-stroke:hairline"
           d="m 9.9999064,265 c -6.38e-5,2.94743 1.5723036,5.671 4.1248126,7.14478 2.552595,1.47378 5.697547,1.47378 8.250142,0 C 24.92737,270.671 26.499738,267.94743 26.499674,265 m 0,0 c 4.3e-5,2.94753 1.572622,5.67113 4.12533,7.14478 2.552595,1.47378 5.697547,1.47378 8.250142,0 2.552509,-1.47378 4.124877,-4.19735 4.124813,-7.14478 m 0,0 c -6.4e-5,2.94743 1.572304,5.671 4.124813,7.14478 2.552595,1.47378 5.697547,1.47378 8.250142,0 2.552509,-1.47378 4.124877,-4.19735 4.124813,-7.14478 m 0,0 c 4.3e-5,2.94753 1.572622,5.67113 4.12533,7.14478 2.552464,1.47358 5.697161,1.47358 8.249625,0 2.552708,-1.47365 4.125287,-4.19725 4.12533,-7.14478 m 0,0 c -6.4e-5,2.94743 1.572304,5.671 4.124813,7.14478 2.552595,1.47378 5.697547,1.47378 8.250142,0 C 90.927476,270.671 92.499844,267.94743 92.49978,265 m 0,0 c 4.3e-5,2.94753 1.572622,5.67113 4.125329,7.14478 2.552464,1.47358 5.697171,1.47358 8.249631,0 2.55271,-1.47365 4.12529,-4.19725 4.12533,-7.14478"
           sodipodi:nodetypes="csscccsccssccssccssccssc" />
        <path
           id="path20"
           style="opacity:0.448276;vector-effect:non-scaling-stroke;fill:none;stroke:#000080;stroke-width:0.264583;stroke-dasharray:none;-inkscape-stroke:hairline"
           d="m 9.9999064,280 c -6.38e-5,2.94743 1.5723036,5.671 4.1248126,7.14478 2.552595,1.47378 5.697547,1.47378 8.250142,0 C 24.92737,285.671 26.499738,282.94743 26.499674,280 m 0,0 c 4.3e-5,2.94753 1.572622,5.67113 4.12533,7.14478 2.552595,1.47378 5.697547,1.47378 8.250142,0 2.552509,-1.47378 4.124877,-4.19735 4.124813,-7.14478 m 0,0 c -6.4e-5,2.94743 1.572304,5.671 4.124813,7.14478 2.552595,1.47378 5.697547,1.47378 8.250142,0 2.552509,-1.47378 4.124877,-4.19735 4.124813,-7.14478 m 0,0 c 4.3e-5,2.94753 1.572622,5.67113 4.12533,7.14478 2.552464,1.47358 5.697161,1.47358 8.249625,0 2.552708,-1.47365 4.125287,-4.19725 4.12533,-7.14478 m 0,0 c -6.4e-5,2.94743 1.572304,5.671 4.124813,7.14478 2.552595,1.47378 5.697547,1.47378 8.250142,0 C 90.927476,285.671 92.499844,282.94743 92.49978,280 m 0,0 c 4.3e-5,2.94753 1.572622,5.67113 4.125329,7.14478 2.552464,1.47358 5.697171,1.47358 8.249631,0 2.55271,-1.47365 4.12529,-4.19725 4.12533,-7.14478"
           sodipodi:nodetypes="csscccsccssccssccssccssc" />
        <path
           id="path21"
           style="opacity:0.448276;vector-effect:non-scaling-stroke;fill:none;stroke:#000080;stroke-width:0.264583;stroke-dasharray:none;-inkscape-stroke:hairline"
           d="m 9.9999064,295 c -6.4e-5,2.94743 1.5723036,5.671 4.1248126,7.14478 2.552595,1.47378 5.697547,1.47378 8.250142,0 C 24.92737,300.671 26.499738,297.94743 26.499674,295 m 0,0 c 4.3e-5,2.94753 1.572622,5.67113 4.12533,7.14478 2.552595,1.47378 5.697547,1.47378 8.250142,0 2.552509,-1.47378 4.124877,-4.19735 4.124813,-7.14478 m 0,0 c -6.4e-5,2.94743 1.572304,5.671 4.124813,7.14478 2.552595,1.47378 5.697547,1.47378 8.250142,0 2.552509,-1.47378 4.124877,-4.19735 4.124813,-7.14478 m 0,0 c 4.3e-5,2.94753 1.572622,5.67113 4.12533,7.14478 2.552464,1.47358 5.697161,1.47358 8.249625,0 2.552708,-1.47365 4.125287,-4.19725 4.12533,-7.14478 m 0,0 c -6.4e-5,2.94743 1.572304,5.671 4.124813,7.14478 2.552595,1.47378 5.697547,1.47378 8.250142,0 C 90.927476,300.671 92.499844,297.94743 92.49978,295 m 0,0 c 4.3e-5,2.94753 1.572622,5.67113 4.125329,7.14478 2.552464,1.47358 5.697171,1.47358 8.249631,0 2.55271,-1.47365 4.12529,-4.19725 4.12533,-7.14478"
           sodipodi:nodetypes="csscccsccssccssccssccssc" />
      </g>
    </g>
    <path
       id="rect45"
       style="opacity:1;vector-effect:non-scaling-stroke;fill:none;stroke:#ff0000;stroke-width:0.264583;stroke-dasharray:none;-inkscape-stroke:hairline"
       d="m 36.70966,181.65848 v 2.4089 H 16.70985 13.70952 v 8.00003 h 3.00033 v 8.00003 h -3.00033 v 9.9999 h 3.00033 v 8.00003 h -3.00033 v 4.49998 h 3.00033 19.99981 v 2.40839 a 0.59143056,0.59143056 45 0 0 0.591431,0.59143 h 8.817048 a 0.59143056,0.59143056 135 0 0 0.591431,-0.59143 v -2.40839 H 66.7099 v 2.40839 a 0.59143056,0.59143056 45 0 0 0.591431,0.59143 h 8.817048 a 0.59143056,0.59143056 135 0 0 0.591431,-0.59143 l 0,-2.40839 h 19.99981 2.99982 v -4.49998 h -2.99982 v -8.00003 h 2.99982 v -9.9999 h -2.99982 v -8.00003 h 2.99982 v -8.00003 H 96.70962 76.70981 v -2.4089 a 0.59143056,0.59143056 45 0 0 -0.591431,-0.59143 h -8.817048 a 0.59143056,0.59143056 135 0 0 -0.591431,0.59143 v 2.4089 H 46.70957 v -2.4089 a 0.59143056,0.59143056 45 0 0 -0.591431,-0.59143 h -8.817048 a 0.59143056,0.59143056 135 0 0 -0.591431,0.59143 z m -9.9999,9.40847 21.99976,-3e-5 v 20.00033 l -21.99976,3e-5 z m 37.99976,0 h 22.00019 v 20.00033 H 64.70952 Z"
       sodipodi:nodetypes="ccccccccccccccccccccccccccccccccccccccccccccccccccc"
       inkscape:path-effect="#path-effect9"
       inkscape:original-d="m 36.70966,181.06705 v 3.00033 H 16.70985 13.70952 v 8.00003 h 3.00033 v 8.00003 h -3.00033 v 9.9999 h 3.00033 v 8.00003 h -3.00033 v 4.49998 h 3.00033 19.99981 v 2.99982 h 9.99991 v -2.99982 H 66.7099 v 2.99982 h 9.99991 v -2.99982 h 19.99981 2.99982 v -4.49998 h -2.99982 v -8.00003 h 2.99982 v -9.9999 h -2.99982 v -8.00003 h 2.99982 v -8.00003 H 96.70962 76.70981 v -3.00033 H 66.7099 v 3.00033 H 46.70957 v -3.00033 z m -9.9999,9.9999 21.99976,-3e-5 v 20.00033 l -21.99976,3e-5 z m 37.99976,0 h 22.00019 v 20.00033 H 64.70952 Z"
       inkscape:export-filename=".\side.svg"
       inkscape:export-xdpi="96"
       inkscape:export-ydpi="96"
       inkscape:label="side" />
    <g
       id="g6919"
       transform="rotate(135,220.79283,84.824811)"
       inkscape:export-filename=".\icicle.svg"
       inkscape:export-xdpi="96"
       inkscape:export-ydpi="96"
       style="vector-effect:non-scaling-stroke;stroke-width:0.264583;stroke-dasharray:none;-inkscape-stroke:hairline"
       inkscape:label="icicle">
      <g
         id="g6910"
         style="vector-effect:non-scaling-stroke;stroke-width:0.264583;stroke-dasharray:none;-inkscape-stroke:hairline"
         inkscape:label="body">
        <path
           id="path12"
           style="opacity:1;vector-effect:non-scaling-stroke;fill:none;stroke:#ff0000;stroke-width:0.264583;stroke-dasharray:none;-inkscape-stroke:hairline"
           d="M 296.89072,124.37095 253.1664,80.647187 a 11.999244,11.999244 1.6735719e-4 0 0 -16.96933,-4.9e-5 l -43.72491,43.723842 c -2.73453,3.352 -3.92749,32.95866 3.3e-4,30.52069 0,0 2.99849,-16.77552 6.11365,-19.61978 3.65692,2.30248 2.65675,8.54162 4.49322,8.7553 1.91719,-1.79611 2.90231,-14.76795 4.14703,-15.66692 1.45218,-0.20746 2.43132,8.24122 4.29839,8.44868 1.38302,-0.82982 1.2627,-13.05725 2.85319,-14.37112 0.82981,-0.20745 1.88869,7.81028 3.61746,7.81027 1.93623,-0.89897 0.40568,-11.85881 2.20361,-15.10892 1.72879,0.13829 2.55654,8.07192 4.51905,7.77561 2.14369,-3.04268 0.99961,-14.3738 2.03691,-13.95891 1.65961,-0.5532 3.00566,7.99178 5.47555,6.49222 1.41136,-2.20526 1.01836,-11.78582 2.98195,-14.85166 4.07679,0.84807 2.71088,5.84534 5.48766,6.42649 2.09777,-2.90354 1.55769,-12.253088 3.98163,-12.638542 2.42392,0.385454 1.8832,9.735012 3.98097,12.638542 2.77676,-0.58115 1.41085,-5.57842 5.48762,-6.42649 1.96362,3.06584 1.5706,12.64638 2.98197,14.85164 2.4699,1.49958 3.81592,-7.04541 5.47557,-6.4922 1.03727,-0.41488 -0.10679,10.91624 2.03689,13.9589 1.96251,0.29632 2.79028,-7.63731 4.51905,-7.77562 1.79795,3.25011 0.2674,14.20998 2.20363,15.10894 1.72878,1e-5 2.78763,-8.01773 3.61746,-7.81027 1.59046,1.31387 1.47013,13.5413 2.85316,14.37111 1.8671,-0.20745 2.84621,-8.65613 4.29839,-8.44867 1.24471,0.89896 2.23047,13.87085 4.14768,15.66692 1.83648,-0.21368 0.83565,-6.45281 4.49258,-8.75531 3.11517,2.84427 6.11365,19.61978 6.11365,19.61978 3.92783,2.43798 2.73485,-27.16869 3.4e-4,-30.52067 z"
           inkscape:path-effect="#path-effect31"
           inkscape:original-d="m 296.89072,124.37095 -52.20896,-52.208299 -52.2096,52.208329 c -2.73453,3.352 -3.92749,32.95866 3.3e-4,30.52069 0,0 2.99849,-16.77552 6.11365,-19.61978 3.65692,2.30248 2.65675,8.54162 4.49322,8.7553 1.91719,-1.79611 2.90231,-14.76795 4.14703,-15.66692 1.45218,-0.20746 2.43132,8.24122 4.29839,8.44868 1.38302,-0.82982 1.2627,-13.05725 2.85319,-14.37112 0.82981,-0.20745 1.88869,7.81028 3.61746,7.81027 1.93623,-0.89897 0.40568,-11.85881 2.20361,-15.10892 1.72879,0.13829 2.55654,8.07192 4.51905,7.77561 2.14369,-3.04268 0.99961,-14.3738 2.03691,-13.95891 1.65961,-0.5532 3.00566,7.99178 5.47555,6.49222 1.41136,-2.20526 1.01836,-11.78582 2.98195,-14.85166 4.07679,0.84807 2.71088,5.84534 5.48766,6.42649 2.09777,-2.90354 1.55769,-12.253088 3.98163,-12.638542 2.42392,0.385454 1.8832,9.735012 3.98097,12.638542 2.77676,-0.58115 1.41085,-5.57842 5.48762,-6.42649 1.96362,3.06584 1.5706,12.64638 2.98197,14.85164 2.4699,1.49958 3.81592,-7.04541 5.47557,-6.4922 1.03727,-0.41488 -0.10679,10.91624 2.03689,13.9589 1.96251,0.29632 2.79028,-7.63731 4.51905,-7.77562 1.79795,3.25011 0.2674,14.20998 2.20363,15.10894 1.72878,1e-5 2.78763,-8.01773 3.61746,-7.81027 1.59046,1.31387 1.47013,13.5413 2.85316,14.37111 1.8671,-0.20745 2.84621,-8.65613 4.29839,-8.44867 1.24471,0.89896 2.23047,13.87085 4.14768,15.66692 1.83648,-0.21368 0.83565,-6.45281 4.49258,-8.75531 3.11517,2.84427 6.11365,19.61978 6.11365,19.61978 3.92783,2.43798 2.73485,-27.16869 3.4e-4,-30.52067 z"
           sodipodi:nodetypes="ccccccccccccccccccccccccccccccsc"
           inkscape:export-filename=".\icicle.svg"
           inkscape:export-xdpi="96"
           inkscape:export-ydpi="96" />
      </g>
      <g
         id="g6907"
         transform="rotate(45,306.87244,368.9211)"
         style="vector-effect:non-scaling-stroke;stroke-width:0.264583;stroke-dasharray:none;-inkscape-stroke:hairline"
         inkscape:label="holes">
        <rect
           style="opacity:1;vector-effect:non-scaling-stroke;fill:none;fill-opacity:1;fill-rule:evenodd;stroke:#ff0000;stroke-width:0.264583;stroke-dasharray:none;stroke-opacity:1;-inkscape-stroke:hairline"
           id="rect6895"
           width="10"
           height="2.5"
           x="72.5"
           y="210" />
        <rect
           style="opacity:1;vector-effect:non-scaling-stroke;fill:none;fill-opacity:1;fill-rule:evenodd;stroke:#ff0000;stroke-width:0.264583;stroke-dasharray:none;stroke-opacity:1;-inkscape-stroke:hairline"
           id="rect6897"
           width="10"
           height="2.5"
           x="102.5"
           y="210" />
        <rect
           style="opacity:1;vector-effect:non-scaling-stroke;fill:none;fill-opacity:1;fill-rule:evenodd;stroke:#ff0000;stroke-width:0.264583;stroke-dasharray:none;stroke-opacity:1;-inkscape-stroke:hairline"
           id="rect6899"
           width="10"
           height="2.5"
           x="-232.5"
           y="60"
           transform="rotate(-90)" />
        <rect
           style="opacity:1;vector-effect:non-scaling-stroke;fill:none;fill-opacity:1;fill-rule:evenodd;stroke:#ff0000;stroke-width:0.264583;stroke-dasharray:none;stroke-opacity:1;-inkscape-stroke:hairline"
           id="rect6901"
           width="10"
           height="2.5"
           x="-262.5"
           y="60"
           transform="rotate(-90)" />
      </g>
    </g>
    <g
       id="g7302"
       inkscape:export-filename=".\back.svg"
       inkscape:export-xdpi="96"
       inkscape:export-ydpi="96"
       inkscape:label="back">
      <g
         id="g5"
         inkscape:export-filename="back.svg"
         inkscape:export-xdpi="96"
         inkscape:export-ydpi="96"
         style="vector-effect:non-scaling-stroke;stroke-width:0.264583;stroke-dasharray:none;-inkscape-stroke:hairline"
         transform="translate(0.80903957)"
         inkscape:label="body">
        <path
           id="path23"
           style="vector-effect:non-scaling-stroke;fill:none;fill-opacity:1;stroke:#ff0000;stroke-width:0.264583;stroke-dasharray:none;stroke-opacity:1;-inkscape-stroke:hairline"
           inkscape:label="back-wall"
           inkscape:transform-center-x="2.8521716"
           inkscape:transform-center-y="-12.231355"
           d="m 119.89767,5.4202682 -6.13036,6.1306618 a 0.86518552,0.86518552 90.001194 0 0 -3e-5,1.223502 l 1.50925,1.509446 -13.85898,13.859695 -1.509549,-1.50988 a 0.86503314,0.86503314 0.0038214 0 0 -1.223394,-8.1e-5 l -6.130739,6.130447 a 0.86507658,0.86507658 90.000344 0 0 -8e-6,1.223425 l 1.51017,1.510134 -4.680803,4.680413 4.00002,6.92823 -2.59836,1.50017 4.25013,7.36144 2.59836,-1.50017 4.749833,8.22696 -2.598363,1.50016 4.250133,7.36144 2.59836,-1.50016 2.9269,5.06918 -7e-5,-1e-4 -2e-5,3.00027 8.16048,1.7e-4 2.2e-4,-3.00098 6.91021,5.8e-4 8.7e-4,-4.85711 9.85722,3.4e-4 2e-5,4.8566 6.91085,-4e-4 -2.3e-4,3.00098 8.1604,-2.8e-4 -7.5e-4,-3.00027 0.001,-3.6e-4 2.92617,-5.06858 2.59807,1.49965 4.25014,-7.36115 -2.59762,-1.49991 4.74964,-8.22714 2.59762,1.49991 4.25015,-7.36115 -2.59762,-1.49991 3.99991,-6.92847 -4.6803,-4.680499 1.5093,-1.509605 a 0.86524659,0.86524659 89.998803 0 0 -3e-5,-1.223545 l -6.12982,-6.130556 a 0.86518835,0.86518835 0.00609442 0 0 -1.22351,-1.3e-4 l -1.51029,1.50983 -13.85867,-13.859385 1.5093,-1.509596 a 0.86521424,0.86521424 89.997867 0 0 -5e-5,-1.223522 l -6.13026,-6.1305646 a 0.86504128,0.86504128 179.99922 0 0 -1.2234,1.67e-5 L 136.48944,6.9303001 129.56042,0 122.63058,6.9302 121.12104,5.420321 a 0.86499048,0.86499048 0.00247614 0 0 -1.22337,-5.28e-5 z"
           inkscape:export-filename="back.svg"
           inkscape:export-xdpi="96"
           inkscape:export-ydpi="96"
           sodipodi:nodetypes="cccccccccccccccccccccccccccccccccccccccccccccccccc"
           inkscape:path-effect="#path-effect19"
           inkscape:original-d="m 120.50938,4.80853 -7.35378,7.354138 2.12093,2.12121 -13.85898,13.859695 -2.121205,-2.12167 -7.354215,7.353865 2.1219,2.12185 -4.680803,4.680413 4.00002,6.92823 -2.59836,1.50017 4.25013,7.36144 2.59836,-1.50017 4.749833,8.22696 -2.598363,1.50016 4.250133,7.36144 2.59836,-1.50016 2.9269,5.06918 -7e-5,-1e-4 -2e-5,3.00027 8.16048,1.7e-4 2.2e-4,-3.00098 6.91021,5.8e-4 8.7e-4,-4.85711 9.85722,3.4e-4 2e-5,4.8566 6.91085,-4e-4 -2.3e-4,3.00098 8.1604,-2.8e-4 -7.5e-4,-3.00027 0.001,-3.6e-4 2.92617,-5.06858 2.59807,1.49965 4.25014,-7.36115 -2.59762,-1.49991 4.74964,-8.22714 2.59762,1.49991 4.25015,-7.36115 -2.59762,-1.49991 3.99991,-6.92847 -4.6803,-4.680499 2.12096,-2.12139 -7.3532,-7.354076 -2.12211,2.12146 -13.85867,-13.859385 2.12096,-2.12138 -7.35368,-7.3540409 -2.12142,2.12164 L 129.56042,0 122.63058,6.9302 Z" />
      </g>
      <g
         id="g7292">
        <path
           style="baseline-shift:baseline;display:inline;overflow:visible;fill:#00ff00;stroke:#00ff00;stroke-width:0.264583;stroke-linecap:round;stroke-linejoin:round;stroke-dasharray:none;stroke-opacity:1;enable-background:accumulate;stop-color:#000000"
           d="m 151.82319,32.200125 a 0.5,0.5 0 0 0 -0.5,0.5 v 0.82031 l -0.61328,-0.24609 a 0.5,0.5 0 0 0 -0.65039,0.27734 0.5,0.5 0 0 0 0.2793,0.65039 l 0.98437,0.39454 v 2.45312 l -1.89648,-1.0332 -0.22461,-1.57032 a 0.5,0.5 0 0 0 -0.56446,-0.42382 0.5,0.5 0 0 0 -0.42578,0.56445 l 0.11524,0.80469 -0.92969,-0.5293 a 0.5,0.5 0 0 0 -0.68164,0.18555 0.5,0.5 0 0 0 0.18555,0.68164 l 0.78711,0.44922 -0.67579,0.19336 a 0.5,0.5 0 0 0 -0.34375,0.61718 0.5,0.5 0 0 0 0.61915,0.34375 l 1.62109,-0.46093 1.86914,1.01953 -1.87109,1.01953 -1.61914,-0.46289 a 0.5,0.5 0 0 0 -0.61915,0.34375 0.5,0.5 0 0 0 0.34375,0.61719 l 0.67579,0.19335 -0.78711,0.44922 a 0.5,0.5 0 0 0 -0.18555,0.6836 0.5,0.5 0 0 0 0.68164,0.18554 l 0.92969,-0.53125 -0.11524,0.80469 a 0.5,0.5 0 0 0 0.42578,0.56641 0.5,0.5 0 0 0 0.56446,-0.42383 l 0.22461,-1.57031 1.89648,-1.03516 v 2.25 l -1.05664,0.63477 a 0.5,0.5 0 0 0 -0.16992,0.68554 0.5,0.5 0 0 0 0.68555,0.17188 l 0.54101,-0.32422 v 0.93359 a 0.5,0.5 0 0 0 0.5,0.5 0.5,0.5 0 0 0 0.5,-0.5 v -0.93359 l 0.53906,0.32422 a 0.5,0.5 0 0 0 0.6875,-0.17188 0.5,0.5 0 0 0 -0.17187,-0.68554 l -1.05469,-0.63282 v -2.25 l 1.89453,1.03321 0.22461,1.57031 a 0.5,0.5 0 0 0 0.56445,0.42383 0.5,0.5 0 0 0 0.42579,-0.56641 l -0.11524,-0.80469 0.92969,0.53125 a 0.5,0.5 0 0 0 0.68164,-0.18554 0.5,0.5 0 0 0 -0.18555,-0.6836 l -0.78711,-0.44922 0.67578,-0.19335 a 0.5,0.5 0 0 0 0.34375,-0.61719 0.5,0.5 0 0 0 -0.61914,-0.34375 l -1.61914,0.46289 -1.87109,-1.01953 1.86914,-1.01953 1.62109,0.46093 a 0.5,0.5 0 0 0 0.61914,-0.34375 0.5,0.5 0 0 0 -0.34375,-0.61718 l -0.67578,-0.19336 0.78711,-0.44922 a 0.5,0.5 0 0 0 0.18555,-0.68164 0.5,0.5 0 0 0 -0.68164,-0.18555 l -0.92969,0.5293 0.11524,-0.80469 a 0.5,0.5 0 0 0 -0.42579,-0.56445 0.5,0.5 0 0 0 -0.56445,0.42382 l -0.22461,1.57032 -1.89453,1.03125 v -2.45117 l 0.98242,-0.39454 a 0.5,0.5 0 0 0 0.2793,-0.65039 0.5,0.5 0 0 0 -0.65039,-0.27734 l -0.61133,0.24414 v -0.81836 a 0.5,0.5 0 0 0 -0.5,-0.5 z"
           id="path6" />
        <path
           style="baseline-shift:baseline;display:inline;overflow:visible;fill:#00ff00;stroke:#00ff00;stroke-width:0.264583;stroke-linecap:round;stroke-linejoin:round;stroke-dasharray:none;stroke-opacity:1;enable-background:accumulate;stop-color:#000000"
           d="m 108.91696,32.200125 a 0.5,0.5 0 0 0 -0.5,0.5 v 0.82031 l -0.61328,-0.24609 a 0.5,0.5 0 0 0 -0.65039,0.27734 0.5,0.5 0 0 0 0.2793,0.65039 l 0.98437,0.39454 v 2.45312 l -1.89648,-1.0332 -0.22461,-1.57032 a 0.5,0.5 0 0 0 -0.56446,-0.42382 0.5,0.5 0 0 0 -0.42578,0.56445 l 0.11524,0.80469 -0.92969,-0.5293 a 0.5,0.5 0 0 0 -0.68164,0.18555 0.5,0.5 0 0 0 0.18555,0.68164 l 0.78711,0.44922 -0.67579,0.19336 a 0.5,0.5 0 0 0 -0.34375,0.61718 0.5,0.5 0 0 0 0.61915,0.34375 l 1.62109,-0.46093 1.86914,1.01953 -1.87109,1.01953 -1.61914,-0.46289 a 0.5,0.5 0 0 0 -0.61915,0.34375 0.5,0.5 0 0 0 0.34375,0.61719 l 0.67579,0.19335 -0.78711,0.44922 a 0.5,0.5 0 0 0 -0.18555,0.6836 0.5,0.5 0 0 0 0.68164,0.18554 l 0.92969,-0.53125 -0.11524,0.80469 a 0.5,0.5 0 0 0 0.42578,0.56641 0.5,0.5 0 0 0 0.56446,-0.42383 l 0.22461,-1.57031 1.89648,-1.03516 v 2.25 l -1.05664,0.63477 a 0.5,0.5 0 0 0 -0.16992,0.68554 0.5,0.5 0 0 0 0.68555,0.17188 l 0.54101,-0.32422 v 0.93359 a 0.5,0.5 0 0 0 0.5,0.5 0.5,0.5 0 0 0 0.5,-0.5 v -0.93359 l 0.53906,0.32422 a 0.5,0.5 0 0 0 0.6875,-0.17188 0.5,0.5 0 0 0 -0.17187,-0.68554 l -1.05469,-0.63282 v -2.25 l 1.89453,1.03321 0.22461,1.57031 a 0.5,0.5 0 0 0 0.56445,0.42383 0.5,0.5 0 0 0 0.42579,-0.56641 l -0.11524,-0.80469 0.92969,0.53125 a 0.5,0.5 0 0 0 0.68164,-0.18554 0.5,0.5 0 0 0 -0.18555,-0.6836 l -0.78711,-0.44922 0.67578,-0.19335 a 0.5,0.5 0 0 0 0.34375,-0.61719 0.5,0.5 0 0 0 -0.61914,-0.34375 l -1.61914,0.46289 -1.87109,-1.01953 1.86914,-1.01953 1.62109,0.46093 a 0.5,0.5 0 0 0 0.61914,-0.34375 0.5,0.5 0 0 0 -0.34375,-0.61718 l -0.67578,-0.19336 0.78711,-0.44922 a 0.5,0.5 0 0 0 0.18555,-0.68164 0.5,0.5 0 0 0 -0.68164,-0.18555 l -0.92969,0.5293 0.11524,-0.80469 a 0.5,0.5 0 0 0 -0.42579,-0.56445 0.5,0.5 0 0 0 -0.56445,0.42382 l -0.22461,1.57032 -1.89453,1.03125 v -2.45117 l 0.98242,-0.39454 a 0.5,0.5 0 0 0 0.2793,-0.65039 0.5,0.5 0 0 0 -0.65039,-0.27734 l -0.61133,0.24414 v -0.81836 a 0.5,0.5 0 0 0 -0.5,-0.5 z"
           id="path7" />
        <path
           d="m 128.1794,45.513722 v 0.332796 q -0.45819,0.42926 -0.78135,0.694531 -0.31832,0.260451 -0.63665,0.472668 -0.31832,0.207393 -0.53054,0.294211 -0.2074,0.09164 -0.35691,0.09164 -0.35692,0 -0.5836,-0.265271 -0.22669,-0.265274 -0.22669,-0.684884 0,-0.482315 0.19293,-0.95498 0.19774,-0.472667 0.55948,-0.974272 0.36173,-0.506428 0.90675,-1.133435 0.40514,-0.463021 0.40514,-0.520899 0,-0.03376 -0.0241,-0.05788 -0.0241,-0.0241 -0.053,-0.0241 -0.0916,0 -0.56431,0.405143 -0.47266,0.405143 -1.21543,1.191313 -0.73794,0.78617 -1.59645,1.871374 -0.0482,0.05788 -0.30868,0.395497 -0.25563,0.332798 -0.36174,0.434083 -0.10611,0.101285 -0.18328,0.101285 -0.13505,0 -0.23633,-0.270094 -0.0965,-0.274918 -0.0965,-0.5836 0,-0.188103 0.12058,-0.405143 0.1254,-0.21704 0.53536,-0.776523 0.41479,-0.564306 0.68489,-0.950158 0.27009,-0.38585 0.59324,-0.935686 0.22669,-0.381027 0.3328,-0.607714 0.11093,-0.226687 0.11093,-0.400319 0,-0.149519 -0.0868,-0.149519 -0.18327,0 -0.68971,0.491961 -0.50642,0.487135 -1.25401,1.451761 -0.74276,0.964625 -1.55305,2.233109 -0.26527,0.434081 -0.3762,0.5836 -0.11093,0.149516 -0.24598,0.149516 -0.16881,0 -0.31833,-0.356913 -0.14469,-0.361733 -0.14469,-0.583599 0,-0.07234 0.0579,-0.159163 0.63665,-0.84887 1.04662,-1.442114 0.40996,-0.593246 0.72829,-1.123791 0.31833,-0.535366 0.46302,-0.877808 0.14469,-0.347266 0.14469,-0.545015 0,-0.207394 -0.1881,-0.207394 -0.15434,0 -0.52572,0.19775 -0.37138,0.197747 -0.94051,0.540189 -0.56431,0.342442 -0.90675,0.525722 -0.34244,0.178456 -0.51125,0.178456 -0.15916,0 -0.15916,-0.178456 0,-0.101286 0.0675,-0.463021 0.0675,-0.366559 0.13987,-0.516075 0.10129,-0.192924 0.51608,-0.511252 0.41961,-0.318325 0.46302,-0.318325 0.0386,0 0.0386,0.03376 0,0.01929 -0.0386,0.05788 -0.19775,0.159163 -0.29422,0.26045 -0.0965,0.101286 -0.12057,0.221864 0.88263,-0.530545 1.57716,-0.805463 0.69935,-0.279741 0.96945,-0.279741 0.13505,0 0.25563,0.183277 0.12057,0.178456 0.20257,0.419613 0.0868,0.236334 0.0868,0.303858 0,0.245978 -0.1254,0.583597 -0.1254,0.332798 -0.34244,0.776525 -0.21222,0.443728 -0.53055,1.109319 0.25081,-0.323149 0.4775,-0.598067 0.22668,-0.274918 0.44855,-0.535368 0.22668,-0.260448 0.45819,-0.525722 0.31351,-0.361733 0.70418,-0.689705 0.39067,-0.332799 0.72829,-0.540192 0.34245,-0.212217 0.46302,-0.212217 0.16881,0 0.29904,0.188103 0.13504,0.183276 0.13504,0.395496 0,0.139869 -0.18327,0.535366 -0.18328,0.395496 -0.53537,1.012857 -0.35209,0.61736 -0.93087,1.591632 0.54984,-0.583596 1.14309,-1.200959 0.59324,-0.61736 0.88263,-0.901925 0.28939,-0.284565 0.48231,-0.434081 0.26527,-0.20257 0.53055,-0.43408 0.27009,-0.236334 0.42443,-0.371383 0.15434,-0.135046 0.27492,-0.207393 0.12058,-0.07235 0.22186,-0.07235 0.1254,0 0.31351,0.289388 0.19292,0.289388 0.19292,0.37138 0,0.101287 -0.11575,0.241157 -0.11093,0.139872 -0.46785,0.520898 -0.65594,0.704178 -1.13825,1.422824 -0.48232,0.713822 -0.73312,1.307068 -0.24598,0.588422 -0.24598,0.930865 0,0.212217 0.0772,0.308678 0.082,0.09646 0.2508,0.09646 0.15434,0 0.28457,-0.05788 0.13505,-0.05788 0.29421,-0.163989 0.16398,-0.106108 0.30868,-0.20257 0.20257,-0.120578 0.3955,-0.255627 0.19774,-0.139869 0.30385,-0.21704 0.11093,-0.08199 0.16399,-0.115756 z m 0.73794,0.192926 v 0.120579 q 0,0.284565 0.13987,0.443727 0.13987,0.159163 0.36656,0.159163 0.23633,0 0.48714,-0.110932 0.25562,-0.110932 0.50642,-0.294211 0.25081,-0.183277 0.61254,-0.491958 v 0.294211 q -0.54501,0.655944 -1.0225,1.008033 -0.47749,0.347266 -0.96945,0.347266 -0.42926,0 -0.68006,-0.332796 -0.2508,-0.332795 -0.2508,-0.911571 0,-0.506428 0.23633,-0.916395 0.23633,-0.41479 0.7717,-0.872987 0.36656,-0.313503 0.72829,-0.472665 0.36174,-0.159166 0.6463,-0.159166 0.22669,0 0.35691,0.106111 0.13505,0.101286 0.13505,0.308679 0,0.303858 -0.22669,0.607714 -0.22668,0.299034 -0.69453,0.598069 -0.46302,0.294212 -1.14308,0.569129 z m 0.0482,-0.313504 q 0.43408,-0.16881 0.74277,-0.419611 0.30867,-0.250804 0.45337,-0.477491 0.14952,-0.23151 0.14952,-0.337619 0,-0.110932 -0.10129,-0.110932 -0.0868,0 -0.28456,0.110932 -0.19293,0.110932 -0.3955,0.289388 -0.19775,0.178456 -0.35691,0.419614 -0.15917,0.241154 -0.2074,0.525719 z m 2.01607,0.511251 v -0.313502 q 0.26045,-0.308681 0.3955,-0.525722 -0.15434,-0.05305 -0.22669,-0.130222 -0.0675,-0.07717 -0.0675,-0.231511 0,-0.173632 0.14469,-0.438906 0.14469,-0.265272 0.35691,-0.496782 0.21222,-0.23151 0.38585,-0.299035 0.0675,-0.03376 0.13023,-0.03376 0.0965,0 0.0965,0.09164 0,0.08199 -0.14952,0.332796 0.99357,-0.15434 1.25401,-0.15434 0.10129,0 0.13988,0.01929 0.082,0.04341 0.13505,0.202571 0.053,0.159162 0.053,0.318328 0,0.101285 -0.0916,0.221863 -0.0868,0.115756 -0.30386,0.342443 -0.25562,0.274918 -0.42926,0.598066 -0.17363,0.323152 -0.17363,0.487138 0,0.226687 0.27974,0.226687 0.29421,0 1.02251,-0.598069 v 0.323149 q -0.40032,0.419613 -0.66077,0.66077 -0.26045,0.241157 -0.48232,0.38585 -0.22186,0.139872 -0.39549,0.139872 -0.20257,0 -0.33762,-0.18328 -0.13505,-0.188103 -0.13505,-0.540192 0,-0.207393 0.10611,-0.472665 0.10611,-0.265273 0.30868,-0.573952 0.2074,-0.313505 0.46302,-0.622184 -0.13505,0.02894 -0.30386,0.0627 -0.1688,0.02894 -0.35691,0.0627 -0.1881,0.03376 -0.28939,0.05306 -0.29903,0.598067 -0.86816,1.085202 z m 2.88423,0 v -0.313502 q 0.26045,-0.308681 0.3955,-0.525722 -0.15434,-0.05305 -0.22669,-0.130222 -0.0675,-0.07717 -0.0675,-0.231511 0,-0.173632 0.14469,-0.438906 0.1447,-0.265272 0.35691,-0.496782 0.21222,-0.23151 0.38585,-0.299035 0.0675,-0.03376 0.13023,-0.03376 0.0965,0 0.0965,0.09164 0,0.08199 -0.14952,0.332796 0.99357,-0.15434 1.25402,-0.15434 0.10128,0 0.13987,0.01929 0.082,0.04341 0.13505,0.202571 0.053,0.159162 0.053,0.318328 0,0.101285 -0.0916,0.221863 -0.0868,0.115756 -0.30386,0.342443 -0.25562,0.274918 -0.42926,0.598066 -0.17363,0.323152 -0.17363,0.487138 0,0.226687 0.27975,0.226687 0.2942,0 1.0225,-0.598069 v 0.323149 q -0.40032,0.419613 -0.66077,0.66077 -0.26045,0.241157 -0.48231,0.38585 -0.22187,0.139872 -0.3955,0.139872 -0.20257,0 -0.33762,-0.18328 -0.13505,-0.188103 -0.13505,-0.540192 0,-0.207393 0.10611,-0.472665 0.10611,-0.265273 0.30868,-0.573952 0.2074,-0.313505 0.46302,-0.622184 -0.13505,0.02894 -0.30385,0.0627 -0.16881,0.02894 -0.35692,0.0627 -0.1881,0.03376 -0.28938,0.05306 -0.29904,0.598067 -0.86817,1.085202 z m 5.15593,-0.183276 -0.85852,0.728292 q -0.61254,0.535365 -0.81993,0.535365 -0.1881,0 -0.3955,-0.429257 -0.20739,-0.434081 -0.20739,-0.757232 0,-0.274918 0.082,-0.463021 0.0868,-0.192924 0.29421,-0.496782 0.29421,-0.409966 0.56431,-0.694531 0.27009,-0.284564 0.47749,-0.438904 0.20739,-0.159163 0.28939,-0.159163 0.13022,0 0.2508,0.135049 0.1254,0.135046 0.1254,0.279741 0,0.09164 -0.13505,0.294209 -0.13022,0.202573 -0.41961,0.516075 -0.28457,0.308682 -0.79582,0.742762 l -0.0916,0.265274 q -0.0386,0.07717 -0.0386,0.135046 0,0.130225 0.13022,0.130225 0.13505,0 0.63183,-0.342442 0.50161,-0.342442 1.08521,-0.921218 0.22668,-0.226687 0.3762,-0.40032 0.14952,-0.173633 0.2701,-0.323149 0.12057,-0.154339 0.19775,-0.23151 0.082,-0.07717 0.14469,-0.08199 0.12058,-0.01447 0.1881,0.101288 0.0675,0.115755 0.0675,0.342442 0,0.130223 -0.11575,0.327973 -0.11576,0.192923 -0.43408,0.665591 -0.31833,0.467844 -0.63665,0.974272 -0.31351,0.501605 -0.64148,1.133436 0.0145,-0.01447 0.29421,-0.289388 0.28456,-0.274918 0.59807,-0.573953 0.3135,-0.299032 0.51607,-0.477488 0.20257,-0.18328 0.50643,-0.424437 v 0.323149 q -0.65112,0.699354 -1.18167,1.326361 -0.52572,0.627007 -0.81511,1.00321 -0.28456,0.376206 -0.33279,0.438907 -0.13022,0.16881 -0.23634,0.313502 -0.10128,0.149519 -0.17363,0.226687 -0.0675,0.08199 -0.11093,0.08199 -0.10129,0 -0.18328,-0.202573 -0.0772,-0.197747 -0.0772,-0.352087 0,-0.139872 0.0531,-0.24598 0.34726,-0.781346 1.55787,-2.715421 z"
           id="path1"
           style="font-size:37.3333px;font-family:'Brush Script MT';-inkscape-font-specification:'Brush Script MT, Normal';text-align:center;white-space:pre;fill:#00ff00;stroke:#00ff00;stroke-width:0.264583;stroke-dasharray:none" />
        <path
           d="m 119.81368,57.860935 v 0.313502 q -0.81028,0.901927 -1.49034,1.485524 -0.67524,0.588423 -1.32154,0.901925 -0.6463,0.318328 -1.24919,0.318328 -0.5209,0 -0.8971,-0.207396 -0.37138,-0.207394 -0.56431,-0.607714 -0.1881,-0.395496 -0.1881,-0.940509 0,-0.42926 0.13505,-0.906748 0.13987,-0.482314 0.40032,-0.969449 0.26045,-0.491961 0.63665,-1.012857 0.38103,-0.520898 0.89228,-1.094851 0.53054,-0.593246 1.04662,-1.022504 0.51607,-0.434083 0.93569,-0.680061 0.41961,-0.24598 0.77652,-0.366559 0.36173,-0.120578 0.59807,-0.120578 0.24115,0 0.40996,0.115755 0.16881,0.115755 0.26045,0.337619 0.0916,0.221863 0.0916,0.511252 0,0.545015 -0.37138,1.215429 -0.37138,0.665591 -0.92604,1.287775 -0.55466,0.622183 -1.06109,1.01768 -0.50161,0.390676 -0.72347,0.390676 -0.14952,0 -0.27974,-0.115755 -0.1254,-0.120579 -0.1254,-0.270098 0,-0.274918 0.28939,-0.665591 0.29421,-0.390673 0.63665,-0.713822 0.34726,-0.327975 0.41479,-0.327975 0.0338,0 0.0338,0.02894 0,0.04341 -0.053,0.149517 -0.0482,0.106108 -0.0482,0.130225 0,0.03858 0.0289,0.03858 0.082,0 0.47267,-0.438904 0.39067,-0.438904 0.71382,-0.964626 0.32798,-0.530545 0.32798,-0.868164 0,-0.139869 -0.0627,-0.212217 -0.0579,-0.07717 -0.17846,-0.07717 -0.33762,0 -1.02733,0.549839 -0.68488,0.545012 -1.40835,1.393883 -0.71865,0.844047 -1.20096,1.745972 -0.48231,0.901927 -0.48231,1.586809 0,0.395497 0.11575,0.660771 0.12058,0.265271 0.34727,0.409966 0.23151,0.144693 0.55466,0.144693 0.69935,0 1.58681,-0.545013 0.88745,-0.545015 1.95336,-1.606102 z m 3.5643,0.01929 v 0.303855 q -0.41962,0.42926 -0.7283,0.704178 -0.30385,0.270095 -0.53536,0.409967 -0.22669,0.139869 -0.38585,0.139869 -0.37621,0 -0.37621,-0.443727 0,-0.356913 0.23151,-0.824757 0.23634,-0.472665 0.67524,-1.109318 -0.21704,0.120578 -0.40997,0.279741 -0.19292,0.154339 -0.34244,0.327972 -0.14951,0.16881 -0.2508,0.289388 -0.3135,0.352089 -0.60289,0.723469 -0.28939,0.366559 -0.39068,0.477491 -0.10128,0.110932 -0.19292,0.110932 -0.3762,0 -0.3762,-0.926042 0,-0.303856 0.0916,-0.670415 0.0916,-0.366556 0.49195,-0.969449 0.84405,-1.263658 1.44212,-2.064297 0.60289,-0.805464 0.99839,-1.21543 0.39549,-0.41479 0.53054,-0.405143 0.16881,0.01447 0.2701,0.06752 0.10611,0.05305 0.10611,0.120579 0,0.120578 -0.16881,0.400319 -0.16399,0.274918 -0.56913,0.863341 -0.43891,0.622184 -0.62219,0.877808 -0.18328,0.250804 -0.54983,0.718646 -0.36174,0.46302 -0.6656,0.829579 -0.29903,0.361736 -0.68488,0.78617 v 0.578776 q 0.6463,-0.718645 1.11897,-1.176843 0.47266,-0.458197 0.80064,-0.689708 0.32797,-0.236333 0.48231,-0.236333 0.14469,0 0.27009,0.173632 0.12541,0.16881 0.12541,0.279742 0,0.04823 -0.0482,0.120578 -0.34726,0.414788 -0.55465,0.689708 -0.20258,0.270095 -0.31351,0.487135 -0.11093,0.212217 -0.11093,0.366559 0,0.226687 0.21704,0.226687 0.23151,0 1.02733,-0.622183 z m -0.0482,0.371379 V 57.9381 q 0.26046,-0.308681 0.3955,-0.525721 -0.15434,-0.05306 -0.22669,-0.130226 -0.0675,-0.07717 -0.0675,-0.23151 0,-0.173633 0.1447,-0.438904 0.14469,-0.265271 0.35691,-0.496782 0.21221,-0.23151 0.38585,-0.299035 0.0675,-0.03376 0.13022,-0.03376 0.0965,0 0.0965,0.09164 0,0.08199 -0.14951,0.332796 0.99356,-0.15434 1.25401,-0.15434 0.10129,0 0.13987,0.01929 0.082,0.04341 0.13505,0.202573 0.053,0.159163 0.053,0.318326 0,0.101285 -0.0916,0.221863 -0.0868,0.115756 -0.30385,0.342443 -0.25563,0.274918 -0.42926,0.598069 -0.17363,0.323149 -0.17363,0.487135 0,0.226687 0.27974,0.226687 0.29421,0 1.0225,-0.598067 v 0.323149 q -0.40032,0.419614 -0.66077,0.660768 -0.26045,0.241157 -0.48231,0.385852 -0.22187,0.13987 -0.3955,0.13987 -0.20257,0 -0.33762,-0.18328 -0.13504,-0.1881 -0.13504,-0.540189 0,-0.207394 0.1061,-0.472667 0.10611,-0.265272 0.30868,-0.573953 0.2074,-0.313502 0.46302,-0.622184 -0.13504,0.02894 -0.30385,0.0627 -0.16881,0.02894 -0.35691,0.0627 -0.18811,0.03376 -0.28939,0.05305 -0.29904,0.59807 -0.86817,1.085205 z m 4.90995,-2.527318 q -0.12058,0 -0.23151,-0.09164 -0.10611,-0.09164 -0.10611,-0.231511 0,-0.212217 0.20257,-0.472664 0.20258,-0.260451 0.41962,-0.260451 0.14469,0 0.24115,0.09164 0.0965,0.08682 0.0965,0.255625 0,0.207393 -0.19775,0.458197 -0.19775,0.250804 -0.42444,0.250804 z m 0.32797,2.155939 v 0.352086 q -0.46784,0.602893 -0.87298,0.911572 -0.40515,0.303858 -0.68971,0.303858 -0.3955,0 -0.58842,-0.41479 -0.19293,-0.414787 -0.19293,-0.906748 0,-0.188101 0.0386,-0.35691 0.0386,-0.173633 0.0916,-0.284565 0.053,-0.110934 0.19774,-0.347265 0.68489,-1.065914 1.25402,-1.065914 0.29421,0 0.29421,0.226687 0,0.154342 -0.19292,0.482314 -0.18811,0.327972 -0.33762,0.467844 -0.41962,0.405144 -0.54984,0.564306 -0.1254,0.159163 -0.1254,0.361733 0,0.173633 0.13022,0.289388 0.13023,0.115756 0.33762,0.115756 0.22669,0 0.49678,-0.163986 0.27492,-0.16881 0.709,-0.535366 z m -0.0627,0.135046 v -0.115756 q 1.24437,-1.311891 1.71221,-1.83761 0.10611,-0.593246 0.51126,-0.593246 0.10128,0 0.21704,0.05788 l 0.0289,0.09164 q -0.0193,0.05788 -0.0193,0.163989 0,0.09164 0.0675,0.342439 0.0724,0.245981 0.11093,0.41479 0.0386,0.16881 0.0386,0.381027 0,0.318328 -0.14469,0.612539 -0.1447,0.289388 -0.41962,0.559483 -0.27492,0.265271 -0.709,0.545012 0.17364,0.02894 0.27492,0.02894 0.19775,0 0.42444,-0.09646 0.23151,-0.101285 0.46784,-0.265271 0.24116,-0.16881 0.55948,-0.434081 v 0.323149 q -0.61736,0.60289 -1.10449,0.916395 -0.48714,0.308681 -0.83923,0.308681 -0.45337,0 -0.83922,-0.385852 -0.22669,-0.231511 -0.28457,-0.443728 -0.0531,-0.212217 -0.0531,-0.573952 z m 1.79903,-0.737939 -0.0868,-0.704175 q -0.29903,0.337619 -1.27812,1.297421 0.28938,0.0627 0.39549,0.168809 0.10611,0.106109 0.29903,0.409967 0.32798,-0.135049 0.50161,-0.366559 0.17846,-0.236334 0.17846,-0.641477 0,-0.04823 -0.005,-0.08682 0,-0.03858 -0.005,-0.07717 z m 2.99516,-1.900312 h 0.2074 q 0.25563,-0.458197 0.46302,-0.6463 0.2074,-0.192926 0.47267,-0.192926 0.26527,0 0.26527,0.120578 0,0.05788 -0.2074,0.313505 -0.20739,0.255625 -0.3135,0.429257 0.16399,0.01929 0.28939,0.03376 0.13022,0.01447 0.20257,0.0241 -0.27492,0.511251 -0.68971,1.04662 -0.13505,-0.0097 -0.22668,-0.01447 -0.0917,-0.0097 -0.18811,-0.01447 -0.0916,-0.0097 -0.22668,-0.01929 -0.26045,0.419611 -0.43891,0.752406 -0.17363,0.327975 -0.27009,0.602893 -0.0916,0.274918 -0.0916,0.520899 0,0.332795 0.26527,0.332795 0.18328,0 0.47749,-0.192926 0.29903,-0.197747 0.79581,-0.60289 v 0.323149 q -1.30224,1.413176 -1.92442,1.413176 -0.21704,0 -0.35209,-0.168809 -0.13023,-0.16881 -0.13023,-0.434081 0,-0.178456 0.0723,-0.424437 0.0772,-0.245977 0.2701,-0.742762 -0.0675,0.05788 -0.13023,0.115756 -0.0579,0.05305 -0.11093,0.101287 -0.0482,0.04341 -0.10611,0.09646 -0.0579,0.04823 -0.11575,0.101285 V 57.91879 q 0.50642,-0.424437 1.22507,-1.490348 -0.0724,-0.0048 -0.13505,-0.0048 -0.0627,-0.0048 -0.14952,-0.0048 -0.28456,0 -0.42443,0.03859 -0.0579,0.01447 -0.11093,0.03376 -0.0482,0.01447 -0.0675,0.01447 -0.0193,0 -0.0193,-0.02894 0,-0.159162 0.19775,-0.477488 0.15916,-0.270097 0.29903,-0.40032 0.14469,-0.130225 0.34726,-0.173632 0.2074,-0.04823 0.57878,-0.04823 z m 2.9807,3.163972 q 0.66559,-0.588422 1.14308,-1.022503 0.47749,-0.438904 0.74758,-0.689708 0.27492,-0.250801 0.48232,-0.424434 0.20739,-0.173633 0.26527,-0.173633 0.11093,-0.0048 0.21222,0.231511 0.10128,0.231508 0.10128,0.37138 0,0.09164 -0.30868,0.43408 -0.30385,0.337619 -0.45819,0.540192 -0.14952,0.20257 -0.14952,0.424434 0,0.130225 0.0868,0.21222 0.0868,0.07717 0.20739,0.07717 0.13987,0 0.33279,-0.144693 0.19775,-0.144695 0.61736,-0.516075 v 0.342443 q -0.41961,0.395496 -0.76205,0.684884 -0.34244,0.284565 -0.59807,0.429257 -0.2508,0.139872 -0.41961,0.139872 -0.14952,0 -0.2508,-0.110931 -0.10129,-0.115756 -0.10129,-0.284565 0,-0.163986 0.0579,-0.332796 0.0579,-0.168809 0.17846,-0.40032 0.12057,-0.23151 0.31832,-0.554661 0.19775,-0.327973 0.36174,-0.598067 -0.49196,0.40032 -0.87299,0.771699 -0.38103,0.371383 -0.62218,0.651124 -0.24116,0.274918 -0.38103,0.434081 -0.27009,0.299035 -0.5016,0.299035 -0.25081,0 -0.25081,-0.356913 0,-0.144692 0.1881,-0.516075 0.1881,-0.376203 0.53537,-0.954979 0.0289,-0.03858 0.0289,-0.120579 0,-0.09646 -0.0965,-0.09646 -0.10611,0 -0.30868,0.20257 -0.19775,0.19775 -0.77171,0.834403 -0.15916,0.178456 -0.36173,0.467844 -0.19775,0.284565 -0.28456,0.381027 -0.0868,0.09646 -0.17364,0.09646 -0.17363,0 -0.32314,-0.308679 -0.14952,-0.308682 -0.14952,-0.718648 0,-0.299035 0.0965,-0.516075 0.10129,-0.217041 0.30868,-0.54019 0.32315,-0.467844 0.52572,-0.665591 0.2074,-0.202573 0.43408,-0.202573 0.13987,0 0.23634,0.05788 0.0965,0.05305 0.0965,0.149516 0,0.101288 -0.17846,0.332798 -0.17363,0.231511 -0.44373,0.477489 -0.14469,0.139872 -0.27491,0.347265 -0.13023,0.20257 -0.13023,0.294212 0,0.130225 0.10129,0.130225 0.082,0 0.41479,-0.337619 0.33279,-0.337622 0.72829,-0.733118 0.40032,-0.40032 0.73794,-0.660768 0.34244,-0.265271 0.57877,-0.265271 0.1447,0 0.23634,0.110932 0.0965,0.106108 0.0965,0.265271 0,0.106108 -0.14469,0.38585 -0.1447,0.274918 -0.42444,0.684884 -0.27492,0.405143 -0.71382,0.983919 z m 3.81027,-1.524108 q 0.73312,-0.665594 1.42282,-0.988743 0.68971,-0.323148 1.06592,-0.323148 0.10128,0 0.1881,0.08682 0.0868,0.08199 0.13505,0.192926 0.0531,0.110932 0.0531,0.163986 0,0.08682 -0.0675,0.130225 -0.0675,0.03858 -0.23634,0.09646 0.0338,0.07717 0.0868,0.19775 0.053,0.120576 0.082,0.197747 0.0289,0.07235 0.0289,0.130225 0,0.115755 -0.23633,0.434081 -0.23151,0.313504 -0.32797,0.46302 -0.0916,0.149516 -0.0916,0.366559 0,0.35691 0.32797,0.35691 0.33762,0 1.05626,-0.63183 v 0.294211 q -1.22025,1.355299 -1.74597,1.355299 -0.1881,0 -0.27009,-0.125399 -0.0772,-0.120579 -0.0772,-0.361736 0,-0.381026 0.27491,-1.104498 -0.70417,0.781349 -1.04661,1.114145 -0.34245,0.327972 -0.56431,0.327972 -0.10611,0 -0.26527,-0.183279 -0.15917,-0.18328 -0.28457,-0.472665 -0.12058,-0.294212 -0.12058,-0.607716 0,-0.226688 0.0434,-0.376204 0.0434,-0.154339 0.16881,-0.313504 0.1254,-0.159163 0.40032,-0.419611 z m 2.31028,-0.530545 q -1.25401,0.573953 -1.78938,0.974272 -0.53054,0.40032 -0.53054,0.824754 0,0.154342 0.0531,0.255627 0.053,0.09646 0.14469,0.09646 0.0531,0 0.18811,-0.06752 0.50642,-0.299032 0.92604,-0.776523 0.41961,-0.482312 1.00803,-1.307068 z m 1.11414,1.528932 v -0.115756 q 1.24437,-1.311891 1.71221,-1.83761 0.10611,-0.593246 0.51126,-0.593246 0.10128,0 0.21704,0.05788 l 0.0289,0.09164 q -0.0193,0.05788 -0.0193,0.163989 0,0.09164 0.0675,0.342439 0.0724,0.245981 0.11093,0.41479 0.0386,0.16881 0.0386,0.381027 0,0.318328 -0.14469,0.612539 -0.1447,0.289388 -0.41962,0.559483 -0.27492,0.265271 -0.709,0.545012 0.17363,0.02894 0.27492,0.02894 0.19775,0 0.42444,-0.09646 0.23151,-0.101285 0.46784,-0.265271 0.24116,-0.16881 0.55948,-0.434081 v 0.323149 q -0.61736,0.60289 -1.10449,0.916395 -0.48714,0.308681 -0.83923,0.308681 -0.45337,0 -0.83922,-0.385852 -0.22669,-0.231511 -0.28457,-0.443728 -0.0531,-0.212217 -0.0531,-0.573952 z m 1.79903,-0.737939 -0.0868,-0.704175 q -0.29903,0.337619 -1.27813,1.297421 0.28939,0.0627 0.3955,0.168809 0.10611,0.106109 0.29903,0.409967 0.32798,-0.135049 0.50161,-0.366559 0.17846,-0.236334 0.17846,-0.641477 0,-0.04823 -0.005,-0.08682 0,-0.03858 -0.005,-0.07717 z"
           id="path3"
           style="font-size:37.3333px;font-family:'Brush Script MT';-inkscape-font-specification:'Brush Script MT, Normal';text-align:center;white-space:pre;fill:#00ff00;stroke:#00ff00;stroke-width:0.264583;stroke-dasharray:none" />
        <path
           style="baseline-shift:baseline;display:inline;overflow:visible;fill:#00ff00;stroke:#00ff00;stroke-width:0.264583;stroke-linecap:round;stroke-linejoin:round;stroke-dasharray:none;stroke-opacity:1;enable-background:accumulate;stop-color:#000000"
           d="m 130.36998,20.052282 a 0.5,0.5 0 0 0 -0.5,0.5 v 0.82031 l -0.61328,-0.24609 a 0.5,0.5 0 0 0 -0.65039,0.27734 0.5,0.5 0 0 0 0.2793,0.65039 l 0.98437,0.39454 v 2.45312 l -1.89648,-1.0332 -0.22461,-1.57032 a 0.5,0.5 0 0 0 -0.56446,-0.42382 0.5,0.5 0 0 0 -0.42578,0.56445 l 0.11524,0.80469 -0.92969,-0.5293 a 0.5,0.5 0 0 0 -0.68164,0.18555 0.5,0.5 0 0 0 0.18555,0.68164 l 0.78711,0.44922 -0.67579,0.19336 a 0.5,0.5 0 0 0 -0.34375,0.61718 0.5,0.5 0 0 0 0.61915,0.34375 l 1.62109,-0.46093 1.86914,1.01953 -1.87109,1.01953 -1.61914,-0.46289 a 0.5,0.5 0 0 0 -0.61915,0.34375 0.5,0.5 0 0 0 0.34375,0.61719 l 0.67579,0.19335 -0.78711,0.44922 a 0.5,0.5 0 0 0 -0.18555,0.6836 0.5,0.5 0 0 0 0.68164,0.18554 l 0.92969,-0.53125 -0.11524,0.80469 a 0.5,0.5 0 0 0 0.42578,0.56641 0.5,0.5 0 0 0 0.56446,-0.42383 l 0.22461,-1.57031 1.89648,-1.03516 v 2.25 l -1.05664,0.63477 a 0.5,0.5 0 0 0 -0.16992,0.68554 0.5,0.5 0 0 0 0.68555,0.17188 l 0.54101,-0.32422 v 0.93359 a 0.5,0.5 0 0 0 0.5,0.5 0.5,0.5 0 0 0 0.5,-0.5 v -0.93359 l 0.53906,0.32422 a 0.5,0.5 0 0 0 0.6875,-0.17188 0.5,0.5 0 0 0 -0.17187,-0.68554 l -1.05469,-0.63282 v -2.25 l 1.89453,1.03321 0.22461,1.57031 a 0.5,0.5 0 0 0 0.56445,0.42383 0.5,0.5 0 0 0 0.42579,-0.56641 l -0.11524,-0.80469 0.92969,0.53125 a 0.5,0.5 0 0 0 0.68164,-0.18554 0.5,0.5 0 0 0 -0.18555,-0.6836 l -0.78711,-0.44922 0.67578,-0.19335 a 0.5,0.5 0 0 0 0.34375,-0.61719 0.5,0.5 0 0 0 -0.61914,-0.34375 l -1.61914,0.46289 -1.87109,-1.01953 1.86914,-1.01953 1.62109,0.46093 a 0.5,0.5 0 0 0 0.61914,-0.34375 0.5,0.5 0 0 0 -0.34375,-0.61718 l -0.67578,-0.19336 0.78711,-0.44922 a 0.5,0.5 0 0 0 0.18555,-0.68164 0.5,0.5 0 0 0 -0.68164,-0.18555 l -0.92969,0.5293 0.11524,-0.80469 a 0.5,0.5 0 0 0 -0.42579,-0.56445 0.5,0.5 0 0 0 -0.56445,0.42382 l -0.22461,1.57032 -1.89453,1.03125 v -2.45117 l 0.98242,-0.39454 a 0.5,0.5 0 0 0 0.2793,-0.65039 0.5,0.5 0 0 0 -0.65039,-0.27734 l -0.61133,0.24414 v -0.81836 a 0.5,0.5 0 0 0 -0.5,-0.5 z"
           id="path7189" />
      </g>
    </g>
    <g
       id="g8"
       inkscape:label="front">
      <g
         id="g6559"
         inkscape:export-filename=".\front.svg"
         inkscape:export-xdpi="96"
         inkscape:export-ydpi="96"
         style="vector-effect:non-scaling-stroke;stroke-width:0.264583;stroke-dasharray:none;-inkscape-stroke:hairline"
         inkscape:label="body">
        <path
           id="path2"
           style="opacity:1;vector-effect:non-scaling-stroke;fill:none;fill-opacity:1;stroke:#ff0000;stroke-width:0.264583;stroke-dasharray:none;stroke-opacity:1;-inkscape-stroke:hairline"
           inkscape:label="front"
           inkscape:transform-center-x="-1.8813699e-05"
           inkscape:transform-center-y="-3.4125711"
           d="m 31.126706,4.8081847 -7.35413,7.3536063 2.121639,2.121398 L 12.035332,28.142977 9.9134249,26.021126 2.5592528,33.374422 4.6807146,35.496534 0,40.17756 l 4.0002657,6.928678 -2.5979103,1.4999 4.2501289,7.361456 2.5979103,-1.499915 4.7502944,8.226699 -2.598363,1.50017 4.250122,7.361434 2.598369,-1.500163 2.896766,5.068906 -0.02951,2.999734 8.219949,-2.68e-4 -1.49e-4,-2.999554 -1.4e-5,-20.427707 c 2.1e-5,-5.655009 5.30113,-10.239267 11.839789,-10.239338 6.538659,7.1e-5 11.83935,4.584322 11.839378,10.239338 l 8e-6,20.4277 1.41e-4,2.999561 8.160676,4.31e-4 2.23e-4,-3 2.926196,-5.06876 2.59832,1.500099 4.249889,-7.361597 -2.598328,-1.500106 4.750351,-8.226954 2.598334,1.500099 4.249875,-7.361597 L 76.354401,47.1057 80.354568,40.177687 75.673755,35.496294 77.7947,33.37491 70.441334,26.020667 68.319469,28.14256 54.461025,14.282716 56.581539,12.161579 49.22794,4.8078099 47.106718,6.9287484 40.177433,0 33.248104,6.9291586 Z"
           inkscape:export-filename="front.svg"
           inkscape:export-xdpi="96"
           inkscape:export-ydpi="96"
           sodipodi:nodetypes="ccccccccccccccccccccccccccccccccccccccccccccccc" />
      </g>
      <path
         style="display:inline;vector-effect:non-scaling-stroke;fill:none;fill-opacity:1;stroke:none;stroke-width:0.678752;stroke-dasharray:none;stroke-opacity:1;-inkscape-stroke:hairline"
         id="path8"
         sodipodi:type="arc"
         sodipodi:cx="40.177284"
         sodipodi:cy="57.678188"
         sodipodi:rx="23.044991"
         sodipodi:ry="23.044991"
         sodipodi:start="3.1415927"
         sodipodi:end="0"
         sodipodi:arc-type="arc"
         d="m 17.132294,57.678188 a 23.044991,23.044991 0 0 1 23.04499,-23.04499 23.044991,23.044991 0 0 1 23.044991,23.04499"
         sodipodi:open="true"
         inkscape:label="curve_for_text" />
      <text
         xml:space="preserve"
         style="font-style:normal;font-variant:normal;font-weight:normal;font-stretch:normal;font-size:8.46667px;font-family:'Brush Script MT';-inkscape-font-specification:'Brush Script MT, Normal';font-variant-ligatures:normal;font-variant-caps:normal;font-variant-numeric:normal;font-variant-east-asian:normal;text-align:center;writing-mode:lr-tb;direction:ltr;text-anchor:middle;vector-effect:non-scaling-stroke;fill:#00ff00;fill-opacity:1;stroke:#00ff00;stroke-width:0.264583;stroke-dasharray:none;stroke-opacity:1;-inkscape-stroke:hairline"
         id="text8"
         transform="translate(0.93640444)"
         inkscape:label="happy_holidays"><textPath
           xlink:href="#path8"
           startOffset="50%"
           id="textPath8"><tspan
             id="tspan8"
             style="font-style:normal;font-variant:normal;font-weight:normal;font-stretch:normal;font-size:8.46667px;font-family:'Brush Script MT';-inkscape-font-specification:'Brush Script MT, Normal';font-variant-ligatures:normal;font-variant-caps:normal;font-variant-numeric:normal;font-variant-east-asian:normal;fill:#00ff00;stroke:#00ff00;stroke-width:0.264583">Happy Holidays</tspan></textPath></text>
    </g>
    <g
       id="base"
       inkscape:export-filename=".\base-big.svg"
       inkscape:export-xdpi="96"
       inkscape:export-ydpi="96"
       transform="translate(60.789447,-150.38682)"
       style="vector-effect:non-scaling-stroke;stroke-width:0.264583;stroke-dasharray:none;-inkscape-stroke:hairline">
      <path
         d="m 93.270146,380.23195 q 0,-0.0951 0.04134,-0.26459 0.04134,-0.17363 0.111621,-0.26872 0.177767,-0.25218 0.326595,-0.46302 0.148828,-0.21084 0.264583,-0.3638 0.115756,-0.15296 0.231511,-0.27285 0.706934,-0.76481 1.012858,-1.14102 0.305925,-0.38034 0.305925,-0.52916 0,-0.0992 -0.09095,-0.15297 -0.09095,-0.0579 -0.239778,-0.0579 -0.305925,0 -0.768946,0.2191 -0.463021,0.21498 -1.083138,0.56224 -0.615984,0.34727 -0.686264,0.34727 -0.111621,0 -0.111621,-0.16123 0,-0.13643 0.08682,-0.38861 0.06615,-0.27285 0.107487,-0.42168 0.04134,-0.15296 0.136425,-0.27285 0.09922,-0.11989 0.322462,-0.26045 0.227376,-0.14056 0.694531,-0.38447 l 0.04134,0.15296 q 0.388607,-0.15709 0.731739,-0.23978 0.347266,-0.0827 0.591178,-0.0827 0.479558,0 0.677995,0.16537 0.202572,0.16123 0.202572,0.70693 0,0.29766 -0.08682,0.49609 -0.08682,0.19844 -0.338998,0.55397 -0.574642,0.8351 -0.86403,1.15756 -0.839226,0.95911 -0.839226,1.12034 0,0.091 0.11989,0.091 0.09922,0 0.28112,-0.14056 0.181901,-0.14056 0.438216,-0.40514 0.256315,-0.26458 0.711068,-0.75654 0.483691,-0.5209 0.814421,-0.91778 0.334863,-0.40101 0.549837,-0.68213 0.214974,-0.28525 0.227377,-0.30592 0.223242,-0.27285 0.458887,-0.44649 0.239778,-0.17776 0.305924,-0.17776 0.04961,0 0.115755,0.0909 0.06615,0.091 0.111622,0.21497 0.04961,0.12403 0.04961,0.19017 0,0.0207 -0.09922,0.20257 -0.09922,0.17777 -0.214974,0.37207 -0.115755,0.19017 -0.37207,0.58705 -0.56224,0.8723 -0.859897,1.46761 -0.297656,0.59118 -0.297656,0.77721 0,0.0661 0.04547,0.12403 0.04961,0.0537 0.09922,0.0537 0.06615,0 0.239779,-0.10335 0.173633,-0.10749 0.384473,-0.30593 0.276985,-0.26458 0.504362,-0.54983 0.227376,-0.28526 0.450619,-0.63666 0.223242,-0.3514 0.396875,-0.66559 0.173633,-0.31419 0.3514,-0.66146 l -0.07028,-0.21084 q -0.01654,-0.0496 -0.01654,-0.12816 0,-0.062 0.243913,-0.40101 0.243913,-0.34313 0.322461,-0.34313 0.08682,0 0.144694,0.12816 0.06201,0.12402 0.06201,0.25218 0,0.14056 -0.128158,0.56224 -0.124023,0.41755 -0.392741,1.01286 -0.264583,0.59531 -0.657324,1.21129 -0.338998,0.53744 -0.727605,0.92191 -0.384473,0.38034 -0.694531,0.56638 -0.310059,0.18603 -0.458887,0.18603 -0.169499,0 -0.355534,-0.14883 -0.152962,-0.13229 -0.219108,-0.23564 -0.06201,-0.10749 -0.08268,-0.23151 -0.02067,-0.12403 -0.02067,-0.28939 0,-0.3514 0.194303,-0.82269 0.194304,-0.47129 0.578777,-1.17409 -1.203028,1.46348 -1.864487,2.12907 -0.657324,0.66559 -0.963249,0.66559 -0.202572,0 -0.343132,-0.23977 -0.14056,-0.24392 -0.14056,-0.58291 z m 6.378942,-0.4837 v 0.10336 q 0,0.24391 0.119889,0.38034 0.11989,0.13642 0.314193,0.13642 0.20257,0 0.41755,-0.0951 0.2191,-0.0951 0.43408,-0.25218 0.21497,-0.1571 0.52503,-0.42168 v 0.25218 q -0.46715,0.56224 -0.87643,0.86403 -0.40928,0.29765 -0.830959,0.29765 -0.367937,0 -0.582911,-0.28525 -0.214974,-0.28525 -0.214974,-0.78135 0,-0.43408 0.202572,-0.78548 0.202572,-0.35553 0.661459,-0.74828 0.314193,-0.26871 0.624253,-0.40514 0.31006,-0.13642 0.55397,-0.13642 0.1943,0 0.30592,0.0909 0.11576,0.0868 0.11576,0.26458 0,0.26045 -0.1943,0.5209 -0.19431,0.25631 -0.59532,0.51263 -0.39687,0.25218 -0.979782,0.48782 z m 0.04134,-0.26871 q 0.372072,-0.1447 0.636652,-0.35967 0.26459,-0.21498 0.38861,-0.40928 0.12816,-0.19844 0.12816,-0.28939 0,-0.0951 -0.0868,-0.0951 -0.0744,0 -0.24391,0.0951 -0.16537,0.0951 -0.339,0.24805 -0.1695,0.15296 -0.305925,0.35967 -0.136426,0.2067 -0.177767,0.45062 z m 3.745512,0.0744 v 0.30593 q -0.86403,1.14515 -1.4056,1.14515 -0.29352,0 -0.46302,-0.31833 -0.16537,-0.32246 -0.16537,-0.84336 0,-0.42168 0.19844,-1.00046 0.19844,-0.58291 0.52917,-1.17822 0.33486,-0.59945 0.6904,-1.0418 0.35966,-0.44648 0.66559,-0.62425 0.12402,-0.0744 0.1943,-0.0744 0.0868,0 0.11576,0.0785 0.0289,0.0744 0.0289,0.26045 0,0.57465 -0.46716,1.41387 -0.46715,0.83509 -1.30225,1.70739 -0.0413,0.21498 -0.0413,0.33073 0,0.26458 0.11162,0.42995 0.11576,0.16536 0.31833,0.16536 0.10335,0 0.22324,-0.0785 0.11989,-0.0827 0.25218,-0.20258 0.1323,-0.11989 0.51677,-0.47542 z m -1.2361,-0.74414 q 0.21497,-0.21084 0.41341,-0.47956 0.20257,-0.26872 0.38034,-0.57464 0.17777,-0.30592 0.27698,-0.54984 0.10336,-0.24391 0.10336,-0.36793 0,-0.0951 -0.0662,-0.0951 -0.0248,0 -0.0951,0.0455 -0.25218,0.2067 -0.56638,0.81028 -0.31419,0.59945 -0.44648,1.2113 z m 3.68763,0.79788 v 0.27699 q -0.44235,0.43408 -0.72347,0.67386 -0.27699,0.23978 -0.5209,0.37207 -0.23978,0.13229 -0.47129,0.13229 -0.22738,0 -0.41755,-0.17776 -0.19016,-0.18191 -0.29765,-0.47129 -0.10749,-0.29353 -0.10749,-0.62012 0,-0.28112 0.12403,-0.50023 0.12402,-0.21911 0.47955,-0.56637 0.42168,-0.41341 0.78135,-0.63666 0.3638,-0.22737 0.57051,-0.22737 0.14883,0 0.25218,0.10335 0.10335,0.10335 0.10335,0.26045 0,0.13229 -0.13642,0.3762 -0.13643,0.24392 -0.30593,0.42582 -0.1695,0.17776 -0.26872,0.17776 -0.10748,0 -0.10748,-0.11575 0.004,-0.0331 0.004,-0.062 0.004,-0.0289 0.004,-0.0579 0,-0.0496 -0.0372,-0.0537 -0.0331,-0.008 -0.0827,0.0289 -0.41342,0.28938 -0.56638,0.40927 -0.15296,0.11576 -0.24391,0.23565 -0.0868,0.11989 -0.0868,0.25218 0,0.24391 0.1571,0.39687 0.1571,0.15297 0.40928,0.15297 0.26045,0 0.62425,-0.19844 0.36794,-0.20257 0.86403,-0.58705 z m 2.6417,-0.0165 v 0.27698 q -0.27285,0.24805 -0.43822,0.33073 -0.16536,0.0827 -0.47542,0.0661 -0.53743,0.63665 -0.94671,0.63665 -0.23151,0 -0.42168,-0.15296 -0.19017,-0.15296 -0.30593,-0.41755 -0.11162,-0.26458 -0.11162,-0.59117 0,-0.26459 0.17364,-0.58705 0.17776,-0.32246 0.45475,-0.59945 0.28112,-0.28112 0.59944,-0.45061 0.31833,-0.17364 0.59118,-0.17364 0.19431,0 0.30593,0.062 0.11162,0.0579 0.11162,0.16537 0,0.0827 -0.0951,0.19017 0.1571,0.0331 0.21498,0.11162 0.0579,0.0744 0.0579,0.27699 0,0.19843 -0.0951,0.50022 -0.091,0.30179 -0.25218,0.56638 l 0.0744,0.0744 h 0.062 q 0.0703,0 0.13642,-0.0331 0.0703,-0.0372 0.12403,-0.0744 0.0537,-0.0413 0.23564,-0.17776 z m -0.85163,-1.08728 q -0.34313,0.20671 -0.58704,0.37621 -0.24392,0.16536 -0.41341,0.339 -0.1695,0.1695 -0.22738,0.34313 -0.10335,0.46302 -0.10335,0.50023 0,0.27285 0.38034,0.27285 0.17776,0 0.59531,-0.30593 -0.0703,-0.1943 -0.0703,-0.37207 0,-0.26045 0.10749,-0.52916 0.10748,-0.27286 0.31832,-0.62426 z m 2.73265,1.66192 q 0.57051,-0.50436 0.97979,-0.87643 0.40928,-0.37621 0.64079,-0.59118 0.23564,-0.21498 0.41341,-0.3638 0.17776,-0.14883 0.22737,-0.14883 0.0951,-0.004 0.18191,0.19844 0.0868,0.19843 0.0868,0.31832 0,0.0786 -0.26458,0.37207 -0.26045,0.28939 -0.39274,0.46302 -0.12816,0.17364 -0.12816,0.36381 0,0.11162 0.0744,0.1819 0.0744,0.0661 0.17777,0.0661 0.11989,0 0.28525,-0.12402 0.1695,-0.12402 0.52917,-0.44235 v 0.29352 q -0.35967,0.339 -0.65319,0.58705 -0.29352,0.24391 -0.51263,0.36793 -0.21497,0.11989 -0.35967,0.11989 -0.12815,0 -0.21497,-0.0951 -0.0868,-0.0992 -0.0868,-0.24392 0,-0.14056 0.0496,-0.28525 0.0496,-0.14469 0.15296,-0.34313 0.10336,-0.19844 0.27286,-0.47542 0.16949,-0.28112 0.31005,-0.51264 -0.42168,0.34314 -0.74827,0.66146 -0.3266,0.31833 -0.5333,0.55811 -0.20671,0.23564 -0.3266,0.37207 -0.23151,0.25631 -0.42995,0.25631 -0.21497,0 -0.21497,-0.30592 0,-0.12402 0.16123,-0.44235 0.16123,-0.32246 0.45889,-0.81856 0.0248,-0.0331 0.0248,-0.10335 0,-0.0827 -0.0827,-0.0827 -0.091,0 -0.26458,0.17363 -0.1695,0.1695 -0.66146,0.7152 -0.13643,0.15297 -0.31006,0.40101 -0.1695,0.24392 -0.24391,0.3266 -0.0744,0.0827 -0.14883,0.0827 -0.14883,0 -0.27699,-0.26458 -0.12815,-0.26459 -0.12815,-0.61599 0,-0.25631 0.0827,-0.44235 0.0868,-0.18603 0.26458,-0.46302 0.27699,-0.40101 0.45062,-0.57051 0.17777,-0.17363 0.37207,-0.17363 0.11989,0 0.20257,0.0496 0.0827,0.0455 0.0827,0.12816 0,0.0868 -0.15296,0.28525 -0.14883,0.19844 -0.38034,0.40928 -0.12402,0.11989 -0.23564,0.29766 -0.11162,0.17363 -0.11162,0.25218 0,0.11162 0.0868,0.11162 0.0703,0 0.35554,-0.28939 0.28525,-0.28939 0.62425,-0.62838 0.34313,-0.34314 0.63252,-0.56638 0.29352,-0.22737 0.49609,-0.22737 0.12403,0 0.20258,0.0951 0.0827,0.0909 0.0827,0.22738 0,0.0909 -0.12403,0.33073 -0.12402,0.23564 -0.3638,0.58704 -0.23564,0.34727 -0.61185,0.84336 z m 3.44372,-0.41755 v 0.10336 q 0,0.24391 0.11989,0.38034 0.11989,0.13642 0.31419,0.13642 0.20258,0 0.41755,-0.0951 0.21911,-0.0951 0.43408,-0.25218 0.21498,-0.1571 0.52503,-0.42168 v 0.25218 q -0.46715,0.56224 -0.87643,0.86403 -0.40928,0.29765 -0.83096,0.29765 -0.36793,0 -0.58291,-0.28525 -0.21497,-0.28525 -0.21497,-0.78135 0,-0.43408 0.20257,-0.78548 0.20257,-0.35553 0.66146,-0.74828 0.31419,-0.26871 0.62425,-0.40514 0.31006,-0.13642 0.55397,-0.13642 0.19431,0 0.30593,0.0909 0.11575,0.0868 0.11575,0.26458 0,0.26045 -0.1943,0.5209 -0.1943,0.25631 -0.59531,0.51263 -0.39688,0.25218 -0.97979,0.48782 z m 0.0413,-0.26871 q 0.37207,-0.1447 0.63666,-0.35967 0.26458,-0.21498 0.3886,-0.40928 0.12816,-0.19844 0.12816,-0.28939 0,-0.0951 -0.0868,-0.0951 -0.0744,0 -0.24391,0.0951 -0.16536,0.0951 -0.339,0.24805 -0.16949,0.15296 -0.30592,0.35967 -0.13643,0.2067 -0.17777,0.45062 z m 5.02709,-2.20762 -0.88884,0.46715 q -0.2067,0.10336 -0.27698,0.10336 -0.12816,0 -0.18604,-0.0786 -0.062,-0.0827 -0.062,-0.25218 0,-0.19431 0.0827,-0.44649 0.0827,-0.25631 0.19017,-0.3762 0.11162,-0.12403 0.5209,-0.339 0.41341,-0.21911 0.99219,-0.43822 0.57877,-0.2191 1.20716,-0.3638 0.62839,-0.14469 1.14928,-0.14469 0.36381,0 0.53744,0.11575 0.17363,0.11576 0.17363,0.61185 0,0.26872 -0.18603,0.59945 -0.1819,0.32659 -0.44235,0.63665 -0.25632,0.31006 -0.95498,1.09968 0.37207,-0.0579 0.5457,-0.0744 0.17363,-0.0165 0.64906,-0.0703 0.54983,-0.79375 0.88883,-1.26504 0.339,-0.47542 0.57464,-0.78548 0.23565,-0.31419 0.28112,-0.35967 0.0827,-0.0951 0.13643,-0.0703 0.0579,0.0207 0.0579,0.1695 0,0.1695 -0.0372,0.27699 -0.0331,0.10749 -0.10749,0.21497 -0.0744,0.10336 -0.0786,0.11162 -0.10748,0.17777 -0.31006,0.46716 -0.20257,0.28525 -0.39687,0.56637 -0.1943,0.28112 -0.44235,0.6656 0.46302,0.0165 0.91364,0.11988 l -0.74414,1.00873 q -0.30593,-0.0413 -0.81442,-0.0413 -0.12403,0.24805 -0.19431,0.38861 -0.0661,0.14056 -0.11575,0.26871 -0.0455,0.12403 -0.0455,0.23151 0,0.0661 0.0372,0.17777 0.0413,0.10749 0.0413,0.12402 0,0.0827 -0.12402,0.17777 -0.11989,0.0909 -0.28526,0.16123 -0.16123,0.0703 -0.25218,0.0703 -0.15296,0 -0.15296,-0.23151 0,-0.47956 0.49196,-1.33532 -0.65319,0.0537 -1.50068,0.1943 -0.24392,0.32247 -0.44235,0.61185 -0.19844,0.28939 -0.3266,0.48783 -0.12402,0.19844 -0.18603,0.26458 -0.0579,0.0661 -0.12816,0.0661 -0.11989,0 -0.20257,-0.10335 -0.0372,-0.0414 -0.0496,-0.0827 -0.008,-0.0413 -0.008,-0.0909 0,-0.0496 0,-0.0868 0,-0.0496 0.0537,-0.1447 0.0537,-0.0951 0.25632,-0.3762 0.20257,-0.28526 0.29765,-0.42995 -0.10748,0.0124 -0.27698,0.0124 -0.21498,0 -0.3514,-0.0786 -0.13229,-0.0785 -0.13229,-0.1943 0,-0.13229 0.0703,-0.28112 0.0703,-0.15296 0.1819,-0.25218 0.11162,-0.10335 0.22324,-0.10335 0.0744,0 0.17777,0.0455 l 1.0666,-0.26458 q 0.89297,-0.96738 1.33118,-1.52962 0.43822,-0.56224 0.43822,-0.72347 0,-0.091 -0.0496,-0.14883 -0.0496,-0.062 -0.14056,-0.0951 -0.0868,-0.0331 -0.20257,-0.0331 -0.13643,0 -0.43408,0.0744 -0.29353,0.0744 -0.7028,0.21911 -0.40928,0.1447 -1.02113,0.40101 -0.45475,0.18604 -0.45475,0.23565 0,0.0579 0.062,0.0744 0.062,0.0165 0.1571,0.0248 0.0992,0.008 0.0992,0.0289 0,0.0165 -0.0496,0.0455 -0.0455,0.0289 -0.12816,0.0703 z m 7.2471,2.31924 v 0.27698 q -0.27285,0.24805 -0.43821,0.33073 -0.16537,0.0827 -0.47543,0.0661 -0.53743,0.63665 -0.94671,0.63665 -0.23151,0 -0.42168,-0.15296 -0.19017,-0.15296 -0.30592,-0.41755 -0.11162,-0.26458 -0.11162,-0.59117 0,-0.26459 0.17363,-0.58705 0.17777,-0.32246 0.45475,-0.59945 0.28112,-0.28112 0.59945,-0.45061 0.31833,-0.17364 0.59118,-0.17364 0.1943,0 0.30592,0.062 0.11162,0.0579 0.11162,0.16537 0,0.0827 -0.0951,0.19017 0.15709,0.0331 0.21497,0.11162 0.0579,0.0744 0.0579,0.27699 0,0.19843 -0.0951,0.50022 -0.091,0.30179 -0.25219,0.56638 l 0.0744,0.0744 h 0.062 q 0.0703,0 0.13643,-0.0331 0.0703,-0.0372 0.12402,-0.0744 0.0537,-0.0413 0.23564,-0.17776 z m -0.85162,-1.08728 q -0.34314,0.20671 -0.58705,0.37621 -0.24391,0.16536 -0.41341,0.339 -0.1695,0.1695 -0.22738,0.34313 -0.10335,0.46302 -0.10335,0.50023 0,0.27285 0.38034,0.27285 0.17777,0 0.59531,-0.30593 -0.0703,-0.1943 -0.0703,-0.37207 0,-0.26045 0.10749,-0.52916 0.10749,-0.27286 0.31833,-0.62426 z m 2.73265,1.66192 q 0.57051,-0.50436 0.97978,-0.87643 0.40928,-0.37621 0.64079,-0.59118 0.23565,-0.21498 0.41341,-0.3638 0.17777,-0.14883 0.22738,-0.14883 0.0951,-0.004 0.1819,0.19844 0.0868,0.19843 0.0868,0.31832 0,0.0786 -0.26459,0.37207 -0.26045,0.28939 -0.39274,0.46302 -0.12816,0.17364 -0.12816,0.36381 0,0.11162 0.0744,0.1819 0.0744,0.0661 0.17777,0.0661 0.11989,0 0.28525,-0.12402 0.1695,-0.12402 0.52917,-0.44235 v 0.29352 q -0.35967,0.339 -0.65319,0.58705 -0.29353,0.24391 -0.51263,0.36793 -0.21498,0.11989 -0.35967,0.11989 -0.12816,0 -0.21498,-0.0951 -0.0868,-0.0992 -0.0868,-0.24392 0,-0.14056 0.0496,-0.28525 0.0496,-0.14469 0.15296,-0.34313 0.10335,-0.19844 0.27285,-0.47542 0.1695,-0.28112 0.31006,-0.51264 -0.42168,0.34314 -0.74828,0.66146 -0.32659,0.31833 -0.5333,0.55811 -0.2067,0.23564 -0.32659,0.37207 -0.23151,0.25631 -0.42995,0.25631 -0.21497,0 -0.21497,-0.30592 0,-0.12402 0.16123,-0.44235 0.16123,-0.32246 0.45888,-0.81856 0.0248,-0.0331 0.0248,-0.10335 0,-0.0827 -0.0827,-0.0827 -0.0909,0 -0.26459,0.17363 -0.1695,0.1695 -0.66146,0.7152 -0.13642,0.15297 -0.31005,0.40101 -0.1695,0.24392 -0.24392,0.3266 -0.0744,0.0827 -0.14883,0.0827 -0.14882,0 -0.27698,-0.26458 -0.12816,-0.26459 -0.12816,-0.61599 0,-0.25631 0.0827,-0.44235 0.0868,-0.18603 0.26459,-0.46302 0.27698,-0.40101 0.45062,-0.57051 0.17776,-0.17363 0.37207,-0.17363 0.11988,0 0.20257,0.0496 0.0827,0.0455 0.0827,0.12816 0,0.0868 -0.15296,0.28525 -0.14883,0.19844 -0.38034,0.40928 -0.12402,0.11989 -0.23565,0.29766 -0.11162,0.17363 -0.11162,0.25218 0,0.11162 0.0868,0.11162 0.0703,0 0.35553,-0.28939 0.28526,-0.28939 0.62425,-0.62838 0.34314,-0.34314 0.63252,-0.56638 0.29353,-0.22737 0.4961,-0.22737 0.12402,0 0.20257,0.0951 0.0827,0.0909 0.0827,0.22738 0,0.0909 -0.12402,0.33073 -0.12402,0.23564 -0.3638,0.58704 -0.23565,0.34727 -0.61185,0.84336 z m 3.44372,-0.41755 v 0.10336 q 0,0.24391 0.11989,0.38034 0.11988,0.13642 0.31419,0.13642 0.20257,0 0.41754,-0.0951 0.21911,-0.0951 0.43409,-0.25218 0.21497,-0.1571 0.52503,-0.42168 v 0.25218 q -0.46716,0.56224 -0.87643,0.86403 -0.40928,0.29765 -0.83096,0.29765 -0.36794,0 -0.58291,-0.28525 -0.21498,-0.28525 -0.21498,-0.78135 0,-0.43408 0.20258,-0.78548 0.20257,-0.35553 0.66145,-0.74828 0.3142,-0.26871 0.62426,-0.40514 0.31005,-0.13642 0.55397,-0.13642 0.1943,0 0.30592,0.0909 0.11576,0.0868 0.11576,0.26458 0,0.26045 -0.19431,0.5209 -0.1943,0.25631 -0.59531,0.51263 -0.39687,0.25218 -0.97978,0.48782 z m 0.0413,-0.26871 q 0.37207,-0.1447 0.63665,-0.35967 0.26458,-0.21498 0.38861,-0.40928 0.12816,-0.19844 0.12816,-0.28939 0,-0.0951 -0.0868,-0.0951 -0.0744,0 -0.24391,0.0951 -0.16537,0.0951 -0.339,0.24805 -0.1695,0.15296 -0.30593,0.35967 -0.13642,0.2067 -0.17776,0.45062 z"
         id="text2"
         style="font-size:8.46667px;font-family:'Brush Script MT';-inkscape-font-specification:'Brush Script MT, Normal';text-align:center;text-anchor:middle;fill:#00ff00;stroke-width:0.0700043"
         aria-label="Welcome Home" />
      <rect
         style="opacity:1;vector-effect:non-scaling-stroke;fill:none;fill-opacity:1;fill-rule:evenodd;stroke:#ff0000;stroke-width:0.264583;stroke-dasharray:none;stroke-opacity:1;-inkscape-stroke:hairline"
         id="rect7488"
         width="7.7612796"
         height="2.5000999"
         x="93.144051"
         y="278.37036" />
      <rect
         style="opacity:1;vector-effect:non-scaling-stroke;fill:none;fill-opacity:1;fill-rule:evenodd;stroke:#ff0000;stroke-width:0.264583;stroke-dasharray:none;stroke-opacity:1;-inkscape-stroke:hairline"
         id="rect7490"
         width="7.7602496"
         height="2.5001101"
         x="124.98397"
         y="278.36981" />
      <rect
         style="opacity:1;vector-effect:non-scaling-stroke;fill:none;fill-opacity:1;fill-rule:evenodd;stroke:#ff0000;stroke-width:0.264583;stroke-dasharray:none;stroke-opacity:1;-inkscape-stroke:hairline"
         id="rect7492"
         width="3.0003297"
         height="9.9999104"
         x="89.943733"
         y="300.86975" />
      <rect
         style="opacity:1;vector-effect:non-scaling-stroke;fill:none;fill-opacity:1;fill-rule:evenodd;stroke:#ff0000;stroke-width:0.264583;stroke-dasharray:none;stroke-opacity:1;-inkscape-stroke:hairline"
         id="rect7494"
         width="3.00034"
         height="9.9999104"
         x="132.94472"
         y="300.86975" />
      <rect
         style="opacity:1;vector-effect:non-scaling-stroke;fill:none;fill-opacity:1;fill-rule:evenodd;stroke:#ff0000;stroke-width:0.264583;stroke-dasharray:none;stroke-opacity:1;-inkscape-stroke:hairline"
         id="rect7496"
         width="3.0003297"
         height="9.9999104"
         x="89.943733"
         y="330.87" />
      <rect
         style="opacity:1;vector-effect:non-scaling-stroke;fill:none;fill-opacity:1;fill-rule:evenodd;stroke:#ff0000;stroke-width:0.264583;stroke-dasharray:none;stroke-opacity:1;-inkscape-stroke:hairline"
         id="rect7498"
         width="3.00034"
         height="9.9999104"
         x="132.94472"
         y="330.87" />
      <rect
         style="opacity:1;vector-effect:non-scaling-stroke;fill:none;fill-opacity:1;fill-rule:evenodd;stroke:#ff0000;stroke-width:0.264583;stroke-dasharray:none;stroke-opacity:1;-inkscape-stroke:hairline"
         id="rect7500"
         width="7.7607698"
         height="2.5001101"
         x="124.98345"
         y="360.86969" />
      <rect
         style="opacity:1;vector-effect:non-scaling-stroke;fill:none;fill-opacity:1;fill-rule:evenodd;stroke:#ff0000;stroke-width:0.264583;stroke-dasharray:none;stroke-opacity:1;-inkscape-stroke:hairline"
         id="rect7502"
         width="7.7612796"
         height="2.5001101"
         x="93.144051"
         y="360.87018" />
      <rect
         style="opacity:1;vector-effect:non-scaling-stroke;fill:none;fill-opacity:1;fill-rule:evenodd;stroke:#ff0000;stroke-width:0.321962;stroke-dasharray:none;stroke-opacity:1;-inkscape-stroke:hairline"
         id="rect7504"
         width="14.716461"
         height="11.487107"
         x="105.5859"
         y="266.74142" />
      <rect
         style="vector-effect:non-scaling-stroke;fill:none;stroke:#ff0000;stroke-width:0.264583;stroke-dasharray:none;-inkscape-stroke:hairline"
         id="rect6"
         width="120"
         height="120"
         x="52.944397"
         y="266.74142"
         ry="8.4153595" />
      <path
         style="baseline-shift:baseline;display:inline;overflow:visible;vector-effect:non-scaling-stroke;fill:#00ff00;stroke:#00ff00;stroke-width:0.264583;stroke-linecap:round;stroke-linejoin:round;stroke-dasharray:none;stroke-opacity:1;-inkscape-stroke:hairline;enable-background:accumulate;stop-color:#000000"
         d="m 157.46498,349.51834 a 0.5,0.5 0 0 0 -0.5,0.5 v 0.82031 l -0.61328,-0.24609 a 0.5,0.5 0 0 0 -0.65039,0.27734 0.5,0.5 0 0 0 0.2793,0.65039 l 0.98437,0.39454 v 2.45312 l -1.89648,-1.0332 -0.22461,-1.57032 a 0.5,0.5 0 0 0 -0.56446,-0.42382 0.5,0.5 0 0 0 -0.42578,0.56445 l 0.11524,0.80469 -0.92969,-0.5293 a 0.5,0.5 0 0 0 -0.68164,0.18555 0.5,0.5 0 0 0 0.18555,0.68164 l 0.78711,0.44922 -0.67579,0.19336 a 0.5,0.5 0 0 0 -0.34375,0.61718 0.5,0.5 0 0 0 0.61915,0.34375 l 1.62109,-0.46093 1.86914,1.01953 -1.87109,1.01953 -1.61914,-0.46289 a 0.5,0.5 0 0 0 -0.61915,0.34375 0.5,0.5 0 0 0 0.34375,0.61719 l 0.67579,0.19335 -0.78711,0.44922 a 0.5,0.5 0 0 0 -0.18555,0.6836 0.5,0.5 0 0 0 0.68164,0.18554 l 0.92969,-0.53125 -0.11524,0.80469 a 0.5,0.5 0 0 0 0.42578,0.56641 0.5,0.5 0 0 0 0.56446,-0.42383 l 0.22461,-1.57031 1.89648,-1.03516 v 2.25 l -1.05664,0.63477 a 0.5,0.5 0 0 0 -0.16992,0.68554 0.5,0.5 0 0 0 0.68555,0.17188 l 0.54101,-0.32422 v 0.93359 a 0.5,0.5 0 0 0 0.5,0.5 0.5,0.5 0 0 0 0.5,-0.5 v -0.93359 l 0.53906,0.32422 a 0.5,0.5 0 0 0 0.6875,-0.17188 0.5,0.5 0 0 0 -0.17187,-0.68554 l -1.05469,-0.63282 v -2.25 l 1.89453,1.03321 0.22461,1.57031 a 0.5,0.5 0 0 0 0.56445,0.42383 0.5,0.5 0 0 0 0.42579,-0.56641 l -0.11524,-0.80469 0.92969,0.53125 a 0.5,0.5 0 0 0 0.68164,-0.18554 0.5,0.5 0 0 0 -0.18555,-0.6836 l -0.78711,-0.44922 0.67578,-0.19335 a 0.5,0.5 0 0 0 0.34375,-0.61719 0.5,0.5 0 0 0 -0.61914,-0.34375 l -1.61914,0.46289 -1.87109,-1.01953 1.86914,-1.01953 1.62109,0.46093 a 0.5,0.5 0 0 0 0.61914,-0.34375 0.5,0.5 0 0 0 -0.34375,-0.61718 l -0.67578,-0.19336 0.78711,-0.44922 a 0.5,0.5 0 0 0 0.18555,-0.68164 0.5,0.5 0 0 0 -0.68164,-0.18555 l -0.92969,0.5293 0.11524,-0.80469 a 0.5,0.5 0 0 0 -0.42579,-0.56445 0.5,0.5 0 0 0 -0.56445,0.42382 l -0.22461,1.57032 -1.89453,1.03125 v -2.45117 l 0.98242,-0.39454 a 0.5,0.5 0 0 0 0.2793,-0.65039 0.5,0.5 0 0 0 -0.65039,-0.27734 l -0.61133,0.24414 v -0.81836 a 0.5,0.5 0 0 0 -0.5,-0.5 z"
         id="path9-1"
         inkscape:label="snow_flake" />
      <path
         style="baseline-shift:baseline;display:inline;overflow:visible;vector-effect:non-scaling-stroke;fill:#00ff00;stroke:#00ff00;stroke-width:0.264583;stroke-linecap:round;stroke-linejoin:round;stroke-dasharray:none;stroke-opacity:1;-inkscape-stroke:hairline;enable-background:accumulate;stop-color:#000000"
         d="m 157.46498,292.5817 a 0.5,0.5 0 0 0 -0.5,0.5 v 0.82031 l -0.61328,-0.24609 a 0.5,0.5 0 0 0 -0.65039,0.27734 0.5,0.5 0 0 0 0.2793,0.65039 l 0.98437,0.39454 v 2.45312 l -1.89648,-1.0332 -0.22461,-1.57032 a 0.5,0.5 0 0 0 -0.56446,-0.42382 0.5,0.5 0 0 0 -0.42578,0.56445 l 0.11524,0.80469 -0.92969,-0.5293 a 0.5,0.5 0 0 0 -0.68164,0.18555 0.5,0.5 0 0 0 0.18555,0.68164 l 0.78711,0.44922 -0.67579,0.19336 a 0.5,0.5 0 0 0 -0.34375,0.61718 0.5,0.5 0 0 0 0.61915,0.34375 l 1.62109,-0.46093 1.86914,1.01953 -1.87109,1.01953 -1.61914,-0.46289 a 0.5,0.5 0 0 0 -0.61915,0.34375 0.5,0.5 0 0 0 0.34375,0.61719 l 0.67579,0.19335 -0.78711,0.44922 a 0.5,0.5 0 0 0 -0.18555,0.6836 0.5,0.5 0 0 0 0.68164,0.18554 l 0.92969,-0.53125 -0.11524,0.80469 a 0.5,0.5 0 0 0 0.42578,0.56641 0.5,0.5 0 0 0 0.56446,-0.42383 l 0.22461,-1.57031 1.89648,-1.03516 v 2.25 l -1.05664,0.63477 a 0.5,0.5 0 0 0 -0.16992,0.68554 0.5,0.5 0 0 0 0.68555,0.17188 l 0.54101,-0.32422 v 0.93359 a 0.5,0.5 0 0 0 0.5,0.5 0.5,0.5 0 0 0 0.5,-0.5 v -0.93359 l 0.53906,0.32422 a 0.5,0.5 0 0 0 0.6875,-0.17188 0.5,0.5 0 0 0 -0.17187,-0.68554 l -1.05469,-0.63282 v -2.25 l 1.89453,1.03321 0.22461,1.57031 a 0.5,0.5 0 0 0 0.56445,0.42383 0.5,0.5 0 0 0 0.42579,-0.56641 l -0.11524,-0.80469 0.92969,0.53125 a 0.5,0.5 0 0 0 0.68164,-0.18554 0.5,0.5 0 0 0 -0.18555,-0.6836 l -0.78711,-0.44922 0.67578,-0.19335 a 0.5,0.5 0 0 0 0.34375,-0.61719 0.5,0.5 0 0 0 -0.61914,-0.34375 l -1.61914,0.46289 -1.87109,-1.01953 1.86914,-1.01953 1.62109,0.46093 a 0.5,0.5 0 0 0 0.61914,-0.34375 0.5,0.5 0 0 0 -0.34375,-0.61718 l -0.67578,-0.19336 0.78711,-0.44922 a 0.5,0.5 0 0 0 0.18555,-0.68164 0.5,0.5 0 0 0 -0.68164,-0.18555 l -0.92969,0.5293 0.11524,-0.80469 a 0.5,0.5 0 0 0 -0.42579,-0.56445 0.5,0.5 0 0 0 -0.56445,0.42382 l -0.22461,1.57032 -1.89453,1.03125 v -2.45117 l 0.98242,-0.39454 a 0.5,0.5 0 0 0 0.2793,-0.65039 0.5,0.5 0 0 0 -0.65039,-0.27734 l -0.61133,0.24414 v -0.81836 a 0.5,0.5 0 0 0 -0.5,-0.5 z"
         id="path10"
         inkscape:label="snow_flake" />
      <path
         style="baseline-shift:baseline;display:inline;overflow:visible;vector-effect:non-scaling-stroke;fill:#00ff00;stroke:#00ff00;stroke-width:0.264583;stroke-linecap:round;stroke-linejoin:round;stroke-dasharray:none;stroke-opacity:1;-inkscape-stroke:hairline;enable-background:accumulate;stop-color:#000000"
         d="m 68.425763,292.5817 a 0.5,0.5 0 0 0 -0.5,0.5 v 0.82031 l -0.61328,-0.24609 a 0.5,0.5 0 0 0 -0.65039,0.27734 0.5,0.5 0 0 0 0.2793,0.65039 l 0.98437,0.39454 v 2.45312 l -1.89648,-1.0332 -0.22461,-1.57032 a 0.5,0.5 0 0 0 -0.56446,-0.42382 0.5,0.5 0 0 0 -0.42578,0.56445 l 0.11524,0.80469 -0.92969,-0.5293 a 0.5,0.5 0 0 0 -0.68164,0.18555 0.5,0.5 0 0 0 0.18555,0.68164 l 0.78711,0.44922 -0.67579,0.19336 a 0.5,0.5 0 0 0 -0.34375,0.61718 0.5,0.5 0 0 0 0.61915,0.34375 l 1.62109,-0.46093 1.86914,1.01953 -1.87109,1.01953 -1.61914,-0.46289 a 0.5,0.5 0 0 0 -0.61915,0.34375 0.5,0.5 0 0 0 0.34375,0.61719 l 0.67579,0.19335 -0.78711,0.44922 a 0.5,0.5 0 0 0 -0.18555,0.6836 0.5,0.5 0 0 0 0.68164,0.18554 l 0.92969,-0.53125 -0.11524,0.80469 a 0.5,0.5 0 0 0 0.42578,0.56641 0.5,0.5 0 0 0 0.56446,-0.42383 l 0.22461,-1.57031 1.89648,-1.03516 v 2.25 l -1.05664,0.63477 a 0.5,0.5 0 0 0 -0.16992,0.68554 0.5,0.5 0 0 0 0.68555,0.17188 l 0.54101,-0.32422 v 0.93359 a 0.5,0.5 0 0 0 0.5,0.5 0.5,0.5 0 0 0 0.5,-0.5 v -0.93359 l 0.53906,0.32422 a 0.5,0.5 0 0 0 0.6875,-0.17188 0.5,0.5 0 0 0 -0.17187,-0.68554 l -1.05469,-0.63282 v -2.25 l 1.89453,1.03321 0.22461,1.57031 a 0.5,0.5 0 0 0 0.56445,0.42383 0.5,0.5 0 0 0 0.42579,-0.56641 l -0.11524,-0.80469 0.92969,0.53125 a 0.5,0.5 0 0 0 0.68164,-0.18554 0.5,0.5 0 0 0 -0.18555,-0.6836 l -0.78711,-0.44922 0.67578,-0.19335 a 0.5,0.5 0 0 0 0.34375,-0.61719 0.5,0.5 0 0 0 -0.61914,-0.34375 l -1.61914,0.46289 -1.87109,-1.01953 1.86914,-1.01953 1.62109,0.46093 a 0.5,0.5 0 0 0 0.61914,-0.34375 0.5,0.5 0 0 0 -0.34375,-0.61718 l -0.67578,-0.19336 0.78711,-0.44922 a 0.5,0.5 0 0 0 0.18555,-0.68164 0.5,0.5 0 0 0 -0.68164,-0.18555 l -0.92969,0.5293 0.11524,-0.80469 a 0.5,0.5 0 0 0 -0.42579,-0.56445 0.5,0.5 0 0 0 -0.56445,0.42382 l -0.22461,1.57032 -1.89453,1.03125 v -2.45117 l 0.98242,-0.39454 a 0.5,0.5 0 0 0 0.2793,-0.65039 0.5,0.5 0 0 0 -0.65039,-0.27734 l -0.61133,0.24414 v -0.81836 a 0.5,0.5 0 0 0 -0.5,-0.5 z"
         id="path11"
         inkscape:label="snow_flake" />
      <path
         style="baseline-shift:baseline;display:inline;overflow:visible;vector-effect:non-scaling-stroke;fill:#00ff00;stroke:#00ff00;stroke-width:0.264583;stroke-linecap:round;stroke-linejoin:round;stroke-dasharray:none;stroke-opacity:1;-inkscape-stroke:hairline;enable-background:accumulate;stop-color:#000000"
         d="m 68.425763,349.51834 a 0.5,0.5 0 0 0 -0.5,0.5 v 0.82031 l -0.61328,-0.24609 a 0.5,0.5 0 0 0 -0.65039,0.27734 0.5,0.5 0 0 0 0.2793,0.65039 l 0.98437,0.39454 v 2.45312 l -1.89648,-1.0332 -0.22461,-1.57032 a 0.5,0.5 0 0 0 -0.56446,-0.42382 0.5,0.5 0 0 0 -0.42578,0.56445 l 0.11524,0.80469 -0.92969,-0.5293 a 0.5,0.5 0 0 0 -0.68164,0.18555 0.5,0.5 0 0 0 0.18555,0.68164 l 0.78711,0.44922 -0.67579,0.19336 a 0.5,0.5 0 0 0 -0.34375,0.61718 0.5,0.5 0 0 0 0.61915,0.34375 l 1.62109,-0.46093 1.86914,1.01953 -1.87109,1.01953 -1.61914,-0.46289 a 0.5,0.5 0 0 0 -0.61915,0.34375 0.5,0.5 0 0 0 0.34375,0.61719 l 0.67579,0.19335 -0.78711,0.44922 a 0.5,0.5 0 0 0 -0.18555,0.6836 0.5,0.5 0 0 0 0.68164,0.18554 l 0.92969,-0.53125 -0.11524,0.80469 a 0.5,0.5 0 0 0 0.42578,0.56641 0.5,0.5 0 0 0 0.56446,-0.42383 l 0.22461,-1.57031 1.89648,-1.03516 v 2.25 l -1.05664,0.63477 a 0.5,0.5 0 0 0 -0.16992,0.68554 0.5,0.5 0 0 0 0.68555,0.17188 l 0.54101,-0.32422 v 0.93359 a 0.5,0.5 0 0 0 0.5,0.5 0.5,0.5 0 0 0 0.5,-0.5 v -0.93359 l 0.53906,0.32422 a 0.5,0.5 0 0 0 0.6875,-0.17188 0.5,0.5 0 0 0 -0.17187,-0.68554 l -1.05469,-0.63282 v -2.25 l 1.89453,1.03321 0.22461,1.57031 a 0.5,0.5 0 0 0 0.56445,0.42383 0.5,0.5 0 0 0 0.42579,-0.56641 l -0.11524,-0.80469 0.92969,0.53125 a 0.5,0.5 0 0 0 0.68164,-0.18554 0.5,0.5 0 0 0 -0.18555,-0.6836 l -0.78711,-0.44922 0.67578,-0.19335 a 0.5,0.5 0 0 0 0.34375,-0.61719 0.5,0.5 0 0 0 -0.61914,-0.34375 l -1.61914,0.46289 -1.87109,-1.01953 1.86914,-1.01953 1.62109,0.46093 a 0.5,0.5 0 0 0 0.61914,-0.34375 0.5,0.5 0 0 0 -0.34375,-0.61718 l -0.67578,-0.19336 0.78711,-0.44922 a 0.5,0.5 0 0 0 0.18555,-0.68164 0.5,0.5 0 0 0 -0.68164,-0.18555 l -0.92969,0.5293 0.11524,-0.80469 a 0.5,0.5 0 0 0 -0.42579,-0.56445 0.5,0.5 0 0 0 -0.56445,0.42382 l -0.22461,1.57032 -1.89453,1.03125 v -2.45117 l 0.98242,-0.39454 a 0.5,0.5 0 0 0 0.2793,-0.65039 0.5,0.5 0 0 0 -0.65039,-0.27734 l -0.61133,0.24414 v -0.81836 a 0.5,0.5 0 0 0 -0.5,-0.5 z"
         id="path13"
         inkscape:label="snow_flake" />
    </g>
    <use
       x="0"
       y="0"
       xlink:href="#g72"
       id="use2"
       transform="translate(0,149.80894)" />
    <use
       x="0"
       y="0"
       xlink:href="#rect45"
       id="use3"
       transform="translate(102.21735,75.55638)" />
    <use
       x="0"
       y="0"
       xlink:href="#g6919"
       id="use4"
       transform="translate(22.262976,229.55025)" />
  </g>
</svg>
