<?xml version="1.0" encoding="UTF-8" standalone="no"?>
<!-- Created with Inkscape (http://www.inkscape.org/) -->

<svg
   width="420mm"
   height="594mm"
   viewBox="0 0 420 594"
   version="1.1"
   id="svg1"
   inkscape:version="1.4.2 (ebf0e940, 2025-05-08)"
   sodipodi:docname="template.svg"
   inkscape:export-filename="tab.svg"
   inkscape:export-xdpi="96"
   inkscape:export-ydpi="96"
   xmlns:inkscape="http://www.inkscape.org/namespaces/inkscape"
   xmlns:sodipodi="http://sodipodi.sourceforge.net/DTD/sodipodi-0.dtd"
   xmlns="http://www.w3.org/2000/svg"
   xmlns:svg="http://www.w3.org/2000/svg">
  <sodipodi:namedview
     id="namedview1"
     pagecolor="#a0a0a0"
     bordercolor="#c0c0c0"
     borderopacity="0.25098039"
     inkscape:showpageshadow="2"
     inkscape:pageopacity="0.0"
     inkscape:pagecheckerboard="false"
     inkscape:deskcolor="#909090"
     inkscape:document-units="mm"
     showguides="true"
     inkscape:zoom="1.4672995"
     inkscape:cx="236.14811"
     inkscape:cy="560.21283"
     inkscape:window-width="1512"
     inkscape:window-height="920"
     inkscape:window-x="0"
     inkscape:window-y="34"
     inkscape:window-maximized="0"
     inkscape:current-layer="layer1"
     inkscape:lockguides="false"
     showgrid="false"
     showborder="false">
    <inkscape:grid
       id="grid13"
       units="mm"
       originx="0"
       originy="0"
       spacingx="0.99999998"
       spacingy="1"
       empcolor="#0099e5"
       empopacity="0.30196078"
       color="#0099e5"
       opacity="0.14901961"
       empspacing="5"
       enabled="true"
       visible="false" />
  </sodipodi:namedview>
  <defs
     id="defs1">
    <inkscape:path-effect
       effect="fillet_chamfer"
       id="path-effect31"
       is_visible="true"
       lpeversion="1"
       nodesatellites_param="F,0,0,1,0,0,0,1 @ F,0,0,1,0,11.999022,0,1 @ F,0,0,1,0,0,0,1 @ F,0,0,1,0,0,0,1 @ F,0,0,1,0,0,0,1 @ F,0,0,1,0,0,0,1 @ F,0,0,1,0,0,0,1 @ F,0,0,1,0,0,0,1 @ F,0,0,1,0,0,0,1 @ F,0,0,1,0,0,0,1 @ F,0,0,1,0,0,0,1 @ F,0,0,1,0,0,0,1 @ F,0,0,1,0,0,0,1 @ F,0,0,1,0,0,0,1 @ F,0,0,1,0,0,0,1 @ F,0,0,1,0,0,0,1 @ F,0,0,1,0,0,0,1 @ F,0,0,1,0,0,0,1 @ F,0,0,1,0,0,0,1 @ F,0,0,1,0,0,0,1 @ F,0,0,1,0,0,0,1 @ F,0,0,1,0,0,0,1 @ F,0,0,1,0,0,0,1 @ F,0,0,1,0,0,0,1 @ F,0,0,1,0,0,0,1 @ F,0,0,1,0,0,0,1 @ F,0,0,1,0,0,0,1 @ F,0,0,1,0,0,0,1 @ F,0,0,1,0,0,0,1 @ F,0,0,1,0,0,0,1 @ F,0,0,1,0,0,0,1 | F,0,0,1,0,0,0,1 @ F,0,0,1,0,0,0,1 @ F,0,0,1,0,0,0,1 @ F,0,0,1,0,0,0,1 | F,0,0,1,0,0,0,1 @ F,0,0,1,0,0,0,1 @ F,0,0,1,0,0,0,1 @ F,0,0,1,0,0,0,1 | F,0,0,1,0,0,0,1 @ F,0,0,1,0,0,0,1 @ F,0,0,1,0,0,0,1 @ F,0,0,1,0,0,0,1 | F,0,0,1,0,0,0,1 @ F,0,0,1,0,0,0,1 @ F,0,0,1,0,0,0,1 @ F,0,0,1,0,0,0,1"
       radius="0"
       unit="px"
       method="auto"
       mode="F"
       chamfer_steps="1"
       flexible="false"
       use_knot_distance="true"
       apply_no_radius="true"
       apply_with_radius="true"
       only_selected="false"
       hide_knots="false" />
    <inkscape:path-effect
       effect="fillet_chamfer"
       id="path-effect30"
       is_visible="true"
       lpeversion="1"
       nodesatellites_param="F,0,0,1,0,0,0,1 @ F,0,0,1,0,15.495876,0,1 @ F,0,0,1,0,0,0,1 @ F,0,0,1,0,0,0,1 @ F,0,0,1,0,0,0,1 @ F,0,0,1,0,0,0,1 @ F,0,0,1,0,0,0,1 @ F,0,0,1,0,0,0,1 @ F,0,0,1,0,0,0,1 @ F,0,0,1,0,0,0,1 @ F,0,0,1,0,0,0,1 @ F,0,0,1,0,0,0,1 @ F,0,0,1,0,0,0,1 @ F,0,0,1,0,0,0,1 @ F,0,0,1,0,0,0,1 @ F,0,0,1,0,0,0,1 @ F,0,0,1,0,0,0,1 @ F,0,0,1,0,0,0,1 @ F,0,0,1,0,0,0,1 @ F,0,0,1,0,0,0,1 @ F,0,0,1,0,0,0,1 @ F,0,0,1,0,0,0,1 @ F,0,0,1,0,0,0,1 @ F,0,0,1,0,0,0,1 @ F,0,0,1,0,0,0,1 @ F,0,0,1,0,0,0,1 @ F,0,0,1,0,0,0,1 @ F,0,0,1,0,0,0,1 @ F,0,0,1,0,0,0,1 @ F,0,0,1,0,0,0,1 @ F,0,0,1,0,0,0,1 | F,0,0,1,0,0,0,1 @ F,0,0,1,0,0,0,1 @ F,0,0,1,0,0,0,1 @ F,0,0,1,0,0,0,1 | F,0,0,1,0,0,0,1 @ F,0,0,1,0,0,0,1 @ F,0,0,1,0,0,0,1 @ F,0,0,1,0,0,0,1 | F,0,0,1,0,0,0,1 @ F,0,0,1,0,0,0,1 @ F,0,0,1,0,0,0,1 @ F,0,0,1,0,0,0,1 | F,0,0,1,0,0,0,1 @ F,0,0,1,0,0,0,1 @ F,0,0,1,0,0,0,1 @ F,0,0,1,0,0,0,1"
       radius="0"
       unit="px"
       method="auto"
       mode="F"
       chamfer_steps="1"
       flexible="false"
       use_knot_distance="true"
       apply_no_radius="true"
       apply_with_radius="true"
       only_selected="false"
       hide_knots="false" />
    <inkscape:path-effect
       effect="fillet_chamfer"
       id="path-effect21"
       is_visible="true"
       lpeversion="1"
       nodesatellites_param="F,0,0,1,0,0,0,1 @ F,0,0,1,0,0,0,1 @ F,0,0,1,0,0,0,1 @ F,0,0,1,0,0,0,1 @ F,0,0,1,0,0.65408706,0,1 @ F,0,1,1,0,0.65408706,0,1 @ F,0,0,1,0,0,0,1 @ F,0,0,1,0,0,0,1 @ F,0,1,1,0,0.65408706,0,1 @ F,0,1,1,0,0.65408706,0,1 @ F,0,0,1,0,0,0,1 @ F,0,0,1,0,0,0,1 @ F,0,0,1,0,0,0,1 @ F,0,0,1,0,0,0,1 @ F,0,0,1,0,0,0,1 @ F,0,0,1,0,0,0,1 @ F,0,0,1,0,0,0,1 @ F,0,0,1,0,0,0,1 @ F,0,0,1,0,0,0,1 @ F,0,0,1,0,0,0,1 @ F,0,0,1,0,0,0,1 @ F,0,0,1,0,0,0,1 @ F,0,0,1,0,0,0,1 @ F,0,0,1,0,0,0,1 @ F,0,0,1,0,0,0,1 @ F,0,0,1,0,0,0,1 @ F,0,0,1,0,0,0,1 @ F,0,0,1,0,0,0,1 @ F,0,0,1,0,0,0,1 @ F,0,0,1,0,0,0,1 @ F,0,0,1,0,0,0,1 @ F,0,1,1,0,0.65408706,0,1 @ F,0,1,1,0,0.65408706,0,1 @ F,0,0,1,0,0,0,1 @ F,0,0,1,0,0,0,1 @ F,0,1,1,0,0.65408706,0,1 @ F,0,1,1,0,0.65408706,0,1 @ F,0,0,1,0,0,0,1 @ F,0,0,1,0,0,0,1 @ F,0,0,1,0,0,0,1 @ F,0,0,1,0,0,0,1 @ F,0,0,1,0,0,0,1 @ F,0,0,1,0,0,0,1 @ F,0,0,1,0,0,0,1 @ F,0,0,1,0,0,0,1 @ F,0,0,1,0,0,0,1 @ F,0,0,1,0,0,0,1 @ F,0,0,1,0,0,0,1 | F,0,0,1,0,0,0,1 @ F,0,0,1,0,0,0,1 @ F,0,0,1,0,0,0,1 @ F,0,0,1,0,0,0,1 | F,0,0,1,0,0,0,1 @ F,0,0,1,0,0,0,1 @ F,0,0,1,0,0,0,1 @ F,0,0,1,0,0,0,1 | F,0,0,1,0,0,0,1 @ F,0,0,1,0,0,0,1 @ F,0,0,1,0,0,0,1 @ F,0,0,1,0,0,0,1 | F,0,0,1,0,0,0,1 @ F,0,0,1,0,0,0,1 @ F,0,0,1,0,0,0,1 @ F,0,0,1,0,0,0,1 | F,0,0,1,0,0,0,1 @ F,0,0,1,0,0,0,1 @ F,0,0,1,0,0,0,1 @ F,0,0,1,0,0,0,1 | F,0,0,1,0,0,0,1 @ F,0,0,1,0,0,0,1 @ F,0,0,1,0,0,0,1 @ F,0,0,1,0,0,0,1"
       radius="0"
       unit="px"
       method="auto"
       mode="F"
       chamfer_steps="1"
       flexible="false"
       use_knot_distance="true"
       apply_no_radius="true"
       apply_with_radius="true"
       only_selected="false"
       hide_knots="false" />
    <inkscape:path-effect
       effect="fillet_chamfer"
       id="path-effect20"
       is_visible="true"
       lpeversion="1"
       nodesatellites_param="F,0,0,1,0,0,0,1 @ F,0,0,1,0,0,0,1 @ F,0,0,1,0,0,0,1 @ F,0,0,1,0,0,0,1 @ F,0,0,1,0,0,0,1 @ F,0,0,1,0,0,0,1 @ F,0,0,1,0,0,0,1 @ F,0,0,1,0,0,0,1 @ F,0,0,1,0,0,0,1 @ F,0,0,1,0,0,0,1 @ F,0,0,1,0,0,0,1 @ F,0,0,1,0,0,0,1 @ F,0,0,1,0,0,0,1 @ F,0,0,1,0,0,0,1 @ F,0,0,1,0,0,0,1 @ F,0,0,1,0,0,0,1 @ F,0,0,1,0,0,0,1 @ F,0,0,1,0,0,0,1 @ F,0,0,1,0,0,0,1 @ F,0,0,1,0,0,0,1 @ F,0,0,1,0,0,0,1 @ F,0,0,1,0,0,0,1 @ F,0,0,1,0,0,0,1 @ F,0,0,1,0,0,0,1 @ F,0,0,1,0,0,0,1 @ F,0,0,1,0,0,0,1 @ F,0,0,1,0,0,0,1 @ F,0,0,1,0,0,0,1 @ F,0,0,1,0,0,0,1 @ F,0,0,1,0,0,0,1 @ F,0,0,1,0,0,0,1 @ F,0,0,1,0,0,0,1 @ F,0,0,1,0,0,0,1 @ F,0,0,1,0,0,0,1 @ F,0,0,1,0,0,0,1 @ F,0,0,1,0,0,0,1 @ F,0,0,1,0,0,0,1 @ F,0,0,1,0,0,0,1 @ F,0,0,1,0,0,0,1 @ F,0,1,1,0,0,0,1 @ F,0,1,1,0,0,0,1 @ F,0,0,1,0,0,0,1 @ F,0,0,1,0,0,0,1 @ F,0,1,1,0,0,0,1 @ F,0,1,1,0,0,0,1 @ F,0,0,1,0,0,0,1 @ F,0,0,1,0,0,0,1 @ F,0,1,1,0,0,0,1 | F,0,0,1,0,0,0,1 @ F,0,0,1,0,0,0,1 @ F,0,0,1,0,0,0,1 @ F,0,0,1,0,0,0,1 | F,0,0,1,0,0,0,1 @ F,0,0,1,0,0,0,1 @ F,0,0,1,0,0,0,1 @ F,0,0,1,0,0,0,1 | F,0,0,1,0,0,0,1 @ F,0,0,1,0,0,0,1 @ F,0,0,1,0,0,0,1 @ F,0,0,1,0,0,0,1 | F,0,0,1,0,0,0,1 @ F,0,0,1,0,0,0,1 @ F,0,0,1,0,0,0,1 @ F,0,0,1,0,0,0,1 | F,0,0,1,0,0,0,1 @ F,0,0,1,0,0,0,1 @ F,0,0,1,0,0,0,1 @ F,0,0,1,0,0,0,1 | F,0,0,1,0,0,0,1 @ F,0,0,1,0,0,0,1 @ F,0,0,1,0,0,0,1 @ F,0,0,1,0,0,0,1"
       radius="0"
       unit="px"
       method="auto"
       mode="F"
       chamfer_steps="1"
       flexible="false"
       use_knot_distance="true"
       apply_no_radius="true"
       apply_with_radius="true"
       only_selected="false"
       hide_knots="false" />
    <inkscape:path-effect
       effect="fillet_chamfer"
       id="path-effect19"
       is_visible="true"
       lpeversion="1"
       nodesatellites_param="F,0,0,1,0,0.86510736,0,1 @ F,0,1,1,0,0.86510736,0,1 @ F,0,0,1,0,0,0,1 @ F,0,0,1,0,0,0,1 @ F,0,1,1,0,0.86510736,0,1 @ F,0,1,1,0,0.86510736,0,1 @ F,0,0,1,0,0,0,1 @ F,0,0,1,0,0,0,1 @ F,0,0,1,0,0,0,1 @ F,0,0,1,0,0,0,1 @ F,0,0,1,0,0,0,1 @ F,0,0,1,0,0,0,1 @ F,0,0,1,0,0,0,1 @ F,0,0,1,0,0,0,1 @ F,0,0,1,0,0,0,1 @ F,0,0,1,0,0,0,1 @ F,0,0,1,0,0,0,1 @ F,0,0,1,0,0,0,1 @ F,0,0,1,0,0,0,1 @ F,0,0,1,0,0,0,1 @ F,0,0,1,0,0,0,1 @ F,0,0,1,0,0,0,1 @ F,0,0,1,0,0,0,1 @ F,0,0,1,0,0,0,1 @ F,0,0,1,0,0,0,1 @ F,0,0,1,0,0,0,1 @ F,0,0,1,0,0,0,1 @ F,0,0,1,0,0,0,1 @ F,0,0,1,0,0,0,1 @ F,0,0,1,0,0,0,1 @ F,0,0,1,0,0,0,1 @ F,0,0,1,0,0,0,1 @ F,0,0,1,0,0,0,1 @ F,0,0,1,0,0,0,1 @ F,0,0,1,0,0,0,1 @ F,0,0,1,0,0,0,1 @ F,0,0,1,0,0,0,1 @ F,0,0,1,0,0,0,1 @ F,0,0,1,0,0,0,1 @ F,0,0,1,0,0,0,1 @ F,0,1,1,0,0.86510736,0,1 @ F,0,1,1,0,0.86510736,0,1 @ F,0,0,1,0,0,0,1 @ F,0,0,1,0,0,0,1 @ F,0,1,1,0,0.86510736,0,1 @ F,0,1,1,0,0.86510736,0,1 @ F,0,0,1,0,0,0,1 @ F,0,0,1,0,0,0,1 @ F,0,0,1,0,0,0,1"
       radius="0"
       unit="px"
       method="auto"
       mode="F"
       chamfer_steps="1"
       flexible="false"
       use_knot_distance="true"
       apply_no_radius="true"
       apply_with_radius="true"
       only_selected="false"
       hide_knots="false" />
    <inkscape:path-effect
       effect="fillet_chamfer"
       id="path-effect18"
       is_visible="true"
       lpeversion="1"
       nodesatellites_param="F,0,0,1,0,0.59980932,0,1 @ F,0,1,1,0,0.59980932,0,1 @ F,0,0,1,0,0,0,1 @ F,0,0,1,0,0,0,1 @ F,0,1,1,0,0.59980932,0,1 @ F,0,1,1,0,0.59980932,0,1 @ F,0,0,1,0,0,0,1 @ F,0,0,1,0,0,0,1 @ F,0,0,1,0,0,0,1 @ F,0,0,1,0,0,0,1 @ F,0,0,1,0,0,0,1 @ F,0,0,1,0,0,0,1 @ F,0,0,1,0,0,0,1 @ F,0,0,1,0,0,0,1 @ F,0,0,1,0,0,0,1 @ F,0,0,1,0,0,0,1 @ F,0,0,1,0,0,0,1 @ F,0,0,1,0,0,0,1 @ F,0,0,1,0,0,0,1 @ F,0,0,1,0,0,0,1 @ F,0,0,1,0,0,0,1 @ F,0,0,1,0,0,0,1 @ F,0,0,1,0,0,0,1 @ F,0,0,1,0,0,0,1 @ F,0,0,1,0,0,0,1 @ F,0,0,1,0,0,0,1 @ F,0,0,1,0,0,0,1 @ F,0,0,1,0,0,0,1 @ F,0,0,1,0,0,0,1 @ F,0,0,1,0,0,0,1 @ F,0,0,1,0,0,0,1 @ F,0,0,1,0,0,0,1 @ F,0,0,1,0,0,0,1 @ F,0,0,1,0,0,0,1 @ F,0,0,1,0,0,0,1 @ F,0,0,1,0,0,0,1 @ F,0,0,1,0,0,0,1 @ F,0,0,1,0,0,0,1 @ F,0,0,1,0,0,0,1 @ F,0,1,1,0,0.59980932,0,1 @ F,0,1,1,0,0.59980932,0,1 @ F,0,0,1,0,0,0,1 @ F,0,0,1,0,0,0,1 @ F,0,1,1,0,0.59980932,0,1 @ F,0,1,1,0,0.59980932,0,1 @ F,0,0,1,0,0,0,1 @ F,0,0,1,0,0,0,1 @ F,0,0,1,0,0,0,1"
       radius="0"
       unit="px"
       method="auto"
       mode="F"
       chamfer_steps="1"
       flexible="false"
       use_knot_distance="true"
       apply_no_radius="true"
       apply_with_radius="true"
       only_selected="false"
       hide_knots="false" />
    <inkscape:path-effect
       effect="fillet_chamfer"
       id="path-effect17"
       is_visible="true"
       lpeversion="1"
       nodesatellites_param="F,0,1,1,0,0.71736501,0,1 @ F,0,1,1,0,0.71736501,0,1 @ F,0,0,1,0,0,0,1 @ F,0,0,1,0,0,0,1 @ F,0,1,1,0,0.71736501,0,1 @ F,0,1,1,0,0.71736501,0,1 @ F,0,0,1,0,0,0,1 @ F,0,0,1,0,0,0,1 @ F,0,0,1,0,0,0,1 @ F,0,0,1,0,0,0,1 @ F,0,0,1,0,0,0,1 @ F,0,0,1,0,0,0,1 @ F,0,0,1,0,0,0,1 @ F,0,0,1,0,0,0,1 @ F,0,0,1,0,0,0,1 @ F,0,0,1,0,0,0,1 @ F,0,0,1,0,0,0,1 @ F,0,0,1,0,0,0,1 @ F,0,0,1,0,0,0,1 @ F,0,0,1,0,0,0,1 @ F,0,0,1,0,0,0,1 @ F,0,0,1,0,0,0,1 @ F,0,0,1,0,0,0,1 @ F,0,0,1,0,0,0,1 @ F,0,0,1,0,0,0,1 @ F,0,0,1,0,0,0,1 @ F,0,0,1,0,0,0,1 @ F,0,0,1,0,0,0,1 @ F,0,0,1,0,0,0,1 @ F,0,0,1,0,0,0,1 @ F,0,0,1,0,0,0,1 @ F,0,0,1,0,0,0,1 @ F,0,0,1,0,0,0,1 @ F,0,0,1,0,0,0,1 @ F,0,0,1,0,0,0,1 @ F,0,0,1,0,0,0,1 @ F,0,0,1,0,0,0,1 @ F,0,0,1,0,0,0,1 @ F,0,0,1,0,0,0,1 @ F,0,1,1,0,0.71736501,0,1 @ F,0,1,1,0,0.71736501,0,1 @ F,0,0,1,0,0,0,1 @ F,0,0,1,0,0,0,1 @ F,0,1,1,0,0.71736501,0,1 @ F,0,0,1,0,0.71736501,0,1 @ F,0,0,1,0,0,0,1 @ F,0,0,1,0,0,0,1 @ F,0,0,1,0,0,0,1"
       radius="0"
       unit="px"
       method="auto"
       mode="F"
       chamfer_steps="1"
       flexible="false"
       use_knot_distance="true"
       apply_no_radius="true"
       apply_with_radius="true"
       only_selected="false"
       hide_knots="false" />
    <inkscape:path-effect
       effect="fillet_chamfer"
       id="path-effect16"
       nodesatellites_param="F,0,0,1,0,0,0,1 @ F,0,0,1,0,0,0,1 @ F,0,0,1,0,0,0,1 @ F,0,0,1,0,0,0,1 @ F,0,0,1,0,0,0,1 @ F,0,0,1,0,0,0,1 @ F,0,0,1,0,0,0,1 @ F,0,0,1,0,0,0,1 @ F,0,0,1,0,0,0,1 @ F,0,0,1,0,0,0,1 @ F,0,0,1,0,0,0,1 @ F,0,0,1,0,0,0,1 @ F,0,0,1,0,0,0,1 @ F,0,0,1,0,0,0,1 @ F,0,0,1,0,0,0,1 @ F,0,0,1,0,0,0,1 @ F,0,0,1,0,0,0,1 @ F,0,0,1,0,0,0,1 @ F,0,0,1,0,0,0,1 @ F,0,0,1,0,0,0,1 @ F,0,0,1,0,0,0,1 @ F,0,0,1,0,0,0,1 @ F,0,0,1,0,0,0,1 @ F,0,0,1,0,0,0,1 @ F,0,0,1,0,0,0,1 @ F,0,0,1,0,0,0,1 @ F,0,0,1,0,0,0,1 @ F,0,0,1,0,0,0,1 @ F,0,0,1,0,0,0,1 @ F,0,0,1,0,0,0,1 @ F,0,0,1,0,0,0,1 @ F,0,0,1,0,0,0,1 @ F,0,0,1,0,0,0,1 @ F,0,0,1,0,0,0,1 @ F,0,0,1,0,0,0,1 @ F,0,0,1,0,0,0,1 @ F,0,0,1,0,0,0,1 @ F,0,0,1,0,0,0,1 @ F,0,0,1,0,0,0,1 @ F,0,0,1,0,0,0,1 @ F,0,0,1,0,0,0,1 @ F,0,0,1,0,0,0,1 @ F,0,0,1,0,0,0,1 @ F,0,0,1,0,0,0,1 @ F,0,0,1,0,0,0,1 @ F,0,0,1,0,0,0,1 @ F,0,0,1,0,0,0,1 @ F,0,0,1,0,0,0,1"
       is_visible="true"
       lpeversion="1"
       radius="0"
       unit="px"
       method="auto"
       mode="F"
       chamfer_steps="1"
       flexible="false"
       use_knot_distance="true"
       apply_no_radius="true"
       apply_with_radius="true"
       only_selected="false"
       hide_knots="false" />
    <rect
       x="422.23398"
       y="322.14398"
       width="135.88377"
       height="105.39278"
       id="rect4" />
    <inkscape:path-effect
       effect="fillet_chamfer"
       id="path-effect10"
       is_visible="true"
       lpeversion="1"
       nodesatellites_param="F,0,0,1,0,0,0,1 @ F,0,0,1,0,0,0,1 @ F,0,0,1,0,0,0,1 @ F,0,0,1,0,0,0,1 | F,0,0,1,0,0,0,1 @ F,0,0,1,0,0,0,1 @ F,0,0,1,0,0,0,1 @ F,0,0,1,0,0,0,1 | F,0,0,1,0,0,0,1 @ F,0,0,1,0,0,0,1 @ F,0,0,1,0,0,0,1 @ F,0,0,1,0,0,0,1 | F,0,0,1,0,0,0,1 @ F,0,0,1,0,0,0,1 @ F,0,0,1,0,0,0,1 @ F,0,0,1,0,0,0,1 | F,0,0,1,0,0,0,1 @ F,0,0,1,0,0,0,1 @ F,0,0,1,0,0,0,1 @ F,0,0,1,0,0,0,1 | F,0,0,1,0,0,0,1 @ F,0,0,1,0,0,0,1 @ F,0,0,1,0,0,0,1 @ F,0,0,1,0,0,0,1 | F,0,0,1,0,0,0,1 @ F,0,0,1,0,0,0,1 @ F,0,0,1,0,0,0,1 @ F,0,0,1,0,0,0,1 | F,0,0,1,0,0,0,1 @ F,0,0,1,0,0,0,1 @ F,0,0,1,0,0,0,1 @ F,0,0,1,0,0,0,1"
       radius="0"
       unit="px"
       method="auto"
       mode="F"
       chamfer_steps="1"
       flexible="false"
       use_knot_distance="true"
       apply_no_radius="true"
       apply_with_radius="true"
       only_selected="false"
       hide_knots="false" />
    <inkscape:path-effect
       effect="fillet_chamfer"
       id="path-effect9"
       is_visible="true"
       lpeversion="1"
       nodesatellites_param="F,0,0,1,0,0.59143056,0,1 @ F,0,0,1,0,0,0,1 @ F,0,0,1,0,0,0,1 @ F,0,0,1,0,0,0,1 @ F,0,0,1,0,0,0,1 @ F,0,0,1,0,0,0,1 @ F,0,0,1,0,0,0,1 @ F,0,0,1,0,0,0,1 @ F,0,0,1,0,0,0,1 @ F,0,0,1,0,0,0,1 @ F,0,0,1,0,0,0,1 @ F,0,0,1,0,0,0,1 @ F,0,0,1,0,0,0,1 @ F,0,0,1,0,0,0,1 @ F,0,0,1,0,0,0,1 @ F,0,1,1,0,0.59143056,0,1 @ F,0,1,1,0,0.59143056,0,1 @ F,0,0,1,0,0,0,1 @ F,0,0,1,0,0,0,1 @ F,0,1,1,0,0.59143056,0,1 @ F,0,1,1,0,0.59143056,0,1 @ F,0,0,1,0,0,0,1 @ F,0,0,1,0,0,0,1 @ F,0,0,1,0,0,0,1 @ F,0,0,1,0,0,0,1 @ F,0,0,1,0,0,0,1 @ F,0,0,1,0,0,0,1 @ F,0,0,1,0,0,0,1 @ F,0,0,1,0,0,0,1 @ F,0,0,1,0,0,0,1 @ F,0,0,1,0,0,0,1 @ F,0,0,1,0,0,0,1 @ F,0,0,1,0,0,0,1 @ F,0,0,1,0,0,0,1 @ F,0,0,1,0,0,0,1 @ F,0,1,1,0,0.59143056,0,1 @ F,0,1,1,0,0.59143056,0,1 @ F,0,0,1,0,0,0,1 @ F,0,0,1,0,0,0,1 @ F,0,1,1,0,0.59143056,0,1 | F,0,0,1,0,0,0,1 @ F,0,0,1,0,0,0,1 @ F,0,0,1,0,0,0,1 @ F,0,0,1,0,0,0,1 | F,0,0,1,0,0,0,1 @ F,0,0,1,0,0,0,1 @ F,0,0,1,0,0,0,1 @ F,0,0,1,0,0,0,1"
       radius="0"
       unit="px"
       method="auto"
       mode="F"
       chamfer_steps="1"
       flexible="false"
       use_knot_distance="true"
       apply_no_radius="true"
       apply_with_radius="true"
       only_selected="false"
       hide_knots="false" />
    <inkscape:path-effect
       effect="fillet_chamfer"
       id="path-effect2"
       is_visible="true"
       lpeversion="1"
       nodesatellites_param="F,0,1,1,0,0.54442367,0,1 @ F,0,0,1,0,0,0,1 @ F,0,0,1,0,0,0,1 @ F,0,0,1,0,0,0,1 @ F,0,1,1,0,0.54442367,0,1 @ F,0,1,1,0,0.54442367,0,1 @ F,0,0,1,0,0,0,1 @ F,0,0,1,0,0,0,1 @ F,0,1,1,0,0.54442367,0,1 @ F,0,1,1,0,0.54442367,0,1 @ F,0,0,1,0,0,0,1 @ F,0,0,1,0,0,0,1 @ F,0,0,1,0,0,0,1 @ F,0,0,1,0,0,0,1 @ F,0,0,1,0,0,0,1 @ F,0,0,1,0,0,0,1 @ F,0,0,1,0,0,0,1 @ F,0,0,1,0,0,0,1 @ F,0,0,1,0,0,0,1 @ F,0,0,1,0,0,0,1 @ F,0,0,1,0,0,0,1 @ F,0,0,1,0,0,0,1 @ F,0,0,1,0,0,0,1 @ F,0,0,1,0,0,0,1 @ F,0,0,1,0,0,0,1 @ F,0,0,1,0,0,0,1 @ F,0,0,1,0,0,0,1 @ F,0,0,1,0,0,0,1 @ F,0,0,1,0,0,0,1 @ F,0,0,1,0,0,0,1 @ F,0,0,1,0,0,0,1 @ F,0,0,1,0,0.54442367,0,1 @ F,0,1,1,0,0.54442367,0,1 @ F,0,0,1,0,0,0,1 @ F,0,0,1,0,0,0,1 @ F,0,1,1,0,0.54442367,0,1 @ F,0,1,1,0,0.54442367,0,1 @ F,0,0,1,0,0,0,1 @ F,0,0,1,0,0,0,1 @ F,0,0,1,0,0,0,1 @ F,0,1,1,0,0.54442367,0,1 @ F,0,0,1,0,0,0,1 @ F,0,0,1,0,0,0,1 @ F,0,1,1,0,0.54442367,0,1 @ F,0,1,1,0,0.54442367,0,1 @ F,0,0,1,0,0,0,1 @ F,0,0,1,0,0,0,1 @ F,0,1,1,0,0.54442367,0,1 | F,0,0,1,0,0,0,1 @ F,0,0,1,0,0,0,1 @ F,0,0,1,0,0,0,1 @ F,0,0,1,0,0,0,1 | F,0,0,1,0,0,0,1 @ F,0,0,1,0,0,0,1 @ F,0,0,1,0,0,0,1 @ F,0,0,1,0,0,0,1 | F,0,0,1,0,0,0,1 @ F,0,0,1,0,0,0,1 @ F,0,0,1,0,0,0,1 @ F,0,0,1,0,0,0,1 | F,0,0,1,0,0,0,1 @ F,0,0,1,0,0,0,1 @ F,0,0,1,0,0,0,1 @ F,0,0,1,0,0,0,1 | F,0,0,1,0,0,0,1 @ F,0,0,1,0,0,0,1 @ F,0,0,1,0,0,0,1 @ F,0,0,1,0,0,0,1 | F,0,0,1,0,0,0,1 @ F,0,0,1,0,0,0,1 @ F,0,0,1,0,0,0,1 @ F,0,0,1,0,0,0,1"
       radius="0"
       unit="px"
       method="auto"
       mode="F"
       chamfer_steps="1"
       flexible="false"
       use_knot_distance="true"
       apply_no_radius="true"
       apply_with_radius="true"
       only_selected="false"
       hide_knots="false" />
    <inkscape:path-effect
       effect="fillet_chamfer"
       id="path-effect1"
       is_visible="true"
       lpeversion="1"
       nodesatellites_param="F,0,0,1,0,0,0,1 @ F,0,0,1,0,0,0,1 @ F,0,0,1,0,0,0,1 @ F,0,0,1,0,0.89584927,0,1 @ F,0,1,1,0,0.89584927,0,1 @ F,0,0,1,0,0,0,1 @ F,0,0,1,0,0,0,1 @ F,0,0,1,0,0,0,1 @ F,0,0,1,0,0,0,1 @ F,0,0,1,0,0,0,1"
       radius="0"
       unit="px"
       method="auto"
       mode="F"
       chamfer_steps="1"
       flexible="false"
       use_knot_distance="true"
       apply_no_radius="true"
       apply_with_radius="true"
       only_selected="false"
       hide_knots="false" />
    <inkscape:path-effect
       effect="fillet_chamfer"
       id="path-effect14"
       is_visible="true"
       lpeversion="1"
       nodesatellites_param="F,0,0,1,0,1.9219205,0,1 @ F,0,0,1,0,0,0,1 @ F,0,0,1,0,0,0,1 @ F,0,0,1,0,0,0,1 @ F,0,0,1,0,0,0,1 @ F,0,0,1,0,0,0,1 @ F,0,0,1,0,0,0,1 @ F,0,0,1,0,0,0,1 @ F,0,0,1,0,0,0,1 @ F,0,0,1,0,0,0,1 @ F,0,0,1,0,0,0,1 @ F,0,0,1,0,0,0,1 @ F,0,0,1,0,0,0,1 @ F,0,0,1,0,0,0,1 @ F,0,0,1,0,0,0,1 @ F,0,0,1,0,0,0,1 @ F,0,0,1,0,0,0,1 @ F,0,0,1,0,0,0,1 @ F,0,0,1,0,0,0,1 @ F,0,0,1,0,0,0,1 @ F,0,0,1,0,0,0,1 @ F,0,0,1,0,0,0,1 @ F,0,0,1,0,0,0,1 @ F,0,0,1,0,0,0,1 @ F,0,0,1,0,0,0,1 @ F,0,0,1,0,0,0,1 @ F,0,0,1,0,0,0,1 @ F,0,0,1,0,0,0,1"
       radius="0"
       unit="px"
       method="auto"
       mode="F"
       chamfer_steps="1"
       flexible="false"
       use_knot_distance="true"
       apply_no_radius="true"
       apply_with_radius="true"
       only_selected="false"
       hide_knots="false" />
    <rect
       x="890.23407"
       y="458.64859"
       width="424.4636"
       height="239.29492"
       id="rect3" />
    <rect
       x="920.14593"
       y="574.02293"
       width="344.69863"
       height="65.521231"
       id="rect1" />
  </defs>
  <g
     inkscape:label="Layer 1"
     inkscape:groupmode="layer"
     id="layer1">
    <path
       id="path2"
       style="opacity:1;vector-effect:non-scaling-stroke;fill:none;fill-opacity:1;stroke:#ff0000;stroke-width:0.264583;stroke-dasharray:none;stroke-opacity:1;-inkscape-stroke:hairline"
       inkscape:label="front"
       inkscape:transform-center-x="-1.8813699e-05"
       inkscape:transform-center-y="-3.4125711"
       d="m 31.126706,4.8081847 -7.35413,7.3536063 2.121639,2.121398 L 12.035332,28.142977 9.9134249,26.021126 2.5592528,33.374422 4.6807146,35.496534 0,40.17756 l 4.0002657,6.928678 -2.5979103,1.4999 4.2501289,7.361456 2.5979103,-1.499915 4.7502944,8.226699 -2.598363,1.50017 4.250122,7.361434 2.598369,-1.500163 2.896766,5.068906 -0.02951,2.999734 8.219949,-2.68e-4 -1.49e-4,-2.999554 -1.4e-5,-20.427707 c 2.1e-5,-5.655009 5.30113,-10.239267 11.839789,-10.239338 6.538659,7.1e-5 11.83935,4.584322 11.839378,10.239338 l 8e-6,20.4277 1.41e-4,2.999561 8.160676,4.31e-4 2.23e-4,-3 2.926196,-5.06876 2.59832,1.500099 4.249889,-7.361597 -2.598328,-1.500106 4.750351,-8.226954 2.598334,1.500099 4.249875,-7.361597 L 76.354401,47.1057 80.354568,40.177687 75.673755,35.496294 77.7947,33.37491 70.441334,26.020667 68.319469,28.14256 54.461025,14.282716 56.581539,12.161579 49.22794,4.8078099 47.106718,6.9287484 40.177433,0 33.248104,6.9291586 Z"
       inkscape:export-filename="front.svg"
       inkscape:export-xdpi="96"
       inkscape:export-ydpi="96"
       sodipodi:nodetypes="ccccccccccccccccccccccccccccccccccccccccccccccc" />
    <g
       id="g72"
       transform="translate(192.58168,-255.86707)"
       inkscape:export-filename="roof.svg"
       inkscape:export-xdpi="96"
       inkscape:export-ydpi="96">
      <path
         id="rect2"
         style="opacity:0.448276;vector-effect:non-scaling-stroke;fill:none;stroke:#ff0000;stroke-width:0.264583;stroke-dasharray:none;-inkscape-stroke:hairline"
         d="m 19.199862,255.86707 v 2.99982 H 2.9998169 v 9.80063 H 0 v 10.399 h 2.9998169 v 19.6 H 0 v 10.4 h 2.9998169 v 11.8002 c -6.7e-5,2.94743 1.5723008,5.671 4.1248128,7.14478 2.552595,1.47378 5.6975453,1.47378 8.2501423,0 2.55251,-1.47378 4.124883,-4.19735 4.124813,-7.14478 4e-5,2.94754 1.57262,5.67113 4.12533,7.14478 2.5526,1.47378 5.697552,1.47378 8.250142,0 2.55251,-1.47378 4.124873,-4.19735 4.124813,-7.14478 -7e-5,2.94743 1.572303,5.671 4.124813,7.14478 2.55259,1.47378 5.697552,1.47378 8.250142,0 2.55251,-1.47378 4.124883,-4.19735 4.124813,-7.14478 4e-5,2.94754 1.572619,5.67113 4.125329,7.14478 2.55247,1.47358 5.697156,1.47358 8.249626,0 2.55271,-1.47365 4.12529,-4.19724 4.12533,-7.14478 -7e-5,2.94743 1.572303,5.671 4.124813,7.14478 2.5526,1.47378 5.697552,1.47378 8.250142,0 2.55251,-1.47378 4.124873,-4.19735 4.124813,-7.14478 3e-5,2.94754 1.572609,5.67113 4.125329,7.14478 2.55246,1.47358 5.697166,1.47358 8.249626,0 2.552714,-1.47365 4.125294,-4.19724 4.125334,-7.14478 v -11.8002 h 3.00033 v -10.4 h -3.00033 v -19.6 h 3.00033 l -5.2e-4,-10.399 h -2.99981 v -9.80063 -2.99982 H 85.199967 v 2.99982 H 68.999923 v -2.99982 H 52.199915 v 2.99982 H 35.99987 v -2.99982 z m -9.1999556,13.00024 h 2.5001056 v 10.00042 H 9.9999064 Z m 82.4998736,0 h 2.500106 v 10.00042 H 92.49978 Z M 9.9999064,298.86703 h 2.5001056 v 10.00042 H 9.9999064 Z m 82.4998736,0 h 2.500106 v 10.00042 H 92.49978 Z m -59.999955,16.82016 h 9.999906 v 2.99982 h -9.999906 z m 30.000236,0 h 9.999906 v 2.99982 h -9.999906 z"
         sodipodi:nodetypes="ccccccccccccccccccccccccccccccccccccccccccccccccccccccccccccccccccccccccccccccc" />
      <g
         id="g27"
         style="vector-effect:non-scaling-stroke;stroke-width:0.264583;stroke-dasharray:none;-inkscape-stroke:hairline"
         transform="translate(-7.000077,9.867)">
        <path
           id="path15"
           style="opacity:0.448276;vector-effect:non-scaling-stroke;fill:none;stroke:#000080;stroke-width:0.264583;stroke-dasharray:none;-inkscape-stroke:hairline"
           d="m 9.9999064,265 c -6.38e-5,2.94743 1.5723036,5.671 4.1248126,7.14478 2.552595,1.47378 5.697547,1.47378 8.250142,0 C 24.92737,270.671 26.499738,267.94743 26.499674,265 m 0,0 c 4.3e-5,2.94753 1.572622,5.67113 4.12533,7.14478 2.552595,1.47378 5.697547,1.47378 8.250142,0 2.552509,-1.47378 4.124877,-4.19735 4.124813,-7.14478 m 0,0 c -6.4e-5,2.94743 1.572304,5.671 4.124813,7.14478 2.552595,1.47378 5.697547,1.47378 8.250142,0 2.552509,-1.47378 4.124877,-4.19735 4.124813,-7.14478 m 0,0 c 4.3e-5,2.94753 1.572622,5.67113 4.12533,7.14478 2.552464,1.47358 5.697161,1.47358 8.249625,0 2.552708,-1.47365 4.125287,-4.19725 4.12533,-7.14478 m 0,0 c -6.4e-5,2.94743 1.572304,5.671 4.124813,7.14478 2.552595,1.47378 5.697547,1.47378 8.250142,0 C 90.927476,270.671 92.499844,267.94743 92.49978,265 m 0,0 c 4.3e-5,2.94753 1.572622,5.67113 4.125329,7.14478 2.552464,1.47358 5.697171,1.47358 8.249631,0 2.55271,-1.47365 4.12529,-4.19725 4.12533,-7.14478"
           sodipodi:nodetypes="csscccsccssccssccssccssc" />
        <path
           id="path20"
           style="opacity:0.448276;vector-effect:non-scaling-stroke;fill:none;stroke:#000080;stroke-width:0.264583;stroke-dasharray:none;-inkscape-stroke:hairline"
           d="m 9.9999064,280 c -6.38e-5,2.94743 1.5723036,5.671 4.1248126,7.14478 2.552595,1.47378 5.697547,1.47378 8.250142,0 C 24.92737,285.671 26.499738,282.94743 26.499674,280 m 0,0 c 4.3e-5,2.94753 1.572622,5.67113 4.12533,7.14478 2.552595,1.47378 5.697547,1.47378 8.250142,0 2.552509,-1.47378 4.124877,-4.19735 4.124813,-7.14478 m 0,0 c -6.4e-5,2.94743 1.572304,5.671 4.124813,7.14478 2.552595,1.47378 5.697547,1.47378 8.250142,0 2.552509,-1.47378 4.124877,-4.19735 4.124813,-7.14478 m 0,0 c 4.3e-5,2.94753 1.572622,5.67113 4.12533,7.14478 2.552464,1.47358 5.697161,1.47358 8.249625,0 2.552708,-1.47365 4.125287,-4.19725 4.12533,-7.14478 m 0,0 c -6.4e-5,2.94743 1.572304,5.671 4.124813,7.14478 2.552595,1.47378 5.697547,1.47378 8.250142,0 C 90.927476,285.671 92.499844,282.94743 92.49978,280 m 0,0 c 4.3e-5,2.94753 1.572622,5.67113 4.125329,7.14478 2.552464,1.47358 5.697171,1.47358 8.249631,0 2.55271,-1.47365 4.12529,-4.19725 4.12533,-7.14478"
           sodipodi:nodetypes="csscccsccssccssccssccssc" />
        <path
           id="path21"
           style="opacity:0.448276;vector-effect:non-scaling-stroke;fill:none;stroke:#000080;stroke-width:0.264583;stroke-dasharray:none;-inkscape-stroke:hairline"
           d="m 9.9999064,295 c -6.4e-5,2.94743 1.5723036,5.671 4.1248126,7.14478 2.552595,1.47378 5.697547,1.47378 8.250142,0 C 24.92737,300.671 26.499738,297.94743 26.499674,295 m 0,0 c 4.3e-5,2.94753 1.572622,5.67113 4.12533,7.14478 2.552595,1.47378 5.697547,1.47378 8.250142,0 2.552509,-1.47378 4.124877,-4.19735 4.124813,-7.14478 m 0,0 c -6.4e-5,2.94743 1.572304,5.671 4.124813,7.14478 2.552595,1.47378 5.697547,1.47378 8.250142,0 2.552509,-1.47378 4.124877,-4.19735 4.124813,-7.14478 m 0,0 c 4.3e-5,2.94753 1.572622,5.67113 4.12533,7.14478 2.552464,1.47358 5.697161,1.47358 8.249625,0 2.552708,-1.47365 4.125287,-4.19725 4.12533,-7.14478 m 0,0 c -6.4e-5,2.94743 1.572304,5.671 4.124813,7.14478 2.552595,1.47378 5.697547,1.47378 8.250142,0 C 90.927476,300.671 92.499844,297.94743 92.49978,295 m 0,0 c 4.3e-5,2.94753 1.572622,5.67113 4.125329,7.14478 2.552464,1.47358 5.697171,1.47358 8.249631,0 2.55271,-1.47365 4.12529,-4.19725 4.12533,-7.14478"
           sodipodi:nodetypes="csscccsccssccssccssccssc" />
      </g>
    </g>
    <path
       id="path13"
       style="vector-effect:non-scaling-stroke;fill:none;stroke:#ff0000;stroke-width:0.264583;stroke-dasharray:none;stroke-opacity:1;-inkscape-stroke:hairline"
       inkscape:label="icicles"
       d="m 222.8868,385.56288 a 1.9219201,1.9219201 0 0 0 -1.92186,1.92185 v 57.77476 c -2e-5,2.83613 14.71115,18.72099 17.91208,17.91209 1.24674,-2.94047 -7.08044,-9.8787 -6.87709,-11.9197 1.46869,-1.71407 6.06583,2.98368 7.1608,2.20608 1.22712,-1.34068 -7.66298,-8.97536 -6.98975,-11.45305 1.44103,-2.16219 7.76174,5.06846 9.11416,3.39876 0.0728,-3.08612 -8.51114,-10.44898 -8.36641,-13.82293 2.18982,-0.71304 7.87874,5.53689 9.39684,3.97288 0.97773,-1.84998 -9.33031,-10.82375 -8.6465,-13.35732 2.32388,-1.06087 6.45912,4.518 8.52197,4.13566 2.06539,-2.27018 -10.44062,-10.04528 -8.95088,-14.11439 2.02398,-1.01699 9.01281,6.45662 10.60505,6.23116 0.9276,-3.26918 -11.27683,-11.82669 -9.1979,-15.31173 1.09163,-0.69931 3.36864,2.11076 4.76354,0.87178 1.23897,-1.39489 -1.5711,-3.6719 -0.87179,-4.76353 3.48504,-2.07893 12.04256,10.12549 15.31174,9.19789 0.22547,-1.59224 -7.24814,-8.58107 -6.23116,-10.60504 4.06911,-1.48975 11.84421,11.01627 14.11439,8.95087 0.38234,-2.06285 -5.19653,-6.19809 -4.13567,-8.52196 2.53358,-0.68382 11.50734,9.62421 13.35734,8.6465 1.56402,-1.51807 -4.68594,-7.20702 -3.9729,-9.39684 3.37395,-0.14473 10.73682,8.4392 13.82293,8.36641 1.6697,-1.35244 -5.56094,-7.67314 -3.39874,-9.11416 2.47768,-0.67323 10.11236,8.21685 11.45303,6.98975 0.77761,-1.09499 -3.92014,-5.69211 -2.20607,-7.16081 2.04101,-0.20336 8.97923,8.12384 11.91969,6.8771 0.80891,-3.20094 -15.07596,-17.91212 -17.91209,-17.91208 z m 16.07808,5.49992 h 9.9999 l 1e-5,2.50011 h -9.99992 z m 30.00023,0 h 9.99991 l -10e-6,2.50011 -9.9999,-10e-6 z m -42.50025,12.50001 h 2.50011 l 1e-5,9.99991 h -2.50012 z m 0,30.00024 2.50011,-10e-6 v 9.99992 l -2.50011,-10e-6 z"
       inkscape:export-filename="icicle.svg"
       inkscape:export-xdpi="96"
       inkscape:export-ydpi="96" />
    <path
       id="rect45"
       style="opacity:0.448276;vector-effect:non-scaling-stroke;fill:none;stroke:#ff0000;stroke-width:0.264583;stroke-dasharray:none;-inkscape-stroke:hairline"
       d="m 32.499812,179.95962 v 2.4089 H 12.5 9.4996663 v 8.00003 H 12.5 v 8.00003 H 9.4996663 v 9.9999 H 12.5 v 8.00003 H 9.4996663 v 4.49998 H 12.5 32.499812 v 2.40839 a 0.59143056,0.59143056 45 0 0 0.591431,0.59143 h 8.817045 a 0.59143056,0.59143056 135 0 0 0.591431,-0.59143 v -2.40839 h 20.000329 v 2.40839 a 0.59143056,0.59143056 45 0 0 0.591431,0.59143 h 8.817045 a 0.59143056,0.59143056 135 0 0 0.591431,-0.59143 v -2.40839 h 19.999813 2.999817 v -4.49998 h -2.999817 v -8.00003 h 2.999817 v -9.9999 h -2.999817 v -8.00003 h 2.999817 v -8.00003 H 92.499768 72.499955 v -2.4089 a 0.59143056,0.59143056 45 0 0 -0.591431,-0.59143 h -8.817045 a 0.59143056,0.59143056 135 0 0 -0.591431,0.59143 l 0,2.4089 H 42.499719 v -2.4089 a 0.59143056,0.59143056 45 0 0 -0.591431,-0.59143 h -8.817045 a 0.59143056,0.59143056 135 0 0 -0.591431,0.59143 z m -9.999906,9.40847 21.99976,-3e-5 v 20.00033 l -21.99976,3e-5 z m 37.99976,0 h 22.000195 v 20.00033 H 60.499666 Z"
       sodipodi:nodetypes="ccccccccccccccccccccccccccccccccccccccccccccccccccc"
       inkscape:path-effect="#path-effect9"
       inkscape:original-d="m 32.499812,179.36819 v 3.00033 H 12.5 9.4996663 v 8.00003 H 12.5 v 8.00003 H 9.4996663 v 9.9999 H 12.5 v 8.00003 H 9.4996663 v 4.49998 H 12.5 32.499812 v 2.99982 h 9.999907 v -2.99982 h 20.000329 v 2.99982 h 9.999907 v -2.99982 h 19.999813 2.999817 v -4.49998 h -2.999817 v -8.00003 h 2.999817 v -9.9999 h -2.999817 v -8.00003 h 2.999817 v -8.00003 H 92.499768 72.499955 v -3.00033 h -9.999907 v 3.00033 H 42.499719 v -3.00033 z m -9.999906,9.9999 21.99976,-3e-5 v 20.00033 l -21.99976,3e-5 z m 37.99976,0 h 22.000195 v 20.00033 H 60.499666 Z"
       transform="translate(307.98643,-159.40281)" />
    <g
       id="g66"
       transform="translate(354.99983,273.99989)"
       inkscape:export-filename="tab.svg"
       inkscape:export-xdpi="96"
       inkscape:export-ydpi="96">
      <path
         id="rect63"
         style="opacity:0.448276;vector-effect:non-scaling-stroke;fill:none;stroke:#ff0000;stroke-width:0.264583;stroke-dasharray:none;-inkscape-stroke:hairline"
         d="m 44.999837,299.99978 v 16.99999 h 5.000212 v 2.10449 a 0.89584927,0.89584927 45 0 0 0.895849,0.89585 l 8.208208,0 a 0.89584927,0.89584927 135 0 0 0.895849,-0.89585 v -2.10449 h 5.000212 v -16.99999 h -5.000212 -9.999906 z"
         inkscape:path-effect="#path-effect1"
         inkscape:original-d="m 44.999837,299.99978 v 16.99999 h 5.000212 v 3.00034 h 9.999906 v -3.00034 h 5.000212 v -16.99999 h -5.000212 -9.999906 z" />
      <path
         id="rect64"
         style="opacity:0.448276;vector-effect:non-scaling-stroke;fill:none;stroke:#ff0000;stroke-width:0.264583;stroke-dasharray:none;-inkscape-stroke:hairline"
         d="m 10,300 v 19.99981 H 39.999719 V 300 Z m 9.999906,8.75 h 9.999907 v 2.5 h -9.999907 z"
         sodipodi:nodetypes="cccccccccc" />
    </g>
    <path
       id="rect7"
       style="vector-effect:non-scaling-stroke;fill:none;fill-opacity:1;fill-rule:evenodd;stroke:#ff0000;stroke-width:0.241549;stroke-dasharray:none;stroke-opacity:1;-inkscape-stroke:hairline"
       d="m 205.21716,223.84086 c 0,4.70377 3.78666,8.49044 8.49044,8.49044 h 43.01908 c 4.70378,0 8.49044,-3.78667 8.49044,-8.49044 v -83.01922 c 0,-4.70377 -3.78666,-8.49044 -8.49044,-8.49044 H 213.7076 c -4.70378,0 -8.49044,3.78667 -8.49044,8.49044 z m 6.99958,-21.5098 v -9.9999 h 3.00033 v 9.9999 z m 0,-30.00023 v -9.99991 h 3.00033 v 9.99991 z m 3.20043,52.50067 v -2.50011 h 7.76117 v 2.50011 z m 0,-82.49988 v -2.5001 h 7.76117 v 2.5001 z m 31.83929,82.49936 v -2.50011 h 7.76071 v 2.50011 z m 7.1e-4,-82.49987 V 139.831 h 7.76 v 2.50011 z m 7.96056,59.99995 v -9.9999 h 3.00033 v 9.9999 z m 0,-30.00023 v -9.99991 h 3.00033 v 9.99991 z"
       inkscape:export-filename="base.svg"
       inkscape:export-xdpi="96"
       inkscape:export-ydpi="96"
       sodipodi:nodetypes="ssssssssscccccccccccccccccccccccccccccccccccccccc" />
    <g
       id="g16"
       transform="translate(0.80903957)">
      <g
         id="g15">
        <g
           id="g4">
          <g
             id="g5"
             inkscape:export-filename="back.svg"
             inkscape:export-xdpi="96"
             inkscape:export-ydpi="96">
            <path
               id="path23"
               style="vector-effect:non-scaling-stroke;fill:none;fill-opacity:1;stroke:#ff0000;stroke-width:0.264583;stroke-dasharray:none;stroke-opacity:1;-inkscape-stroke:hairline"
               inkscape:label="back-wall"
               inkscape:transform-center-x="2.8521716"
               inkscape:transform-center-y="-12.231355"
               d="m 119.89767,5.4202682 -6.13036,6.1306618 a 0.86518552,0.86518552 90.001194 0 0 -3e-5,1.223502 l 1.50925,1.509446 -13.85898,13.859695 -1.509549,-1.50988 a 0.86503314,0.86503314 0.0038214 0 0 -1.223394,-8.1e-5 l -6.130739,6.130447 a 0.86507658,0.86507658 90.000344 0 0 -8e-6,1.223425 l 1.51017,1.510134 -4.680803,4.680413 4.00002,6.92823 -2.59836,1.50017 4.25013,7.36144 2.59836,-1.50017 4.749833,8.22696 -2.598363,1.50016 4.250133,7.36144 2.59836,-1.50016 2.9269,5.06918 -7e-5,-1e-4 -2e-5,3.00027 8.16048,1.7e-4 2.2e-4,-3.00098 6.91021,5.8e-4 8.7e-4,-4.85711 9.85722,3.4e-4 2e-5,4.8566 6.91085,-4e-4 -2.3e-4,3.00098 8.1604,-2.8e-4 -7.5e-4,-3.00027 0.001,-3.6e-4 2.92617,-5.06858 2.59807,1.49965 4.25014,-7.36115 -2.59762,-1.49991 4.74964,-8.22714 2.59762,1.49991 4.25015,-7.36115 -2.59762,-1.49991 3.99991,-6.92847 -4.6803,-4.680499 1.5093,-1.509605 a 0.86524659,0.86524659 89.998803 0 0 -3e-5,-1.223545 l -6.12982,-6.130556 a 0.86518835,0.86518835 0.00609442 0 0 -1.22351,-1.3e-4 l -1.51029,1.50983 -13.85867,-13.859385 1.5093,-1.509596 a 0.86521424,0.86521424 89.997867 0 0 -5e-5,-1.223522 l -6.13026,-6.1305646 a 0.86504128,0.86504128 179.99922 0 0 -1.2234,1.67e-5 L 136.48944,6.9303001 129.56042,0 122.63058,6.9302 121.12104,5.420321 a 0.86499048,0.86499048 0.00247614 0 0 -1.22337,-5.28e-5 z"
               inkscape:export-filename="back.svg"
               inkscape:export-xdpi="96"
               inkscape:export-ydpi="96"
               sodipodi:nodetypes="cccccccccccccccccccccccccccccccccccccccccccccccccc"
               inkscape:path-effect="#path-effect19"
               inkscape:original-d="m 120.50938,4.80853 -7.35378,7.354138 2.12093,2.12121 -13.85898,13.859695 -2.121205,-2.12167 -7.354215,7.353865 2.1219,2.12185 -4.680803,4.680413 4.00002,6.92823 -2.59836,1.50017 4.25013,7.36144 2.59836,-1.50017 4.749833,8.22696 -2.598363,1.50016 4.250133,7.36144 2.59836,-1.50016 2.9269,5.06918 -7e-5,-1e-4 -2e-5,3.00027 8.16048,1.7e-4 2.2e-4,-3.00098 6.91021,5.8e-4 8.7e-4,-4.85711 9.85722,3.4e-4 2e-5,4.8566 6.91085,-4e-4 -2.3e-4,3.00098 8.1604,-2.8e-4 -7.5e-4,-3.00027 0.001,-3.6e-4 2.92617,-5.06858 2.59807,1.49965 4.25014,-7.36115 -2.59762,-1.49991 4.74964,-8.22714 2.59762,1.49991 4.25015,-7.36115 -2.59762,-1.49991 3.99991,-6.92847 -4.6803,-4.680499 2.12096,-2.12139 -7.3532,-7.354076 -2.12211,2.12146 -13.85867,-13.859385 2.12096,-2.12138 -7.35368,-7.3540409 -2.12142,2.12164 L 129.56042,0 122.63058,6.9302 Z" />
          </g>
          <g
             id="g3">
            <path
               style="baseline-shift:baseline;display:inline;overflow:visible;vector-effect:non-scaling-stroke;fill:#00ff00;stroke:#00ff00;stroke-width:0.264583;stroke-linecap:round;stroke-linejoin:round;stroke-dasharray:none;stroke-opacity:1;-inkscape-stroke:hairline;enable-background:accumulate;stop-color:#000000"
               d="m 151.01425,32.200125 a 0.5,0.5 0 0 0 -0.5,0.5 v 0.82031 l -0.61328,-0.24609 a 0.5,0.5 0 0 0 -0.65039,0.27734 0.5,0.5 0 0 0 0.2793,0.65039 l 0.98437,0.39454 v 2.45312 l -1.89648,-1.0332 -0.22461,-1.57032 a 0.5,0.5 0 0 0 -0.56446,-0.42382 0.5,0.5 0 0 0 -0.42578,0.56445 l 0.11524,0.80469 -0.92969,-0.5293 a 0.5,0.5 0 0 0 -0.68164,0.18555 0.5,0.5 0 0 0 0.18555,0.68164 l 0.78711,0.44922 -0.67579,0.19336 a 0.5,0.5 0 0 0 -0.34375,0.61718 0.5,0.5 0 0 0 0.61915,0.34375 l 1.62109,-0.46093 1.86914,1.01953 -1.87109,1.01953 -1.61914,-0.46289 a 0.5,0.5 0 0 0 -0.61915,0.34375 0.5,0.5 0 0 0 0.34375,0.61719 l 0.67579,0.19335 -0.78711,0.44922 a 0.5,0.5 0 0 0 -0.18555,0.6836 0.5,0.5 0 0 0 0.68164,0.18554 l 0.92969,-0.53125 -0.11524,0.80469 a 0.5,0.5 0 0 0 0.42578,0.56641 0.5,0.5 0 0 0 0.56446,-0.42383 l 0.22461,-1.57031 1.89648,-1.03516 v 2.25 l -1.05664,0.63477 a 0.5,0.5 0 0 0 -0.16992,0.68554 0.5,0.5 0 0 0 0.68555,0.17188 l 0.54101,-0.32422 v 0.93359 a 0.5,0.5 0 0 0 0.5,0.5 0.5,0.5 0 0 0 0.5,-0.5 v -0.93359 l 0.53906,0.32422 a 0.5,0.5 0 0 0 0.6875,-0.17188 0.5,0.5 0 0 0 -0.17187,-0.68554 l -1.05469,-0.63282 v -2.25 l 1.89453,1.03321 0.22461,1.57031 a 0.5,0.5 0 0 0 0.56445,0.42383 0.5,0.5 0 0 0 0.42579,-0.56641 l -0.11524,-0.80469 0.92969,0.53125 a 0.5,0.5 0 0 0 0.68164,-0.18554 0.5,0.5 0 0 0 -0.18555,-0.6836 l -0.78711,-0.44922 0.67578,-0.19335 a 0.5,0.5 0 0 0 0.34375,-0.61719 0.5,0.5 0 0 0 -0.61914,-0.34375 l -1.61914,0.46289 -1.87109,-1.01953 1.86914,-1.01953 1.62109,0.46093 a 0.5,0.5 0 0 0 0.61914,-0.34375 0.5,0.5 0 0 0 -0.34375,-0.61718 l -0.67578,-0.19336 0.78711,-0.44922 a 0.5,0.5 0 0 0 0.18555,-0.68164 0.5,0.5 0 0 0 -0.68164,-0.18555 l -0.92969,0.5293 0.11524,-0.80469 a 0.5,0.5 0 0 0 -0.42579,-0.56445 0.5,0.5 0 0 0 -0.56445,0.42382 l -0.22461,1.57032 -1.89453,1.03125 v -2.45117 l 0.98242,-0.39454 a 0.5,0.5 0 0 0 0.2793,-0.65039 0.5,0.5 0 0 0 -0.65039,-0.27734 l -0.61133,0.24414 v -0.81836 a 0.5,0.5 0 0 0 -0.5,-0.5 z"
               id="path6" />
            <path
               style="baseline-shift:baseline;display:inline;overflow:visible;vector-effect:non-scaling-stroke;fill:#00ff00;stroke:#00ff00;stroke-width:0.264583;stroke-linecap:round;stroke-linejoin:round;stroke-dasharray:none;stroke-opacity:1;-inkscape-stroke:hairline;enable-background:accumulate;stop-color:#000000"
               d="m 108.10802,32.200125 a 0.5,0.5 0 0 0 -0.5,0.5 v 0.82031 l -0.61328,-0.24609 a 0.5,0.5 0 0 0 -0.65039,0.27734 0.5,0.5 0 0 0 0.2793,0.65039 l 0.98437,0.39454 v 2.45312 l -1.89648,-1.0332 -0.22461,-1.57032 a 0.5,0.5 0 0 0 -0.56446,-0.42382 0.5,0.5 0 0 0 -0.42578,0.56445 l 0.11524,0.80469 -0.92969,-0.5293 a 0.5,0.5 0 0 0 -0.68164,0.18555 0.5,0.5 0 0 0 0.18555,0.68164 l 0.78711,0.44922 -0.67579,0.19336 a 0.5,0.5 0 0 0 -0.34375,0.61718 0.5,0.5 0 0 0 0.61915,0.34375 l 1.62109,-0.46093 1.86914,1.01953 -1.87109,1.01953 -1.61914,-0.46289 a 0.5,0.5 0 0 0 -0.61915,0.34375 0.5,0.5 0 0 0 0.34375,0.61719 l 0.67579,0.19335 -0.78711,0.44922 a 0.5,0.5 0 0 0 -0.18555,0.6836 0.5,0.5 0 0 0 0.68164,0.18554 l 0.92969,-0.53125 -0.11524,0.80469 a 0.5,0.5 0 0 0 0.42578,0.56641 0.5,0.5 0 0 0 0.56446,-0.42383 l 0.22461,-1.57031 1.89648,-1.03516 v 2.25 l -1.05664,0.63477 a 0.5,0.5 0 0 0 -0.16992,0.68554 0.5,0.5 0 0 0 0.68555,0.17188 l 0.54101,-0.32422 v 0.93359 a 0.5,0.5 0 0 0 0.5,0.5 0.5,0.5 0 0 0 0.5,-0.5 v -0.93359 l 0.53906,0.32422 a 0.5,0.5 0 0 0 0.6875,-0.17188 0.5,0.5 0 0 0 -0.17187,-0.68554 l -1.05469,-0.63282 v -2.25 l 1.89453,1.03321 0.22461,1.57031 a 0.5,0.5 0 0 0 0.56445,0.42383 0.5,0.5 0 0 0 0.42579,-0.56641 l -0.11524,-0.80469 0.92969,0.53125 a 0.5,0.5 0 0 0 0.68164,-0.18554 0.5,0.5 0 0 0 -0.18555,-0.6836 l -0.78711,-0.44922 0.67578,-0.19335 a 0.5,0.5 0 0 0 0.34375,-0.61719 0.5,0.5 0 0 0 -0.61914,-0.34375 l -1.61914,0.46289 -1.87109,-1.01953 1.86914,-1.01953 1.62109,0.46093 a 0.5,0.5 0 0 0 0.61914,-0.34375 0.5,0.5 0 0 0 -0.34375,-0.61718 l -0.67578,-0.19336 0.78711,-0.44922 a 0.5,0.5 0 0 0 0.18555,-0.68164 0.5,0.5 0 0 0 -0.68164,-0.18555 l -0.92969,0.5293 0.11524,-0.80469 a 0.5,0.5 0 0 0 -0.42579,-0.56445 0.5,0.5 0 0 0 -0.56445,0.42382 l -0.22461,1.57032 -1.89453,1.03125 v -2.45117 l 0.98242,-0.39454 a 0.5,0.5 0 0 0 0.2793,-0.65039 0.5,0.5 0 0 0 -0.65039,-0.27734 l -0.61133,0.24414 v -0.81836 a 0.5,0.5 0 0 0 -0.5,-0.5 z"
               id="path7" />
            <g
               id="text1"
               style="font-size:37.3333px;font-family:'Brush Script MT';-inkscape-font-specification:'Brush Script MT, Normal';text-align:center;white-space:pre;fill:#00ff00;stroke:#00ff00"
               transform="matrix(0.26458333,0,0,0.26458333,-0.36851021,-46.413483)"
               aria-label="Merry&#10;Christmas">
              <path
                 d="m 482.79298,347.44141 v 1.25781 q -1.73177,1.6224 -2.95313,2.625 -1.20312,0.98438 -2.40625,1.78646 -1.20312,0.78385 -2.0052,1.11198 -0.78386,0.34635 -1.34896,0.34635 -1.34896,0 -2.20573,-1.0026 -0.85677,-1.00261 -0.85677,-2.58854 0,-1.82292 0.72917,-3.60937 0.74739,-1.78646 2.11458,-3.68229 1.36719,-1.91406 3.42708,-4.28385 1.53125,-1.75 1.53125,-1.96875 0,-0.1276 -0.0912,-0.21875 -0.0911,-0.0911 -0.20052,-0.0911 -0.34635,0 -2.13281,1.53125 -1.78645,1.53125 -4.59374,4.5026 -2.78906,2.97135 -6.03385,7.07291 -0.18229,0.21875 -1.16667,1.49479 -0.96614,1.25782 -1.36718,1.64063 -0.40105,0.38281 -0.69271,0.38281 -0.51042,0 -0.89323,-1.02083 -0.36458,-1.03906 -0.36458,-2.20573 0,-0.71094 0.45573,-1.53125 0.47395,-0.82031 2.02343,-2.93489 1.56771,-2.13281 2.58854,-3.59115 1.02083,-1.45833 2.24219,-3.53645 0.85677,-1.4401 1.25781,-2.29687 0.41927,-0.85677 0.41927,-1.51302 0,-0.56511 -0.32813,-0.56511 -0.6927,0 -2.60677,1.85938 -1.91406,1.84114 -4.73957,5.48697 -2.80729,3.64583 -5.86979,8.4401 -1.0026,1.64062 -1.42187,2.20573 -0.41928,0.5651 -0.92969,0.5651 -0.63802,0 -1.20313,-1.34896 -0.54687,-1.36718 -0.54687,-2.20573 0,-0.27343 0.21875,-0.60156 2.40625,-3.20833 3.95573,-5.45051 1.54947,-2.24219 2.7526,-4.2474 1.20312,-2.02343 1.75,-3.3177 0.54687,-1.3125 0.54687,-2.0599 0,-0.78385 -0.71094,-0.78385 -0.58333,0 -1.98697,0.7474 -1.40365,0.74739 -3.55469,2.04166 -2.13281,1.29427 -3.42708,1.98698 -1.29427,0.67448 -1.93229,0.67448 -0.60156,0 -0.60156,-0.67448 0,-0.38281 0.25521,-1.75 0.25521,-1.38542 0.52864,-1.95052 0.38281,-0.72916 1.95052,-1.93229 1.58594,-1.20312 1.75,-1.20312 0.14583,0 0.14583,0.1276 0,0.0729 -0.14583,0.21875 -0.74739,0.60156 -1.11198,0.98438 -0.36458,0.38281 -0.45573,0.83854 3.33594,-2.00521 5.96094,-3.04427 2.64322,-1.05729 3.66406,-1.05729 0.51041,0 0.96614,0.6927 0.45573,0.67448 0.76562,1.58594 0.32813,0.89323 0.32813,1.14844 0,0.92968 -0.47396,2.20572 -0.47396,1.25782 -1.29427,2.9349 -0.80208,1.67708 -2.00521,4.1927 0.94792,-1.22135 1.80469,-2.26041 0.85677,-1.03906 1.69531,-2.02344 0.85677,-0.98437 1.73177,-1.98698 1.1849,-1.36718 2.66146,-2.60676 1.47656,-1.25782 2.7526,-2.04167 1.29427,-0.80208 1.75,-0.80208 0.63802,0 1.13021,0.71094 0.51041,0.6927 0.51041,1.49479 0,0.52864 -0.69271,2.02343 -0.6927,1.49479 -2.02343,3.82812 -1.33073,2.33333 -3.51823,6.01562 2.07812,-2.20572 4.32031,-4.53906 2.24219,-2.33333 3.33594,-3.40885 1.09374,-1.07552 1.82291,-1.64062 1.0026,-0.76562 2.00521,-1.64062 1.02083,-0.89323 1.60416,-1.40365 0.58333,-0.51041 1.03906,-0.78385 0.45573,-0.27344 0.83854,-0.27344 0.47396,0 1.1849,1.09375 0.72917,1.09375 0.72917,1.40364 0,0.38282 -0.4375,0.91146 -0.41927,0.52865 -1.76823,1.96875 -2.47917,2.66146 -4.30208,5.3776 -1.82292,2.69791 -2.77083,4.9401 -0.92969,2.22396 -0.92969,3.51823 0,0.80208 0.29167,1.16666 0.30989,0.36458 0.94791,0.36458 0.58334,0 1.07552,-0.21874 0.51042,-0.21875 1.11198,-0.6198 0.61979,-0.40104 1.16667,-0.76562 0.76562,-0.45573 1.49479,-0.96615 0.74739,-0.52864 1.14843,-0.82031 0.41927,-0.30989 0.6198,-0.4375 z m 2.78906,0.72917 v 0.45573 q 0,1.07552 0.52864,1.67708 0.52865,0.60156 1.38542,0.60156 0.89322,0 1.84114,-0.41927 0.96615,-0.41927 1.91406,-1.11198 0.94792,-0.6927 2.3151,-1.85937 v 1.11198 q -2.05989,2.47916 -3.86458,3.80989 -1.80468,1.3125 -3.66406,1.3125 -1.62239,0 -2.57031,-1.25781 -0.94791,-1.25781 -0.94791,-3.44531 0,-1.91406 0.89323,-3.46354 0.89322,-1.56771 2.91666,-3.29948 1.38542,-1.18489 2.7526,-1.78645 1.36719,-0.60157 2.44271,-0.60157 0.85677,0 1.34896,0.40105 0.51041,0.38281 0.51041,1.16666 0,1.14844 -0.85677,2.29687 -0.85677,1.13021 -2.625,2.26042 -1.74999,1.11198 -4.3203,2.15104 z m 0.18229,-1.1849 q 1.64062,-0.63802 2.80729,-1.58593 1.16666,-0.94792 1.71354,-1.80469 0.5651,-0.875 0.5651,-1.27604 0,-0.41927 -0.38281,-0.41927 -0.32813,0 -1.07552,0.41927 -0.72917,0.41927 -1.49479,1.09375 -0.7474,0.67448 -1.34896,1.58594 -0.60156,0.91145 -0.78385,1.98697 z m 7.61978,1.93229 v -1.18489 q 0.98438,-1.16667 1.49479,-1.98698 -0.58333,-0.20052 -0.85677,-0.49218 -0.2552,-0.29167 -0.2552,-0.875 0,-0.65625 0.54687,-1.65886 0.54687,-1.0026 1.34896,-1.8776 0.80208,-0.875 1.45833,-1.13021 0.25521,-0.1276 0.49219,-0.1276 0.36458,0 0.36458,0.34635 0,0.3099 -0.5651,1.25781 3.7552,-0.58333 4.73957,-0.58333 0.38282,0 0.52865,0.0729 0.3099,0.16406 0.51042,0.76562 0.20052,0.60156 0.20052,1.20313 0,0.38281 -0.34636,0.83854 -0.32812,0.4375 -1.14843,1.29427 -0.96615,1.03906 -1.6224,2.26041 -0.65625,1.22136 -0.65625,1.84115 0,0.85677 1.05729,0.85677 1.11198,0 3.86458,-2.26042 v 1.22135 q -1.51302,1.58594 -2.49739,2.4974 -0.98437,0.91146 -1.82292,1.45833 -0.83854,0.52865 -1.49479,0.52865 -0.76562,0 -1.27604,-0.69271 -0.51041,-0.71094 -0.51041,-2.04167 0,-0.78385 0.40104,-1.78645 0.40104,-1.00261 1.16666,-2.16927 0.78386,-1.1849 1.75,-2.35156 -0.51041,0.10937 -1.14843,0.23698 -0.63802,0.10937 -1.34896,0.23697 -0.71094,0.12761 -1.09375,0.20053 -1.13021,2.26041 -3.28125,4.10155 z m 10.90103,0 v -1.18489 q 0.98438,-1.16667 1.4948,-1.98698 -0.58334,-0.20052 -0.85677,-0.49218 -0.25521,-0.29167 -0.25521,-0.875 0,-0.65625 0.54687,-1.65886 0.54688,-1.0026 1.34896,-1.8776 0.80208,-0.875 1.45833,-1.13021 0.25521,-0.1276 0.49219,-0.1276 0.36458,0 0.36458,0.34635 0,0.3099 -0.5651,1.25781 3.7552,-0.58333 4.73958,-0.58333 0.38281,0 0.52864,0.0729 0.3099,0.16406 0.51042,0.76562 0.20052,0.60156 0.20052,1.20313 0,0.38281 -0.34636,0.83854 -0.32812,0.4375 -1.14843,1.29427 -0.96615,1.03906 -1.6224,2.26041 -0.65625,1.22136 -0.65625,1.84115 0,0.85677 1.0573,0.85677 1.11197,0 3.86458,-2.26042 v 1.22135 q -1.51302,1.58594 -2.4974,2.4974 -0.98437,0.91146 -1.82291,1.45833 -0.83854,0.52865 -1.49479,0.52865 -0.76563,0 -1.27604,-0.69271 -0.51042,-0.71094 -0.51042,-2.04167 0,-0.78385 0.40104,-1.78645 0.40104,-1.00261 1.16667,-2.16927 0.78385,-1.1849 1.74999,-2.35156 -0.51041,0.10937 -1.14843,0.23698 -0.63802,0.10937 -1.34896,0.23697 -0.71094,0.12761 -1.09375,0.20053 -1.13021,2.26041 -3.28125,4.10155 z m 19.48697,-0.6927 -3.24479,2.7526 q -2.3151,2.02343 -3.09896,2.02343 -0.71094,0 -1.49479,-1.62239 -0.78385,-1.64062 -0.78385,-2.86198 0,-1.03906 0.30989,-1.75 0.32813,-0.72916 1.11198,-1.8776 1.11198,-1.54948 2.13281,-2.625 1.02083,-1.07552 1.80469,-1.65885 0.78385,-0.60156 1.09375,-0.60156 0.49218,0 0.94791,0.51042 0.47396,0.51041 0.47396,1.05729 0,0.34635 -0.51041,1.11197 -0.49219,0.76563 -1.58594,1.95052 -1.07552,1.16667 -3.00781,2.80729 l -0.34635,1.00261 q -0.14584,0.29166 -0.14584,0.51041 0,0.49219 0.49219,0.49219 0.51042,0 2.38802,-1.29427 1.89583,-1.29427 4.10156,-3.48177 0.85677,-0.85677 1.42187,-1.51302 0.5651,-0.65625 1.02083,-1.22135 0.45573,-0.58333 0.7474,-0.875 0.30989,-0.29167 0.54687,-0.3099 0.45573,-0.0547 0.71094,0.38282 0.25521,0.4375 0.25521,1.29427 0,0.49218 -0.4375,1.23958 -0.4375,0.72916 -1.64063,2.51562 -1.20312,1.76823 -2.40624,3.68229 -1.1849,1.89583 -2.42448,4.28385 0.0547,-0.0547 1.11198,-1.09375 1.07552,-1.03906 2.26041,-2.16927 1.1849,-1.1302 1.95052,-1.80468 0.76563,-0.69271 1.91406,-1.60417 v 1.22135 q -2.46093,2.64323 -4.46614,5.01302 -1.98698,2.36979 -3.08073,3.79166 -1.07552,1.42188 -1.25781,1.65886 -0.49218,0.63802 -0.89323,1.18489 -0.38281,0.56511 -0.65625,0.85677 -0.2552,0.3099 -0.41927,0.3099 -0.38281,0 -0.6927,-0.76563 -0.29167,-0.74739 -0.29167,-1.33072 0,-0.52865 0.20052,-0.92969 1.3125,-2.95312 5.88802,-10.26301 z"
                 id="path1" />
              <path
                 d="m 451.17451,394.10804 v 1.18489 q -3.0625,3.40886 -5.63281,5.61458 -2.55208,2.22396 -4.99478,3.40885 -2.44271,1.20313 -4.72135,1.20313 -1.96875,0 -3.39063,-0.78386 -1.40364,-0.78385 -2.13281,-2.29687 -0.71093,-1.49479 -0.71093,-3.55468 0,-1.6224 0.51041,-3.42708 0.52865,-1.82292 1.51302,-3.66406 0.98438,-1.85938 2.40625,-3.82812 1.4401,-1.96875 3.37239,-4.13802 2.00521,-2.24219 3.95573,-3.86458 1.95052,-1.64063 3.53646,-2.57031 1.58593,-0.92969 2.93489,-1.38542 1.36718,-0.45573 2.26041,-0.45573 0.91146,0 1.54948,0.4375 0.63802,0.4375 0.98438,1.27604 0.34635,0.83854 0.34635,1.93229 0,2.0599 -1.40365,4.59375 -1.40364,2.51562 -3.49999,4.86718 -2.09635,2.35156 -4.01042,3.84635 -1.89583,1.47657 -2.73437,1.47657 -0.5651,0 -1.05729,-0.4375 -0.47396,-0.45573 -0.47396,-1.02084 0,-1.03906 1.09375,-2.51562 1.11198,-1.47656 2.40625,-2.69791 1.3125,-1.23959 1.56771,-1.23959 0.1276,0 0.1276,0.10938 0,0.16406 -0.20052,0.5651 -0.18229,0.40104 -0.18229,0.49219 0,0.14583 0.10937,0.14583 0.3099,0 1.78646,-1.65885 1.47656,-1.65885 2.69791,-3.64583 1.23959,-2.00521 1.23959,-3.28125 0,-0.52864 -0.23698,-0.80208 -0.21875,-0.29167 -0.67448,-0.29167 -1.27604,0 -3.88281,2.07813 -2.58854,2.05989 -5.32291,5.26822 -2.71615,3.1901 -4.53906,6.59895 -1.82292,3.40886 -1.82292,5.99739 0,1.49479 0.4375,2.4974 0.45573,1.0026 1.3125,1.54948 0.875,0.54687 2.09636,0.54687 2.64322,0 5.99739,-2.05989 3.35416,-2.0599 7.3828,-6.07031 z m 13.47134,0.0729 v 1.14843 q -1.58593,1.6224 -2.7526,2.66146 -1.14843,1.02083 -2.02343,1.54948 -0.85677,0.52864 -1.45834,0.52864 -1.42187,0 -1.42187,-1.67708 0,-1.34896 0.875,-3.11719 0.89323,-1.78645 2.55208,-4.1927 -0.82031,0.45573 -1.54948,1.05729 -0.72916,0.58333 -1.29427,1.23958 -0.5651,0.63802 -0.94791,1.09375 -1.1849,1.33073 -2.27865,2.73437 -1.09374,1.38542 -1.47656,1.80469 -0.38281,0.41927 -0.72916,0.41927 -1.42188,0 -1.42188,-3.5 0,-1.14843 0.34636,-2.53385 0.34635,-1.38541 1.85937,-3.66406 3.1901,-4.77603 5.45052,-7.80207 2.27864,-3.04427 3.77343,-4.59375 1.49479,-1.56771 2.00521,-1.53125 0.63802,0.0547 1.02083,0.25521 0.40104,0.20052 0.40104,0.45573 0,0.45573 -0.63802,1.51302 -0.61979,1.03906 -2.15104,3.26302 -1.65885,2.35156 -2.35156,3.3177 -0.69271,0.94792 -2.07812,2.71614 -1.36719,1.75 -2.51563,3.13542 -1.1302,1.36719 -2.58853,2.97135 v 2.1875 q 2.4427,-2.71614 4.22916,-4.44791 1.78645,-1.73177 3.02604,-2.60677 1.23958,-0.89323 1.82291,-0.89323 0.54688,0 1.02083,0.65625 0.47396,0.63802 0.47396,1.05729 0,0.18229 -0.18229,0.45573 -1.3125,1.5677 -2.09635,2.60677 -0.76563,1.02083 -1.1849,1.84114 -0.41927,0.80208 -0.41927,1.38542 0,0.85677 0.82032,0.85677 0.87499,0 3.8828,-2.35156 z m -0.18229,1.40364 v -1.18489 q 0.98438,-1.16667 1.49479,-1.98698 -0.58333,-0.20052 -0.85677,-0.49219 -0.25521,-0.29167 -0.25521,-0.875 0,-0.65625 0.54688,-1.65885 0.54687,-1.0026 1.34896,-1.8776 0.80208,-0.875 1.45833,-1.13021 0.25521,-0.1276 0.49219,-0.1276 0.36458,0 0.36458,0.34635 0,0.30989 -0.56511,1.25781 3.75521,-0.58333 4.73958,-0.58333 0.38282,0 0.52865,0.0729 0.3099,0.16407 0.51042,0.76563 0.20052,0.60156 0.20052,1.20312 0,0.38281 -0.34636,0.83854 -0.32812,0.4375 -1.14843,1.29427 -0.96615,1.03906 -1.6224,2.26042 -0.65625,1.22135 -0.65625,1.84114 0,0.85677 1.05729,0.85677 1.11198,0 3.86458,-2.26041 v 1.22135 q -1.51302,1.58594 -2.49739,2.49739 -0.98437,0.91146 -1.82292,1.45834 -0.83854,0.52864 -1.49479,0.52864 -0.76562,0 -1.27604,-0.69271 -0.51041,-0.71093 -0.51041,-2.04166 0,-0.78385 0.40104,-1.78646 0.40104,-1.0026 1.16666,-2.16927 0.78386,-1.18489 1.75,-2.35156 -0.51041,0.10938 -1.14843,0.23698 -0.63802,0.10938 -1.34896,0.23698 -0.71094,0.1276 -1.09375,0.20052 -1.13021,2.26042 -3.28125,4.10156 z m 18.55728,-9.55207 q -0.45573,0 -0.875,-0.34636 -0.40104,-0.34635 -0.40104,-0.875 0,-0.80208 0.76562,-1.78645 0.76563,-0.98438 1.58594,-0.98438 0.54687,0 0.91146,0.34636 0.36458,0.32812 0.36458,0.96614 0,0.78385 -0.7474,1.73177 -0.74739,0.94792 -1.60416,0.94792 z m 1.23958,8.14843 v 1.33072 q -1.76823,2.27865 -3.29948,3.44531 -1.53125,1.14844 -2.60677,1.14844 -1.49479,0 -2.22395,-1.56771 -0.72917,-1.5677 -0.72917,-3.42708 0,-0.71093 0.14584,-1.34895 0.14583,-0.65625 0.34635,-1.07552 0.20052,-0.41928 0.74739,-1.3125 2.58854,-4.02865 4.73958,-4.02865 1.11198,0 1.11198,0.85677 0,0.58334 -0.72916,1.82292 -0.71094,1.23958 -1.27604,1.76823 -1.58594,1.53125 -2.07813,2.13281 -0.47396,0.60156 -0.47396,1.36718 0,0.65625 0.49219,1.09375 0.49219,0.4375 1.27604,0.4375 0.85677,0 1.8776,-0.61979 1.03907,-0.63802 2.67969,-2.02343 z m -0.23698,0.51041 v -0.4375 q 4.70312,-4.95833 6.47135,-6.9453 0.40104,-2.24219 1.93229,-2.24219 0.38281,0 0.82031,0.21875 l 0.10938,0.34635 q -0.0729,0.21875 -0.0729,0.6198 0,0.34635 0.25521,1.29426 0.27344,0.92969 0.41927,1.56771 0.14583,0.63802 0.14583,1.4401 0,1.20313 -0.54687,2.31511 -0.54688,1.09375 -1.58594,2.11458 -1.03906,1.0026 -2.67968,2.05989 0.65625,0.10938 1.03906,0.10938 0.74739,0 1.60416,-0.36459 0.875,-0.38281 1.76823,-1.0026 0.91146,-0.63802 2.11458,-1.64062 v 1.22135 q -2.33333,2.27864 -4.17447,3.46354 -1.84115,1.16667 -3.17188,1.16667 -1.71354,0 -3.17187,-1.45834 -0.85677,-0.875 -1.07552,-1.67708 -0.20052,-0.80208 -0.20052,-2.16927 z m 6.79948,-2.78906 -0.32813,-2.66145 q -1.13021,1.27604 -4.83072,4.90364 1.09374,0.23698 1.49479,0.63802 0.40104,0.40104 1.1302,1.54948 1.23959,-0.51042 1.89583,-1.38542 0.67448,-0.89323 0.67448,-2.42448 0,-0.18229 -0.0182,-0.32812 0,-0.14583 -0.0182,-0.29167 z m 11.3203,-7.18228 h 0.78385 q 0.96615,-1.73177 1.75,-2.44271 0.78386,-0.72917 1.78646,-0.72917 1.0026,0 1.0026,0.45573 0,0.21875 -0.78385,1.1849 -0.78385,0.96614 -1.1849,1.62239 0.6198,0.0729 1.09375,0.12761 0.49219,0.0547 0.76563,0.0911 -1.03906,1.93229 -2.60677,3.95573 -0.51042,-0.0365 -0.85677,-0.0547 -0.34636,-0.0365 -0.71094,-0.0547 -0.34635,-0.0365 -0.85677,-0.0729 -0.98437,1.58593 -1.65885,2.84374 -0.65625,1.23959 -1.02083,2.27865 -0.34636,1.03906 -0.34636,1.96875 0,1.25781 1.00261,1.25781 0.6927,0 1.80468,-0.72917 1.13021,-0.74739 3.00781,-2.27864 v 1.22135 q -4.92187,5.34114 -7.27343,5.34114 -0.82031,0 -1.33073,-0.63802 -0.49218,-0.63802 -0.49218,-1.64062 0,-0.67448 0.27343,-1.60417 0.29167,-0.92968 1.02084,-2.80729 -0.25521,0.21875 -0.49219,0.4375 -0.21875,0.20052 -0.41927,0.38282 -0.18229,0.16406 -0.40104,0.36458 -0.21875,0.18229 -0.4375,0.38281 v -1.25781 q 1.91406,-1.60417 4.6302,-5.63281 -0.27344,-0.0182 -0.51042,-0.0182 -0.23697,-0.0182 -0.5651,-0.0182 -1.07552,0 -1.60416,0.14584 -0.21875,0.0547 -0.41927,0.1276 -0.1823,0.0547 -0.25521,0.0547 -0.0729,0 -0.0729,-0.10938 0,-0.60156 0.7474,-1.80468 0.60156,-1.02084 1.1302,-1.51302 0.54688,-0.49219 1.3125,-0.65625 0.78386,-0.18229 2.1875,-0.18229 z m 11.26561,11.95832 q 2.51562,-2.22396 4.32031,-3.86458 1.80469,-1.65885 2.82552,-2.60677 1.03906,-0.94791 1.82291,-1.60416 0.78386,-0.65625 1.00261,-0.65625 0.41927,-0.0182 0.80208,0.875 0.38281,0.87499 0.38281,1.40364 0,0.34635 -1.16666,1.64062 -1.14844,1.27604 -1.73177,2.04167 -0.56511,0.76562 -0.56511,1.60416 0,0.49219 0.32813,0.80209 0.32812,0.29166 0.78385,0.29166 0.52865,0 1.25781,-0.54687 0.7474,-0.54688 2.33333,-1.95052 v 1.29427 q -1.58593,1.49479 -2.8802,2.58854 -1.29427,1.07552 -2.26042,1.62239 -0.94791,0.52865 -1.58593,0.52865 -0.56511,0 -0.94792,-0.41927 -0.38281,-0.4375 -0.38281,-1.07552 0,-0.61979 0.21875,-1.25781 0.21875,-0.63802 0.67448,-1.51302 0.45573,-0.875 1.20312,-2.09636 0.7474,-1.23958 1.36719,-2.26041 -1.85938,1.51302 -3.29948,2.91666 -1.4401,1.40365 -2.35156,2.46094 -0.91146,1.03906 -1.4401,1.64062 -1.02083,1.13021 -1.89583,1.13021 -0.94792,0 -0.94792,-1.34896 0,-0.54687 0.71094,-1.95052 0.71093,-1.42187 2.02343,-3.60937 0.10938,-0.14583 0.10938,-0.45573 0,-0.36458 -0.36459,-0.36458 -0.40104,0 -1.16666,0.76562 -0.7474,0.7474 -2.91667,3.15365 -0.60156,0.67448 -1.36718,1.76823 -0.7474,1.07552 -1.07552,1.4401 -0.32813,0.36458 -0.65625,0.36458 -0.65625,0 -1.22135,-1.16666 -0.56511,-1.16667 -0.56511,-2.71615 0,-1.13021 0.36459,-1.95052 0.38281,-0.82031 1.16666,-2.04166 1.22135,-1.76823 1.98698,-2.51562 0.78385,-0.76563 1.64062,-0.76563 0.52865,0 0.89323,0.21875 0.36458,0.20052 0.36458,0.5651 0,0.38282 -0.67447,1.25782 -0.65625,0.875 -1.67709,1.80468 -0.54687,0.52865 -1.03906,1.3125 -0.49219,0.76562 -0.49219,1.11198 0,0.49219 0.38282,0.49219 0.30989,0 1.5677,-1.27604 1.25782,-1.27605 2.75261,-2.77084 1.51302,-1.51302 2.78906,-2.49739 1.29427,-1.0026 2.18749,-1.0026 0.54688,0 0.89323,0.41927 0.36459,0.40104 0.36459,1.0026 0,0.40104 -0.54688,1.45833 -0.54687,1.03906 -1.60416,2.58854 -1.03907,1.53125 -2.69792,3.71875 z m 14.40104,-5.76041 q 2.77083,-2.51563 5.37759,-3.73698 2.60677,-1.22135 4.02865,-1.22135 0.38281,0 0.71093,0.32812 0.32813,0.3099 0.51042,0.72917 0.20052,0.41927 0.20052,0.61979 0,0.32813 -0.25521,0.49219 -0.25521,0.14583 -0.89323,0.36458 0.12761,0.29167 0.32813,0.7474 0.20052,0.45572 0.30989,0.74739 0.10938,0.27344 0.10938,0.49219 0,0.4375 -0.89323,1.64062 -0.875,1.1849 -1.23958,1.75 -0.34635,0.5651 -0.34635,1.38542 0,1.34895 1.23958,1.34895 1.27604,0 3.99218,-2.38802 v 1.11198 q -4.61197,5.12239 -6.59895,5.12239 -0.71094,0 -1.02083,-0.47395 -0.29167,-0.45573 -0.29167,-1.36719 0,-1.4401 1.03906,-4.17448 -2.66145,2.95313 -3.95572,4.21094 -1.29427,1.23958 -2.13281,1.23958 -0.40105,0 -1.00261,-0.69271 -0.60156,-0.69271 -1.07552,-1.78645 -0.45573,-1.11198 -0.45573,-2.29688 0,-0.85677 0.16407,-1.42187 0.16406,-0.58333 0.63802,-1.1849 0.47395,-0.60156 1.51302,-1.58593 z m 8.73176,-2.00521 q -4.73958,2.16927 -6.76302,3.68229 -2.0052,1.51302 -2.0052,3.11718 0,0.58334 0.20052,0.96615 0.20052,0.36458 0.54687,0.36458 0.20052,0 0.71094,-0.25521 1.91406,-1.1302 3.5,-2.93489 1.58593,-1.82291 3.80989,-4.9401 z m 4.21093,5.77864 v -0.4375 q 4.70312,-4.95833 6.47135,-6.9453 0.40104,-2.24219 1.93229,-2.24219 0.38281,0 0.82031,0.21875 l 0.10938,0.34635 q -0.0729,0.21875 -0.0729,0.6198 0,0.34635 0.25521,1.29426 0.27343,0.92969 0.41927,1.56771 0.14583,0.63802 0.14583,1.4401 0,1.20313 -0.54687,2.31511 -0.54688,1.09375 -1.58594,2.11458 -1.03906,1.0026 -2.67969,2.05989 0.65625,0.10938 1.03907,0.10938 0.74739,0 1.60416,-0.36459 0.875,-0.38281 1.76823,-1.0026 0.91146,-0.63802 2.11458,-1.64062 v 1.22135 q -2.33333,2.27864 -4.17447,3.46354 -1.84115,1.16667 -3.17188,1.16667 -1.71354,0 -3.17187,-1.45834 -0.85677,-0.875 -1.07552,-1.67708 -0.20052,-0.80208 -0.20052,-2.16927 z m 6.79947,-2.78906 -0.32812,-2.66145 q -1.13021,1.27604 -4.83073,4.90364 1.09375,0.23698 1.49479,0.63802 0.40105,0.40104 1.13021,1.54948 1.23958,-0.51042 1.89583,-1.38542 0.67448,-0.89323 0.67448,-2.42448 0,-0.18229 -0.0182,-0.32812 0,-0.14583 -0.0182,-0.29167 z"
                 id="path3" />
            </g>
          </g>
        </g>
      </g>
    </g>
    <path
       id="path12"
       style="opacity:1;vector-effect:non-scaling-stroke;fill:none;stroke:#ff0000;stroke-width:0.264583;-inkscape-stroke:hairline"
       d="m 197.88167,93.919791 -70.53289,4.41e-4 a 11.999242,11.999242 135.00017 0 0 -11.99917,11.999098 l -8.5e-4,70.53341 c 0.48805,4.81081 22.94636,29.15497 24.12395,24.12343 0,0 -10.88943,-15.62947 -10.67532,-20.33985 4.71037,-1.07054 8.85127,4.65144 10.47172,3.36879 0.0957,-2.93501 -9.37867,-13.96667 -9.10539,-15.66106 0.98384,-1.31178 8.43562,4.5922 10.07535,3.28042 0.43726,-1.74904 -9.32246,-11.31854 -9.10383,-13.61416 0.49192,-0.81986 7.66609,4.68044 9.03252,3.31401 0.81987,-2.24096 -9.0526,-9.69391 -10.20041,-13.68391 1.47575,-1.25713 8.40079,4.35938 9.71775,2.574 -0.71055,-4.09932 -10.57101,-12.15124 -9.4232,-12.64316 0.87453,-1.74903 8.69244,3.94104 9.45938,0.80357 -0.62749,-2.8586 -8.51066,-10.1205 -9.38186,-14.09578 3.89263,-2.55199 6.76287,2.4775 9.417,0.74207 -0.6369,-3.95306 -8.4537,-10.91611 -6.84248,-13.13666 2.22055,-1.61122 9.18309,6.20609 13.13615,6.84299 1.73542,-2.65412 -3.29406,-5.52436 -0.74208,-9.41699 3.97529,0.87119 11.23718,8.75436 14.09578,9.38185 3.13747,-0.76694 -2.5526,-8.58484 -0.80356,-9.45937 0.49192,-1.1478 8.54384,8.71265 12.64315,9.4232 1.78538,-1.31697 -3.83112,-8.24201 -2.574,-9.71776 3.99001,1.1478 11.44297,11.02028 13.68392,10.20042 1.36644,-1.36644 -4.13388,-8.54061 -3.31401,-9.03253 2.29561,-0.21863 11.8651,9.5411 13.61415,9.10384 1.31178,-1.63972 -4.5922,-9.09151 -3.28042,-10.07535 1.69438,-0.27328 12.72656,9.20062 15.66158,9.10487 1.28265,-1.62045 -4.43984,-5.76083 -3.3693,-10.4712 4.71037,-0.21411 20.33984,10.67532 20.33984,10.67532 5.03154,-1.1776 -19.31262,-23.635899 -24.12343,-24.123949 z m -64.5325,6.580989 9.99991,0 v 2.50011 l -9.99991,0 z m 29.99972,0 h 9.99991 v 2.50011 l -9.99991,0 z m -42.49973,12.50001 2.49959,0 0,9.99991 -2.49959,0 z m 0,29.99972 h 2.49959 l 0,9.99991 h -2.49959 z"
       inkscape:path-effect="#path-effect31"
       inkscape:original-d="m 197.88167,93.919791 -82.53191,5.16e-4 -0.001,82.532433 c 0.48805,4.81081 22.94636,29.15497 24.12395,24.12343 0,0 -10.88943,-15.62947 -10.67532,-20.33985 4.71037,-1.07054 8.85127,4.65144 10.47172,3.36879 0.0957,-2.93501 -9.37867,-13.96667 -9.10539,-15.66106 0.98384,-1.31178 8.43562,4.5922 10.07535,3.28042 0.43726,-1.74904 -9.32246,-11.31854 -9.10383,-13.61416 0.49192,-0.81986 7.66609,4.68044 9.03252,3.31401 0.81987,-2.24096 -9.0526,-9.69391 -10.20041,-13.68391 1.47575,-1.25713 8.40079,4.35938 9.71775,2.574 -0.71055,-4.09932 -10.57101,-12.15124 -9.4232,-12.64316 0.87453,-1.74903 8.69244,3.94104 9.45938,0.80357 -0.62749,-2.8586 -8.51066,-10.1205 -9.38186,-14.09578 3.89263,-2.55199 6.76287,2.4775 9.417,0.74207 -0.6369,-3.95306 -8.4537,-10.91611 -6.84248,-13.13666 2.22055,-1.61122 9.18309,6.20609 13.13615,6.84299 1.73542,-2.65412 -3.29406,-5.52436 -0.74208,-9.41699 3.97529,0.87119 11.23718,8.75436 14.09578,9.38185 3.13747,-0.76694 -2.5526,-8.58484 -0.80356,-9.45937 0.49192,-1.1478 8.54384,8.71265 12.64315,9.4232 1.78538,-1.31697 -3.83112,-8.24201 -2.574,-9.71776 3.99001,1.1478 11.44297,11.02028 13.68392,10.20042 1.36644,-1.36644 -4.13388,-8.54061 -3.31401,-9.03253 2.29561,-0.21863 11.8651,9.5411 13.61415,9.10384 1.31178,-1.63972 -4.5922,-9.09151 -3.28042,-10.07535 1.69438,-0.27328 12.72656,9.20062 15.66158,9.10487 1.28265,-1.62045 -4.43984,-5.76083 -3.3693,-10.4712 4.71037,-0.21411 20.33984,10.67532 20.33984,10.67532 5.03154,-1.1776 -19.31262,-23.635899 -24.12343,-24.123949 z m -64.5325,6.580989 9.99991,0 v 2.50011 l -9.99991,0 z m 29.99972,0 h 9.99991 v 2.50011 l -9.99991,0 z m -42.49973,12.50001 2.49959,0 0,9.99991 -2.49959,0 z m 0,29.99972 h 2.49959 l 0,9.99991 h -2.49959 z"
       transform="rotate(45,93.887048,40.545851)"
       sodipodi:nodetypes="ccccccccccccccccccccccccccccccsccccccccccccccccccccc" />
    <path
       style="baseline-shift:baseline;display:inline;overflow:visible;vector-effect:non-scaling-stroke;fill:#00ff00;stroke:#00ff00;stroke-width:0.264583;stroke-linecap:round;stroke-linejoin:round;stroke-dasharray:none;stroke-opacity:1;-inkscape-stroke:hairline;enable-background:accumulate;stop-color:#000000"
       d="m 339.47811,583.08952 a 0.5,0.5 0 0 0 -0.5,0.5 v 0.82031 l -0.61328,-0.24609 a 0.5,0.5 0 0 0 -0.65039,0.27734 0.5,0.5 0 0 0 0.2793,0.65039 l 0.98437,0.39454 v 2.45312 l -1.89648,-1.0332 -0.22461,-1.57032 a 0.5,0.5 0 0 0 -0.56446,-0.42382 0.5,0.5 0 0 0 -0.42578,0.56445 l 0.11524,0.80469 -0.92969,-0.5293 a 0.5,0.5 0 0 0 -0.68164,0.18555 0.5,0.5 0 0 0 0.18555,0.68164 l 0.78711,0.44922 -0.67579,0.19336 a 0.5,0.5 0 0 0 -0.34375,0.61718 0.5,0.5 0 0 0 0.61915,0.34375 l 1.62109,-0.46093 1.86914,1.01953 -1.87109,1.01953 -1.61914,-0.46289 a 0.5,0.5 0 0 0 -0.61915,0.34375 0.5,0.5 0 0 0 0.34375,0.61719 l 0.67579,0.19335 -0.78711,0.44922 a 0.5,0.5 0 0 0 -0.18555,0.6836 0.5,0.5 0 0 0 0.68164,0.18554 l 0.92969,-0.53125 -0.11524,0.80469 a 0.5,0.5 0 0 0 0.42578,0.56641 0.5,0.5 0 0 0 0.56446,-0.42383 l 0.22461,-1.57031 1.89648,-1.03516 v 2.25 l -1.05664,0.63477 a 0.5,0.5 0 0 0 -0.16992,0.68554 0.5,0.5 0 0 0 0.68555,0.17188 l 0.54101,-0.32422 v 0.93359 a 0.5,0.5 0 0 0 0.5,0.5 0.5,0.5 0 0 0 0.5,-0.5 v -0.93359 l 0.53906,0.32422 a 0.5,0.5 0 0 0 0.6875,-0.17188 0.5,0.5 0 0 0 -0.17187,-0.68554 l -1.05469,-0.63282 v -2.25 l 1.89453,1.03321 0.22461,1.57031 a 0.5,0.5 0 0 0 0.56445,0.42383 0.5,0.5 0 0 0 0.42579,-0.56641 l -0.11524,-0.80469 0.92969,0.53125 a 0.5,0.5 0 0 0 0.68164,-0.18554 0.5,0.5 0 0 0 -0.18555,-0.6836 l -0.78711,-0.44922 0.67578,-0.19335 a 0.5,0.5 0 0 0 0.34375,-0.61719 0.5,0.5 0 0 0 -0.61914,-0.34375 l -1.61914,0.46289 -1.87109,-1.01953 1.86914,-1.01953 1.62109,0.46093 a 0.5,0.5 0 0 0 0.61914,-0.34375 0.5,0.5 0 0 0 -0.34375,-0.61718 l -0.67578,-0.19336 0.78711,-0.44922 a 0.5,0.5 0 0 0 0.18555,-0.68164 0.5,0.5 0 0 0 -0.68164,-0.18555 l -0.92969,0.5293 0.11524,-0.80469 a 0.5,0.5 0 0 0 -0.42579,-0.56445 0.5,0.5 0 0 0 -0.56445,0.42382 l -0.22461,1.57032 -1.89453,1.03125 v -2.45117 l 0.98242,-0.39454 a 0.5,0.5 0 0 0 0.2793,-0.65039 0.5,0.5 0 0 0 -0.65039,-0.27734 l -0.61133,0.24414 v -0.81836 a 0.5,0.5 0 0 0 -0.5,-0.5 z"
       id="path14" />
  </g>
</svg>
