<?xml version="1.0" encoding="UTF-8" standalone="no"?>
<!-- Created with Inkscape (http://www.inkscape.org/) -->

<svg
   width="420mm"
   height="594mm"
   viewBox="0 0 420 594"
   version="1.1"
   id="svg1"
   inkscape:version="1.4.2 (ebf0e940, 2025-05-08)"
   sodipodi:docname="template.svg"
   xmlns:inkscape="http://www.inkscape.org/namespaces/inkscape"
   xmlns:sodipodi="http://sodipodi.sourceforge.net/DTD/sodipodi-0.dtd"
   xmlns="http://www.w3.org/2000/svg"
   xmlns:svg="http://www.w3.org/2000/svg">
  <sodipodi:namedview
     id="namedview1"
     pagecolor="#a0a0a0"
     bordercolor="#c0c0c0"
     borderopacity="0.25098039"
     inkscape:showpageshadow="2"
     inkscape:pageopacity="0.0"
     inkscape:pagecheckerboard="false"
     inkscape:deskcolor="#909090"
     inkscape:document-units="mm"
     showguides="true"
     inkscape:zoom="0.90449817"
     inkscape:cx="463.79309"
     inkscape:cy="484.79921"
     inkscape:window-width="2008"
     inkscape:window-height="1381"
     inkscape:window-x="557"
     inkscape:window-y="31"
     inkscape:window-maximized="0"
     inkscape:current-layer="layer1"
     inkscape:lockguides="false"
     showgrid="false"
     showborder="false">
    <inkscape:grid
       id="grid13"
       units="mm"
       originx="0"
       originy="0"
       spacingx="0.99999998"
       spacingy="1"
       empcolor="#0099e5"
       empopacity="0.30196078"
       color="#0099e5"
       opacity="0.14901961"
       empspacing="5"
       enabled="true"
       visible="false" />
    <sodipodi:guide
       position="-1.7551168,658.06178"
       orientation="0,-1"
       id="guide72"
       inkscape:locked="false" />
    <sodipodi:guide
       position="92.499768,403.63145"
       orientation="1,0"
       id="guide73"
       inkscape:locked="false" />
  </sodipodi:namedview>
  <defs
     id="defs1">
    <inkscape:path-effect
       effect="fillet_chamfer"
       id="path-effect14"
       is_visible="true"
       lpeversion="1"
       nodesatellites_param="F,0,0,1,0,1.9219205,0,1 @ F,0,0,1,0,0,0,1 @ F,0,0,1,0,0,0,1 @ F,0,0,1,0,0,0,1 @ F,0,0,1,0,0,0,1 @ F,0,0,1,0,0,0,1 @ F,0,0,1,0,0,0,1 @ F,0,0,1,0,0,0,1 @ F,0,0,1,0,0,0,1 @ F,0,0,1,0,0,0,1 @ F,0,0,1,0,0,0,1 @ F,0,0,1,0,0,0,1 @ F,0,0,1,0,0,0,1 @ F,0,0,1,0,0,0,1 @ F,0,0,1,0,0,0,1 @ F,0,0,1,0,0,0,1 @ F,0,0,1,0,0,0,1 @ F,0,0,1,0,0,0,1 @ F,0,0,1,0,0,0,1 @ F,0,0,1,0,0,0,1 @ F,0,0,1,0,0,0,1 @ F,0,0,1,0,0,0,1 @ F,0,0,1,0,0,0,1 @ F,0,0,1,0,0,0,1 @ F,0,0,1,0,0,0,1 @ F,0,0,1,0,0,0,1 @ F,0,0,1,0,0,0,1 @ F,0,0,1,0,0,0,1"
       radius="0"
       unit="px"
       method="auto"
       mode="F"
       chamfer_steps="1"
       flexible="false"
       use_knot_distance="true"
       apply_no_radius="true"
       apply_with_radius="true"
       only_selected="false"
       hide_knots="false" />
    <rect
       x="890.23407"
       y="458.64859"
       width="424.4636"
       height="239.29492"
       id="rect3" />
    <rect
       x="920.14593"
       y="574.02293"
       width="344.69863"
       height="65.521231"
       id="rect1" />
  </defs>
  <g
     inkscape:label="Layer 1"
     inkscape:groupmode="layer"
     id="layer1">
    <path
       id="path2"
       style="opacity:1;vector-effect:non-scaling-stroke;fill:none;fill-opacity:1;stroke:#ff0000;stroke-width:0.264583;stroke-dasharray:none;stroke-opacity:1;-inkscape-stroke:hairline"
       inkscape:label="front"
       inkscape:transform-center-x="-2.7888226"
       inkscape:transform-center-y="2.788715"
       d="m 112.33408,104.47133 -3.8e-4,10.00055 3.00028,-1.7e-4 6.4e-4,19.99983 -3.00079,4e-5 -6.2e-4,9.99941 3.00066,4.6e-4 2.2e-4,6.81962 7.72793,2.0707 -0.77641,2.89759 8.21063,2.20004 0.7764,-2.8976 9.17612,2.45819 -0.77654,2.8981 8.21061,2.20003 0.77655,-2.8981 5.65343,1.51484 2.23539,-2.2349 2.12112,2.1209 3.5351,-3.53548 -2.12111,-2.1209 -14.44458,-14.44456 c -3.99868,-3.99871 -3.49179,-10.98872 1.13169,-15.6123 4.62358,-4.62349 11.61329,-5.13008 15.61201,-1.1314 l 14.44457,14.44456 2.12111,2.12091 3.53547,-3.53486 -2.12098,-2.1214 2.23501,-2.23553 -1.51491,-5.65314 2.89802,-0.77656 -2.20031,-8.21056 -2.89803,0.77656 -2.45833,-9.17634 2.89803,-0.77657 -2.20032,-8.21055 -2.89802,0.77655 -2.0703,-7.727386 -6.81999,-4.1e-4 -3.1e-4,-2.99978 -9.99939,-6.3e-4 2e-5,3.0008 -19.99993,-0.001 -4.4e-4,-2.99929 -9.99954,-1.2e-4 -1.9e-4,2.99966 -9.99967,3.8e-4 -1.2e-4,9.999526 z" />
    <path
       id="path23"
       style="vector-effect:non-scaling-stroke;fill:none;fill-opacity:1;stroke:#ff0000;stroke-width:0.264583;stroke-dasharray:none;stroke-opacity:1;-inkscape-stroke:hairline"
       inkscape:label="back-wall"
       inkscape:transform-center-x="2.8521716"
       inkscape:transform-center-y="-12.231355"
       d="m 120.36821,4.9497 -7.07101,7.071371 2.12093,2.12121 -14.14202,14.14273 -2.121203,-2.12167 -7.07127,7.07092 2.1219,2.12185 -4.82231,4.82192 4.00002,6.92823 -2.59836,1.50017 4.25013,7.36144 2.59836,-1.50017 4.749833,8.22696 -2.598363,1.50016 4.250133,7.36144 2.59836,-1.50016 2.9267,5.06918 3.1607,-1e-4 -3e-5,3.00027 4.99992,1.7e-4 2.2e-4,-3.00098 6.91021,5.8e-4 8.7e-4,-4.85711 9.85722,3.4e-4 2e-5,4.8566 6.91085,-4e-4 -2.3e-4,3.00098 4.99966,-2.8e-4 4e-5,-3.00027 3.16115,-3.6e-4 2.92617,-5.06858 2.59807,1.49965 4.25014,-7.36115 -2.59762,-1.49991 4.74964,-8.22714 2.59762,1.49991 4.25015,-7.36115 -2.59762,-1.49991 3.99991,-6.92847 -4.82166,-4.82186 2.12096,-2.12139 -7.07021,-7.07108 -2.12211,2.12146 -14.14183,-14.14255 2.12096,-2.12138 L 138.7523,4.9499 136.63088,7.07154 129.56042,0 122.48941,7.07137 Z m 4.51358,12.876881 c 1.42701,-0.76153 3.03168,-1.17007 4.6787,-1.17011 1.74424,-1.2e-4 3.45777,0.45856 4.96841,1.33053 0.75209,0.43417 1.44398,0.96527 2.05808,1.5793 1.8635,1.8635 2.91071,4.39064 2.91079,7.02602 3.2e-4,5.48837 -4.44882,9.93806 -9.93718,9.93806 -5.48795,-4.8e-4 -9.93667,-4.44956 -9.93646,-9.93751 4e-5,-2.63535 1.0471,-5.16277 2.91053,-7.0263 0.69881,-0.69873 1.49093,-1.28306 2.34713,-1.73999 z m -22.52999,24.82728 c 0.0229,-0.0133 0.0381,-0.0197 0.045,-0.0202 0.0258,2e-5 0.0392,0.0112 0.0395,0.0333 -7.1e-4,0.0128 -0.0125,0.0316 -0.0387,0.057 -0.13181,0.10612 -0.23099,0.19306 -0.29531,0.26056 -0.0645,0.0673 -0.10431,0.14151 -0.12002,0.22205 0.58841,-0.35369 1.11442,-0.62124 1.57744,-0.80451 0.46624,-0.1865 0.78938,-0.28045 0.96945,-0.28045 0.0901,-8e-5 0.17531,0.0614 0.25573,0.18353 0.0804,0.11893 0.14788,0.25812 0.20206,0.41918 0.0579,0.15754 0.0868,0.25932 0.0868,0.30433 0,0.16401 -0.0416,0.35915 -0.12515,0.58423 -0.0836,0.22188 -0.19791,0.48021 -0.3426,0.77602 l -0.53073,1.10958 c 0.16721,-0.21542 0.32705,-0.41488 0.47807,-0.59824 0.15119,-0.18324 0.29989,-0.36119 0.44784,-0.53483 0.15114,-0.17363 0.30487,-0.34965 0.45923,-0.52649 0.20906,-0.24111 0.44332,-0.47124 0.70385,-0.68981 0.26046,-0.22185 0.50327,-0.40165 0.72837,-0.53987 0.22849,-0.14115 0.38179,-0.21234 0.46208,-0.21251 0.11259,10e-6 0.21333,0.0629 0.30023,0.18826 0.0901,0.12211 0.13472,0.25393 0.13467,0.39545 -1e-5,0.0932 -0.061,0.27169 -0.18318,0.53538 -0.1222,0.26365 -0.30048,0.60145 -0.53513,1.01307 -0.23516,0.41131 -0.54514,0.94186 -0.93104,1.59133 0.36656,-0.38905 0.74696,-0.78872 1.14251,-1.20025 0.39547,-0.41159 0.68945,-0.71288 0.88232,-0.90264 0.19274,-0.18992 0.35355,-0.33438 0.48212,-0.4341 0.17689,-0.13503 0.35437,-0.27953 0.53124,-0.43381 l 0.42479,-0.37114 c 0.10284,-0.0901 0.19472,-0.15954 0.27506,-0.20777 0.0801,-0.0485 0.15413,-0.0719 0.22166,-0.0719 0.0836,0 0.18837,0.0961 0.31371,0.28909 0.12859,0.19293 0.19228,0.31704 0.19248,0.3716 -7e-5,0.0675 -0.038,0.14749 -0.1152,0.24076 -0.074,0.0932 -0.22999,0.2667 -0.4679,0.52076 -0.43733,0.46942 -0.81685,0.94427 -1.13838,1.42341 -0.32151,0.47588 -0.56568,0.9107 -0.73284,1.30623 -0.16401,0.39227 -0.24602,0.70259 -0.24602,0.9309 1e-5,0.14142 0.0253,0.24528 0.0767,0.30958 0.0545,0.0644 0.13836,0.0957 0.25091,0.0956 0.103,0 0.19749,-0.0189 0.28433,-0.0574 0.09,-0.0385 0.18839,-0.0931 0.29429,-0.16413 0.10911,-0.0711 0.21206,-0.13825 0.3085,-0.20259 0.13507,-0.0803 0.26705,-0.16619 0.3958,-0.256 0.13186,-0.0932 0.23288,-0.16574 0.30367,-0.21712 0.0545,-0.0407 0.0985,-0.0719 0.13208,-0.0947 0.0382,-0.18198 0.10342,-0.3528 0.19565,-0.51275 0.1574,-0.27662 0.41514,-0.56808 0.77201,-0.87356 0.24438,-0.20899 0.48729,-0.36644 0.72845,-0.47254 0.24117,-0.10609 0.45641,-0.15831 0.64617,-0.15825 0.15112,-7e-5 0.27032,0.0351 0.35711,0.1059 0.09,0.0675 0.13493,0.1699 0.13496,0.30816 0,0.20258 -0.0756,0.40511 -0.22677,0.60768 -0.15112,0.19937 -0.3826,0.39915 -0.69452,0.5985 -0.3087,0.19613 -0.68946,0.38593 -1.14291,0.5691 l -2e-4,0.12065 c 6e-5,0.18971 0.0466,0.33766 0.13985,0.44377 0.0933,0.10604 0.21518,0.1591 0.36632,0.15906 0.15759,1e-5 0.32039,-0.0375 0.4876,-0.11146 0.1704,-0.074 0.33899,-0.17205 0.50605,-0.29448 0.16702,-0.12218 0.37155,-0.28588 0.61251,-0.49147 l 4.5e-4,-2.6e-4 c 0.14991,-0.18077 0.26509,-0.33653 0.34654,-0.46741 -0.10297,-0.0353 -0.17841,-0.0797 -0.22665,-0.13109 -0.0447,-0.0518 -0.0682,-0.12807 -0.0679,-0.23113 -7e-5,-0.11572 0.049,-0.2616 0.14547,-0.43844 0.0964,-0.1769 0.21492,-0.34256 0.35635,-0.49693 0.14159,-0.15426 0.27054,-0.25435 0.38629,-0.29935 0.0451,-0.0225 0.0884,-0.0339 0.13013,-0.034 0.0643,-5e-5 0.0958,0.0304 0.0958,0.0915 -3e-5,0.0547 -0.0493,0.16591 -0.14901,0.33307 0.66237,-0.10289 1.08052,-0.15422 1.25414,-0.15422 0.0676,2e-5 0.11437,0.007 0.14007,0.0194 0.0545,0.0292 0.0991,0.0968 0.13486,0.20259 0.0354,0.1061 0.0529,0.21184 0.0529,0.31795 -7e-5,0.0675 -0.0305,0.14134 -0.0916,0.22173 -0.0579,0.0771 -0.15863,0.1917 -0.30332,0.34281 -0.17043,0.18326 -0.31385,0.38293 -0.42967,0.59833 -0.11616,0.2152 -0.17362,0.37754 -0.17359,0.48689 7e-5,0.15112 0.0929,0.22657 0.27939,0.22656 0.19141,-1e-5 0.52107,-0.18953 0.9882,-0.56939 0.15755,-0.18888 0.27808,-0.35118 0.36229,-0.48663 -0.10297,-0.0353 -0.17868,-0.0788 -0.22685,-0.1304 -0.0447,-0.0518 -0.0673,-0.12854 -0.0673,-0.23142 -7e-5,-0.11573 0.048,-0.2622 0.14451,-0.43907 0.0964,-0.1769 0.21625,-0.34225 0.35776,-0.49656 0.1415,-0.15432 0.2698,-0.2546 0.38554,-0.29961 0.0451,-0.0225 0.0879,-0.0336 0.12973,-0.0337 0.0643,-6e-5 0.0968,0.0307 0.0969,0.0914 -3e-5,0.0547 -0.0496,0.16622 -0.14947,0.33334 0.66237,-0.1029 1.08026,-0.15469 1.25389,-0.15468 0.0676,2e-5 0.11396,0.006 0.13981,0.0189 0.0545,0.0292 0.0998,0.0969 0.13513,0.20304 0.0354,0.10611 0.0525,0.21208 0.0524,0.3182 -7e-5,0.0675 -0.0301,0.14182 -0.0913,0.22218 -0.0579,0.0771 -0.15917,0.19074 -0.30384,0.34189 -0.17042,0.18327 -0.31324,0.38308 -0.42897,0.59853 -0.11616,0.21521 -0.17378,0.37716 -0.17384,0.48645 7e-5,0.15112 0.0932,0.22703 0.27964,0.227 0.18779,0 0.50811,-0.18262 0.96116,-0.548 0.0134,-0.0884 0.0362,-0.16754 0.0668,-0.23784 0.0578,-0.12866 0.15556,-0.29491 0.29404,-0.49737 0.19614,-0.27331 0.38418,-0.50422 0.56424,-0.69392 0.17994,-0.18981 0.33889,-0.33651 0.47742,-0.43914 0.13822,-0.10613 0.23477,-0.1591 0.28948,-0.15905 0.0868,-10e-6 0.17026,0.045 0.25051,0.13522 0.084,0.0896 0.12539,0.18257 0.12535,0.2791 3e-5,0.0611 -0.0446,0.15987 -0.13464,0.29494 -0.0871,0.13483 -0.22718,0.30678 -0.42005,0.5158 -0.1897,0.20583 -0.45478,0.45339 -0.7956,0.74278 l -0.0918,0.26481 c -0.0262,0.0513 -0.0386,0.0971 -0.0386,0.13568 1e-5,0.0868 0.0437,0.1299 0.13054,0.1299 0.09,-3e-5 0.30002,-0.11398 0.63117,-0.34236 0.3344,-0.22828 0.69654,-0.53569 1.08561,-0.92154 0.15113,-0.15112 0.27694,-0.28397 0.37679,-0.39953 0.0997,-0.11578 0.18901,-0.22426 0.2695,-0.32387 0.0804,-0.10289 0.14633,-0.17964 0.19773,-0.23112 0.0545,-0.0516 0.10288,-0.079 0.14461,-0.0823 0.0452,-0.005 0.0849,0.003 0.11884,0.025 l -3.7e-4,0.001 c 0.0112,0.007 0.0221,0.0163 0.0322,0.0268 l -1.9e-4,7.1e-4 c 0.0136,0.0136 0.0265,0.0299 0.0377,0.0493 0.045,0.0772 0.0676,0.1911 0.0675,0.3423 1e-5,0.0868 -0.0384,0.19622 -0.11551,0.32805 -0.0767,0.12891 -0.22225,0.35041 -0.43444,0.66553 -0.21219,0.31193 -0.42407,0.63663 -0.63631,0.97423 -0.20902,0.33442 -0.4234,0.71262 -0.64202,1.13386 0.0105,-0.01 0.10768,-0.10674 0.29471,-0.28949 0.19005,-0.18293 0.38942,-0.37537 0.59848,-0.57467 0.20912,-0.19926 0.38111,-0.35749 0.51617,-0.47643 0.13499,-0.12227 0.30349,-0.26389 0.50608,-0.42466 l 1.5e-4,0.32273 c -0.43411,0.46622 -0.828,0.90864 -1.18168,1.3267 -0.35046,0.41801 -0.62248,0.75225 -0.8154,1.00303 -0.18972,0.2508 -0.30041,0.3972 -0.33251,0.43901 -0.0868,0.11258 -0.16573,0.21736 -0.23653,0.31379 -0.0678,0.0994 -0.12471,0.17499 -0.17301,0.22639 -0.0449,0.0548 -0.0824,0.0821 -0.1113,0.0822 -0.0676,-3e-5 -0.12861,-0.0676 -0.18329,-0.20268 -0.0515,-0.1318 -0.0779,-0.24895 -0.0778,-0.35187 1e-5,-0.0932 0.0182,-0.17556 0.0535,-0.24631 0.23148,-0.52092 0.75087,-1.42553 1.55817,-2.71479 l -0.85899,0.72806 c -0.40839,0.3569 -0.68115,0.53515 -0.81944,0.53511 -0.12541,1e-5 -0.25718,-0.14254 -0.39546,-0.42866 -0.11304,-0.23658 -0.18005,-0.44884 -0.20071,-0.63597 -0.23539,0.24526 -0.43214,0.44101 -0.5908,0.58695 -0.17357,0.16083 -0.33436,0.28877 -0.48227,0.38525 -0.1478,0.0934 -0.28051,0.14047 -0.39629,0.14046 -0.13501,10e-6 -0.24723,-0.0616 -0.33745,-0.18349 -0.09,-0.12541 -0.1347,-0.30451 -0.1347,-0.53923 -7e-5,-0.13831 0.0356,-0.29627 0.10635,-0.47312 0.0708,-0.17682 0.17285,-0.36884 0.30793,-0.5746 0.13832,-0.20897 0.2933,-0.41519 0.46373,-0.62099 -0.09,0.0193 -0.19139,0.0402 -0.30394,0.0627 -0.11252,0.0194 -0.23178,0.0398 -0.3572,0.0624 -0.12548,0.0224 -0.22124,0.0399 -0.28878,0.0528 -0.18727,0.37457 -0.45463,0.71692 -0.80081,1.02623 l 2.6e-4,4.5e-4 c -0.26691,0.2797 -0.48778,0.50026 -0.66135,0.6611 -0.17357,0.16083 -0.33458,0.28947 -0.48249,0.38595 -0.1478,0.0934 -0.2796,0.13995 -0.39538,0.13994 -0.13502,1e-5 -0.24723,-0.0616 -0.33745,-0.18349 -0.09,-0.12542 -0.13574,-0.30509 -0.13567,-0.53985 -7e-5,-0.13832 0.0361,-0.29541 0.10687,-0.47224 0.0708,-0.17683 0.17399,-0.36889 0.30908,-0.57466 0.13822,-0.209 0.29216,-0.41622 0.46251,-0.62207 -0.09,0.0193 -0.19209,0.0401 -0.30464,0.0625 -0.11252,0.0194 -0.23108,0.0401 -0.35648,0.0626 -0.12547,0.0224 -0.22174,0.0402 -0.28923,0.053 -0.19936,0.39871 -0.48907,0.76093 -0.86856,1.08564 l 3.7e-4,-0.02 c -0.34532,0.40932 -0.67039,0.72624 -0.9746,0.95055 -0.31834,0.23148 -0.64142,0.34665 -0.9694,0.34666 -0.28618,0 -0.51307,-0.11098 -0.68027,-0.33284 -0.16715,-0.22191 -0.25059,-0.52564 -0.25058,-0.9115 -4e-5,-0.008 3e-5,-0.016 -5e-5,-0.0239 -0.27454,0.25527 -0.51076,0.46439 -0.709,0.62715 -0.21227,0.17358 -0.4239,0.33076 -0.63614,0.47223 -0.21223,0.13824 -0.38953,0.23679 -0.531,0.29468 -0.13827,0.0611 -0.25735,0.0917 -0.35706,0.0916 -0.23794,0 -0.43224,-0.0884 -0.58338,-0.26526 -0.15116,-0.17682 -0.22601,-0.40547 -0.22655,-0.6849 0,-0.32154 0.0643,-0.6406 0.19291,-0.95571 0.13182,-0.31512 0.31868,-0.6388 0.55998,-0.97313 0.24112,-0.33763 0.54307,-0.71575 0.90641,-1.13375 0.27012,-0.30867 0.40514,-0.48237 0.40515,-0.52092 -5e-5,-0.0225 -0.008,-0.042 -0.0243,-0.0581 -0.0162,-0.0161 -0.0338,-0.0238 -0.0528,-0.0243 -0.0611,9e-5 -0.24944,0.13593 -0.56489,0.40547 -0.31508,0.27013 -0.72009,0.66688 -1.21531,1.19096 -0.49199,0.52408 -1.02366,1.14857 -1.59602,1.87202 -0.0317,0.0389 -0.13564,0.16942 -0.30924,0.39455 -0.17038,0.2219 -0.29084,0.36667 -0.3615,0.43427 -0.0706,0.0677 -0.1316,0.10161 -0.18325,0.10118 -0.0901,8e-5 -0.16932,-0.0896 -0.23684,-0.26962 -0.0643,-0.18324 -0.0962,-0.37835 -0.0962,-0.58414 -1e-5,-0.12542 0.0407,-0.26057 0.12108,-0.40525 0.0836,-0.14468 0.26121,-0.40344 0.53451,-0.77642 0.27656,-0.37621 0.50502,-0.69256 0.68501,-0.94983 0.18004,-0.25726 0.37804,-0.56922 0.59347,-0.93577 0.15126,-0.25396 0.26211,-0.45608 0.33259,-0.60734 0.0739,-0.15118 0.1114,-0.28452 0.11141,-0.40027 -2e-5,-0.0996 -0.0294,-0.15014 -0.0872,-0.15011 -0.12219,0 -0.3522,0.16396 -0.68982,0.49191 -0.33755,0.32483 -0.7559,0.80905 -1.25428,1.45214 -0.49517,0.64308 -1.01242,1.38679 -1.55262,2.23244 -0.17644,0.28963 -0.30213,0.48502 -0.37608,0.58471 -0.074,0.0996 -0.15614,0.14846 -0.24583,0.14885 -0.11258,0 -0.21887,-0.11899 -0.3187,-0.35661 -0.0965,-0.24115 -0.14386,-0.43617 -0.14387,-0.58405 2e-5,-0.0482 0.0182,-0.10091 0.0569,-0.15877 0.42442,-0.56592 0.77389,-1.0463 1.04721,-1.44179 0.27327,-0.39553 0.51538,-0.77047 0.72756,-1.12417 0.21193,-0.35709 0.36681,-0.64941 0.46362,-0.87751 0.0965,-0.23152 0.14457,-0.41354 0.14461,-0.54535 7e-5,-0.13829 -0.0627,-0.20705 -0.18812,-0.20704 -0.103,0 -0.27814,0.0656 -0.52576,0.19731 -0.24779,0.13151 -0.5607,0.31171 -0.93991,0.54035 -0.376,0.22863 -0.67836,0.40343 -0.9066,0.52573 -0.22828,0.11899 -0.39948,0.17868 -0.51204,0.17867 -0.10601,1e-5 -0.15893,-0.0601 -0.15897,-0.17912 3e-5,-0.0676 0.0224,-0.22084 0.0674,-0.46199 0.045,-0.24437 0.0921,-0.41692 0.14033,-0.51661 0.0336,-0.0642 0.0931,-0.13887 0.17873,-0.22373 l 4.4e-4,-2.6e-4 c 0.0859,-0.0851 0.19803,-0.1805 0.33588,-0.28641 0.20977,-0.15921 0.34947,-0.25892 0.41825,-0.29875 z m 9.3777,2.96595 c -0.12862,0.074 -0.26049,0.16956 -0.39548,0.2886 l -6.1e-4,9.4e-4 c -0.13177,0.11904 -0.25027,0.25951 -0.35656,0.42009 -0.1061,0.16079 -0.17522,0.33578 -0.20738,0.52549 0.28937,-0.11257 0.53727,-0.25211 0.74287,-0.41966 0.20579,-0.16719 0.35684,-0.32666 0.45334,-0.47775 0.0995,-0.15444 0.14939,-0.26679 0.14946,-0.3375 2e-5,-0.037 -0.008,-0.0654 -0.0252,-0.084 -0.002,-0.002 -0.004,-0.005 -0.007,-0.008 -0.004,-0.003 -0.009,-0.007 -0.0138,-0.01 l 5e-5,0.001 c -0.0149,-0.008 -0.0339,-0.0115 -0.0558,-0.0119 l 5e-4,8.6e-4 c -0.0577,6e-5 -0.1525,0.0371 -0.28435,0.11106 z m 17.69452,-3.06797 c 0.27981,-0.16386 0.53874,-0.28691 0.77671,-0.36726 0.24118,-0.0804 0.44002,-0.11944 0.59756,-0.11944 l 0.001,0.003 c 0.1608,0 0.29697,0.0379 0.40952,0.11502 0.11249,0.0772 0.19935,0.18969 0.26012,0.33793 0.0611,0.14797 0.0916,0.31806 0.0916,0.51103 0,0.36334 -0.1235,0.76858 -0.37109,1.21553 -0.24798,0.4435 -0.55609,0.87337 -0.92586,1.28818 -0.36979,0.41477 -0.72275,0.75431 -1.06038,1.01797 -0.33438,0.26049 -0.57623,0.39008 -0.72417,0.39004 -0.0996,2e-5 -0.19295,-0.0393 -0.27973,-0.11657 -0.0834,-0.0806 -0.12507,-0.16942 -0.12493,-0.26919 7e-5,-0.18328 0.0961,-0.40587 0.289,-0.6663 0.19611,-0.26047 0.40886,-0.49793 0.63716,-0.71335 0.23144,-0.21872 0.36963,-0.32772 0.41465,-0.32773 0.0225,-5e-5 0.0335,0.009 0.0338,0.0276 0,0.029 -0.0181,0.0794 -0.0535,0.15023 -0.0318,0.071 -0.0477,0.11415 -0.0477,0.13021 -2e-5,0.0258 0.01,0.0383 0.0289,0.0381 0.0547,-6e-5 0.21229,-0.14636 0.47281,-0.43887 0.26048,-0.29257 0.4985,-0.61432 0.71398,-0.96477 0.21865,-0.35371 0.32778,-0.64269 0.32784,-0.86774 1e-5,-0.0932 -0.0203,-0.16403 -0.0623,-0.21227 -0.0389,-0.0513 -0.0979,-0.0772 -0.17827,-0.0773 -0.22509,-1e-5 -0.56806,0.18268 -1.02789,0.54922 -0.45656,0.36337 -0.92595,0.82918 -1.40841,1.39495 -0.47911,0.56269 -0.87923,1.14399 -1.20078,1.74527 -0.32152,0.60128 -0.48194,1.13022 -0.48194,1.58682 0,0.26366 0.0387,0.48368 0.11582,0.66053 0.0804,0.17684 0.19526,0.31339 0.34642,0.40982 0.15457,0.0961 0.3394,0.1445 0.55484,0.1445 0.46624,-1e-5 0.99543,-0.18061 1.58706,-0.54394 0.56771,-0.34867 1.19074,-0.85644 1.868,-1.52185 0.0144,-0.088 0.0328,-0.17862 0.0561,-0.27286 0.0611,-0.24437 0.2252,-0.56784 0.49211,-0.96974 0.5627,-0.84244 1.04339,-1.53045 1.4421,-2.06421 0.40194,-0.53698 0.73463,-0.94211 0.99829,-1.21543 0.26376,-0.27645 0.44106,-0.41152 0.53108,-0.40511 0.11256,0.01 0.20256,0.0324 0.2701,0.0678 0.0708,0.0351 0.10581,0.0753 0.10583,0.1203 7e-5,0.0803 -0.0567,0.21379 -0.1693,0.40027 -0.10929,0.1833 -0.29899,0.47096 -0.56912,0.86324 -0.2926,0.41479 -0.49983,0.70773 -0.62193,0.8782 -0.12227,0.16712 -0.30539,0.40708 -0.54977,0.71899 -0.24124,0.30863 -0.46305,0.58507 -0.66562,0.82944 -0.1993,0.2412 -0.42787,0.50342 -0.68509,0.78638 l 1e-5,0.5788 c 0.43087,-0.47909 0.80392,-0.87235 1.11909,-1.17777 0.31524,-0.30534 0.58224,-0.53483 0.80091,-0.68916 0.21865,-0.15753 0.37885,-0.23628 0.48173,-0.23633 0.0965,8e-5 0.1868,0.0581 0.27043,0.17385 0.0836,0.11259 0.12562,0.20556 0.1256,0.27954 1e-4,0.0322 -0.0164,0.0723 -0.0486,0.12053 -0.23156,0.27648 -0.41624,0.50685 -0.55452,0.69011 -0.13505,0.18004 -0.23949,0.34178 -0.31344,0.48647 -0.0737,0.14162 -0.11097,0.26306 -0.11093,0.36599 7e-5,0.15112 0.0719,0.22712 0.21688,0.22684 0.15438,1e-5 0.49739,-0.20669 1.02791,-0.62152 0.14992,-0.18113 0.2653,-0.33707 0.34673,-0.46811 -0.10289,-0.0354 -0.17866,-0.0789 -0.22685,-0.13039 -0.0447,-0.0518 -0.067,-0.12812 -0.0671,-0.23098 1.3e-4,-0.11578 0.0481,-0.2622 0.14451,-0.43907 0.0964,-0.1769 0.2149,-0.34256 0.35635,-0.49693 0.14148,-0.15432 0.27034,-0.25365 0.38608,-0.29866 0.045,-0.0225 0.0892,-0.0339 0.13088,-0.0338 0.0643,-5e-5 0.0963,0.0302 0.0967,0.0909 6e-5,0.0547 -0.0502,0.16529 -0.14998,0.33244 0.66237,-0.10289 1.08076,-0.15378 1.2544,-0.15378 0.0676,2e-5 0.11404,0.007 0.13982,0.0189 0.0545,0.0292 0.0991,0.0968 0.13486,0.20259 0.0354,0.1061 0.0539,0.21247 0.0539,0.31859 -2e-5,0.0676 -0.0312,0.14113 -0.0923,0.22154 -0.0579,0.0771 -0.15939,0.19145 -0.30403,0.34261 -0.17044,0.18328 -0.31295,0.38241 -0.42877,0.59782 -0.11616,0.2152 -0.17381,0.37826 -0.17378,0.4876 7e-5,0.15112 0.0936,0.22676 0.28009,0.22674 0.19019,1e-5 0.51551,-0.18781 0.97795,-0.56231 0.006,-0.0467 0.0144,-0.0925 0.0246,-0.13715 0.0258,-0.11579 0.0563,-0.21054 0.0917,-0.28448 0.0357,-0.0737 0.10106,-0.18944 0.19773,-0.34688 0.45658,-0.71062 0.87412,-1.06685 1.25355,-1.06685 0.19617,2e-5 0.29431,0.0764 0.29426,0.22753 0,0.103 -0.0637,0.26361 -0.19238,0.48223 -0.12542,0.21863 -0.23829,0.37456 -0.33796,0.46781 -0.27986,0.27 -0.46278,0.45799 -0.54982,0.56387 -0.0837,0.10604 -0.12598,0.22681 -0.12575,0.36201 -1.2e-4,0.11577 0.0436,0.21269 0.13042,0.28988 0.087,0.077 0.19947,0.11467 0.33772,0.11471 0.15112,-7e-5 0.31621,-0.0543 0.49629,-0.16361 0.16996,-0.1039 0.38553,-0.2652 0.64637,-0.48242 l 1.8e-4,-7.1e-4 -5.9e-4,-0.033 c 0.8296,-0.87457 1.40153,-1.48667 1.71342,-1.83716 0.0707,-0.3955 0.24083,-0.59396 0.51096,-0.59396 0.0677,6e-5 0.14,0.0193 0.21716,0.0578 l 0.0287,0.0921 c -0.013,0.0385 -0.0199,0.0933 -0.0198,0.16416 9e-5,0.0611 0.0233,0.17528 0.0683,0.34249 0.0482,0.16403 0.0849,0.30214 0.11055,0.41473 0.0257,0.11258 0.0386,0.23962 0.0386,0.38109 -1e-5,0.21221 -0.0473,0.41674 -0.1438,0.61289 -0.0965,0.19292 -0.23694,0.37881 -0.42023,0.55888 -0.18357,0.17653 -0.41922,0.35867 -0.7086,0.54516 0.11576,0.0193 0.20708,0.0283 0.27465,0.0282 0.1318,0 0.27284,-0.0313 0.42396,-0.0956 0.15433,-0.0675 0.31038,-0.1561 0.46838,-0.26465 0.14345,-0.10048 0.30798,-0.2263 0.49246,-0.37797 l -5.3e-4,-0.009 c 0.33757,-0.28301 0.74624,-0.77918 1.22538,-1.48976 -0.0482,-0.003 -0.0939,-0.005 -0.13569,-0.005 -0.0418,-0.003 -0.0913,-0.005 -0.1492,-0.005 -0.18972,7e-5 -0.33072,0.0119 -0.42396,0.0377 -0.0386,0.01 -0.0757,0.0206 -0.11122,0.0337 -0.032,0.0104 -0.0553,0.0154 -0.0681,0.0154 -0.0128,-7.1e-4 -0.0188,-0.01 -0.019,-0.029 4e-5,-0.10613 0.0664,-0.26507 0.19826,-0.47725 0.10623,-0.18 0.20497,-0.31337 0.29825,-0.40015 0.0966,-0.0867 0.21298,-0.14444 0.348,-0.17343 0.13822,-0.0322 0.33105,-0.0488 0.57865,-0.0489 l 0.20696,-1.5e-4 c 0.17054,-0.30539 0.3254,-0.52057 0.46363,-0.646 0.13837,-0.1285 0.2952,-0.19318 0.47203,-0.19319 0.17681,-10e-6 0.26582,0.04 0.26584,0.12041 -1e-5,0.0386 -0.0694,0.14272 -0.20763,0.31321 -0.13831,0.17038 -0.24387,0.31401 -0.31454,0.42982 0.10928,0.0129 0.20693,0.0243 0.29052,0.034 0.0868,0.01 0.15438,0.018 0.20265,0.0244 -0.18328,0.34084 -0.41313,0.68926 -0.68964,1.04619 -0.09,-0.006 -0.16527,-0.0115 -0.22639,-0.0149 -0.0611,-0.006 -0.12435,-0.0115 -0.18864,-0.0146 -0.0611,-0.007 -0.13634,-0.0126 -0.22642,-0.019 -0.17364,0.27976 -0.31985,0.53023 -0.43873,0.75214 -0.11583,0.21862 -0.20595,0.42034 -0.2703,0.6036 -0.0611,0.18327 -0.0914,0.35663 -0.0915,0.52062 1e-5,0.22185 0.0876,0.33242 0.26463,0.33234 0.12219,0 0.28174,-0.0638 0.47791,-0.19232 0.1888,-0.12482 0.4356,-0.31189 0.74264,-0.56064 0.0153,-0.0668 0.0373,-0.12867 0.0629,-0.18667 0.0675,-0.14474 0.16993,-0.32547 0.30834,-0.54082 0.21542,-0.3119 0.39126,-0.5337 0.52635,-0.66549 0.13808,-0.13526 0.28264,-0.20268 0.43372,-0.20272 0.0932,1e-5 0.17209,0.0194 0.23639,0.058 0.0645,0.0349 0.0962,0.0855 0.0958,0.14995 7e-5,0.0675 -0.059,0.17813 -0.17799,0.33249 -0.11576,0.15436 -0.26357,0.31407 -0.4436,0.4781 -0.0963,0.0934 -0.18882,0.20808 -0.27555,0.34645 -0.0871,0.13492 -0.13007,0.23353 -0.13003,0.29466 2e-5,0.0868 0.0336,0.12957 0.10105,0.12962 0.0547,-6e-5 0.19344,-0.1119 0.41529,-0.33699 0.22208,-0.22487 0.46396,-0.4697 0.72763,-0.73337 0.26689,-0.2669 0.51408,-0.48706 0.73918,-0.66067 0.2283,-0.17685 0.42105,-0.26492 0.57862,-0.2649 0.0965,7e-5 0.17405,0.0367 0.23516,0.11068 0.064,0.0711 0.0968,0.15965 0.0972,0.26551 3e-5,0.0707 -0.0487,0.19982 -0.14513,0.38632 -0.0966,0.18326 -0.23827,0.41107 -0.42473,0.6844 -0.18331,0.27009 -0.4207,0.59763 -0.71332,0.98348 0.44375,-0.39226 0.82489,-0.73289 1.14324,-1.02225 0.31834,-0.29257 0.56757,-0.52224 0.74764,-0.68943 0.18334,-0.16716 0.34372,-0.3093 0.48197,-0.42505 0.1382,-0.11582 0.22769,-0.17337 0.26623,-0.17346 0.074,-0.003 0.14426,0.0741 0.21185,0.23154 0.0675,0.15433 0.10131,0.27847 0.10125,0.37176 9e-5,0.0611 -0.10346,0.20558 -0.3092,0.43391 -0.2026,0.22505 -0.3558,0.40478 -0.45864,0.53989 -0.0997,0.13504 -0.14822,0.27703 -0.14862,0.42473 2e-5,0.0868 0.0287,0.1573 0.0866,0.21196 0.0581,0.0511 0.12634,0.0778 0.207,0.0774 0.0932,0 0.20488,-0.0483 0.33347,-0.14485 0.12034,-0.0879 0.30243,-0.23903 0.54583,-0.45296 0.007,-0.0649 0.0181,-0.12304 0.0331,-0.17424 0.029,-0.10285 0.0853,-0.20688 0.16898,-0.31297 0.0837,-0.10604 0.21634,-0.24625 0.39963,-0.41989 0.48872,-0.44375 0.96278,-0.77357 1.4226,-0.98901 0.45978,-0.21545 0.81516,-0.32305 1.06597,-0.32305 0.0675,7e-5 0.13068,0.0289 0.18858,0.0868 0.0577,0.0549 0.10263,0.11916 0.1348,0.19308 0.0357,0.0738 0.0533,0.12837 0.0533,0.16374 3e-5,0.0578 -0.0231,0.10076 -0.0684,0.12956 -0.045,0.0257 -0.12337,0.0582 -0.2359,0.0968 0.0227,0.0513 0.0515,0.11767 0.0869,0.19807 0.0349,0.0805 0.0632,0.14619 0.0825,0.19763 0.0197,0.0481 0.0289,0.0921 0.0289,0.13069 2e-5,0.0772 -0.0793,0.22179 -0.23696,0.43397 -0.15436,0.20897 -0.26395,0.36319 -0.32829,0.46284 -0.0611,0.0997 -0.0915,0.22196 -0.0914,0.36666 -1e-5,0.23795 0.10952,0.3565 0.32815,0.35652 0.21514,-1e-5 0.54621,-0.19199 0.99337,-0.57698 l 2.6e-4,-0.045 c 0.8296,-0.87457 1.4001,-1.48705 1.71199,-1.83754 0.0708,-0.3955 0.24119,-0.59348 0.51123,-0.59351 0.0675,7e-5 0.14025,0.0197 0.21743,0.0583 l 2.3e-4,-0.004 0.0286,0.092 c -0.013,0.0386 -0.019,0.0937 -0.0191,0.16436 9e-5,0.0611 0.022,0.17425 0.067,0.34141 0.0482,0.16403 0.0853,0.30193 0.111,0.41447 0.0257,0.11267 0.0389,0.24001 0.0389,0.38152 10e-6,0.21222 -0.0483,0.41614 -0.14476,0.61227 -0.0965,0.19292 -0.23618,0.38015 -0.41946,0.56022 -0.18357,0.17653 -0.41948,0.35822 -0.70886,0.54471 0.11576,0.0193 0.20713,0.0282 0.27466,0.0282 0.1318,0 0.27416,-0.0321 0.4253,-0.0964 0.15434,-0.0675 0.30996,-0.15575 0.46743,-0.26525 0.16081,-0.11248 0.34656,-0.25679 0.55881,-0.4336 l 1.5e-4,0.32273 c -0.4117,0.4018 -0.77924,0.70759 -1.10397,0.91665 -0.32472,0.20583 -0.60499,0.30875 -0.83971,0.30877 -0.30224,0 -0.58163,-0.12899 -0.83884,-0.3863 -0.15133,-0.15411 -0.24659,-0.30192 -0.2852,-0.44338 -0.0232,-0.0928 -0.0385,-0.20737 -0.0465,-0.34309 -0.78403,0.86194 -1.34746,1.29308 -1.68981,1.29305 -0.12542,1e-5 -0.21566,-0.0413 -0.27028,-0.125 -0.0511,-0.0805 -0.076,-0.20116 -0.0759,-0.36194 0,-0.25401 0.0907,-0.62228 0.27404,-1.10459 -0.46944,0.52091 -0.81849,0.89203 -1.04676,1.11393 -0.22836,0.21856 -0.4159,0.32777 -0.56378,0.32781 -0.0707,3e-5 -0.15951,-0.061 -0.26566,-0.18316 -0.10611,-0.12218 -0.20053,-0.27971 -0.28436,-0.47251 -0.0613,-0.14957 -0.0998,-0.30263 -0.11441,-0.45965 -0.25021,0.23406 -0.47892,0.43875 -0.68663,0.61423 -0.2283,0.18966 -0.42817,0.33334 -0.5986,0.42977 -0.16726,0.0931 -0.30648,0.13931 -0.41903,0.13928 -0.0997,-7e-5 -0.18312,-0.0367 -0.25066,-0.11067 -0.0674,-0.0773 -0.10157,-0.17192 -0.10111,-0.28473 2e-5,-0.10936 0.0188,-0.22011 0.0574,-0.33267 0.0386,-0.11248 0.0988,-0.24631 0.17922,-0.40063 0.08,-0.15461 0.18581,-0.33865 0.31726,-0.55431 0.13196,-0.21858 0.25362,-0.41801 0.363,-0.59805 -0.328,0.26685 -0.61931,0.52389 -0.87328,0.77152 -0.25432,0.24728 -0.46195,0.46428 -0.62237,0.65112 -0.16079,0.18324 -0.28778,0.32745 -0.381,0.43358 -0.18008,0.19935 -0.34725,0.2991 -0.5017,0.2989 -0.1672,0 -0.25053,-0.1187 -0.25064,-0.35653 8e-5,-0.0965 0.0624,-0.26839 0.18781,-0.51598 0.12541,-0.25082 0.30377,-0.56897 0.53538,-0.95474 0.0186,-0.0262 0.0294,-0.0664 0.0291,-0.12119 -5e-5,-0.0643 -0.0322,-0.0959 -0.0965,-0.0958 -0.0707,-5e-5 -0.17411,0.0675 -0.30919,0.20241 -0.13187,0.1318 -0.38911,0.41028 -0.77179,0.83465 -0.10618,0.11892 -0.22676,0.27496 -0.3618,0.46786 -0.13181,0.18973 -0.22602,0.31623 -0.28392,0.38053 -0.0576,0.0646 -0.11584,0.097 -0.17381,0.0969 -0.11572,7e-5 -0.22356,-0.10286 -0.3232,-0.30867 -0.0942,-0.19449 -0.14387,-0.41878 -0.14902,-0.67358 -0.82444,0.88015 -1.4371,1.31955 -1.83801,1.31955 -0.14468,-7e-5 -0.26201,-0.056 -0.35206,-0.16848 -0.0868,-0.11255 -0.13022,-0.25754 -0.13027,-0.43438 -7e-5,-0.11893 0.0238,-0.26008 0.072,-0.42407 0.0514,-0.16401 0.1414,-0.41132 0.27007,-0.74249 -0.0453,0.0383 -0.0885,0.0767 -0.1304,0.11524 -0.0385,0.0356 -0.0749,0.07 -0.11079,0.10161 -0.0321,0.029 -0.067,0.0616 -0.10603,0.0964 -0.0158,0.0137 -0.0328,0.027 -0.0487,0.0407 l 6.3e-4,0.003 c -0.41169,0.4018 -0.77952,0.70717 -1.10423,0.9162 -0.32473,0.20584 -0.60455,0.3085 -0.83926,0.30851 -0.30226,0 -0.58294,-0.12829 -0.84017,-0.38552 -0.15133,-0.15412 -0.24513,-0.30217 -0.28365,-0.44369 -0.0202,-0.0804 -0.0348,-0.17673 -0.0435,-0.28933 -0.29203,0.36862 -0.56529,0.6499 -0.82008,0.84403 -0.27008,0.20258 -0.50034,0.30341 -0.69002,0.30347 -0.26366,-10e-6 -0.45956,-0.13753 -0.58815,-0.41409 -0.11218,-0.24109 -0.17518,-0.50182 -0.18955,-0.78203 -0.24259,0.25252 -0.4445,0.45388 -0.6065,0.60315 -0.17358,0.16084 -0.33457,0.28947 -0.48249,0.38595 -0.14779,0.0934 -0.27942,0.13927 -0.39518,0.13925 -0.13502,10e-6 -0.24802,-0.0604 -0.33808,-0.18252 -0.09,-0.12542 -0.13547,-0.30583 -0.13548,-0.54057 -6e-5,-0.13831 0.0363,-0.29608 0.10706,-0.47294 0.0708,-0.17683 0.1738,-0.36818 0.30888,-0.57395 0.13831,-0.20896 0.29243,-0.41578 0.46278,-0.62163 -0.09,0.0193 -0.1912,0.0395 -0.30375,0.062 -0.11252,0.0194 -0.23153,0.0404 -0.35694,0.0629 -0.12538,0.0225 -0.22213,0.0405 -0.28967,0.0533 -0.19936,0.39872 -0.48843,0.75998 -0.86792,1.08468 l -8.2e-4,-0.0174 c -0.25961,0.26386 -0.48611,0.48199 -0.68004,0.65458 -0.20256,0.18011 -0.38112,0.31669 -0.53545,0.40995 -0.15122,0.0931 -0.27929,0.13965 -0.38543,0.13962 -0.2508,-1e-5 -0.37711,-0.14765 -0.37714,-0.44342 0,-0.23795 0.0782,-0.51214 0.23253,-0.82405 0.15756,-0.31512 0.38223,-0.68472 0.67476,-1.10919 -0.14484,0.0802 -0.28183,0.17311 -0.41039,0.27932 -0.12869,0.10282 -0.24237,0.21256 -0.34216,0.32822 -0.0997,0.11252 -0.18277,0.20852 -0.2503,0.28892 -0.20898,0.23474 -0.41031,0.47595 -0.6032,0.72358 -0.19294,0.24438 -0.3236,0.40309 -0.39112,0.47703 -0.0672,0.0742 -0.13136,0.11106 -0.19243,0.1111 -0.25082,0 -0.3765,-0.30854 -0.37646,-0.92594 9e-5,-0.0118 -5e-5,-0.0239 1.7e-4,-0.0359 -0.49383,0.54177 -0.95021,0.99233 -1.36975,1.35234 -0.45015,0.39229 -0.89048,0.6929 -1.32134,0.9019 -0.43089,0.21217 -0.84717,0.31899 -1.24911,0.31899 -0.34727,-1e-5 -0.64609,-0.0694 -0.89688,-0.20778 -0.24756,-0.13831 -0.436,-0.341 -0.56458,-0.60789 -0.12536,-0.26371 -0.18768,-0.57668 -0.1877,-0.94004 1e-5,-0.28616 0.0444,-0.58873 0.13447,-0.90707 0.0933,-0.32151 0.22708,-0.64412 0.40072,-0.96889 0.17364,-0.32794 0.38529,-0.66561 0.63608,-1.01287 0.25398,-0.34711 0.5516,-0.71269 0.89229,-1.09517 l 5e-4,8.7e-4 c 0.35367,-0.39553 0.70255,-0.73705 1.04665,-1.02316 0.34412,-0.28932 0.65552,-0.51564 0.93529,-0.67963 z m 10.17574,1.28791 c 0.0657,-0.0382 0.13246,-0.0572 0.20029,-0.0572 0.0603,5e-5 0.11399,0.0122 0.16169,0.0361 l 4.4e-4,-2.6e-4 c 0.0286,0.0142 0.0541,0.0326 0.0781,0.0557 0.0646,0.0576 0.0971,0.14351 0.0971,0.256 -7e-5,0.13829 -0.0658,0.29055 -0.19757,0.45777 -0.13184,0.16722 -0.27328,0.25085 -0.42444,0.25082 -0.0802,3e-5 -0.1573,-0.0303 -0.23122,-0.0915 -0.0709,-0.0609 -0.10638,-0.13825 -0.10625,-0.23164 6e-5,-0.14148 0.0676,-0.29905 0.20268,-0.47266 0.0334,-0.0438 0.0672,-0.0816 0.10201,-0.11374 0.0387,-0.0366 0.0777,-0.0668 0.1171,-0.0897 z m 1.89295,1.84828 c -0.19933,0.22513 -0.62504,0.65687 -1.27771,1.29681 0.19295,0.0418 0.32424,0.0987 0.39495,0.16939 0.0707,0.0707 0.17006,0.20735 0.29877,0.40989 0.21869,-0.09 0.38715,-0.21175 0.50265,-0.36653 0.11893,-0.15758 0.1779,-0.37151 0.17796,-0.64158 -1e-4,-0.0322 -0.002,-0.0611 -0.005,-0.0868 -1e-5,-0.0256 -0.001,-0.0518 -0.005,-0.0775 z m 11.10903,0.44358 c -0.29808,0.16286 -0.53669,0.31049 -0.71514,0.44395 -0.0885,0.0667 -0.1654,0.13348 -0.23171,0.20121 -0.19894,0.20319 -0.29873,0.41139 -0.29873,0.62359 -10e-6,0.103 0.0177,0.18764 0.0531,0.25517 0.035,0.0646 0.0837,0.0966 0.14472,0.0967 0.0354,-2e-5 0.0979,-0.0232 0.18806,-0.068 0.33756,-0.19951 0.64653,-0.45757 0.92628,-0.77585 0.27965,-0.32159 0.61557,-0.75768 1.00781,-1.30747 -0.41796,0.19132 -0.77607,0.36828 -1.07434,0.53078 z m 3.90065,-0.44343 c -0.19933,0.22513 -0.62542,0.65719 -1.27816,1.29707 0.19296,0.0418 0.32469,0.0984 0.3954,0.16912 0.0707,0.0707 0.17076,0.20637 0.29938,0.40894 0.21862,-0.0901 0.3867,-0.21148 0.5022,-0.36626 0.11892,-0.15758 0.17805,-0.37031 0.17803,-0.64042 -9e-5,-0.0322 -0.001,-0.0619 -0.005,-0.0877 3e-5,-0.0258 -0.002,-0.0516 -0.005,-0.0775 z" />
    <path
       style="baseline-shift:baseline;display:inline;overflow:visible;opacity:1;vector-effect:non-scaling-stroke;fill:none;stroke:#ff0000;stroke-width:0.264583;stroke-linecap:round;stroke-linejoin:round;stroke-dasharray:none;stroke-opacity:1;-inkscape-stroke:hairline;enable-background:accumulate;stop-color:#000000;stop-opacity:1"
       d="m 349.62862,12.463066 a 0.5,0.5 0 0 0 -0.5,0.5 v 0.82031 l -0.61328,-0.24609 a 0.5,0.5 0 0 0 -0.65039,0.27734 0.5,0.5 0 0 0 0.2793,0.65039 l 0.98437,0.39454 v 2.45312 l -1.89648,-1.0332 -0.22461,-1.57032 a 0.5,0.5 0 0 0 -0.56446,-0.42382 0.5,0.5 0 0 0 -0.42578,0.56445 l 0.11524,0.80469 -0.92969,-0.5293 a 0.5,0.5 0 0 0 -0.68164,0.18555 0.5,0.5 0 0 0 0.18555,0.68164 l 0.78711,0.44922 -0.67579,0.19336 a 0.5,0.5 0 0 0 -0.34375,0.61718 0.5,0.5 0 0 0 0.61915,0.34375 l 1.62109,-0.46093 1.86914,1.01953 -1.87109,1.01953 -1.61914,-0.46289 a 0.5,0.5 0 0 0 -0.61915,0.34375 0.5,0.5 0 0 0 0.34375,0.61719 l 0.67579,0.19335 -0.78711,0.44922 a 0.5,0.5 0 0 0 -0.18555,0.6836 0.5,0.5 0 0 0 0.68164,0.18554 l 0.92969,-0.53125 -0.11524,0.80469 a 0.5,0.5 0 0 0 0.42578,0.56641 0.5,0.5 0 0 0 0.56446,-0.42383 l 0.22461,-1.57031 1.89648,-1.03516 v 2.25 l -1.05664,0.63477 a 0.5,0.5 0 0 0 -0.16992,0.68554 0.5,0.5 0 0 0 0.68555,0.17188 l 0.54101,-0.32422 v 0.93359 a 0.5,0.5 0 0 0 0.5,0.5 0.5,0.5 0 0 0 0.5,-0.5 v -0.93359 l 0.53906,0.32422 a 0.5,0.5 0 0 0 0.6875,-0.17188 0.5,0.5 0 0 0 -0.17187,-0.68554 l -1.05469,-0.63282 v -2.25 l 1.89453,1.03321 0.22461,1.57031 a 0.5,0.5 0 0 0 0.56445,0.42383 0.5,0.5 0 0 0 0.42579,-0.56641 l -0.11524,-0.80469 0.92969,0.53125 a 0.5,0.5 0 0 0 0.68164,-0.18554 0.5,0.5 0 0 0 -0.18555,-0.6836 l -0.78711,-0.44922 0.67578,-0.19335 a 0.5,0.5 0 0 0 0.34375,-0.61719 0.5,0.5 0 0 0 -0.61914,-0.34375 l -1.61914,0.46289 -1.87109,-1.01953 1.86914,-1.01953 1.62109,0.46093 a 0.5,0.5 0 0 0 0.61914,-0.34375 0.5,0.5 0 0 0 -0.34375,-0.61718 l -0.67578,-0.19336 0.78711,-0.44922 a 0.5,0.5 0 0 0 0.18555,-0.68164 0.5,0.5 0 0 0 -0.68164,-0.18555 l -0.92969,0.5293 0.11524,-0.80469 a 0.5,0.5 0 0 0 -0.42579,-0.56445 0.5,0.5 0 0 0 -0.56445,0.42382 l -0.22461,1.57032 -1.89453,1.03125 v -2.45117 l 0.98242,-0.39454 a 0.5,0.5 0 0 0 0.2793,-0.65039 0.5,0.5 0 0 0 -0.65039,-0.27734 l -0.61133,0.24414 v -0.81836 a 0.5,0.5 0 0 0 -0.5,-0.5 z"
       id="path1-5" />
    <g
       id="g72"
       transform="translate(0,-164.39595)">
      <path
         id="rect2"
         style="opacity:0.448276;vector-effect:non-scaling-stroke;fill:none;stroke:#ff0000;stroke-width:0.264583;stroke-dasharray:none;-inkscape-stroke:hairline"
         d="m 19.199862,255.86707 v 2.99982 H 2.9998169 v 10.00042 H 0 v 9.99991 h 2.9998169 v 19.99981 H 0 v 10.00042 h 2.9998169 v 11.99927 c -6.7e-5,2.94743 1.5723008,5.671 4.1248128,7.14478 2.552595,1.47378 5.6975453,1.47378 8.2501423,0 2.55251,-1.47378 4.124883,-4.19735 4.124813,-7.14478 4e-5,2.94754 1.57262,5.67113 4.12533,7.14478 2.5526,1.47378 5.697552,1.47378 8.250142,0 2.55251,-1.47378 4.124873,-4.19735 4.124813,-7.14478 -7e-5,2.94743 1.572303,5.671 4.124813,7.14478 2.55259,1.47378 5.697552,1.47378 8.250142,0 2.55251,-1.47378 4.124883,-4.19735 4.124813,-7.14478 4e-5,2.94754 1.572619,5.67113 4.125329,7.14478 2.55247,1.47358 5.697156,1.47358 8.249626,0 2.55271,-1.47365 4.12529,-4.19724 4.12533,-7.14478 -7e-5,2.94743 1.572303,5.671 4.124813,7.14478 2.5526,1.47378 5.697552,1.47378 8.250142,0 2.55251,-1.47378 4.124873,-4.19735 4.124813,-7.14478 3e-5,2.94754 1.572609,5.67113 4.125329,7.14478 2.55246,1.47358 5.697166,1.47358 8.249626,0 2.552714,-1.47365 4.125294,-4.19724 4.125334,-7.14478 v -11.99927 h 3.00033 v -10.00042 h -3.00033 v -19.99981 h 3.00033 l -5.2e-4,-9.99991 h -2.99981 v -10.00042 -2.99982 H 85.199967 v 2.99982 H 68.999923 v -2.99982 H 52.199915 v 2.99982 H 35.99987 v -2.99982 z m -9.1999556,13.00024 h 2.5001056 v 10.00042 H 9.9999064 Z m 82.4998736,0 h 2.500106 v 10.00042 H 92.49978 Z M 9.9999064,298.86703 h 2.5001056 v 10.00042 H 9.9999064 Z m 82.4998736,0 h 2.500106 v 10.00042 H 92.49978 Z m -59.999955,16.82016 h 9.999906 v 2.99982 h -9.999906 z m 30.000236,0 h 9.999906 v 2.99982 h -9.999906 z" />
      <g
         id="g27"
         style="vector-effect:non-scaling-stroke;stroke-width:0.264583;stroke-dasharray:none;-inkscape-stroke:hairline"
         transform="translate(-7.000077,9.867)">
        <path
           id="path15"
           style="opacity:0.448276;vector-effect:non-scaling-stroke;fill:none;stroke:#000080;stroke-width:0.264583;stroke-dasharray:none;-inkscape-stroke:hairline"
           d="m 9.9999064,265 c -6.38e-5,2.94743 1.5723036,5.671 4.1248126,7.14478 2.552595,1.47378 5.697547,1.47378 8.250142,0 C 24.92737,270.671 26.499738,267.94743 26.499674,265 m 0,0 c 4.3e-5,2.94753 1.572622,5.67113 4.12533,7.14478 2.552595,1.47378 5.697547,1.47378 8.250142,0 2.552509,-1.47378 4.124877,-4.19735 4.124813,-7.14478 m 0,0 c -6.4e-5,2.94743 1.572304,5.671 4.124813,7.14478 2.552595,1.47378 5.697547,1.47378 8.250142,0 2.552509,-1.47378 4.124877,-4.19735 4.124813,-7.14478 m 0,0 c 4.3e-5,2.94753 1.572622,5.67113 4.12533,7.14478 2.552464,1.47358 5.697161,1.47358 8.249625,0 2.552708,-1.47365 4.125287,-4.19725 4.12533,-7.14478 m 0,0 c -6.4e-5,2.94743 1.572304,5.671 4.124813,7.14478 2.552595,1.47378 5.697547,1.47378 8.250142,0 C 90.927476,270.671 92.499844,267.94743 92.49978,265 m 0,0 c 4.3e-5,2.94753 1.572622,5.67113 4.125329,7.14478 2.552464,1.47358 5.697171,1.47358 8.249631,0 2.55271,-1.47365 4.12529,-4.19725 4.12533,-7.14478"
           sodipodi:nodetypes="csscccsccssccssccssccssc" />
        <path
           id="path20"
           style="opacity:0.448276;vector-effect:non-scaling-stroke;fill:none;stroke:#000080;stroke-width:0.264583;stroke-dasharray:none;-inkscape-stroke:hairline"
           d="m 9.9999064,280 c -6.38e-5,2.94743 1.5723036,5.671 4.1248126,7.14478 2.552595,1.47378 5.697547,1.47378 8.250142,0 C 24.92737,285.671 26.499738,282.94743 26.499674,280 m 0,0 c 4.3e-5,2.94753 1.572622,5.67113 4.12533,7.14478 2.552595,1.47378 5.697547,1.47378 8.250142,0 2.552509,-1.47378 4.124877,-4.19735 4.124813,-7.14478 m 0,0 c -6.4e-5,2.94743 1.572304,5.671 4.124813,7.14478 2.552595,1.47378 5.697547,1.47378 8.250142,0 2.552509,-1.47378 4.124877,-4.19735 4.124813,-7.14478 m 0,0 c 4.3e-5,2.94753 1.572622,5.67113 4.12533,7.14478 2.552464,1.47358 5.697161,1.47358 8.249625,0 2.552708,-1.47365 4.125287,-4.19725 4.12533,-7.14478 m 0,0 c -6.4e-5,2.94743 1.572304,5.671 4.124813,7.14478 2.552595,1.47378 5.697547,1.47378 8.250142,0 C 90.927476,285.671 92.499844,282.94743 92.49978,280 m 0,0 c 4.3e-5,2.94753 1.572622,5.67113 4.125329,7.14478 2.552464,1.47358 5.697171,1.47358 8.249631,0 2.55271,-1.47365 4.12529,-4.19725 4.12533,-7.14478"
           sodipodi:nodetypes="csscccsccssccssccssccssc" />
        <path
           id="path21"
           style="opacity:0.448276;vector-effect:non-scaling-stroke;fill:none;stroke:#000080;stroke-width:0.264583;stroke-dasharray:none;-inkscape-stroke:hairline"
           d="m 9.9999064,295 c -6.4e-5,2.94743 1.5723036,5.671 4.1248126,7.14478 2.552595,1.47378 5.697547,1.47378 8.250142,0 C 24.92737,300.671 26.499738,297.94743 26.499674,295 m 0,0 c 4.3e-5,2.94753 1.572622,5.67113 4.12533,7.14478 2.552595,1.47378 5.697547,1.47378 8.250142,0 2.552509,-1.47378 4.124877,-4.19735 4.124813,-7.14478 m 0,0 c -6.4e-5,2.94743 1.572304,5.671 4.124813,7.14478 2.552595,1.47378 5.697547,1.47378 8.250142,0 2.552509,-1.47378 4.124877,-4.19735 4.124813,-7.14478 m 0,0 c 4.3e-5,2.94753 1.572622,5.67113 4.12533,7.14478 2.552464,1.47358 5.697161,1.47358 8.249625,0 2.552708,-1.47365 4.125287,-4.19725 4.12533,-7.14478 m 0,0 c -6.4e-5,2.94743 1.572304,5.671 4.124813,7.14478 2.552595,1.47378 5.697547,1.47378 8.250142,0 C 90.927476,300.671 92.499844,297.94743 92.49978,295 m 0,0 c 4.3e-5,2.94753 1.572622,5.67113 4.125329,7.14478 2.552464,1.47358 5.697171,1.47358 8.249631,0 2.55271,-1.47365 4.12529,-4.19725 4.12533,-7.14478"
           sodipodi:nodetypes="csscccsccssccssccssccssc" />
      </g>
    </g>
    <path
       id="path13"
       style="vector-effect:non-scaling-stroke;fill:none;stroke:#ff0000;stroke-width:0.264583;stroke-dasharray:none;stroke-opacity:1;-inkscape-stroke:hairline"
       inkscape:label="icicles"
       d="M 97.910679 285.42326 A 1.9219201 1.9219201 45 0 0 95.192777 285.42326 L 54.339847 326.27619 C 52.334385 328.28161 51.504461 349.91627 54.339847 351.6077 C 57.300643 350.41006 56.318497 339.61578 57.905494 338.31637 C 60.156049 338.14286 60.084906 344.71533 61.409021 344.93975 C 63.224714 344.85945 62.337016 333.17467 64.565047 331.89872 C 67.112905 331.38878 66.46948 340.97103 68.606454 340.74669 C 70.840136 338.61594 69.976703 327.33986 72.464792 325.05646 C 74.517426 326.1007 74.120734 334.54274 76.30011 334.51028 C 78.299597 333.89349 77.356124 320.25921 79.631165 318.95123 C 82.02454 319.8443 81.003737 326.71321 82.732745 327.90152 C 85.79846 327.75671 82.453197 313.41581 86.383897 311.59192 C 88.534191 312.30396 88.191397 322.53045 89.476707 323.4969 C 92.444276 321.84117 89.865527 307.16026 93.799844 306.16599 C 95.066231 306.4434 94.689305 310.04051 96.551728 310.15075 C 98.414151 310.04051 98.037225 306.4434 99.303612 306.16599 C 103.23793 307.16026 100.65918 321.84117 103.62675 323.4969 C 104.91206 322.53045 104.56927 312.30396 106.71956 311.59192 C 110.65026 313.41581 107.30499 327.75671 110.37071 327.90152 C 112.09972 326.71321 111.07892 319.8443 113.47229 318.95123 C 115.74733 320.25921 114.80386 333.89349 116.80335 334.51028 C 118.98272 334.54278 118.58602 326.1007 120.63866 325.05646 C 123.12675 327.33986 122.26332 338.61594 124.497 340.74669 C 126.63398 340.97103 125.99055 331.38878 128.53841 331.89872 C 130.76644 333.17467 129.87874 344.85945 131.69443 344.93975 C 133.01855 344.71533 132.94741 338.14286 135.19796 338.31637 C 136.78496 339.61578 135.80282 350.41006 138.76361 351.6077 C 141.599 349.91627 140.76907 328.28161 138.76361 326.27619 L 97.910679 285.42326 z M 105.39057 300.68122 L 112.46157 307.75222 L 110.69373 309.52006 L 103.62273 302.44906 L 105.39057 300.68122 z M 126.60394 321.89459 L 133.67494 328.96559 L 131.9071 330.73343 L 124.8361 323.66243 L 126.60394 321.89459 z M 87.712884 300.68122 L 89.480726 302.44906 L 82.409725 309.52006 L 80.641883 307.75222 L 87.712884 300.68122 z M 66.499514 321.89459 L 68.267356 323.66243 L 61.196354 330.73343 L 59.428512 328.96559 L 66.499514 321.89459 z "
       transform="rotate(-45,-294.62009,258.5804)" />
    <path
       id="rect45"
       style="opacity:0.448276;vector-effect:non-scaling-stroke;fill:none;stroke:#ff0000;stroke-width:0.264583;stroke-dasharray:none;-inkscape-stroke:hairline"
       d="m 32.499812,179.36819 v 3.00033 H 12.5 9.4996663 v 8.00003 H 12.5 v 8.00003 H 9.4996663 v 9.9999 H 12.5 v 8.00003 H 9.4996663 v 4.49998 H 12.5 32.499812 v 2.99982 h 9.999907 v -2.99982 h 20.000329 v 2.99982 h 9.999907 v -2.99982 h 19.999813 2.999817 v -4.49998 h -2.999817 v -8.00003 h 2.999817 v -9.9999 h -2.999817 v -8.00003 h 2.999817 v -8.00003 H 92.499768 72.499955 v -3.00033 h -9.999907 v 3.00033 H 42.499719 v -3.00033 z m -9.999906,9.9999 21.99976,-3e-5 v 20.00033 l -21.99976,3e-5 z m 37.99976,0 h 22.000195 v 20.00033 H 60.499666 Z"
       sodipodi:nodetypes="ccccccccccccccccccccccccccccccccccccccccccccccccccc" />
    <g
       id="g66"
       transform="translate(254.41666,-300)">
      <path
         id="rect63"
         style="opacity:0.448276;vector-effect:non-scaling-stroke;fill:none;stroke:#ff0000;stroke-width:0.264583;stroke-dasharray:none;-inkscape-stroke:hairline"
         d="m 44.999837,299.99978 v 16.99999 h 5.000212 v 3.00034 h 9.999906 v -3.00034 h 5.000212 v -16.99999 h -5.000212 -9.999906 z" />
      <path
         id="rect64"
         style="opacity:0.448276;vector-effect:non-scaling-stroke;fill:none;stroke:#ff0000;stroke-width:0.264583;stroke-dasharray:none;-inkscape-stroke:hairline"
         d="m 10,300 v 19.99981 H 39.999719 V 300 Z m 9.999906,8.75 h 9.999907 v 2.5 h -9.999907 z"
         sodipodi:nodetypes="cccccccccc" />
    </g>
  </g>
</svg>
