<?xml version="1.0" encoding="UTF-8" standalone="no"?>
<!-- Created with Inkscape (http://www.inkscape.org/) -->

<svg
   width="420mm"
   height="594mm"
   viewBox="0 0 420 594"
   version="1.1"
   id="svg1"
   inkscape:version="1.4.2 (f4327f4, 2025-05-13)"
   sodipodi:docname="template.svg"
   inkscape:export-filename="tab.svg"
   inkscape:export-xdpi="96"
   inkscape:export-ydpi="96"
   xmlns:inkscape="http://www.inkscape.org/namespaces/inkscape"
   xmlns:sodipodi="http://sodipodi.sourceforge.net/DTD/sodipodi-0.dtd"
   xmlns="http://www.w3.org/2000/svg"
   xmlns:svg="http://www.w3.org/2000/svg">
  <sodipodi:namedview
     id="namedview1"
     pagecolor="#a0a0a0"
     bordercolor="#c0c0c0"
     borderopacity="0.25098039"
     inkscape:showpageshadow="2"
     inkscape:pageopacity="0.0"
     inkscape:pagecheckerboard="false"
     inkscape:deskcolor="#909090"
     inkscape:document-units="mm"
     showguides="true"
     inkscape:zoom="0.70710678"
     inkscape:cx="234.05234"
     inkscape:cy="880.34794"
     inkscape:window-width="2008"
     inkscape:window-height="1381"
     inkscape:window-x="136"
     inkscape:window-y="37"
     inkscape:window-maximized="0"
     inkscape:current-layer="layer1"
     inkscape:lockguides="false"
     showgrid="false"
     showborder="false">
    <inkscape:grid
       id="grid13"
       units="mm"
       originx="0"
       originy="0"
       spacingx="0.99999998"
       spacingy="1"
       empcolor="#0099e5"
       empopacity="0.30196078"
       color="#0099e5"
       opacity="0.14901961"
       empspacing="5"
       enabled="true"
       visible="false" />
    <sodipodi:guide
       position="-1.7551168,658.06178"
       orientation="0,-1"
       id="guide72"
       inkscape:locked="false" />
    <sodipodi:guide
       position="189.52977,416.01626"
       orientation="1,0"
       id="guide73"
       inkscape:locked="false" />
    <sodipodi:guide
       position="149.52891,416.01615"
       orientation="1,0"
       id="guide8"
       inkscape:locked="false" />
  </sodipodi:namedview>
  <defs
     id="defs1">
    <inkscape:path-effect
       effect="fillet_chamfer"
       id="path-effect10"
       is_visible="true"
       lpeversion="1"
       nodesatellites_param="F,0,0,1,0,0,0,1 @ F,0,0,1,0,0,0,1 @ F,0,0,1,0,0,0,1 @ F,0,0,1,0,0,0,1 | F,0,0,1,0,0,0,1 @ F,0,0,1,0,0,0,1 @ F,0,0,1,0,0,0,1 @ F,0,0,1,0,0,0,1 | F,0,0,1,0,0,0,1 @ F,0,0,1,0,0,0,1 @ F,0,0,1,0,0,0,1 @ F,0,0,1,0,0,0,1 | F,0,0,1,0,0,0,1 @ F,0,0,1,0,0,0,1 @ F,0,0,1,0,0,0,1 @ F,0,0,1,0,0,0,1 | F,0,0,1,0,0,0,1 @ F,0,0,1,0,0,0,1 @ F,0,0,1,0,0,0,1 @ F,0,0,1,0,0,0,1 | F,0,0,1,0,0,0,1 @ F,0,0,1,0,0,0,1 @ F,0,0,1,0,0,0,1 @ F,0,0,1,0,0,0,1 | F,0,0,1,0,0,0,1 @ F,0,0,1,0,0,0,1 @ F,0,0,1,0,0,0,1 @ F,0,0,1,0,0,0,1 | F,0,0,1,0,0,0,1 @ F,0,0,1,0,0,0,1 @ F,0,0,1,0,0,0,1 @ F,0,0,1,0,0,0,1"
       radius="0"
       unit="px"
       method="auto"
       mode="F"
       chamfer_steps="1"
       flexible="false"
       use_knot_distance="true"
       apply_no_radius="true"
       apply_with_radius="true"
       only_selected="false"
       hide_knots="false" />
    <inkscape:path-effect
       effect="fillet_chamfer"
       id="path-effect9"
       is_visible="true"
       lpeversion="1"
       nodesatellites_param="F,0,0,1,0,0.59143056,0,1 @ F,0,0,1,0,0,0,1 @ F,0,0,1,0,0,0,1 @ F,0,0,1,0,0,0,1 @ F,0,0,1,0,0,0,1 @ F,0,0,1,0,0,0,1 @ F,0,0,1,0,0,0,1 @ F,0,0,1,0,0,0,1 @ F,0,0,1,0,0,0,1 @ F,0,0,1,0,0,0,1 @ F,0,0,1,0,0,0,1 @ F,0,0,1,0,0,0,1 @ F,0,0,1,0,0,0,1 @ F,0,0,1,0,0,0,1 @ F,0,0,1,0,0,0,1 @ F,0,1,1,0,0.59143056,0,1 @ F,0,1,1,0,0.59143056,0,1 @ F,0,0,1,0,0,0,1 @ F,0,0,1,0,0,0,1 @ F,0,1,1,0,0.59143056,0,1 @ F,0,1,1,0,0.59143056,0,1 @ F,0,0,1,0,0,0,1 @ F,0,0,1,0,0,0,1 @ F,0,0,1,0,0,0,1 @ F,0,0,1,0,0,0,1 @ F,0,0,1,0,0,0,1 @ F,0,0,1,0,0,0,1 @ F,0,0,1,0,0,0,1 @ F,0,0,1,0,0,0,1 @ F,0,0,1,0,0,0,1 @ F,0,0,1,0,0,0,1 @ F,0,0,1,0,0,0,1 @ F,0,0,1,0,0,0,1 @ F,0,0,1,0,0,0,1 @ F,0,0,1,0,0,0,1 @ F,0,1,1,0,0.59143056,0,1 @ F,0,1,1,0,0.59143056,0,1 @ F,0,0,1,0,0,0,1 @ F,0,0,1,0,0,0,1 @ F,0,1,1,0,0.59143056,0,1 | F,0,0,1,0,0,0,1 @ F,0,0,1,0,0,0,1 @ F,0,0,1,0,0,0,1 @ F,0,0,1,0,0,0,1 | F,0,0,1,0,0,0,1 @ F,0,0,1,0,0,0,1 @ F,0,0,1,0,0,0,1 @ F,0,0,1,0,0,0,1"
       radius="0"
       unit="px"
       method="auto"
       mode="F"
       chamfer_steps="1"
       flexible="false"
       use_knot_distance="true"
       apply_no_radius="true"
       apply_with_radius="true"
       only_selected="false"
       hide_knots="false" />
    <inkscape:path-effect
       effect="fillet_chamfer"
       id="path-effect2"
       is_visible="true"
       lpeversion="1"
       nodesatellites_param="F,0,1,1,0,0.54442367,0,1 @ F,0,0,1,0,0,0,1 @ F,0,0,1,0,0,0,1 @ F,0,0,1,0,0,0,1 @ F,0,1,1,0,0.54442367,0,1 @ F,0,1,1,0,0.54442367,0,1 @ F,0,0,1,0,0,0,1 @ F,0,0,1,0,0,0,1 @ F,0,1,1,0,0.54442367,0,1 @ F,0,1,1,0,0.54442367,0,1 @ F,0,0,1,0,0,0,1 @ F,0,0,1,0,0,0,1 @ F,0,0,1,0,0,0,1 @ F,0,0,1,0,0,0,1 @ F,0,0,1,0,0,0,1 @ F,0,0,1,0,0,0,1 @ F,0,0,1,0,0,0,1 @ F,0,0,1,0,0,0,1 @ F,0,0,1,0,0,0,1 @ F,0,0,1,0,0,0,1 @ F,0,0,1,0,0,0,1 @ F,0,0,1,0,0,0,1 @ F,0,0,1,0,0,0,1 @ F,0,0,1,0,0,0,1 @ F,0,0,1,0,0,0,1 @ F,0,0,1,0,0,0,1 @ F,0,0,1,0,0,0,1 @ F,0,0,1,0,0,0,1 @ F,0,0,1,0,0,0,1 @ F,0,0,1,0,0,0,1 @ F,0,0,1,0,0,0,1 @ F,0,0,1,0,0.54442367,0,1 @ F,0,1,1,0,0.54442367,0,1 @ F,0,0,1,0,0,0,1 @ F,0,0,1,0,0,0,1 @ F,0,1,1,0,0.54442367,0,1 @ F,0,1,1,0,0.54442367,0,1 @ F,0,0,1,0,0,0,1 @ F,0,0,1,0,0,0,1 @ F,0,0,1,0,0,0,1 @ F,0,1,1,0,0.54442367,0,1 @ F,0,0,1,0,0,0,1 @ F,0,0,1,0,0,0,1 @ F,0,1,1,0,0.54442367,0,1 @ F,0,1,1,0,0.54442367,0,1 @ F,0,0,1,0,0,0,1 @ F,0,0,1,0,0,0,1 @ F,0,1,1,0,0.54442367,0,1 | F,0,0,1,0,0,0,1 @ F,0,0,1,0,0,0,1 @ F,0,0,1,0,0,0,1 @ F,0,0,1,0,0,0,1 | F,0,0,1,0,0,0,1 @ F,0,0,1,0,0,0,1 @ F,0,0,1,0,0,0,1 @ F,0,0,1,0,0,0,1 | F,0,0,1,0,0,0,1 @ F,0,0,1,0,0,0,1 @ F,0,0,1,0,0,0,1 @ F,0,0,1,0,0,0,1 | F,0,0,1,0,0,0,1 @ F,0,0,1,0,0,0,1 @ F,0,0,1,0,0,0,1 @ F,0,0,1,0,0,0,1 | F,0,0,1,0,0,0,1 @ F,0,0,1,0,0,0,1 @ F,0,0,1,0,0,0,1 @ F,0,0,1,0,0,0,1 | F,0,0,1,0,0,0,1 @ F,0,0,1,0,0,0,1 @ F,0,0,1,0,0,0,1 @ F,0,0,1,0,0,0,1"
       radius="0"
       unit="px"
       method="auto"
       mode="F"
       chamfer_steps="1"
       flexible="false"
       use_knot_distance="true"
       apply_no_radius="true"
       apply_with_radius="true"
       only_selected="false"
       hide_knots="false" />
    <inkscape:path-effect
       effect="fillet_chamfer"
       id="path-effect1"
       is_visible="true"
       lpeversion="1"
       nodesatellites_param="F,0,0,1,0,0,0,1 @ F,0,0,1,0,0,0,1 @ F,0,0,1,0,0,0,1 @ F,0,0,1,0,0.89584927,0,1 @ F,0,1,1,0,0.89584927,0,1 @ F,0,0,1,0,0,0,1 @ F,0,0,1,0,0,0,1 @ F,0,0,1,0,0,0,1 @ F,0,0,1,0,0,0,1 @ F,0,0,1,0,0,0,1"
       radius="0"
       unit="px"
       method="auto"
       mode="F"
       chamfer_steps="1"
       flexible="false"
       use_knot_distance="true"
       apply_no_radius="true"
       apply_with_radius="true"
       only_selected="false"
       hide_knots="false" />
    <inkscape:path-effect
       effect="fillet_chamfer"
       id="path-effect14"
       is_visible="true"
       lpeversion="1"
       nodesatellites_param="F,0,0,1,0,1.9219205,0,1 @ F,0,0,1,0,0,0,1 @ F,0,0,1,0,0,0,1 @ F,0,0,1,0,0,0,1 @ F,0,0,1,0,0,0,1 @ F,0,0,1,0,0,0,1 @ F,0,0,1,0,0,0,1 @ F,0,0,1,0,0,0,1 @ F,0,0,1,0,0,0,1 @ F,0,0,1,0,0,0,1 @ F,0,0,1,0,0,0,1 @ F,0,0,1,0,0,0,1 @ F,0,0,1,0,0,0,1 @ F,0,0,1,0,0,0,1 @ F,0,0,1,0,0,0,1 @ F,0,0,1,0,0,0,1 @ F,0,0,1,0,0,0,1 @ F,0,0,1,0,0,0,1 @ F,0,0,1,0,0,0,1 @ F,0,0,1,0,0,0,1 @ F,0,0,1,0,0,0,1 @ F,0,0,1,0,0,0,1 @ F,0,0,1,0,0,0,1 @ F,0,0,1,0,0,0,1 @ F,0,0,1,0,0,0,1 @ F,0,0,1,0,0,0,1 @ F,0,0,1,0,0,0,1 @ F,0,0,1,0,0,0,1"
       radius="0"
       unit="px"
       method="auto"
       mode="F"
       chamfer_steps="1"
       flexible="false"
       use_knot_distance="true"
       apply_no_radius="true"
       apply_with_radius="true"
       only_selected="false"
       hide_knots="false" />
    <rect
       x="890.23407"
       y="458.64859"
       width="424.4636"
       height="239.29492"
       id="rect3" />
    <rect
       x="920.14593"
       y="574.02293"
       width="344.69863"
       height="65.521231"
       id="rect1" />
  </defs>
  <g
     inkscape:label="Layer 1"
     inkscape:groupmode="layer"
     id="layer1">
    <path
       id="path2"
       style="opacity:1;vector-effect:non-scaling-stroke;fill:none;fill-opacity:1;stroke:#ff0000;stroke-width:0.264583;stroke-dasharray:none;stroke-opacity:1;-inkscape-stroke:hairline"
       inkscape:label="front"
       inkscape:transform-center-x="-1.76e-05"
       inkscape:transform-center-y="-3.412546"
       d="m 160.33689,107.80897 -7.07172,7.07119 2.12164,2.1214 -14.14157,14.14247 -2.1219,-2.12185 -7.07109,7.07021 2.12146,2.12211 -4.82204,4.82236 4.00026,6.92868 -2.59791,1.4999 4.25013,7.36145 2.59791,-1.49991 4.75029,8.2267 -2.59836,1.50017 4.25012,7.36143 2.59837,-1.50016 2.92643,5.06873 3.16097,3.5e-4 1.6e-4,2.99956 4.99965,-2.7e-4 -1.5e-4,-2.99955 -1e-5,-20.42771 c 2e-5,-5.65501 5.30113,-10.23927 11.83979,-10.23934 6.53866,7e-5 11.83935,4.58432 11.83938,10.23934 v 20.4277 l 1.4e-4,2.99956 4.99948,4.3e-4 3e-4,-2.99981 3.16115,-3.7e-4 2.92617,-5.06858 2.59832,1.5001 4.24989,-7.3616 -2.59833,-1.5001 4.75035,-8.22696 2.59834,1.5001 4.24987,-7.36159 -2.59831,-1.50011 4.00016,-6.92801 -4.82217,-4.82275 2.12095,-2.12139 -7.0702,-7.07108 -2.12187,2.1219 -14.14138,-14.14279 2.12051,-2.12113 -7.07066,-7.07083 -2.12121,2.12094 -7.0711,-7.07056 -7.07082,7.07065 z"
       inkscape:export-filename="front.svg"
       inkscape:export-xdpi="96"
       inkscape:export-ydpi="96" />
    <path
       style="baseline-shift:baseline;display:inline;overflow:visible;opacity:1;vector-effect:non-scaling-stroke;fill:none;stroke:#ff0000;stroke-width:0.264583;stroke-linecap:round;stroke-linejoin:round;stroke-dasharray:none;stroke-opacity:1;-inkscape-stroke:hairline;enable-background:accumulate;stop-color:#000000;stop-opacity:1"
       d="m 349.62862,12.463066 a 0.5,0.5 0 0 0 -0.5,0.5 v 0.82031 l -0.61328,-0.24609 a 0.5,0.5 0 0 0 -0.65039,0.27734 0.5,0.5 0 0 0 0.2793,0.65039 l 0.98437,0.39454 v 2.45312 l -1.89648,-1.0332 -0.22461,-1.57032 a 0.5,0.5 0 0 0 -0.56446,-0.42382 0.5,0.5 0 0 0 -0.42578,0.56445 l 0.11524,0.80469 -0.92969,-0.5293 a 0.5,0.5 0 0 0 -0.68164,0.18555 0.5,0.5 0 0 0 0.18555,0.68164 l 0.78711,0.44922 -0.67579,0.19336 a 0.5,0.5 0 0 0 -0.34375,0.61718 0.5,0.5 0 0 0 0.61915,0.34375 l 1.62109,-0.46093 1.86914,1.01953 -1.87109,1.01953 -1.61914,-0.46289 a 0.5,0.5 0 0 0 -0.61915,0.34375 0.5,0.5 0 0 0 0.34375,0.61719 l 0.67579,0.19335 -0.78711,0.44922 a 0.5,0.5 0 0 0 -0.18555,0.6836 0.5,0.5 0 0 0 0.68164,0.18554 l 0.92969,-0.53125 -0.11524,0.80469 a 0.5,0.5 0 0 0 0.42578,0.56641 0.5,0.5 0 0 0 0.56446,-0.42383 l 0.22461,-1.57031 1.89648,-1.03516 v 2.25 l -1.05664,0.63477 a 0.5,0.5 0 0 0 -0.16992,0.68554 0.5,0.5 0 0 0 0.68555,0.17188 l 0.54101,-0.32422 v 0.93359 a 0.5,0.5 0 0 0 0.5,0.5 0.5,0.5 0 0 0 0.5,-0.5 v -0.93359 l 0.53906,0.32422 a 0.5,0.5 0 0 0 0.6875,-0.17188 0.5,0.5 0 0 0 -0.17187,-0.68554 l -1.05469,-0.63282 v -2.25 l 1.89453,1.03321 0.22461,1.57031 a 0.5,0.5 0 0 0 0.56445,0.42383 0.5,0.5 0 0 0 0.42579,-0.56641 l -0.11524,-0.80469 0.92969,0.53125 a 0.5,0.5 0 0 0 0.68164,-0.18554 0.5,0.5 0 0 0 -0.18555,-0.6836 l -0.78711,-0.44922 0.67578,-0.19335 a 0.5,0.5 0 0 0 0.34375,-0.61719 0.5,0.5 0 0 0 -0.61914,-0.34375 l -1.61914,0.46289 -1.87109,-1.01953 1.86914,-1.01953 1.62109,0.46093 a 0.5,0.5 0 0 0 0.61914,-0.34375 0.5,0.5 0 0 0 -0.34375,-0.61718 l -0.67578,-0.19336 0.78711,-0.44922 a 0.5,0.5 0 0 0 0.18555,-0.68164 0.5,0.5 0 0 0 -0.68164,-0.18555 l -0.92969,0.5293 0.11524,-0.80469 a 0.5,0.5 0 0 0 -0.42579,-0.56445 0.5,0.5 0 0 0 -0.56445,0.42382 l -0.22461,1.57032 -1.89453,1.03125 v -2.45117 l 0.98242,-0.39454 a 0.5,0.5 0 0 0 0.2793,-0.65039 0.5,0.5 0 0 0 -0.65039,-0.27734 l -0.61133,0.24414 v -0.81836 a 0.5,0.5 0 0 0 -0.5,-0.5 z"
       id="path1-5" />
    <g
       id="g72"
       transform="translate(0,-164.39595)"
       inkscape:export-filename="roof.svg"
       inkscape:export-xdpi="96"
       inkscape:export-ydpi="96">
      <path
         id="rect2"
         style="opacity:0.448276;vector-effect:non-scaling-stroke;fill:none;stroke:#ff0000;stroke-width:0.264583;stroke-dasharray:none;-inkscape-stroke:hairline"
         d="m 19.199862,256.41149 v 2.4554 H 2.9998169 v 10.00042 H 0.54442367 A 0.54442367,0.54442367 135 0 0 0,269.41173 v 8.91107 a 0.54442367,0.54442367 45 0 0 0.54442367,0.54442 H 2.9998169 v 19.99981 H 0.54442367 A 0.54442367,0.54442367 135 0 0 0,299.41145 v 8.91158 a 0.54442367,0.54442367 45 0 0 0.54442367,0.54442 H 2.9998169 v 11.99927 c -6.7e-5,2.94743 1.5723008,5.671 4.1248128,7.14478 2.552595,1.47378 5.6975453,1.47378 8.2501423,0 2.55251,-1.47378 4.124883,-4.19735 4.124813,-7.14478 4e-5,2.94754 1.57262,5.67113 4.12533,7.14478 2.5526,1.47378 5.697552,1.47378 8.250142,0 2.55251,-1.47378 4.124873,-4.19735 4.124813,-7.14478 -7e-5,2.94743 1.572303,5.671 4.124813,7.14478 2.55259,1.47378 5.697552,1.47378 8.250142,0 2.55251,-1.47378 4.124883,-4.19735 4.124813,-7.14478 4e-5,2.94754 1.572619,5.67113 4.125329,7.14478 2.55247,1.47358 5.697156,1.47358 8.249626,0 2.55271,-1.47365 4.12529,-4.19724 4.12533,-7.14478 -7e-5,2.94743 1.572303,5.671 4.124813,7.14478 2.5526,1.47378 5.697552,1.47378 8.250142,0 2.55251,-1.47378 4.124873,-4.19735 4.124813,-7.14478 3e-5,2.94754 1.572609,5.67113 4.125329,7.14478 2.55246,1.47358 5.697166,1.47358 8.249626,0 2.552714,-1.47365 4.125294,-4.19724 4.125334,-7.14478 v -11.99927 h 2.45591 a 0.54442367,0.54442367 135 0 0 0.54442,-0.54442 v -8.91158 a 0.54442367,0.54442367 45 0 0 -0.54442,-0.54442 l -2.45591,0 v -19.99981 h 2.45591 a 0.54439536,0.54439536 134.99851 0 0 0.54439,-0.54442 l -4.6e-4,-8.91107 a 0.54445198,0.54445198 44.99851 0 0 -0.54445,-0.54442 h -2.45539 v -10.00042 -2.99982 H 85.744391 a 0.54442367,0.54442367 135 0 0 -0.544424,0.54442 v 2.4554 H 68.999923 v -2.4554 a 0.54442367,0.54442367 45 0 0 -0.544424,-0.54442 h -15.71116 a 0.54442367,0.54442367 135 0 0 -0.544424,0.54442 v 2.4554 H 35.99987 v -2.4554 a 0.54442367,0.54442367 45 0 0 -0.544424,-0.54442 h -15.71116 a 0.54442367,0.54442367 135 0 0 -0.544424,0.54442 z m -9.1999556,12.45582 h 2.5001056 v 10.00042 H 9.9999064 Z m 82.4998736,0 h 2.500106 v 10.00042 H 92.49978 Z M 9.9999064,298.86703 h 2.5001056 v 10.00042 H 9.9999064 Z m 82.4998736,0 h 2.500106 v 10.00042 H 92.49978 Z m -59.999955,16.82016 h 9.999906 v 2.99982 h -9.999906 z m 30.000236,0 h 9.999906 v 2.99982 h -9.999906 z"
         inkscape:path-effect="#path-effect2"
         inkscape:original-d="m 19.199862,255.86707 v 2.99982 H 2.9998169 v 10.00042 H 0 v 9.99991 h 2.9998169 v 19.99981 H 0 v 10.00042 h 2.9998169 v 11.99927 c -6.7e-5,2.94743 1.5723008,5.671 4.1248128,7.14478 2.552595,1.47378 5.6975453,1.47378 8.2501423,0 2.55251,-1.47378 4.124883,-4.19735 4.124813,-7.14478 4e-5,2.94754 1.57262,5.67113 4.12533,7.14478 2.5526,1.47378 5.697552,1.47378 8.250142,0 2.55251,-1.47378 4.124873,-4.19735 4.124813,-7.14478 -7e-5,2.94743 1.572303,5.671 4.124813,7.14478 2.55259,1.47378 5.697552,1.47378 8.250142,0 2.55251,-1.47378 4.124883,-4.19735 4.124813,-7.14478 4e-5,2.94754 1.572619,5.67113 4.125329,7.14478 2.55247,1.47358 5.697156,1.47358 8.249626,0 2.55271,-1.47365 4.12529,-4.19724 4.12533,-7.14478 -7e-5,2.94743 1.572303,5.671 4.124813,7.14478 2.5526,1.47378 5.697552,1.47378 8.250142,0 2.55251,-1.47378 4.124873,-4.19735 4.124813,-7.14478 3e-5,2.94754 1.572609,5.67113 4.125329,7.14478 2.55246,1.47358 5.697166,1.47358 8.249626,0 2.552714,-1.47365 4.125294,-4.19724 4.125334,-7.14478 v -11.99927 h 3.00033 v -10.00042 h -3.00033 v -19.99981 h 3.00033 l -5.2e-4,-9.99991 h -2.99981 v -10.00042 -2.99982 H 85.199967 v 2.99982 H 68.999923 v -2.99982 H 52.199915 v 2.99982 H 35.99987 v -2.99982 z m -9.1999556,13.00024 h 2.5001056 v 10.00042 H 9.9999064 Z m 82.4998736,0 h 2.500106 v 10.00042 H 92.49978 Z M 9.9999064,298.86703 h 2.5001056 v 10.00042 H 9.9999064 Z m 82.4998736,0 h 2.500106 v 10.00042 H 92.49978 Z m -59.999955,16.82016 h 9.999906 v 2.99982 h -9.999906 z m 30.000236,0 h 9.999906 v 2.99982 h -9.999906 z" />
      <g
         id="g27"
         style="vector-effect:non-scaling-stroke;stroke-width:0.264583;stroke-dasharray:none;-inkscape-stroke:hairline"
         transform="translate(-7.000077,9.867)">
        <path
           id="path15"
           style="opacity:0.448276;vector-effect:non-scaling-stroke;fill:none;stroke:#000080;stroke-width:0.264583;stroke-dasharray:none;-inkscape-stroke:hairline"
           d="m 9.9999064,265 c -6.38e-5,2.94743 1.5723036,5.671 4.1248126,7.14478 2.552595,1.47378 5.697547,1.47378 8.250142,0 C 24.92737,270.671 26.499738,267.94743 26.499674,265 m 0,0 c 4.3e-5,2.94753 1.572622,5.67113 4.12533,7.14478 2.552595,1.47378 5.697547,1.47378 8.250142,0 2.552509,-1.47378 4.124877,-4.19735 4.124813,-7.14478 m 0,0 c -6.4e-5,2.94743 1.572304,5.671 4.124813,7.14478 2.552595,1.47378 5.697547,1.47378 8.250142,0 2.552509,-1.47378 4.124877,-4.19735 4.124813,-7.14478 m 0,0 c 4.3e-5,2.94753 1.572622,5.67113 4.12533,7.14478 2.552464,1.47358 5.697161,1.47358 8.249625,0 2.552708,-1.47365 4.125287,-4.19725 4.12533,-7.14478 m 0,0 c -6.4e-5,2.94743 1.572304,5.671 4.124813,7.14478 2.552595,1.47378 5.697547,1.47378 8.250142,0 C 90.927476,270.671 92.499844,267.94743 92.49978,265 m 0,0 c 4.3e-5,2.94753 1.572622,5.67113 4.125329,7.14478 2.552464,1.47358 5.697171,1.47358 8.249631,0 2.55271,-1.47365 4.12529,-4.19725 4.12533,-7.14478"
           sodipodi:nodetypes="csscccsccssccssccssccssc" />
        <path
           id="path20"
           style="opacity:0.448276;vector-effect:non-scaling-stroke;fill:none;stroke:#000080;stroke-width:0.264583;stroke-dasharray:none;-inkscape-stroke:hairline"
           d="m 9.9999064,280 c -6.38e-5,2.94743 1.5723036,5.671 4.1248126,7.14478 2.552595,1.47378 5.697547,1.47378 8.250142,0 C 24.92737,285.671 26.499738,282.94743 26.499674,280 m 0,0 c 4.3e-5,2.94753 1.572622,5.67113 4.12533,7.14478 2.552595,1.47378 5.697547,1.47378 8.250142,0 2.552509,-1.47378 4.124877,-4.19735 4.124813,-7.14478 m 0,0 c -6.4e-5,2.94743 1.572304,5.671 4.124813,7.14478 2.552595,1.47378 5.697547,1.47378 8.250142,0 2.552509,-1.47378 4.124877,-4.19735 4.124813,-7.14478 m 0,0 c 4.3e-5,2.94753 1.572622,5.67113 4.12533,7.14478 2.552464,1.47358 5.697161,1.47358 8.249625,0 2.552708,-1.47365 4.125287,-4.19725 4.12533,-7.14478 m 0,0 c -6.4e-5,2.94743 1.572304,5.671 4.124813,7.14478 2.552595,1.47378 5.697547,1.47378 8.250142,0 C 90.927476,285.671 92.499844,282.94743 92.49978,280 m 0,0 c 4.3e-5,2.94753 1.572622,5.67113 4.125329,7.14478 2.552464,1.47358 5.697171,1.47358 8.249631,0 2.55271,-1.47365 4.12529,-4.19725 4.12533,-7.14478"
           sodipodi:nodetypes="csscccsccssccssccssccssc" />
        <path
           id="path21"
           style="opacity:0.448276;vector-effect:non-scaling-stroke;fill:none;stroke:#000080;stroke-width:0.264583;stroke-dasharray:none;-inkscape-stroke:hairline"
           d="m 9.9999064,295 c -6.4e-5,2.94743 1.5723036,5.671 4.1248126,7.14478 2.552595,1.47378 5.697547,1.47378 8.250142,0 C 24.92737,300.671 26.499738,297.94743 26.499674,295 m 0,0 c 4.3e-5,2.94753 1.572622,5.67113 4.12533,7.14478 2.552595,1.47378 5.697547,1.47378 8.250142,0 2.552509,-1.47378 4.124877,-4.19735 4.124813,-7.14478 m 0,0 c -6.4e-5,2.94743 1.572304,5.671 4.124813,7.14478 2.552595,1.47378 5.697547,1.47378 8.250142,0 2.552509,-1.47378 4.124877,-4.19735 4.124813,-7.14478 m 0,0 c 4.3e-5,2.94753 1.572622,5.67113 4.12533,7.14478 2.552464,1.47358 5.697161,1.47358 8.249625,0 2.552708,-1.47365 4.125287,-4.19725 4.12533,-7.14478 m 0,0 c -6.4e-5,2.94743 1.572304,5.671 4.124813,7.14478 2.552595,1.47378 5.697547,1.47378 8.250142,0 C 90.927476,300.671 92.499844,297.94743 92.49978,295 m 0,0 c 4.3e-5,2.94753 1.572622,5.67113 4.125329,7.14478 2.552464,1.47358 5.697171,1.47358 8.249631,0 2.55271,-1.47365 4.12529,-4.19725 4.12533,-7.14478"
           sodipodi:nodetypes="csscccsccssccssccssccssc" />
      </g>
    </g>
    <path
       id="path13"
       style="vector-effect:non-scaling-stroke;fill:none;stroke:#ff0000;stroke-width:0.264583;stroke-dasharray:none;stroke-opacity:1;-inkscape-stroke:hairline"
       inkscape:label="icicles"
       d="M 97.910679 285.42326 A 1.9219201 1.9219201 45 0 0 95.192777 285.42326 L 54.339847 326.27619 C 52.334385 328.28161 51.504461 349.91627 54.339847 351.6077 C 57.300643 350.41006 56.318497 339.61578 57.905494 338.31637 C 60.156049 338.14286 60.084906 344.71533 61.409021 344.93975 C 63.224714 344.85945 62.337016 333.17467 64.565047 331.89872 C 67.112905 331.38878 66.46948 340.97103 68.606454 340.74669 C 70.840136 338.61594 69.976703 327.33986 72.464792 325.05646 C 74.517426 326.1007 74.120734 334.54274 76.30011 334.51028 C 78.299597 333.89349 77.356124 320.25921 79.631165 318.95123 C 82.02454 319.8443 81.003737 326.71321 82.732745 327.90152 C 85.79846 327.75671 82.453197 313.41581 86.383897 311.59192 C 88.534191 312.30396 88.191397 322.53045 89.476707 323.4969 C 92.444276 321.84117 89.865527 307.16026 93.799844 306.16599 C 95.066231 306.4434 94.689305 310.04051 96.551728 310.15075 C 98.414151 310.04051 98.037225 306.4434 99.303612 306.16599 C 103.23793 307.16026 100.65918 321.84117 103.62675 323.4969 C 104.91206 322.53045 104.56927 312.30396 106.71956 311.59192 C 110.65026 313.41581 107.30499 327.75671 110.37071 327.90152 C 112.09972 326.71321 111.07892 319.8443 113.47229 318.95123 C 115.74733 320.25921 114.80386 333.89349 116.80335 334.51028 C 118.98272 334.54278 118.58602 326.1007 120.63866 325.05646 C 123.12675 327.33986 122.26332 338.61594 124.497 340.74669 C 126.63398 340.97103 125.99055 331.38878 128.53841 331.89872 C 130.76644 333.17467 129.87874 344.85945 131.69443 344.93975 C 133.01855 344.71533 132.94741 338.14286 135.19796 338.31637 C 136.78496 339.61578 135.80282 350.41006 138.76361 351.6077 C 141.599 349.91627 140.76907 328.28161 138.76361 326.27619 L 97.910679 285.42326 z M 105.39057 300.68122 L 112.46157 307.75222 L 110.69373 309.52006 L 103.62273 302.44906 L 105.39057 300.68122 z M 126.60394 321.89459 L 133.67494 328.96559 L 131.9071 330.73343 L 124.8361 323.66243 L 126.60394 321.89459 z M 87.712884 300.68122 L 89.480726 302.44906 L 82.409725 309.52006 L 80.641883 307.75222 L 87.712884 300.68122 z M 66.499514 321.89459 L 68.267356 323.66243 L 61.196354 330.73343 L 59.428512 328.96559 L 66.499514 321.89459 z "
       transform="rotate(-45,-294.62009,258.5804)"
       inkscape:export-filename="icicle.svg"
       inkscape:export-xdpi="96"
       inkscape:export-ydpi="96" />
    <path
       id="rect45"
       style="opacity:0.448276;vector-effect:non-scaling-stroke;fill:none;stroke:#ff0000;stroke-width:0.264583;stroke-dasharray:none;-inkscape-stroke:hairline"
       d="m 32.499812,179.95962 v 2.4089 H 12.5 9.4996663 v 8.00003 H 12.5 v 8.00003 H 9.4996663 v 9.9999 H 12.5 v 8.00003 H 9.4996663 v 4.49998 H 12.5 32.499812 v 2.40839 a 0.59143056,0.59143056 45 0 0 0.591431,0.59143 h 8.817045 a 0.59143056,0.59143056 135 0 0 0.591431,-0.59143 v -2.40839 h 20.000329 v 2.40839 a 0.59143056,0.59143056 45 0 0 0.591431,0.59143 h 8.817045 a 0.59143056,0.59143056 135 0 0 0.591431,-0.59143 v -2.40839 h 19.999813 2.999817 v -4.49998 h -2.999817 v -8.00003 h 2.999817 v -9.9999 h -2.999817 v -8.00003 h 2.999817 v -8.00003 H 92.499768 72.499955 v -2.4089 a 0.59143056,0.59143056 45 0 0 -0.591431,-0.59143 h -8.817045 a 0.59143056,0.59143056 135 0 0 -0.591431,0.59143 l 0,2.4089 H 42.499719 v -2.4089 a 0.59143056,0.59143056 45 0 0 -0.591431,-0.59143 h -8.817045 a 0.59143056,0.59143056 135 0 0 -0.591431,0.59143 z m -9.999906,9.40847 21.99976,-3e-5 v 20.00033 l -21.99976,3e-5 z m 37.99976,0 h 22.000195 v 20.00033 H 60.499666 Z"
       sodipodi:nodetypes="ccccccccccccccccccccccccccccccccccccccccccccccccccc"
       inkscape:path-effect="#path-effect9"
       inkscape:original-d="m 32.499812,179.36819 v 3.00033 H 12.5 9.4996663 v 8.00003 H 12.5 v 8.00003 H 9.4996663 v 9.9999 H 12.5 v 8.00003 H 9.4996663 v 4.49998 H 12.5 32.499812 v 2.99982 h 9.999907 v -2.99982 h 20.000329 v 2.99982 h 9.999907 v -2.99982 h 19.999813 2.999817 v -4.49998 h -2.999817 v -8.00003 h 2.999817 v -9.9999 h -2.999817 v -8.00003 h 2.999817 v -8.00003 H 92.499768 72.499955 v -3.00033 h -9.999907 v 3.00033 H 42.499719 v -3.00033 z m -9.999906,9.9999 21.99976,-3e-5 v 20.00033 l -21.99976,3e-5 z m 37.99976,0 h 22.000195 v 20.00033 H 60.499666 Z" />
    <g
       id="g66"
       transform="translate(254.41666,-300)"
       inkscape:export-filename="tab.svg"
       inkscape:export-xdpi="96"
       inkscape:export-ydpi="96">
      <path
         id="rect63"
         style="opacity:0.448276;vector-effect:non-scaling-stroke;fill:none;stroke:#ff0000;stroke-width:0.264583;stroke-dasharray:none;-inkscape-stroke:hairline"
         d="m 44.999837,299.99978 v 16.99999 h 5.000212 v 2.10449 a 0.89584927,0.89584927 45 0 0 0.895849,0.89585 l 8.208208,0 a 0.89584927,0.89584927 135 0 0 0.895849,-0.89585 v -2.10449 h 5.000212 v -16.99999 h -5.000212 -9.999906 z"
         inkscape:path-effect="#path-effect1"
         inkscape:original-d="m 44.999837,299.99978 v 16.99999 h 5.000212 v 3.00034 h 9.999906 v -3.00034 h 5.000212 v -16.99999 h -5.000212 -9.999906 z" />
      <path
         id="rect64"
         style="opacity:0.448276;vector-effect:non-scaling-stroke;fill:none;stroke:#ff0000;stroke-width:0.264583;stroke-dasharray:none;-inkscape-stroke:hairline"
         d="m 10,300 v 19.99981 H 39.999719 V 300 Z m 9.999906,8.75 h 9.999907 v 2.5 h -9.999907 z"
         sodipodi:nodetypes="cccccccccc" />
    </g>
    <g
       id="g7"
       inkscape:export-filename="back.svg"
       inkscape:export-xdpi="96"
       inkscape:export-ydpi="96">
      <g
         id="g5"
         inkscape:export-filename="back.svg"
         inkscape:export-xdpi="96"
         inkscape:export-ydpi="96">
        <path
           id="path23"
           style="vector-effect:non-scaling-stroke;fill:none;fill-opacity:1;stroke:#ff0000;stroke-width:0.264583;stroke-dasharray:none;stroke-opacity:1;-inkscape-stroke:hairline"
           inkscape:label="back-wall"
           inkscape:transform-center-x="2.8521716"
           inkscape:transform-center-y="-12.231355"
           d="m 120.36821,4.9497 -7.07101,7.071371 2.12093,2.12121 -14.14202,14.14273 -2.121203,-2.12167 -7.07127,7.07092 2.1219,2.12185 -4.82231,4.82192 4.00002,6.92823 -2.59836,1.50017 4.25013,7.36144 2.59836,-1.50017 4.749833,8.22696 -2.598363,1.50016 4.250133,7.36144 2.59836,-1.50016 2.9267,5.06918 3.1607,-1e-4 -3e-5,3.00027 4.99992,1.7e-4 2.2e-4,-3.00098 6.91021,5.8e-4 8.7e-4,-4.85711 9.85722,3.4e-4 2e-5,4.8566 6.91085,-4e-4 -2.3e-4,3.00098 4.99966,-2.8e-4 4e-5,-3.00027 3.16115,-3.6e-4 2.92617,-5.06858 2.59807,1.49965 4.25014,-7.36115 -2.59762,-1.49991 4.74964,-8.22714 2.59762,1.49991 4.25015,-7.36115 -2.59762,-1.49991 3.99991,-6.92847 -4.82166,-4.82186 2.12096,-2.12139 -7.07021,-7.07108 -2.12211,2.12146 -14.14183,-14.14255 2.12096,-2.12138 L 138.7523,4.9499 136.63088,7.07154 129.56042,0 122.48941,7.07137 Z m 4.51358,12.876881 c 1.42701,-0.76153 3.03168,-1.17007 4.6787,-1.17011 1.74424,-1.2e-4 3.45777,0.45856 4.96841,1.33053 0.75209,0.43417 1.44398,0.96527 2.05808,1.5793 1.8635,1.8635 2.91071,4.39064 2.91079,7.02602 3.2e-4,5.48837 -4.44882,9.93806 -9.93718,9.93806 -5.48795,-4.8e-4 -9.93667,-4.44956 -9.93646,-9.93751 4e-5,-2.63535 1.0471,-5.16277 2.91053,-7.0263 0.69881,-0.69873 1.49093,-1.28306 2.34713,-1.73999 z"
           inkscape:export-filename="back.svg"
           inkscape:export-xdpi="96"
           inkscape:export-ydpi="96"
           sodipodi:nodetypes="ccccccccccccccccccccccccccccccccccccccccccccccccccscccccccs" />
      </g>
      <path
         d="m 104.83986,50.985291 -1.14722,1.550294 q -0.79582,1.112766 -1.22645,1.112766 -0.19982,0 -0.35485,-0.227376 -0.15503,-0.230822 -0.31695,-0.699355 -0.16192,-0.468533 -0.22737,-0.70969 -0.14814,-0.558106 -0.19982,-0.633898 l -0.1757,0.895725 q -0.0827,0.434082 -0.16881,0.799263 -0.0861,0.361735 -0.18948,0.87161 -0.0999,0.509874 -0.12402,0.768256 -0.007,0.08613 -0.16537,0.186036 -0.15503,0.09991 -0.23771,0.09991 -0.16536,0 -0.310059,-0.155029 -0.141249,-0.151584 -0.141249,-0.292833 0,-0.33073 0.137804,-0.840604 0.568444,-2.087729 0.647674,-2.62861 0.0827,-0.54088 0.0827,-0.89917 0,-0.186035 0.16192,-0.285943 0.16192,-0.09991 0.42374,-0.09991 0.14125,0 0.2825,0.186035 0.14125,0.186035 0.18604,0.34451 l -0.003,-0.0069 0.47887,1.340143 q 0.28594,0.802708 0.38241,1.019749 0.37207,-0.403077 1.10243,-1.402155 0.73036,-0.995633 0.99908,-1.281576 0.26871,-0.285944 0.37896,-0.285944 0.16881,0 0.37551,0.141249 0.20671,0.141249 0.20671,0.241157 0,0.07579 -0.13436,1.036975 -0.093,0.678684 -0.16881,1.519288 -0.0758,0.840604 -0.0758,0.992188 0,0.186035 0.0482,0.382406 0.0344,0.151584 0.0344,0.285943 0,0.341065 -0.12058,0.465088 -0.11713,0.124024 -0.36518,0.124024 -0.45131,0 -0.45131,-0.678685 0,-0.640788 0.11714,-1.564074 0.11713,-0.926731 0.21359,-1.422825 0.0345,-0.179145 0.0448,-0.248047 z m 4.79213,2.607939 q 0,0.35829 -0.60289,0.857829 -0.60289,0.496094 -1.36082,0.496094 -0.58222,0 -0.91639,-0.36518 -0.33418,-0.368626 -0.33418,-1.023194 0,-0.964628 0.68213,-1.808677 0.68213,-0.844049 1.45728,-0.844049 0.38585,0 0.62012,0.244602 0.23426,0.244602 0.23426,0.582222 0,0.599447 -0.57533,1.143772 -0.57533,0.540881 -1.4745,0.747586 -0.10335,0.02412 -0.10335,0.124024 0,0.165365 0.14469,0.316949 0.14814,0.148139 0.39274,0.148139 0.69247,0 1.3746,-0.713135 0.13091,-0.137804 0.25493,-0.137804 0.20671,0 0.20671,0.230822 z m -2.31166,-0.609783 q 0.54432,-0.110243 0.95774,-0.465088 0.41685,-0.354845 0.41685,-0.644233 0,-0.113688 -0.0654,-0.189481 -0.062,-0.07924 -0.16192,-0.07924 -0.29973,0 -0.66491,0.440973 -0.36518,0.440972 -0.48231,0.937066 z m 3.74482,0.08613 0.0586,-0.110243 q 0.41685,-0.837159 0.89572,-1.357369 0.48232,-0.523655 0.94051,-0.523655 0.3514,0 0.57189,0.192926 0.22393,0.192925 0.22393,0.458198 0,0.165364 -0.0758,0.285943 -0.0758,0.117133 -0.21015,0.117133 -0.2136,0 -0.3893,-0.1757 -0.12402,-0.113688 -0.19637,-0.113688 -0.25838,0 -0.86472,0.802708 -0.60634,0.802707 -0.73036,1.805231 -0.0379,0.289388 -0.16881,0.403076 -0.13091,0.117134 -0.35484,0.117134 -0.23772,0 -0.33762,-0.268718 -0.0999,-0.272163 -0.0999,-0.88539 0,-0.251492 0.0138,-0.678684 0.0138,-0.403077 0.0792,-0.985298 0.0172,-0.151585 0.0241,-0.237712 0.031,-0.33762 0.0689,-0.461643 0.0413,-0.127469 0.18604,-0.237712 0.14469,-0.110243 0.32039,-0.110243 0.18604,0 0.2825,0.106798 0.0965,0.106798 0.0965,0.234267 0,0.161919 -0.15503,0.671794 -0.0551,0.1757 -0.093,0.420302 z m 3.64836,0 0.0586,-0.110243 q 0.41686,-0.837159 0.89573,-1.357369 0.48231,-0.523655 0.94051,-0.523655 0.3514,0 0.57189,0.192926 0.22393,0.192925 0.22393,0.458198 0,0.165364 -0.0758,0.285943 -0.0758,0.117133 -0.21015,0.117133 -0.2136,0 -0.3893,-0.1757 -0.12402,-0.113688 -0.19637,-0.113688 -0.25838,0 -0.86472,0.802708 -0.60634,0.802707 -0.73036,1.805231 -0.0379,0.289388 -0.16881,0.403076 -0.13091,0.117134 -0.35485,0.117134 -0.23771,0 -0.33761,-0.268718 -0.0999,-0.272163 -0.0999,-0.88539 0,-0.251492 0.0138,-0.678684 0.0138,-0.403077 0.0792,-0.985298 0.0172,-0.151585 0.0241,-0.237712 0.031,-0.33762 0.0689,-0.461643 0.0413,-0.127469 0.18604,-0.237712 0.14469,-0.110243 0.32039,-0.110243 0.18604,0 0.2825,0.106798 0.0965,0.106798 0.0965,0.234267 0,0.161919 -0.15503,0.671794 -0.0551,0.1757 -0.093,0.420302 z m 6.0427,-0.320394 q -0.0551,0.837158 -0.19637,1.626086 -0.1378,0.785482 -0.40997,1.42627 -0.26871,0.640788 -0.58222,0.87161 -0.31006,0.234267 -0.74069,0.234267 -0.46165,0 -0.88539,-0.1757 h 0.003 q -0.36518,-0.151585 -0.63734,-0.406522 -0.26872,-0.254937 -0.26872,-0.430637 0,-0.16192 0.0792,-0.258382 0.0827,-0.09646 0.21359,-0.09646 0.11369,0 0.18948,0.09646 0.44098,0.568441 1.28158,0.568441 0.34106,0 0.65801,-0.713136 0.31695,-0.713135 0.39963,-1.712213 -1.06453,0.840604 -1.63986,0.840604 -0.37207,0 -0.58911,-0.296279 -0.21704,-0.296278 -0.21704,-0.713135 0,-0.416857 0.19292,-1.209229 0.19637,-0.795818 0.33073,-0.985298 0.1378,-0.192926 0.44442,-0.192926 0.16536,0 0.25494,0.144694 0.0896,0.141249 0.0896,0.313504 0,0.05168 -0.24805,0.582222 -0.30317,0.647678 -0.30317,1.116212 0,0.241156 0.0655,0.368625 0.0689,0.124024 0.14125,0.124024 0.16536,0 0.39963,-0.09991 0.23771,-0.09991 0.55466,-0.34451 0.32039,-0.248047 0.41341,-0.375516 0.093,-0.127468 0.14814,-0.327284 0.0551,-0.203261 0.0861,-0.888835 0.0172,-0.399632 0.0379,-0.502985 0.0241,-0.103352 0.12403,-0.18948 0.0999,-0.08613 0.26872,-0.08613 0.22737,0 0.32039,0.09646 0.0965,0.09646 0.0965,0.454753 z m 7.25538,0.833713 q 0.26182,0 0.26182,0.254938 0,0.316949 -0.76136,0.782037 -0.75793,0.461643 -1.46762,0.461643 -0.627,0 -1.1541,-0.409967 -0.5271,-0.409966 -0.5271,-1.195449 0,-0.799262 0.55121,-1.774225 0.55122,-0.974963 1.36426,-1.58819 0.81649,-0.613227 1.59164,-0.613227 0.46164,0 0.73725,0.275607 0.27561,0.275608 0.27561,0.644234 0,0.399631 -0.062,0.575331 -0.062,0.172255 -0.26527,0.296278 -0.20326,0.124024 -0.33073,0.124024 -0.13091,0 -0.22737,-0.09302 -0.0965,-0.09302 -0.0965,-0.251492 0,-0.110243 0.0586,-0.320394 0.0551,-0.210151 0.0551,-0.3514 0,-0.237712 -0.16192,-0.237712 -0.49609,0 -1.11277,0.530545 -0.61667,0.530545 -1.05764,1.319473 -0.43753,0.785482 -0.43753,1.388374 0,0.399631 0.23082,0.675239 0.23083,0.275608 0.67524,0.275608 0.26183,0 0.65802,-0.141249 0.39963,-0.141249 0.73725,-0.382406 0.34106,-0.244602 0.46509,-0.244602 z m 2.09806,-0.392741 q 0.57189,-1.071425 0.9853,-1.457276 0.41685,-0.389296 0.8406,-0.389296 0.29284,0 0.48576,0.203261 0.19637,0.199815 0.28594,1.047309 0.0379,0.403077 0.0965,0.651124 0.0586,0.248047 0.13091,0.440972 0.0724,0.189481 0.20671,0.35829 0.10335,0.134359 0.10335,0.258383 0,0.124023 -0.12058,0.227376 -0.11713,0.103353 -0.27216,0.103353 -0.30662,0 -0.54433,-0.334174 -0.23771,-0.334175 -0.2825,-0.923287 -0.0551,-0.720025 -0.12057,-0.919841 -0.062,-0.199815 -0.21016,-0.199815 -0.19981,0 -0.77859,0.799262 -0.57533,0.795818 -0.83027,1.274686 -0.15847,0.361736 -0.2446,0.468534 -0.0861,0.106798 -0.21359,0.106798 -0.21015,0 -0.34107,-0.103353 -0.13091,-0.103353 -0.13091,-0.292833 0,-0.09302 0.093,-0.582222 0.3514,-1.850017 0.57533,-3.937747 0.0551,-0.502984 0.21015,-0.692464 0.15847,-0.192926 0.28939,-0.192926 0.18259,0 0.31694,0.141249 0.13436,0.141249 0.13436,0.392741 0,0.385851 -0.093,0.888836 -0.093,0.502984 -0.34796,1.605415 -0.15503,0.664904 -0.22393,1.057645 z m 4.48207,-0.120578 0.0586,-0.110243 q 0.41685,-0.837159 0.89572,-1.357369 0.48232,-0.523655 0.94051,-0.523655 0.3514,0 0.57189,0.192926 0.22393,0.192925 0.22393,0.458198 0,0.165364 -0.0758,0.285943 -0.0758,0.117133 -0.21015,0.117133 -0.2136,0 -0.3893,-0.1757 -0.12402,-0.113688 -0.19637,-0.113688 -0.25838,0 -0.86472,0.802708 -0.60633,0.802707 -0.73036,1.805231 -0.0379,0.289388 -0.16881,0.403076 -0.13091,0.117134 -0.35484,0.117134 -0.23771,0 -0.33762,-0.268718 -0.0999,-0.272163 -0.0999,-0.88539 0,-0.251492 0.0138,-0.678684 0.0138,-0.403077 0.0792,-0.985298 0.0172,-0.151585 0.0241,-0.237712 0.031,-0.33762 0.0689,-0.461643 0.0413,-0.127469 0.18603,-0.237712 0.14469,-0.110243 0.32039,-0.110243 0.18604,0 0.2825,0.106798 0.0965,0.106798 0.0965,0.234267 0,0.161919 -0.15503,0.671794 -0.0551,0.1757 -0.093,0.420302 z m 4.69567,-3.410647 q 0,0.244602 -0.22048,0.430637 -0.22049,0.18259 -0.38241,0.18259 -0.20671,0 -0.36863,-0.172254 -0.15847,-0.172255 -0.15847,-0.34451 0,-0.248047 0.15847,-0.399632 0.15848,-0.155029 0.45476,-0.155029 0.23082,0 0.37207,0.137804 0.14469,0.134359 0.14469,0.320394 z m -1.66398,2.83187 v 0.0034 q 0.11024,-0.627007 0.11024,-0.71658 0,-0.254937 0.11025,-0.427192 0.11368,-0.172255 0.3135,-0.172255 0.23427,0 0.36518,0.110243 0.13091,0.110243 0.13091,0.248047 0,0.137804 -0.12746,0.568441 l -0.0207,0.07579 q -0.18948,0.664903 -0.22737,1.085205 -0.0379,0.420302 -0.0379,0.678685 0,0.210151 0.0724,0.56155 0.0103,0.06201 0.0103,0.103353 0,0.07924 -0.15158,0.213596 -0.14814,0.134359 -0.32039,0.134359 -0.45476,0 -0.45476,-0.689019 0,-0.585667 0.16537,-1.426271 0.0345,-0.186035 0.062,-0.3514 z m 3.40375,1.41249 q -0.0138,-0.186035 -0.59255,-0.454753 -0.70969,-0.341064 -0.90606,-0.585666 -0.19637,-0.248047 -0.19637,-0.537435 0,-0.609783 0.68213,-1.064536 0.68557,-0.458198 1.27813,-0.458198 0.58222,0 0.58222,0.50643 0,0.134359 -0.13436,0.241157 -0.13091,0.106798 -0.22393,0.106798 -0.0379,0 -0.13436,-0.04823 -0.0965,-0.04823 -0.14814,-0.04823 -0.30661,0 -0.67524,0.206706 -0.36862,0.206706 -0.36862,0.482313 0,0.134359 0.13091,0.261828 0.13091,0.124023 0.53399,0.313504 0.596,0.282498 0.78548,0.509874 0.18948,0.227377 0.18948,0.502985 0,0.502984 -0.68213,0.840603 -0.67868,0.334175 -1.52618,0.334175 -0.62356,0 -0.62356,-0.451308 0,-0.165365 0.13091,-0.282498 0.13092,-0.117133 0.29284,-0.117133 0.0655,0 0.20326,0.04823 0.1378,0.05168 0.25494,0.05168 0.32384,0 0.67868,-0.103353 0.35485,-0.103353 0.46853,-0.254938 z m 2.76297,-1.922364 q -0.031,0 -0.19637,0.768257 -0.16192,0.768256 -0.16192,0.930176 0,0.282498 0.0586,0.396186 0.062,0.110243 0.19982,0.110243 0.19292,0 0.36862,-0.06546 0.17915,-0.0689 0.46853,-0.303169 0.17915,-0.148139 0.30317,-0.148139 0.0999,0 0.15848,0.05857 0.062,0.05512 0.062,0.130914 0,0.303169 -0.4892,0.68902 -0.48921,0.382405 -1.03353,0.382405 -0.45476,0 -0.69591,-0.268717 -0.23772,-0.268718 -0.23772,-0.771702 0,-0.465088 0.34796,-1.856908 -0.22049,0.02412 -0.30661,0.02412 h -0.0724 q -0.15848,0 -0.32384,-0.103353 -0.16192,-0.103353 -0.16192,-0.330729 0,-0.289389 0.32728,-0.289389 l 0.73726,-0.02756 q 0.14469,-0.416857 0.30661,-1.092096 0.0965,-0.420302 0.43753,-0.420302 0.18948,0 0.29627,0.117133 0.1068,0.113688 0.1068,0.254937 0,0.05512 -0.29283,1.064536 1.09554,-0.09646 1.20234,-0.09646 0.18259,0 0.24116,0.05512 0.0586,0.05168 0.0586,0.203261 0,0.306614 -0.52021,0.389296 z m 2.79742,2.594158 q -0.0413,0.354845 -0.39618,0.354845 -0.45131,0 -0.45131,-0.651123 0,-1.0542 0.11369,-1.801786 0.0896,-0.582222 0.0896,-1.143773 0,-0.134358 0.0861,-0.223931 0.0861,-0.09302 0.24115,-0.09302 0.51677,0 0.51677,0.627007 0,0.203261 -0.18259,1.036975 -0.11024,0.496094 -0.11024,0.720025 0.98529,-2.163521 1.77767,-2.163521 0.32039,0 0.51332,0.254937 0.19637,0.254937 0.20326,1.129992 0.003,0.799263 0.0827,0.799263 0.062,0 0.43064,-0.775147 0.40996,-0.85783 0.69935,-1.133437 0.29283,-0.275608 0.61323,-0.275608 0.3824,0 0.55466,0.330729 0.17225,0.327284 0.24116,1.109322 0.0517,0.620117 0.1378,0.937066 0.0896,0.316949 0.30317,0.420302 0.17225,0.08268 0.17225,0.248047 0,0.148139 -0.19637,0.299724 -0.19637,0.148139 -0.39963,0.148139 -0.3514,0 -0.55121,-0.34451 -0.19637,-0.347955 -0.26528,-1.391819 -0.0379,-0.502985 -0.0827,-0.664904 -0.0413,-0.165365 -0.12747,-0.165365 -0.0758,0 -0.22048,0.248047 -0.1447,0.244602 -0.49954,0.978408 -0.31351,0.661459 -0.54088,0.923286 -0.22393,0.261827 -0.48232,0.261827 -0.19981,0 -0.40307,-0.172254 -0.19982,-0.172255 -0.21704,-1.250571 -0.0172,-0.961182 -0.12403,-0.961182 -0.14469,0 -0.69591,0.854384 -0.55121,0.854384 -0.83027,1.529623 z m 8.50595,-0.950847 q -0.90606,1.195449 -1.75011,1.195449 -0.31006,0 -0.53399,-0.244602 -0.22393,-0.244602 -0.22393,-0.623562 0,-0.912951 0.81304,-1.943035 0.81305,-1.03353 1.63987,-1.03353 0.4203,0 0.55122,0.423747 0.39618,0 0.39618,0.303169 0,0.144694 -0.0758,0.523655 -0.1378,0.70969 -0.1378,1.133437 0,0.440972 0.0586,0.620118 0.062,0.179145 0.0896,0.234266 0.0276,0.05512 0.16537,0.117133 0.1378,0.06546 0.1378,0.182591 0,0.1757 -0.17914,0.292833 -0.1757,0.117133 -0.36863,0.117133 -0.64768,0 -0.58222,-1.298802 z m -0.2067,-1.912029 q -0.34796,0 -0.90607,0.771702 -0.55466,0.768257 -0.55466,1.305692 0,0.282498 0.11714,0.282498 0.40652,0 0.99908,-0.720025 0.596,-0.723471 0.596,-1.264351 0,-0.172255 -0.0792,-0.272163 -0.0758,-0.103353 -0.17225,-0.103353 z m 3.59667,2.191082 q -0.0138,-0.186035 -0.59255,-0.454753 -0.70969,-0.341064 -0.90606,-0.585666 -0.19637,-0.248047 -0.19637,-0.537435 0,-0.609783 0.68213,-1.064536 0.68557,-0.458198 1.27813,-0.458198 0.58222,0 0.58222,0.50643 0,0.134359 -0.13436,0.241157 -0.13091,0.106798 -0.22393,0.106798 -0.0379,0 -0.13436,-0.04823 -0.0965,-0.04823 -0.14814,-0.04823 -0.30661,0 -0.67524,0.206706 -0.36862,0.206706 -0.36862,0.482313 0,0.134359 0.13091,0.261828 0.13091,0.124023 0.53399,0.313504 0.596,0.282498 0.78548,0.509874 0.18948,0.227377 0.18948,0.502985 0,0.502984 -0.68213,0.840603 -0.67868,0.334175 -1.52618,0.334175 -0.62356,0 -0.62356,-0.451308 0,-0.165365 0.13092,-0.282498 0.13091,-0.117133 0.29283,-0.117133 0.0655,0 0.20326,0.04823 0.1378,0.05168 0.25494,0.05168 0.32384,0 0.67868,-0.103353 0.35485,-0.103353 0.46853,-0.254938 z"
         id="text4"
         style="font-weight:bold;font-size:7.05556px;font-family:'Segoe Print';-inkscape-font-specification:'Segoe Print, Bold';text-align:center;text-anchor:middle;vector-effect:non-scaling-stroke;fill:#00ff00;fill-opacity:1;fill-rule:evenodd;stroke:#00ff00;stroke-width:0.264583;stroke-dasharray:none;stroke-opacity:1;-inkscape-stroke:hairline"
         aria-label="Merry Christmas" />
      <path
         style="baseline-shift:baseline;display:inline;overflow:visible;vector-effect:non-scaling-stroke;fill:#00ff00;stroke:#00ff00;stroke-width:0.264583;stroke-linecap:round;stroke-linejoin:round;stroke-dasharray:none;stroke-opacity:1;-inkscape-stroke:hairline;enable-background:accumulate;stop-color:#000000"
         d="m 151.01425,32.458202 a 0.5,0.5 0 0 0 -0.5,0.5 v 0.82031 l -0.61328,-0.24609 a 0.5,0.5 0 0 0 -0.65039,0.27734 0.5,0.5 0 0 0 0.2793,0.65039 l 0.98437,0.39454 v 2.45312 l -1.89648,-1.0332 -0.22461,-1.57032 a 0.5,0.5 0 0 0 -0.56446,-0.42382 0.5,0.5 0 0 0 -0.42578,0.56445 l 0.11524,0.80469 -0.92969,-0.5293 a 0.5,0.5 0 0 0 -0.68164,0.18555 0.5,0.5 0 0 0 0.18555,0.68164 l 0.78711,0.44922 -0.67579,0.19336 a 0.5,0.5 0 0 0 -0.34375,0.61718 0.5,0.5 0 0 0 0.61915,0.34375 l 1.62109,-0.46093 1.86914,1.01953 -1.87109,1.01953 -1.61914,-0.46289 a 0.5,0.5 0 0 0 -0.61915,0.34375 0.5,0.5 0 0 0 0.34375,0.61719 l 0.67579,0.19335 -0.78711,0.44922 a 0.5,0.5 0 0 0 -0.18555,0.6836 0.5,0.5 0 0 0 0.68164,0.18554 l 0.92969,-0.53125 -0.11524,0.80469 a 0.5,0.5 0 0 0 0.42578,0.56641 0.5,0.5 0 0 0 0.56446,-0.42383 l 0.22461,-1.57031 1.89648,-1.03516 v 2.25 l -1.05664,0.63477 a 0.5,0.5 0 0 0 -0.16992,0.68554 0.5,0.5 0 0 0 0.68555,0.17188 l 0.54101,-0.32422 v 0.93359 a 0.5,0.5 0 0 0 0.5,0.5 0.5,0.5 0 0 0 0.5,-0.5 v -0.93359 l 0.53906,0.32422 a 0.5,0.5 0 0 0 0.6875,-0.17188 0.5,0.5 0 0 0 -0.17187,-0.68554 l -1.05469,-0.63282 v -2.25 l 1.89453,1.03321 0.22461,1.57031 a 0.5,0.5 0 0 0 0.56445,0.42383 0.5,0.5 0 0 0 0.42579,-0.56641 l -0.11524,-0.80469 0.92969,0.53125 a 0.5,0.5 0 0 0 0.68164,-0.18554 0.5,0.5 0 0 0 -0.18555,-0.6836 l -0.78711,-0.44922 0.67578,-0.19335 a 0.5,0.5 0 0 0 0.34375,-0.61719 0.5,0.5 0 0 0 -0.61914,-0.34375 l -1.61914,0.46289 -1.87109,-1.01953 1.86914,-1.01953 1.62109,0.46093 a 0.5,0.5 0 0 0 0.61914,-0.34375 0.5,0.5 0 0 0 -0.34375,-0.61718 l -0.67578,-0.19336 0.78711,-0.44922 a 0.5,0.5 0 0 0 0.18555,-0.68164 0.5,0.5 0 0 0 -0.68164,-0.18555 l -0.92969,0.5293 0.11524,-0.80469 a 0.5,0.5 0 0 0 -0.42579,-0.56445 0.5,0.5 0 0 0 -0.56445,0.42382 l -0.22461,1.57032 -1.89453,1.03125 v -2.45117 l 0.98242,-0.39454 a 0.5,0.5 0 0 0 0.2793,-0.65039 0.5,0.5 0 0 0 -0.65039,-0.27734 l -0.61133,0.24414 v -0.81836 a 0.5,0.5 0 0 0 -0.5,-0.5 z"
         id="path6" />
      <path
         style="baseline-shift:baseline;display:inline;overflow:visible;vector-effect:non-scaling-stroke;fill:#00ff00;stroke:#00ff00;stroke-width:0.264583;stroke-linecap:round;stroke-linejoin:round;stroke-dasharray:none;stroke-opacity:1;-inkscape-stroke:hairline;enable-background:accumulate;stop-color:#000000"
         d="m 108.10802,32.458202 a 0.5,0.5 0 0 0 -0.5,0.5 v 0.82031 l -0.61328,-0.24609 a 0.5,0.5 0 0 0 -0.65039,0.27734 0.5,0.5 0 0 0 0.2793,0.65039 l 0.98437,0.39454 v 2.45312 l -1.89648,-1.0332 -0.22461,-1.57032 a 0.5,0.5 0 0 0 -0.56446,-0.42382 0.5,0.5 0 0 0 -0.42578,0.56445 l 0.11524,0.80469 -0.92969,-0.5293 a 0.5,0.5 0 0 0 -0.68164,0.18555 0.5,0.5 0 0 0 0.18555,0.68164 l 0.78711,0.44922 -0.67579,0.19336 a 0.5,0.5 0 0 0 -0.34375,0.61718 0.5,0.5 0 0 0 0.61915,0.34375 l 1.62109,-0.46093 1.86914,1.01953 -1.87109,1.01953 -1.61914,-0.46289 a 0.5,0.5 0 0 0 -0.61915,0.34375 0.5,0.5 0 0 0 0.34375,0.61719 l 0.67579,0.19335 -0.78711,0.44922 a 0.5,0.5 0 0 0 -0.18555,0.6836 0.5,0.5 0 0 0 0.68164,0.18554 l 0.92969,-0.53125 -0.11524,0.80469 a 0.5,0.5 0 0 0 0.42578,0.56641 0.5,0.5 0 0 0 0.56446,-0.42383 l 0.22461,-1.57031 1.89648,-1.03516 v 2.25 l -1.05664,0.63477 a 0.5,0.5 0 0 0 -0.16992,0.68554 0.5,0.5 0 0 0 0.68555,0.17188 l 0.54101,-0.32422 v 0.93359 a 0.5,0.5 0 0 0 0.5,0.5 0.5,0.5 0 0 0 0.5,-0.5 v -0.93359 l 0.53906,0.32422 a 0.5,0.5 0 0 0 0.6875,-0.17188 0.5,0.5 0 0 0 -0.17187,-0.68554 l -1.05469,-0.63282 v -2.25 l 1.89453,1.03321 0.22461,1.57031 a 0.5,0.5 0 0 0 0.56445,0.42383 0.5,0.5 0 0 0 0.42579,-0.56641 l -0.11524,-0.80469 0.92969,0.53125 a 0.5,0.5 0 0 0 0.68164,-0.18554 0.5,0.5 0 0 0 -0.18555,-0.6836 l -0.78711,-0.44922 0.67578,-0.19335 a 0.5,0.5 0 0 0 0.34375,-0.61719 0.5,0.5 0 0 0 -0.61914,-0.34375 l -1.61914,0.46289 -1.87109,-1.01953 1.86914,-1.01953 1.62109,0.46093 a 0.5,0.5 0 0 0 0.61914,-0.34375 0.5,0.5 0 0 0 -0.34375,-0.61718 l -0.67578,-0.19336 0.78711,-0.44922 a 0.5,0.5 0 0 0 0.18555,-0.68164 0.5,0.5 0 0 0 -0.68164,-0.18555 l -0.92969,0.5293 0.11524,-0.80469 a 0.5,0.5 0 0 0 -0.42579,-0.56445 0.5,0.5 0 0 0 -0.56445,0.42382 l -0.22461,1.57032 -1.89453,1.03125 v -2.45117 l 0.98242,-0.39454 a 0.5,0.5 0 0 0 0.2793,-0.65039 0.5,0.5 0 0 0 -0.65039,-0.27734 l -0.61133,0.24414 v -0.81836 a 0.5,0.5 0 0 0 -0.5,-0.5 z"
         id="path7" />
    </g>
    <path
       id="rect7"
       style="vector-effect:non-scaling-stroke;fill:none;fill-opacity:1;fill-rule:evenodd;stroke:#ff0000;stroke-width:0.241549;stroke-dasharray:none;stroke-opacity:1;-inkscape-stroke:hairline"
       d="M 33.361271 262.33437 C 28.657497 262.33437 24.870833 266.12103 24.870833 270.82481 L 24.870833 313.84389 C 24.870833 318.54767 28.657497 322.33433 33.361271 322.33433 L 116.38049 322.33433 C 121.08426 322.33433 124.87093 318.54767 124.87093 313.84389 L 124.87093 270.82481 C 124.87093 266.12103 121.08426 262.33437 116.38049 262.33437 L 33.361271 262.33437 z M 54.871069 269.33395 L 64.870976 269.33395 L 64.870976 272.33428 L 54.871069 272.33428 L 54.871069 269.33395 z M 84.871305 269.33395 L 94.871212 269.33395 L 94.871212 272.33428 L 84.871305 272.33428 L 84.871305 269.33395 z M 32.370634 275.6948 L 34.87074 275.6948 L 34.87074 280.29555 L 32.370634 280.29555 L 32.370634 275.6948 z M 114.87051 275.6948 L 117.37061 275.6948 L 117.37061 280.29555 L 114.87051 280.29555 L 114.87051 275.6948 z M 32.371151 304.37367 L 34.871257 304.37367 L 34.871257 308.97391 L 32.371151 308.97391 L 32.371151 304.37367 z M 114.87102 304.37367 L 117.37113 304.37367 L 117.37113 308.97391 L 114.87102 308.97391 L 114.87102 304.37367 z M 54.871069 312.33494 L 64.870976 312.33494 L 64.870976 315.33527 L 54.871069 315.33527 L 54.871069 312.33494 z M 84.871305 312.33494 L 94.871212 312.33494 L 94.871212 315.33527 L 84.871305 315.33527 L 84.871305 312.33494 z "
       inkscape:export-filename="base.svg"
       inkscape:export-xdpi="96"
       inkscape:export-ydpi="96" />
  </g>
</svg>
