<?xml version="1.0" encoding="UTF-8" standalone="no"?>
<!-- Created with Inkscape (http://www.inkscape.org/) -->

<svg
   width="8.5in"
   height="11in"
   viewBox="0 0 215.9 279.4"
   version="1.1"
   id="svg1"
   inkscape:version="1.4.2 (ebf0e940, 2025-05-08)"
   sodipodi:docname="template.svg"
   xmlns:inkscape="http://www.inkscape.org/namespaces/inkscape"
   xmlns:sodipodi="http://sodipodi.sourceforge.net/DTD/sodipodi-0.dtd"
   xmlns="http://www.w3.org/2000/svg"
   xmlns:svg="http://www.w3.org/2000/svg">
  <sodipodi:namedview
     id="namedview1"
     pagecolor="#ffffff"
     bordercolor="#000000"
     borderopacity="0.25"
     inkscape:showpageshadow="2"
     inkscape:pageopacity="0.0"
     inkscape:pagecheckerboard="0"
     inkscape:deskcolor="#d1d1d1"
     inkscape:document-units="mm"
     showguides="true"
     inkscape:zoom="0.52486476"
     inkscape:cx="-43.820812"
     inkscape:cy="512.51297"
     inkscape:window-width="2176"
     inkscape:window-height="1387"
     inkscape:window-x="528"
     inkscape:window-y="25"
     inkscape:window-maximized="0"
     inkscape:current-layer="layer1"
     inkscape:lockguides="false" />
  <defs
     id="defs1" />
  <g
     inkscape:label="Layer 1"
     inkscape:groupmode="layer"
     id="layer1">
    <path
       id="path2"
       style="opacity:0.227273;fill:#000000;fill-opacity:1;stroke:#000000;stroke-width:0.264583;stroke-dasharray:none"
       inkscape:transform-center-x="-6.9649382e-06"
       inkscape:transform-center-y="-4.03401"
       d="M 53.488869,60.740987 13.31189,100.91838 33.488436,135.86571 h 8.161155 V 115.4378 c 2.4e-5,-5.65501 5.30062,-10.23931 11.839278,-10.23937 6.538658,6e-5 11.839254,4.58436 11.839278,10.23937 v 20.42787 h 8.161155 l 20.176549,-34.94729 z"
       sodipodi:nodetypes="ccccccscccc" />
    <path
       id="rect5"
       style="opacity:0.227273;fill:#000000;fill-opacity:1;stroke:#000000;stroke-width:0.264583"
       d="m 9.5417689,229.95278 v 39.89059 H 89.112629 v -39.89059 z m 8.7932601,7.70031 h 23.58461 v 19.58433 h -23.58461 z m 38.39973,0 h 23.5846 v 19.58433 h -23.5846 z"
       sodipodi:nodetypes="ccccccccccccccc" />
    <path
       id="rect9"
       style="opacity:0.227273;fill:#000000;fill-opacity:1;stroke:#000000;stroke-width:0.245381;stroke-dasharray:none"
       d="m 6.4178179,150.27226 c 0,0 0.0158,54.96652 0.01654,59.75181 0.0011,6.09929 4.4159651,9.71978 9.8614151,9.7193 5.44137,-3.7e-4 9.85393,-4.34609 9.85986,-9.71052 0.007,5.36462 4.419847,9.70996 9.861407,9.70949 5.44485,-6.5e-4 9.85863,-4.35196 9.85935,-9.71982 v 0 c 7.2e-4,5.36865 4.41575,9.72029 9.86141,9.71982 5.44505,-3.7e-4 9.85915,-4.35176 9.85987,-9.71982 v 0 c 7.2e-4,5.36865 4.41575,9.72029 9.86141,9.71982 5.39148,-0.005 9.77957,-4.27741 9.85108,-9.59218 0.0715,5.31556 4.46086,9.58866 9.85314,9.59218 5.44567,-3.7e-4 9.86002,-4.35271 9.85987,-9.72137 h 0.0165 v -59.74871 z"
       sodipodi:nodetypes="cccccsccscccccccc" />
    <path
       id="path23"
       style="opacity:0.227273;fill:#000000;fill-opacity:1;stroke:#000000;stroke-width:0.264583;stroke-dasharray:none"
       inkscape:transform-center-x="-6.9649382e-06"
       inkscape:transform-center-y="-4.03401"
       d="m 188.61675,139.11194 20.17654,-34.94727 -40.17698,-40.177401 -40.17698,40.177401 20.17655,34.94731"
       sodipodi:nodetypes="ccccc" />
    <path
       id="path24"
       style="opacity:0.227273;fill:#000000;fill-opacity:1;stroke:#000000;stroke-width:0.245381;stroke-dasharray:none"
       d="m 112.06565,150.32517 c 0,0 0.0158,54.96651 0.0165,59.7518 0.001,6.09929 4.41597,9.71978 9.86142,9.7193 5.44137,-3.7e-4 9.85393,-4.3461 9.85986,-9.71052 0.007,5.36462 4.41985,9.70996 9.86141,9.70949 5.44485,-6.5e-4 9.85863,-4.35196 9.85935,-9.71982 v 0 c 7.2e-4,5.36865 4.41575,9.72029 9.86141,9.71982 5.44505,-3.7e-4 9.85915,-4.35176 9.85987,-9.71982 v 0 c 7.2e-4,5.36865 4.41575,9.72029 9.86141,9.71982 5.39148,-0.005 9.77957,-4.27741 9.85108,-9.59218 0.0715,5.31556 4.46086,9.58865 9.85314,9.59218 5.44567,-3.7e-4 9.86002,-4.35271 9.85987,-9.72137 h 0.0165 v -59.7487 z"
       sodipodi:nodetypes="cccccsccscccccccc" />
    <path
       id="path25"
       style="opacity:0.227273;fill:#000000;fill-opacity:1;stroke:#000000;stroke-width:0.264583"
       d="m 122.90706,229.95278 v 39.89059 h 79.57086 v -39.89059 z m 8.79326,7.70031 h 23.58461 v 19.58433 h -23.58461 z m 38.39973,0 h 23.5846 v 19.58433 h -23.5846 z"
       sodipodi:nodetypes="ccccccccccccccc" />
    <path
       id="path26"
       style="opacity:0.227273;fill:#000000;fill-opacity:1;stroke:#000000;stroke-width:0.264583;stroke-dasharray:none"
       d="m 51.230095,32.328795 -42.2744214,42.274423 -0.06821,7.82743 c -0.0452,5.17617 2.3505534,2.87681 3.6581744,-2.38642 1.408096,-5.66764 3.404933,-10.001928 3.622518,-3.13366 0.192116,6.0643 1.788262,6.51079 3.311942,-2.8236 0.765567,-4.690029 2.482964,-10.388322 3.586861,-3.015318 1.728387,11.544018 2.297429,-12.876751 3.733623,-4.751648 1.34199,7.592156 2.836268,6.172046 3.780131,-3.240629 0.66211,-6.602887 3.467576,-9.897667 3.523816,-3.276803 0.09102,10.716141 3.061887,3.370177 3.969266,-2.958993 1.772131,-12.361007 2.38794,10.89028 4.105693,-3.448368 0.552029,-4.607964 0.666286,-10.64481 2.694409,-3.506246 2.029384,7.143003 2.958774,-4.382617 3.379639,-7.114294 0.615994,-3.998188 1.038696,5.636348 2.976562,5.636348 1.937866,0 2.360569,-9.634536 2.976563,-5.636348 0.420865,2.731677 1.350254,14.257297 3.379638,7.114294 2.028123,-7.138564 2.142381,-1.101718 2.69441,3.506246 1.717753,14.338648 2.333567,-8.912639 4.105691,3.448368 0.90738,6.32917 3.87827,13.675134 3.96927,2.958993 0.05624,-6.620864 2.8617,-3.326084 3.52381,3.276803 0.94386,9.412675 2.43814,10.832785 3.78013,3.240629 1.43619,-8.125103 2.00524,16.295666 3.73363,4.751648 1.1039,-7.373004 2.82129,-1.674711 3.58686,3.015318 1.52368,9.33439 3.11983,8.8879 3.31194,2.8236 0.21759,-6.868268 2.21442,-2.53398 3.62252,3.13366 1.30762,5.26323 3.70337,7.56259 3.65817,2.38642 l -0.06821,-7.82743 z" />
    <path
       id="path26-4"
       style="opacity:0.227273;fill:#000000;fill-opacity:1;stroke:#000000;stroke-width:0.264583;stroke-dasharray:none"
       d="m 166.48302,28.947004 -42.27442,42.274423 -0.0682,7.82743 c -0.0452,5.17617 2.35055,2.87681 3.65817,-2.38642 1.4081,-5.66764 3.40494,-10.001928 3.62252,-3.13366 0.19212,6.0643 1.78826,6.51079 3.31194,-2.8236 0.76557,-4.690029 2.48297,-10.388322 3.58687,-3.015318 1.72838,11.544018 2.29742,-12.876751 3.73362,-4.751648 1.34199,7.592156 2.83627,6.172046 3.78013,-3.240629 0.66211,-6.602887 3.46758,-9.897667 3.52382,-3.276803 0.091,10.716141 3.06188,3.370177 3.96926,-2.958993 1.77213,-12.361007 2.38794,10.89028 4.10569,-3.448368 0.55203,-4.607964 0.66629,-10.64481 2.69441,-3.506246 2.02939,7.143003 2.95878,-4.382617 3.37964,-7.114294 0.616,-3.998188 1.0387,5.636348 2.97656,5.636348 1.93787,0 2.36057,-9.634536 2.97657,-5.636348 0.42086,2.731677 1.35025,14.257297 3.37964,7.114294 2.02812,-7.138564 2.14238,-1.101718 2.69441,3.506246 1.71775,14.338648 2.33356,-8.912639 4.10569,3.448368 0.90738,6.32917 3.87827,13.675134 3.96927,2.958993 0.0562,-6.620864 2.8617,-3.326084 3.52381,3.276803 0.94386,9.412675 2.43814,10.832785 3.78013,3.240629 1.43619,-8.125103 2.00524,16.295666 3.73363,4.751648 1.1039,-7.373004 2.82129,-1.674711 3.58686,3.015318 1.52368,9.33439 3.11983,8.8879 3.31194,2.8236 0.21759,-6.868268 2.21442,-2.53398 3.62252,3.13366 1.30762,5.26323 3.70337,7.56259 3.65817,2.38642 l -0.0682,-7.82743 z" />
  </g>
</svg>
