<?xml version="1.0" encoding="UTF-8" standalone="no"?>
<!-- Created with Inkscape (http://www.inkscape.org/) -->

<svg
   width="420mm"
   height="594mm"
   viewBox="0 0 420 594"
   version="1.1"
   id="svg1"
   inkscape:version="1.4.2 (ebf0e940, 2025-05-08)"
   sodipodi:docname="template.svg"
   inkscape:export-filename="tab.svg"
   inkscape:export-xdpi="96"
   inkscape:export-ydpi="96"
   xmlns:inkscape="http://www.inkscape.org/namespaces/inkscape"
   xmlns:sodipodi="http://sodipodi.sourceforge.net/DTD/sodipodi-0.dtd"
   xmlns="http://www.w3.org/2000/svg"
   xmlns:svg="http://www.w3.org/2000/svg">
  <sodipodi:namedview
     id="namedview1"
     pagecolor="#a0a0a0"
     bordercolor="#c0c0c0"
     borderopacity="0.25098039"
     inkscape:showpageshadow="2"
     inkscape:pageopacity="0.0"
     inkscape:pagecheckerboard="false"
     inkscape:deskcolor="#909090"
     inkscape:document-units="mm"
     showguides="true"
     inkscape:zoom="0.36682487"
     inkscape:cx="342.12511"
     inkscape:cy="1204.9347"
     inkscape:window-width="1880"
     inkscape:window-height="1274"
     inkscape:window-x="259"
     inkscape:window-y="-358"
     inkscape:window-maximized="0"
     inkscape:current-layer="layer1"
     inkscape:lockguides="false"
     showgrid="false"
     showborder="false">
    <inkscape:grid
       id="grid13"
       units="mm"
       originx="0"
       originy="0"
       spacingx="0.99999998"
       spacingy="1"
       empcolor="#0099e5"
       empopacity="0.30196078"
       color="#0099e5"
       opacity="0.14901961"
       empspacing="5"
       enabled="true"
       visible="false" />
  </sodipodi:namedview>
  <defs
     id="defs1">
    <inkscape:path-effect
       effect="fillet_chamfer"
       id="path-effect31"
       is_visible="true"
       lpeversion="1"
       nodesatellites_param="F,0,0,1,0,0,0,1 @ F,0,0,1,0,11.999022,0,1 @ F,0,0,1,0,0,0,1 @ F,0,0,1,0,0,0,1 @ F,0,0,1,0,0,0,1 @ F,0,0,1,0,0,0,1 @ F,0,0,1,0,0,0,1 @ F,0,0,1,0,0,0,1 @ F,0,0,1,0,0,0,1 @ F,0,0,1,0,0,0,1 @ F,0,0,1,0,0,0,1 @ F,0,0,1,0,0,0,1 @ F,0,0,1,0,0,0,1 @ F,0,0,1,0,0,0,1 @ F,0,0,1,0,0,0,1 @ F,0,0,1,0,0,0,1 @ F,0,0,1,0,0,0,1 @ F,0,0,1,0,0,0,1 @ F,0,0,1,0,0,0,1 @ F,0,0,1,0,0,0,1 @ F,0,0,1,0,0,0,1 @ F,0,0,1,0,0,0,1 @ F,0,0,1,0,0,0,1 @ F,0,0,1,0,0,0,1 @ F,0,0,1,0,0,0,1 @ F,0,0,1,0,0,0,1 @ F,0,0,1,0,0,0,1 @ F,0,0,1,0,0,0,1 @ F,0,0,1,0,0,0,1 @ F,0,0,1,0,0,0,1 @ F,0,0,1,0,0,0,1 | F,0,0,1,0,0,0,1 @ F,0,0,1,0,0,0,1 @ F,0,0,1,0,0,0,1 @ F,0,0,1,0,0,0,1 | F,0,0,1,0,0,0,1 @ F,0,0,1,0,0,0,1 @ F,0,0,1,0,0,0,1 @ F,0,0,1,0,0,0,1 | F,0,0,1,0,0,0,1 @ F,0,0,1,0,0,0,1 @ F,0,0,1,0,0,0,1 @ F,0,0,1,0,0,0,1 | F,0,0,1,0,0,0,1 @ F,0,0,1,0,0,0,1 @ F,0,0,1,0,0,0,1 @ F,0,0,1,0,0,0,1"
       radius="0"
       unit="px"
       method="auto"
       mode="F"
       chamfer_steps="1"
       flexible="false"
       use_knot_distance="true"
       apply_no_radius="true"
       apply_with_radius="true"
       only_selected="false"
       hide_knots="false" />
    <inkscape:path-effect
       effect="fillet_chamfer"
       id="path-effect30"
       is_visible="true"
       lpeversion="1"
       nodesatellites_param="F,0,0,1,0,0,0,1 @ F,0,0,1,0,15.495876,0,1 @ F,0,0,1,0,0,0,1 @ F,0,0,1,0,0,0,1 @ F,0,0,1,0,0,0,1 @ F,0,0,1,0,0,0,1 @ F,0,0,1,0,0,0,1 @ F,0,0,1,0,0,0,1 @ F,0,0,1,0,0,0,1 @ F,0,0,1,0,0,0,1 @ F,0,0,1,0,0,0,1 @ F,0,0,1,0,0,0,1 @ F,0,0,1,0,0,0,1 @ F,0,0,1,0,0,0,1 @ F,0,0,1,0,0,0,1 @ F,0,0,1,0,0,0,1 @ F,0,0,1,0,0,0,1 @ F,0,0,1,0,0,0,1 @ F,0,0,1,0,0,0,1 @ F,0,0,1,0,0,0,1 @ F,0,0,1,0,0,0,1 @ F,0,0,1,0,0,0,1 @ F,0,0,1,0,0,0,1 @ F,0,0,1,0,0,0,1 @ F,0,0,1,0,0,0,1 @ F,0,0,1,0,0,0,1 @ F,0,0,1,0,0,0,1 @ F,0,0,1,0,0,0,1 @ F,0,0,1,0,0,0,1 @ F,0,0,1,0,0,0,1 @ F,0,0,1,0,0,0,1 | F,0,0,1,0,0,0,1 @ F,0,0,1,0,0,0,1 @ F,0,0,1,0,0,0,1 @ F,0,0,1,0,0,0,1 | F,0,0,1,0,0,0,1 @ F,0,0,1,0,0,0,1 @ F,0,0,1,0,0,0,1 @ F,0,0,1,0,0,0,1 | F,0,0,1,0,0,0,1 @ F,0,0,1,0,0,0,1 @ F,0,0,1,0,0,0,1 @ F,0,0,1,0,0,0,1 | F,0,0,1,0,0,0,1 @ F,0,0,1,0,0,0,1 @ F,0,0,1,0,0,0,1 @ F,0,0,1,0,0,0,1"
       radius="0"
       unit="px"
       method="auto"
       mode="F"
       chamfer_steps="1"
       flexible="false"
       use_knot_distance="true"
       apply_no_radius="true"
       apply_with_radius="true"
       only_selected="false"
       hide_knots="false" />
    <inkscape:path-effect
       effect="fillet_chamfer"
       id="path-effect21"
       is_visible="true"
       lpeversion="1"
       nodesatellites_param="F,0,0,1,0,0,0,1 @ F,0,0,1,0,0,0,1 @ F,0,0,1,0,0,0,1 @ F,0,0,1,0,0,0,1 @ F,0,0,1,0,0.65408706,0,1 @ F,0,1,1,0,0.65408706,0,1 @ F,0,0,1,0,0,0,1 @ F,0,0,1,0,0,0,1 @ F,0,1,1,0,0.65408706,0,1 @ F,0,1,1,0,0.65408706,0,1 @ F,0,0,1,0,0,0,1 @ F,0,0,1,0,0,0,1 @ F,0,0,1,0,0,0,1 @ F,0,0,1,0,0,0,1 @ F,0,0,1,0,0,0,1 @ F,0,0,1,0,0,0,1 @ F,0,0,1,0,0,0,1 @ F,0,0,1,0,0,0,1 @ F,0,0,1,0,0,0,1 @ F,0,0,1,0,0,0,1 @ F,0,0,1,0,0,0,1 @ F,0,0,1,0,0,0,1 @ F,0,0,1,0,0,0,1 @ F,0,0,1,0,0,0,1 @ F,0,0,1,0,0,0,1 @ F,0,0,1,0,0,0,1 @ F,0,0,1,0,0,0,1 @ F,0,0,1,0,0,0,1 @ F,0,0,1,0,0,0,1 @ F,0,0,1,0,0,0,1 @ F,0,0,1,0,0,0,1 @ F,0,1,1,0,0.65408706,0,1 @ F,0,1,1,0,0.65408706,0,1 @ F,0,0,1,0,0,0,1 @ F,0,0,1,0,0,0,1 @ F,0,1,1,0,0.65408706,0,1 @ F,0,1,1,0,0.65408706,0,1 @ F,0,0,1,0,0,0,1 @ F,0,0,1,0,0,0,1 @ F,0,0,1,0,0,0,1 @ F,0,0,1,0,0,0,1 @ F,0,0,1,0,0,0,1 @ F,0,0,1,0,0,0,1 @ F,0,0,1,0,0,0,1 @ F,0,0,1,0,0,0,1 @ F,0,0,1,0,0,0,1 @ F,0,0,1,0,0,0,1 @ F,0,0,1,0,0,0,1 | F,0,0,1,0,0,0,1 @ F,0,0,1,0,0,0,1 @ F,0,0,1,0,0,0,1 @ F,0,0,1,0,0,0,1 | F,0,0,1,0,0,0,1 @ F,0,0,1,0,0,0,1 @ F,0,0,1,0,0,0,1 @ F,0,0,1,0,0,0,1 | F,0,0,1,0,0,0,1 @ F,0,0,1,0,0,0,1 @ F,0,0,1,0,0,0,1 @ F,0,0,1,0,0,0,1 | F,0,0,1,0,0,0,1 @ F,0,0,1,0,0,0,1 @ F,0,0,1,0,0,0,1 @ F,0,0,1,0,0,0,1 | F,0,0,1,0,0,0,1 @ F,0,0,1,0,0,0,1 @ F,0,0,1,0,0,0,1 @ F,0,0,1,0,0,0,1 | F,0,0,1,0,0,0,1 @ F,0,0,1,0,0,0,1 @ F,0,0,1,0,0,0,1 @ F,0,0,1,0,0,0,1"
       radius="0"
       unit="px"
       method="auto"
       mode="F"
       chamfer_steps="1"
       flexible="false"
       use_knot_distance="true"
       apply_no_radius="true"
       apply_with_radius="true"
       only_selected="false"
       hide_knots="false" />
    <inkscape:path-effect
       effect="fillet_chamfer"
       id="path-effect20"
       is_visible="true"
       lpeversion="1"
       nodesatellites_param="F,0,0,1,0,0,0,1 @ F,0,0,1,0,0,0,1 @ F,0,0,1,0,0,0,1 @ F,0,0,1,0,0,0,1 @ F,0,0,1,0,0,0,1 @ F,0,0,1,0,0,0,1 @ F,0,0,1,0,0,0,1 @ F,0,0,1,0,0,0,1 @ F,0,0,1,0,0,0,1 @ F,0,0,1,0,0,0,1 @ F,0,0,1,0,0,0,1 @ F,0,0,1,0,0,0,1 @ F,0,0,1,0,0,0,1 @ F,0,0,1,0,0,0,1 @ F,0,0,1,0,0,0,1 @ F,0,0,1,0,0,0,1 @ F,0,0,1,0,0,0,1 @ F,0,0,1,0,0,0,1 @ F,0,0,1,0,0,0,1 @ F,0,0,1,0,0,0,1 @ F,0,0,1,0,0,0,1 @ F,0,0,1,0,0,0,1 @ F,0,0,1,0,0,0,1 @ F,0,0,1,0,0,0,1 @ F,0,0,1,0,0,0,1 @ F,0,0,1,0,0,0,1 @ F,0,0,1,0,0,0,1 @ F,0,0,1,0,0,0,1 @ F,0,0,1,0,0,0,1 @ F,0,0,1,0,0,0,1 @ F,0,0,1,0,0,0,1 @ F,0,0,1,0,0,0,1 @ F,0,0,1,0,0,0,1 @ F,0,0,1,0,0,0,1 @ F,0,0,1,0,0,0,1 @ F,0,0,1,0,0,0,1 @ F,0,0,1,0,0,0,1 @ F,0,0,1,0,0,0,1 @ F,0,0,1,0,0,0,1 @ F,0,1,1,0,0,0,1 @ F,0,1,1,0,0,0,1 @ F,0,0,1,0,0,0,1 @ F,0,0,1,0,0,0,1 @ F,0,1,1,0,0,0,1 @ F,0,1,1,0,0,0,1 @ F,0,0,1,0,0,0,1 @ F,0,0,1,0,0,0,1 @ F,0,1,1,0,0,0,1 | F,0,0,1,0,0,0,1 @ F,0,0,1,0,0,0,1 @ F,0,0,1,0,0,0,1 @ F,0,0,1,0,0,0,1 | F,0,0,1,0,0,0,1 @ F,0,0,1,0,0,0,1 @ F,0,0,1,0,0,0,1 @ F,0,0,1,0,0,0,1 | F,0,0,1,0,0,0,1 @ F,0,0,1,0,0,0,1 @ F,0,0,1,0,0,0,1 @ F,0,0,1,0,0,0,1 | F,0,0,1,0,0,0,1 @ F,0,0,1,0,0,0,1 @ F,0,0,1,0,0,0,1 @ F,0,0,1,0,0,0,1 | F,0,0,1,0,0,0,1 @ F,0,0,1,0,0,0,1 @ F,0,0,1,0,0,0,1 @ F,0,0,1,0,0,0,1 | F,0,0,1,0,0,0,1 @ F,0,0,1,0,0,0,1 @ F,0,0,1,0,0,0,1 @ F,0,0,1,0,0,0,1"
       radius="0"
       unit="px"
       method="auto"
       mode="F"
       chamfer_steps="1"
       flexible="false"
       use_knot_distance="true"
       apply_no_radius="true"
       apply_with_radius="true"
       only_selected="false"
       hide_knots="false" />
    <inkscape:path-effect
       effect="fillet_chamfer"
       id="path-effect19"
       is_visible="true"
       lpeversion="1"
       nodesatellites_param="F,0,0,1,0,0.86510736,0,1 @ F,0,1,1,0,0.86510736,0,1 @ F,0,0,1,0,0,0,1 @ F,0,0,1,0,0,0,1 @ F,0,1,1,0,0.86510736,0,1 @ F,0,1,1,0,0.86510736,0,1 @ F,0,0,1,0,0,0,1 @ F,0,0,1,0,0,0,1 @ F,0,0,1,0,0,0,1 @ F,0,0,1,0,0,0,1 @ F,0,0,1,0,0,0,1 @ F,0,0,1,0,0,0,1 @ F,0,0,1,0,0,0,1 @ F,0,0,1,0,0,0,1 @ F,0,0,1,0,0,0,1 @ F,0,0,1,0,0,0,1 @ F,0,0,1,0,0,0,1 @ F,0,0,1,0,0,0,1 @ F,0,0,1,0,0,0,1 @ F,0,0,1,0,0,0,1 @ F,0,0,1,0,0,0,1 @ F,0,0,1,0,0,0,1 @ F,0,0,1,0,0,0,1 @ F,0,0,1,0,0,0,1 @ F,0,0,1,0,0,0,1 @ F,0,0,1,0,0,0,1 @ F,0,0,1,0,0,0,1 @ F,0,0,1,0,0,0,1 @ F,0,0,1,0,0,0,1 @ F,0,0,1,0,0,0,1 @ F,0,0,1,0,0,0,1 @ F,0,0,1,0,0,0,1 @ F,0,0,1,0,0,0,1 @ F,0,0,1,0,0,0,1 @ F,0,0,1,0,0,0,1 @ F,0,0,1,0,0,0,1 @ F,0,0,1,0,0,0,1 @ F,0,0,1,0,0,0,1 @ F,0,0,1,0,0,0,1 @ F,0,0,1,0,0,0,1 @ F,0,1,1,0,0.86510736,0,1 @ F,0,1,1,0,0.86510736,0,1 @ F,0,0,1,0,0,0,1 @ F,0,0,1,0,0,0,1 @ F,0,1,1,0,0.86510736,0,1 @ F,0,1,1,0,0.86510736,0,1 @ F,0,0,1,0,0,0,1 @ F,0,0,1,0,0,0,1 @ F,0,0,1,0,0,0,1"
       radius="0"
       unit="px"
       method="auto"
       mode="F"
       chamfer_steps="1"
       flexible="false"
       use_knot_distance="true"
       apply_no_radius="true"
       apply_with_radius="true"
       only_selected="false"
       hide_knots="false" />
    <inkscape:path-effect
       effect="fillet_chamfer"
       id="path-effect18"
       is_visible="true"
       lpeversion="1"
       nodesatellites_param="F,0,0,1,0,0.59980932,0,1 @ F,0,1,1,0,0.59980932,0,1 @ F,0,0,1,0,0,0,1 @ F,0,0,1,0,0,0,1 @ F,0,1,1,0,0.59980932,0,1 @ F,0,1,1,0,0.59980932,0,1 @ F,0,0,1,0,0,0,1 @ F,0,0,1,0,0,0,1 @ F,0,0,1,0,0,0,1 @ F,0,0,1,0,0,0,1 @ F,0,0,1,0,0,0,1 @ F,0,0,1,0,0,0,1 @ F,0,0,1,0,0,0,1 @ F,0,0,1,0,0,0,1 @ F,0,0,1,0,0,0,1 @ F,0,0,1,0,0,0,1 @ F,0,0,1,0,0,0,1 @ F,0,0,1,0,0,0,1 @ F,0,0,1,0,0,0,1 @ F,0,0,1,0,0,0,1 @ F,0,0,1,0,0,0,1 @ F,0,0,1,0,0,0,1 @ F,0,0,1,0,0,0,1 @ F,0,0,1,0,0,0,1 @ F,0,0,1,0,0,0,1 @ F,0,0,1,0,0,0,1 @ F,0,0,1,0,0,0,1 @ F,0,0,1,0,0,0,1 @ F,0,0,1,0,0,0,1 @ F,0,0,1,0,0,0,1 @ F,0,0,1,0,0,0,1 @ F,0,0,1,0,0,0,1 @ F,0,0,1,0,0,0,1 @ F,0,0,1,0,0,0,1 @ F,0,0,1,0,0,0,1 @ F,0,0,1,0,0,0,1 @ F,0,0,1,0,0,0,1 @ F,0,0,1,0,0,0,1 @ F,0,0,1,0,0,0,1 @ F,0,1,1,0,0.59980932,0,1 @ F,0,1,1,0,0.59980932,0,1 @ F,0,0,1,0,0,0,1 @ F,0,0,1,0,0,0,1 @ F,0,1,1,0,0.59980932,0,1 @ F,0,1,1,0,0.59980932,0,1 @ F,0,0,1,0,0,0,1 @ F,0,0,1,0,0,0,1 @ F,0,0,1,0,0,0,1"
       radius="0"
       unit="px"
       method="auto"
       mode="F"
       chamfer_steps="1"
       flexible="false"
       use_knot_distance="true"
       apply_no_radius="true"
       apply_with_radius="true"
       only_selected="false"
       hide_knots="false" />
    <inkscape:path-effect
       effect="fillet_chamfer"
       id="path-effect17"
       is_visible="true"
       lpeversion="1"
       nodesatellites_param="F,0,1,1,0,0.71736501,0,1 @ F,0,1,1,0,0.71736501,0,1 @ F,0,0,1,0,0,0,1 @ F,0,0,1,0,0,0,1 @ F,0,1,1,0,0.71736501,0,1 @ F,0,1,1,0,0.71736501,0,1 @ F,0,0,1,0,0,0,1 @ F,0,0,1,0,0,0,1 @ F,0,0,1,0,0,0,1 @ F,0,0,1,0,0,0,1 @ F,0,0,1,0,0,0,1 @ F,0,0,1,0,0,0,1 @ F,0,0,1,0,0,0,1 @ F,0,0,1,0,0,0,1 @ F,0,0,1,0,0,0,1 @ F,0,0,1,0,0,0,1 @ F,0,0,1,0,0,0,1 @ F,0,0,1,0,0,0,1 @ F,0,0,1,0,0,0,1 @ F,0,0,1,0,0,0,1 @ F,0,0,1,0,0,0,1 @ F,0,0,1,0,0,0,1 @ F,0,0,1,0,0,0,1 @ F,0,0,1,0,0,0,1 @ F,0,0,1,0,0,0,1 @ F,0,0,1,0,0,0,1 @ F,0,0,1,0,0,0,1 @ F,0,0,1,0,0,0,1 @ F,0,0,1,0,0,0,1 @ F,0,0,1,0,0,0,1 @ F,0,0,1,0,0,0,1 @ F,0,0,1,0,0,0,1 @ F,0,0,1,0,0,0,1 @ F,0,0,1,0,0,0,1 @ F,0,0,1,0,0,0,1 @ F,0,0,1,0,0,0,1 @ F,0,0,1,0,0,0,1 @ F,0,0,1,0,0,0,1 @ F,0,0,1,0,0,0,1 @ F,0,1,1,0,0.71736501,0,1 @ F,0,1,1,0,0.71736501,0,1 @ F,0,0,1,0,0,0,1 @ F,0,0,1,0,0,0,1 @ F,0,1,1,0,0.71736501,0,1 @ F,0,0,1,0,0.71736501,0,1 @ F,0,0,1,0,0,0,1 @ F,0,0,1,0,0,0,1 @ F,0,0,1,0,0,0,1"
       radius="0"
       unit="px"
       method="auto"
       mode="F"
       chamfer_steps="1"
       flexible="false"
       use_knot_distance="true"
       apply_no_radius="true"
       apply_with_radius="true"
       only_selected="false"
       hide_knots="false" />
    <inkscape:path-effect
       effect="fillet_chamfer"
       id="path-effect16"
       nodesatellites_param="F,0,0,1,0,0,0,1 @ F,0,0,1,0,0,0,1 @ F,0,0,1,0,0,0,1 @ F,0,0,1,0,0,0,1 @ F,0,0,1,0,0,0,1 @ F,0,0,1,0,0,0,1 @ F,0,0,1,0,0,0,1 @ F,0,0,1,0,0,0,1 @ F,0,0,1,0,0,0,1 @ F,0,0,1,0,0,0,1 @ F,0,0,1,0,0,0,1 @ F,0,0,1,0,0,0,1 @ F,0,0,1,0,0,0,1 @ F,0,0,1,0,0,0,1 @ F,0,0,1,0,0,0,1 @ F,0,0,1,0,0,0,1 @ F,0,0,1,0,0,0,1 @ F,0,0,1,0,0,0,1 @ F,0,0,1,0,0,0,1 @ F,0,0,1,0,0,0,1 @ F,0,0,1,0,0,0,1 @ F,0,0,1,0,0,0,1 @ F,0,0,1,0,0,0,1 @ F,0,0,1,0,0,0,1 @ F,0,0,1,0,0,0,1 @ F,0,0,1,0,0,0,1 @ F,0,0,1,0,0,0,1 @ F,0,0,1,0,0,0,1 @ F,0,0,1,0,0,0,1 @ F,0,0,1,0,0,0,1 @ F,0,0,1,0,0,0,1 @ F,0,0,1,0,0,0,1 @ F,0,0,1,0,0,0,1 @ F,0,0,1,0,0,0,1 @ F,0,0,1,0,0,0,1 @ F,0,0,1,0,0,0,1 @ F,0,0,1,0,0,0,1 @ F,0,0,1,0,0,0,1 @ F,0,0,1,0,0,0,1 @ F,0,0,1,0,0,0,1 @ F,0,0,1,0,0,0,1 @ F,0,0,1,0,0,0,1 @ F,0,0,1,0,0,0,1 @ F,0,0,1,0,0,0,1 @ F,0,0,1,0,0,0,1 @ F,0,0,1,0,0,0,1 @ F,0,0,1,0,0,0,1 @ F,0,0,1,0,0,0,1"
       is_visible="true"
       lpeversion="1"
       radius="0"
       unit="px"
       method="auto"
       mode="F"
       chamfer_steps="1"
       flexible="false"
       use_knot_distance="true"
       apply_no_radius="true"
       apply_with_radius="true"
       only_selected="false"
       hide_knots="false" />
    <rect
       x="422.23398"
       y="322.14398"
       width="135.88377"
       height="105.39278"
       id="rect4" />
    <inkscape:path-effect
       effect="fillet_chamfer"
       id="path-effect10"
       is_visible="true"
       lpeversion="1"
       nodesatellites_param="F,0,0,1,0,0,0,1 @ F,0,0,1,0,0,0,1 @ F,0,0,1,0,0,0,1 @ F,0,0,1,0,0,0,1 | F,0,0,1,0,0,0,1 @ F,0,0,1,0,0,0,1 @ F,0,0,1,0,0,0,1 @ F,0,0,1,0,0,0,1 | F,0,0,1,0,0,0,1 @ F,0,0,1,0,0,0,1 @ F,0,0,1,0,0,0,1 @ F,0,0,1,0,0,0,1 | F,0,0,1,0,0,0,1 @ F,0,0,1,0,0,0,1 @ F,0,0,1,0,0,0,1 @ F,0,0,1,0,0,0,1 | F,0,0,1,0,0,0,1 @ F,0,0,1,0,0,0,1 @ F,0,0,1,0,0,0,1 @ F,0,0,1,0,0,0,1 | F,0,0,1,0,0,0,1 @ F,0,0,1,0,0,0,1 @ F,0,0,1,0,0,0,1 @ F,0,0,1,0,0,0,1 | F,0,0,1,0,0,0,1 @ F,0,0,1,0,0,0,1 @ F,0,0,1,0,0,0,1 @ F,0,0,1,0,0,0,1 | F,0,0,1,0,0,0,1 @ F,0,0,1,0,0,0,1 @ F,0,0,1,0,0,0,1 @ F,0,0,1,0,0,0,1"
       radius="0"
       unit="px"
       method="auto"
       mode="F"
       chamfer_steps="1"
       flexible="false"
       use_knot_distance="true"
       apply_no_radius="true"
       apply_with_radius="true"
       only_selected="false"
       hide_knots="false" />
    <inkscape:path-effect
       effect="fillet_chamfer"
       id="path-effect9"
       is_visible="true"
       lpeversion="1"
       nodesatellites_param="F,0,0,1,0,0.59143056,0,1 @ F,0,0,1,0,0,0,1 @ F,0,0,1,0,0,0,1 @ F,0,0,1,0,0,0,1 @ F,0,0,1,0,0,0,1 @ F,0,0,1,0,0,0,1 @ F,0,0,1,0,0,0,1 @ F,0,0,1,0,0,0,1 @ F,0,0,1,0,0,0,1 @ F,0,0,1,0,0,0,1 @ F,0,0,1,0,0,0,1 @ F,0,0,1,0,0,0,1 @ F,0,0,1,0,0,0,1 @ F,0,0,1,0,0,0,1 @ F,0,0,1,0,0,0,1 @ F,0,1,1,0,0.59143056,0,1 @ F,0,1,1,0,0.59143056,0,1 @ F,0,0,1,0,0,0,1 @ F,0,0,1,0,0,0,1 @ F,0,1,1,0,0.59143056,0,1 @ F,0,1,1,0,0.59143056,0,1 @ F,0,0,1,0,0,0,1 @ F,0,0,1,0,0,0,1 @ F,0,0,1,0,0,0,1 @ F,0,0,1,0,0,0,1 @ F,0,0,1,0,0,0,1 @ F,0,0,1,0,0,0,1 @ F,0,0,1,0,0,0,1 @ F,0,0,1,0,0,0,1 @ F,0,0,1,0,0,0,1 @ F,0,0,1,0,0,0,1 @ F,0,0,1,0,0,0,1 @ F,0,0,1,0,0,0,1 @ F,0,0,1,0,0,0,1 @ F,0,0,1,0,0,0,1 @ F,0,1,1,0,0.59143056,0,1 @ F,0,1,1,0,0.59143056,0,1 @ F,0,0,1,0,0,0,1 @ F,0,0,1,0,0,0,1 @ F,0,1,1,0,0.59143056,0,1 | F,0,0,1,0,0,0,1 @ F,0,0,1,0,0,0,1 @ F,0,0,1,0,0,0,1 @ F,0,0,1,0,0,0,1 | F,0,0,1,0,0,0,1 @ F,0,0,1,0,0,0,1 @ F,0,0,1,0,0,0,1 @ F,0,0,1,0,0,0,1"
       radius="0"
       unit="px"
       method="auto"
       mode="F"
       chamfer_steps="1"
       flexible="false"
       use_knot_distance="true"
       apply_no_radius="true"
       apply_with_radius="true"
       only_selected="false"
       hide_knots="false" />
    <inkscape:path-effect
       effect="fillet_chamfer"
       id="path-effect2"
       is_visible="true"
       lpeversion="1"
       nodesatellites_param="F,0,1,1,0,0.54442367,0,1 @ F,0,0,1,0,0,0,1 @ F,0,0,1,0,0,0,1 @ F,0,0,1,0,0,0,1 @ F,0,1,1,0,0.54442367,0,1 @ F,0,1,1,0,0.54442367,0,1 @ F,0,0,1,0,0,0,1 @ F,0,0,1,0,0,0,1 @ F,0,1,1,0,0.54442367,0,1 @ F,0,1,1,0,0.54442367,0,1 @ F,0,0,1,0,0,0,1 @ F,0,0,1,0,0,0,1 @ F,0,0,1,0,0,0,1 @ F,0,0,1,0,0,0,1 @ F,0,0,1,0,0,0,1 @ F,0,0,1,0,0,0,1 @ F,0,0,1,0,0,0,1 @ F,0,0,1,0,0,0,1 @ F,0,0,1,0,0,0,1 @ F,0,0,1,0,0,0,1 @ F,0,0,1,0,0,0,1 @ F,0,0,1,0,0,0,1 @ F,0,0,1,0,0,0,1 @ F,0,0,1,0,0,0,1 @ F,0,0,1,0,0,0,1 @ F,0,0,1,0,0,0,1 @ F,0,0,1,0,0,0,1 @ F,0,0,1,0,0,0,1 @ F,0,0,1,0,0,0,1 @ F,0,0,1,0,0,0,1 @ F,0,0,1,0,0,0,1 @ F,0,0,1,0,0.54442367,0,1 @ F,0,1,1,0,0.54442367,0,1 @ F,0,0,1,0,0,0,1 @ F,0,0,1,0,0,0,1 @ F,0,1,1,0,0.54442367,0,1 @ F,0,1,1,0,0.54442367,0,1 @ F,0,0,1,0,0,0,1 @ F,0,0,1,0,0,0,1 @ F,0,0,1,0,0,0,1 @ F,0,1,1,0,0.54442367,0,1 @ F,0,0,1,0,0,0,1 @ F,0,0,1,0,0,0,1 @ F,0,1,1,0,0.54442367,0,1 @ F,0,1,1,0,0.54442367,0,1 @ F,0,0,1,0,0,0,1 @ F,0,0,1,0,0,0,1 @ F,0,1,1,0,0.54442367,0,1 | F,0,0,1,0,0,0,1 @ F,0,0,1,0,0,0,1 @ F,0,0,1,0,0,0,1 @ F,0,0,1,0,0,0,1 | F,0,0,1,0,0,0,1 @ F,0,0,1,0,0,0,1 @ F,0,0,1,0,0,0,1 @ F,0,0,1,0,0,0,1 | F,0,0,1,0,0,0,1 @ F,0,0,1,0,0,0,1 @ F,0,0,1,0,0,0,1 @ F,0,0,1,0,0,0,1 | F,0,0,1,0,0,0,1 @ F,0,0,1,0,0,0,1 @ F,0,0,1,0,0,0,1 @ F,0,0,1,0,0,0,1 | F,0,0,1,0,0,0,1 @ F,0,0,1,0,0,0,1 @ F,0,0,1,0,0,0,1 @ F,0,0,1,0,0,0,1 | F,0,0,1,0,0,0,1 @ F,0,0,1,0,0,0,1 @ F,0,0,1,0,0,0,1 @ F,0,0,1,0,0,0,1"
       radius="0"
       unit="px"
       method="auto"
       mode="F"
       chamfer_steps="1"
       flexible="false"
       use_knot_distance="true"
       apply_no_radius="true"
       apply_with_radius="true"
       only_selected="false"
       hide_knots="false" />
    <inkscape:path-effect
       effect="fillet_chamfer"
       id="path-effect1"
       is_visible="true"
       lpeversion="1"
       nodesatellites_param="F,0,0,1,0,0,0,1 @ F,0,0,1,0,0,0,1 @ F,0,0,1,0,0,0,1 @ F,0,0,1,0,0.89584927,0,1 @ F,0,1,1,0,0.89584927,0,1 @ F,0,0,1,0,0,0,1 @ F,0,0,1,0,0,0,1 @ F,0,0,1,0,0,0,1 @ F,0,0,1,0,0,0,1 @ F,0,0,1,0,0,0,1"
       radius="0"
       unit="px"
       method="auto"
       mode="F"
       chamfer_steps="1"
       flexible="false"
       use_knot_distance="true"
       apply_no_radius="true"
       apply_with_radius="true"
       only_selected="false"
       hide_knots="false" />
    <inkscape:path-effect
       effect="fillet_chamfer"
       id="path-effect14"
       is_visible="true"
       lpeversion="1"
       nodesatellites_param="F,0,0,1,0,1.9219205,0,1 @ F,0,0,1,0,0,0,1 @ F,0,0,1,0,0,0,1 @ F,0,0,1,0,0,0,1 @ F,0,0,1,0,0,0,1 @ F,0,0,1,0,0,0,1 @ F,0,0,1,0,0,0,1 @ F,0,0,1,0,0,0,1 @ F,0,0,1,0,0,0,1 @ F,0,0,1,0,0,0,1 @ F,0,0,1,0,0,0,1 @ F,0,0,1,0,0,0,1 @ F,0,0,1,0,0,0,1 @ F,0,0,1,0,0,0,1 @ F,0,0,1,0,0,0,1 @ F,0,0,1,0,0,0,1 @ F,0,0,1,0,0,0,1 @ F,0,0,1,0,0,0,1 @ F,0,0,1,0,0,0,1 @ F,0,0,1,0,0,0,1 @ F,0,0,1,0,0,0,1 @ F,0,0,1,0,0,0,1 @ F,0,0,1,0,0,0,1 @ F,0,0,1,0,0,0,1 @ F,0,0,1,0,0,0,1 @ F,0,0,1,0,0,0,1 @ F,0,0,1,0,0,0,1 @ F,0,0,1,0,0,0,1"
       radius="0"
       unit="px"
       method="auto"
       mode="F"
       chamfer_steps="1"
       flexible="false"
       use_knot_distance="true"
       apply_no_radius="true"
       apply_with_radius="true"
       only_selected="false"
       hide_knots="false" />
    <rect
       x="890.23407"
       y="458.64859"
       width="424.4636"
       height="239.29492"
       id="rect3" />
    <rect
       x="920.14593"
       y="574.02293"
       width="344.69863"
       height="65.521231"
       id="rect1" />
  </defs>
  <g
     inkscape:label="Layer 1"
     inkscape:groupmode="layer"
     id="layer1">
    <path
       id="path2"
       style="opacity:1;vector-effect:non-scaling-stroke;fill:none;fill-opacity:1;stroke:#ff0000;stroke-width:0.264583;stroke-dasharray:none;stroke-opacity:1;-inkscape-stroke:hairline"
       inkscape:label="front"
       inkscape:transform-center-x="-1.8813699e-05"
       inkscape:transform-center-y="-3.4125711"
       d="m 31.126706,4.8081847 -7.35413,7.3536063 2.121639,2.121398 L 12.035332,28.142977 9.9134249,26.021126 2.5592528,33.374422 4.6807146,35.496534 0,40.17756 l 4.0002657,6.928678 -2.5979103,1.4999 4.2501289,7.361456 2.5979103,-1.499915 4.7502944,8.226699 -2.598363,1.50017 4.250122,7.361434 2.598369,-1.500163 2.896766,5.068906 -0.02951,2.999734 8.219949,-2.68e-4 -1.49e-4,-2.999554 -1.4e-5,-20.427707 c 2.1e-5,-5.655009 5.30113,-10.239267 11.839789,-10.239338 6.538659,7.1e-5 11.83935,4.584322 11.839378,10.239338 l 8e-6,20.4277 1.41e-4,2.999561 8.160676,4.31e-4 2.23e-4,-3 2.926196,-5.06876 2.59832,1.500099 4.249889,-7.361597 -2.598328,-1.500106 4.750351,-8.226954 2.598334,1.500099 4.249875,-7.361597 L 76.354401,47.1057 80.354568,40.177687 75.673755,35.496294 77.7947,33.37491 70.441334,26.020667 68.319469,28.14256 54.461025,14.282716 56.581539,12.161579 49.22794,4.8078099 47.106718,6.9287484 40.177433,0 33.248104,6.9291586 Z"
       inkscape:export-filename="front.svg"
       inkscape:export-xdpi="96"
       inkscape:export-ydpi="96"
       sodipodi:nodetypes="ccccccccccccccccccccccccccccccccccccccccccccccc" />
    <g
       id="g72"
       transform="translate(192.58168,-255.86707)"
       inkscape:export-filename="roof.svg"
       inkscape:export-xdpi="96"
       inkscape:export-ydpi="96">
      <path
         id="rect2"
         style="opacity:0.448276;vector-effect:non-scaling-stroke;fill:none;stroke:#ff0000;stroke-width:0.264583;stroke-dasharray:none;-inkscape-stroke:hairline"
         d="m 19.199862,255.86707 v 2.99982 H 2.9998169 v 9.80063 H 0 v 10.399 h 2.9998169 v 19.6 H 0 v 10.4 h 2.9998169 v 11.8002 c -6.7e-5,2.94743 1.5723008,5.671 4.1248128,7.14478 2.552595,1.47378 5.6975453,1.47378 8.2501423,0 2.55251,-1.47378 4.124883,-4.19735 4.124813,-7.14478 4e-5,2.94754 1.57262,5.67113 4.12533,7.14478 2.5526,1.47378 5.697552,1.47378 8.250142,0 2.55251,-1.47378 4.124873,-4.19735 4.124813,-7.14478 -7e-5,2.94743 1.572303,5.671 4.124813,7.14478 2.55259,1.47378 5.697552,1.47378 8.250142,0 2.55251,-1.47378 4.124883,-4.19735 4.124813,-7.14478 4e-5,2.94754 1.572619,5.67113 4.125329,7.14478 2.55247,1.47358 5.697156,1.47358 8.249626,0 2.55271,-1.47365 4.12529,-4.19724 4.12533,-7.14478 -7e-5,2.94743 1.572303,5.671 4.124813,7.14478 2.5526,1.47378 5.697552,1.47378 8.250142,0 2.55251,-1.47378 4.124873,-4.19735 4.124813,-7.14478 3e-5,2.94754 1.572609,5.67113 4.125329,7.14478 2.55246,1.47358 5.697166,1.47358 8.249626,0 2.552714,-1.47365 4.125294,-4.19724 4.125334,-7.14478 v -11.8002 h 3.00033 v -10.4 h -3.00033 v -19.6 h 3.00033 l -5.2e-4,-10.399 h -2.99981 v -9.80063 -2.99982 H 85.199967 v 2.99982 H 68.999923 v -2.99982 H 52.199915 v 2.99982 H 35.99987 v -2.99982 z m -9.1999556,13.00024 h 2.5001056 v 10.00042 H 9.9999064 Z m 82.4998736,0 h 2.500106 v 10.00042 H 92.49978 Z M 9.9999064,298.86703 h 2.5001056 v 10.00042 H 9.9999064 Z m 82.4998736,0 h 2.500106 v 10.00042 H 92.49978 Z m -59.999955,16.82016 h 9.999906 v 2.99982 h -9.999906 z m 30.000236,0 h 9.999906 v 2.99982 h -9.999906 z"
         sodipodi:nodetypes="ccccccccccccccccccccccccccccccccccccccccccccccccccccccccccccccccccccccccccccccc" />
      <g
         id="g27"
         style="vector-effect:non-scaling-stroke;stroke-width:0.264583;stroke-dasharray:none;-inkscape-stroke:hairline"
         transform="translate(-7.000077,9.867)">
        <path
           id="path15"
           style="opacity:0.448276;vector-effect:non-scaling-stroke;fill:none;stroke:#000080;stroke-width:0.264583;stroke-dasharray:none;-inkscape-stroke:hairline"
           d="m 9.9999064,265 c -6.38e-5,2.94743 1.5723036,5.671 4.1248126,7.14478 2.552595,1.47378 5.697547,1.47378 8.250142,0 C 24.92737,270.671 26.499738,267.94743 26.499674,265 m 0,0 c 4.3e-5,2.94753 1.572622,5.67113 4.12533,7.14478 2.552595,1.47378 5.697547,1.47378 8.250142,0 2.552509,-1.47378 4.124877,-4.19735 4.124813,-7.14478 m 0,0 c -6.4e-5,2.94743 1.572304,5.671 4.124813,7.14478 2.552595,1.47378 5.697547,1.47378 8.250142,0 2.552509,-1.47378 4.124877,-4.19735 4.124813,-7.14478 m 0,0 c 4.3e-5,2.94753 1.572622,5.67113 4.12533,7.14478 2.552464,1.47358 5.697161,1.47358 8.249625,0 2.552708,-1.47365 4.125287,-4.19725 4.12533,-7.14478 m 0,0 c -6.4e-5,2.94743 1.572304,5.671 4.124813,7.14478 2.552595,1.47378 5.697547,1.47378 8.250142,0 C 90.927476,270.671 92.499844,267.94743 92.49978,265 m 0,0 c 4.3e-5,2.94753 1.572622,5.67113 4.125329,7.14478 2.552464,1.47358 5.697171,1.47358 8.249631,0 2.55271,-1.47365 4.12529,-4.19725 4.12533,-7.14478"
           sodipodi:nodetypes="csscccsccssccssccssccssc" />
        <path
           id="path20"
           style="opacity:0.448276;vector-effect:non-scaling-stroke;fill:none;stroke:#000080;stroke-width:0.264583;stroke-dasharray:none;-inkscape-stroke:hairline"
           d="m 9.9999064,280 c -6.38e-5,2.94743 1.5723036,5.671 4.1248126,7.14478 2.552595,1.47378 5.697547,1.47378 8.250142,0 C 24.92737,285.671 26.499738,282.94743 26.499674,280 m 0,0 c 4.3e-5,2.94753 1.572622,5.67113 4.12533,7.14478 2.552595,1.47378 5.697547,1.47378 8.250142,0 2.552509,-1.47378 4.124877,-4.19735 4.124813,-7.14478 m 0,0 c -6.4e-5,2.94743 1.572304,5.671 4.124813,7.14478 2.552595,1.47378 5.697547,1.47378 8.250142,0 2.552509,-1.47378 4.124877,-4.19735 4.124813,-7.14478 m 0,0 c 4.3e-5,2.94753 1.572622,5.67113 4.12533,7.14478 2.552464,1.47358 5.697161,1.47358 8.249625,0 2.552708,-1.47365 4.125287,-4.19725 4.12533,-7.14478 m 0,0 c -6.4e-5,2.94743 1.572304,5.671 4.124813,7.14478 2.552595,1.47378 5.697547,1.47378 8.250142,0 C 90.927476,285.671 92.499844,282.94743 92.49978,280 m 0,0 c 4.3e-5,2.94753 1.572622,5.67113 4.125329,7.14478 2.552464,1.47358 5.697171,1.47358 8.249631,0 2.55271,-1.47365 4.12529,-4.19725 4.12533,-7.14478"
           sodipodi:nodetypes="csscccsccssccssccssccssc" />
        <path
           id="path21"
           style="opacity:0.448276;vector-effect:non-scaling-stroke;fill:none;stroke:#000080;stroke-width:0.264583;stroke-dasharray:none;-inkscape-stroke:hairline"
           d="m 9.9999064,295 c -6.4e-5,2.94743 1.5723036,5.671 4.1248126,7.14478 2.552595,1.47378 5.697547,1.47378 8.250142,0 C 24.92737,300.671 26.499738,297.94743 26.499674,295 m 0,0 c 4.3e-5,2.94753 1.572622,5.67113 4.12533,7.14478 2.552595,1.47378 5.697547,1.47378 8.250142,0 2.552509,-1.47378 4.124877,-4.19735 4.124813,-7.14478 m 0,0 c -6.4e-5,2.94743 1.572304,5.671 4.124813,7.14478 2.552595,1.47378 5.697547,1.47378 8.250142,0 2.552509,-1.47378 4.124877,-4.19735 4.124813,-7.14478 m 0,0 c 4.3e-5,2.94753 1.572622,5.67113 4.12533,7.14478 2.552464,1.47358 5.697161,1.47358 8.249625,0 2.552708,-1.47365 4.125287,-4.19725 4.12533,-7.14478 m 0,0 c -6.4e-5,2.94743 1.572304,5.671 4.124813,7.14478 2.552595,1.47378 5.697547,1.47378 8.250142,0 C 90.927476,300.671 92.499844,297.94743 92.49978,295 m 0,0 c 4.3e-5,2.94753 1.572622,5.67113 4.125329,7.14478 2.552464,1.47358 5.697171,1.47358 8.249631,0 2.55271,-1.47365 4.12529,-4.19725 4.12533,-7.14478"
           sodipodi:nodetypes="csscccsccssccssccssccssc" />
      </g>
    </g>
    <path
       id="path13"
       style="vector-effect:non-scaling-stroke;fill:none;stroke:#ff0000;stroke-width:0.264583;stroke-dasharray:none;stroke-opacity:1;-inkscape-stroke:hairline"
       inkscape:label="icicles"
       d="m 222.8868,385.56288 a 1.9219201,1.9219201 0 0 0 -1.92186,1.92185 v 57.77476 c -2e-5,2.83613 14.71115,18.72099 17.91208,17.91209 1.24674,-2.94047 -7.08044,-9.8787 -6.87709,-11.9197 1.46869,-1.71407 6.06583,2.98368 7.1608,2.20608 1.22712,-1.34068 -7.66298,-8.97536 -6.98975,-11.45305 1.44103,-2.16219 7.76174,5.06846 9.11416,3.39876 0.0728,-3.08612 -8.51114,-10.44898 -8.36641,-13.82293 2.18982,-0.71304 7.87874,5.53689 9.39684,3.97288 0.97773,-1.84998 -9.33031,-10.82375 -8.6465,-13.35732 2.32388,-1.06087 6.45912,4.518 8.52197,4.13566 2.06539,-2.27018 -10.44062,-10.04528 -8.95088,-14.11439 2.02398,-1.01699 9.01281,6.45662 10.60505,6.23116 0.9276,-3.26918 -11.27683,-11.82669 -9.1979,-15.31173 1.09163,-0.69931 3.36864,2.11076 4.76354,0.87178 1.23897,-1.39489 -1.5711,-3.6719 -0.87179,-4.76353 3.48504,-2.07893 12.04256,10.12549 15.31174,9.19789 0.22547,-1.59224 -7.24814,-8.58107 -6.23116,-10.60504 4.06911,-1.48975 11.84421,11.01627 14.11439,8.95087 0.38234,-2.06285 -5.19653,-6.19809 -4.13567,-8.52196 2.53358,-0.68382 11.50734,9.62421 13.35734,8.6465 1.56402,-1.51807 -4.68594,-7.20702 -3.9729,-9.39684 3.37395,-0.14473 10.73682,8.4392 13.82293,8.36641 1.6697,-1.35244 -5.56094,-7.67314 -3.39874,-9.11416 2.47768,-0.67323 10.11236,8.21685 11.45303,6.98975 0.77761,-1.09499 -3.92014,-5.69211 -2.20607,-7.16081 2.04101,-0.20336 8.97923,8.12384 11.91969,6.8771 0.80891,-3.20094 -15.07596,-17.91212 -17.91209,-17.91208 z m 16.07808,5.49992 h 9.9999 l 1e-5,2.50011 h -9.99992 z m 30.00023,0 h 9.99991 l -10e-6,2.50011 -9.9999,-10e-6 z m -42.50025,12.50001 h 2.50011 l 1e-5,9.99991 h -2.50012 z m 0,30.00024 2.50011,-10e-6 v 9.99992 l -2.50011,-10e-6 z"
       inkscape:export-filename="icicle.svg"
       inkscape:export-xdpi="96"
       inkscape:export-ydpi="96" />
    <path
       id="rect45"
       style="opacity:0.448276;vector-effect:non-scaling-stroke;fill:none;stroke:#ff0000;stroke-width:0.264583;stroke-dasharray:none;-inkscape-stroke:hairline"
       d="m 32.499812,179.95962 v 2.4089 H 12.5 9.4996663 v 8.00003 H 12.5 v 8.00003 H 9.4996663 v 9.9999 H 12.5 v 8.00003 H 9.4996663 v 4.49998 H 12.5 32.499812 v 2.40839 a 0.59143056,0.59143056 45 0 0 0.591431,0.59143 h 8.817045 a 0.59143056,0.59143056 135 0 0 0.591431,-0.59143 v -2.40839 h 20.000329 v 2.40839 a 0.59143056,0.59143056 45 0 0 0.591431,0.59143 h 8.817045 a 0.59143056,0.59143056 135 0 0 0.591431,-0.59143 v -2.40839 h 19.999813 2.999817 v -4.49998 h -2.999817 v -8.00003 h 2.999817 v -9.9999 h -2.999817 v -8.00003 h 2.999817 v -8.00003 H 92.499768 72.499955 v -2.4089 a 0.59143056,0.59143056 45 0 0 -0.591431,-0.59143 h -8.817045 a 0.59143056,0.59143056 135 0 0 -0.591431,0.59143 l 0,2.4089 H 42.499719 v -2.4089 a 0.59143056,0.59143056 45 0 0 -0.591431,-0.59143 h -8.817045 a 0.59143056,0.59143056 135 0 0 -0.591431,0.59143 z m -9.999906,9.40847 21.99976,-3e-5 v 20.00033 l -21.99976,3e-5 z m 37.99976,0 h 22.000195 v 20.00033 H 60.499666 Z"
       sodipodi:nodetypes="ccccccccccccccccccccccccccccccccccccccccccccccccccc"
       inkscape:path-effect="#path-effect9"
       inkscape:original-d="m 32.499812,179.36819 v 3.00033 H 12.5 9.4996663 v 8.00003 H 12.5 v 8.00003 H 9.4996663 v 9.9999 H 12.5 v 8.00003 H 9.4996663 v 4.49998 H 12.5 32.499812 v 2.99982 h 9.999907 v -2.99982 h 20.000329 v 2.99982 h 9.999907 v -2.99982 h 19.999813 2.999817 v -4.49998 h -2.999817 v -8.00003 h 2.999817 v -9.9999 h -2.999817 v -8.00003 h 2.999817 v -8.00003 H 92.499768 72.499955 v -3.00033 h -9.999907 v 3.00033 H 42.499719 v -3.00033 z m -9.999906,9.9999 21.99976,-3e-5 v 20.00033 l -21.99976,3e-5 z m 37.99976,0 h 22.000195 v 20.00033 H 60.499666 Z"
       transform="translate(307.98643,-159.40281)" />
    <g
       id="g66"
       transform="translate(354.99983,273.99989)"
       inkscape:export-filename="tab.svg"
       inkscape:export-xdpi="96"
       inkscape:export-ydpi="96">
      <path
         id="rect63"
         style="opacity:0.448276;vector-effect:non-scaling-stroke;fill:none;stroke:#ff0000;stroke-width:0.264583;stroke-dasharray:none;-inkscape-stroke:hairline"
         d="m 44.999837,299.99978 v 16.99999 h 5.000212 v 2.10449 a 0.89584927,0.89584927 45 0 0 0.895849,0.89585 l 8.208208,0 a 0.89584927,0.89584927 135 0 0 0.895849,-0.89585 v -2.10449 h 5.000212 v -16.99999 h -5.000212 -9.999906 z"
         inkscape:path-effect="#path-effect1"
         inkscape:original-d="m 44.999837,299.99978 v 16.99999 h 5.000212 v 3.00034 h 9.999906 v -3.00034 h 5.000212 v -16.99999 h -5.000212 -9.999906 z" />
      <path
         id="rect64"
         style="opacity:0.448276;vector-effect:non-scaling-stroke;fill:none;stroke:#ff0000;stroke-width:0.264583;stroke-dasharray:none;-inkscape-stroke:hairline"
         d="m 10,300 v 19.99981 H 39.999719 V 300 Z m 9.999906,8.75 h 9.999907 v 2.5 h -9.999907 z"
         sodipodi:nodetypes="cccccccccc" />
    </g>
    <path
       id="rect7"
       style="vector-effect:non-scaling-stroke;fill:none;fill-opacity:1;fill-rule:evenodd;stroke:#ff0000;stroke-width:0.241549;stroke-dasharray:none;stroke-opacity:1;-inkscape-stroke:hairline"
       d="m 205.21716,223.84086 c 0,4.70377 3.78666,8.49044 8.49044,8.49044 h 43.01908 c 4.70378,0 8.49044,-3.78667 8.49044,-8.49044 v -83.01922 c 0,-4.70377 -3.78666,-8.49044 -8.49044,-8.49044 H 213.7076 c -4.70378,0 -8.49044,3.78667 -8.49044,8.49044 z m 6.99958,-21.5098 v -9.9999 h 3.00033 v 9.9999 z m 0,-30.00023 v -9.99991 h 3.00033 v 9.99991 z m 3.20043,52.50067 v -2.50011 h 7.76117 v 2.50011 z m 0,-82.49988 v -2.5001 h 7.76117 v 2.5001 z m 31.83929,82.49936 v -2.50011 h 7.76071 v 2.50011 z m 7.1e-4,-82.49987 V 139.831 h 7.76 v 2.50011 z m 7.96056,59.99995 v -9.9999 h 3.00033 v 9.9999 z m 0,-30.00023 v -9.99991 h 3.00033 v 9.99991 z"
       inkscape:export-filename="base.svg"
       inkscape:export-xdpi="96"
       inkscape:export-ydpi="96"
       sodipodi:nodetypes="ssssssssscccccccccccccccccccccccccccccccccccccccc" />
    <g
       id="g16"
       transform="translate(0.80903957)">
      <g
         id="g5"
         inkscape:export-filename="back.svg"
         inkscape:export-xdpi="96"
         inkscape:export-ydpi="96">
        <path
           id="path23"
           style="vector-effect:non-scaling-stroke;fill:none;fill-opacity:1;stroke:#ff0000;stroke-width:0.264583;stroke-dasharray:none;stroke-opacity:1;-inkscape-stroke:hairline"
           inkscape:label="back-wall"
           inkscape:transform-center-x="2.8521716"
           inkscape:transform-center-y="-12.231355"
           d="m 119.89767,5.4202682 -6.13036,6.1306618 a 0.86518552,0.86518552 90.001194 0 0 -3e-5,1.223502 l 1.50925,1.509446 -13.85898,13.859695 -1.509549,-1.50988 a 0.86503314,0.86503314 0.0038214 0 0 -1.223394,-8.1e-5 l -6.130739,6.130447 a 0.86507658,0.86507658 90.000344 0 0 -8e-6,1.223425 l 1.51017,1.510134 -4.680803,4.680413 4.00002,6.92823 -2.59836,1.50017 4.25013,7.36144 2.59836,-1.50017 4.749833,8.22696 -2.598363,1.50016 4.250133,7.36144 2.59836,-1.50016 2.9269,5.06918 -7e-5,-1e-4 -2e-5,3.00027 8.16048,1.7e-4 2.2e-4,-3.00098 6.91021,5.8e-4 8.7e-4,-4.85711 9.85722,3.4e-4 2e-5,4.8566 6.91085,-4e-4 -2.3e-4,3.00098 8.1604,-2.8e-4 -7.5e-4,-3.00027 0.001,-3.6e-4 2.92617,-5.06858 2.59807,1.49965 4.25014,-7.36115 -2.59762,-1.49991 4.74964,-8.22714 2.59762,1.49991 4.25015,-7.36115 -2.59762,-1.49991 3.99991,-6.92847 -4.6803,-4.680499 1.5093,-1.509605 a 0.86524659,0.86524659 89.998803 0 0 -3e-5,-1.223545 l -6.12982,-6.130556 a 0.86518835,0.86518835 0.00609442 0 0 -1.22351,-1.3e-4 l -1.51029,1.50983 -13.85867,-13.859385 1.5093,-1.509596 a 0.86521424,0.86521424 89.997867 0 0 -5e-5,-1.223522 l -6.13026,-6.1305646 a 0.86504128,0.86504128 179.99922 0 0 -1.2234,1.67e-5 L 136.48944,6.9303001 129.56042,0 122.63058,6.9302 121.12104,5.420321 a 0.86499048,0.86499048 0.00247614 0 0 -1.22337,-5.28e-5 z"
           inkscape:export-filename="back.svg"
           inkscape:export-xdpi="96"
           inkscape:export-ydpi="96"
           sodipodi:nodetypes="cccccccccccccccccccccccccccccccccccccccccccccccccc"
           inkscape:path-effect="#path-effect19"
           inkscape:original-d="m 120.50938,4.80853 -7.35378,7.354138 2.12093,2.12121 -13.85898,13.859695 -2.121205,-2.12167 -7.354215,7.353865 2.1219,2.12185 -4.680803,4.680413 4.00002,6.92823 -2.59836,1.50017 4.25013,7.36144 2.59836,-1.50017 4.749833,8.22696 -2.598363,1.50016 4.250133,7.36144 2.59836,-1.50016 2.9269,5.06918 -7e-5,-1e-4 -2e-5,3.00027 8.16048,1.7e-4 2.2e-4,-3.00098 6.91021,5.8e-4 8.7e-4,-4.85711 9.85722,3.4e-4 2e-5,4.8566 6.91085,-4e-4 -2.3e-4,3.00098 8.1604,-2.8e-4 -7.5e-4,-3.00027 0.001,-3.6e-4 2.92617,-5.06858 2.59807,1.49965 4.25014,-7.36115 -2.59762,-1.49991 4.74964,-8.22714 2.59762,1.49991 4.25015,-7.36115 -2.59762,-1.49991 3.99991,-6.92847 -4.6803,-4.680499 2.12096,-2.12139 -7.3532,-7.354076 -2.12211,2.12146 -13.85867,-13.859385 2.12096,-2.12138 -7.35368,-7.3540409 -2.12142,2.12164 L 129.56042,0 122.63058,6.9302 Z" />
      </g>
      <g
         id="g15">
        <path
           style="baseline-shift:baseline;display:inline;overflow:visible;vector-effect:non-scaling-stroke;fill:#00ff00;stroke:#00ff00;stroke-width:0.264583;stroke-linecap:round;stroke-linejoin:round;stroke-dasharray:none;stroke-opacity:1;-inkscape-stroke:hairline;enable-background:accumulate;stop-color:#000000"
           d="m 151.01425,32.200125 a 0.5,0.5 0 0 0 -0.5,0.5 v 0.82031 l -0.61328,-0.24609 a 0.5,0.5 0 0 0 -0.65039,0.27734 0.5,0.5 0 0 0 0.2793,0.65039 l 0.98437,0.39454 v 2.45312 l -1.89648,-1.0332 -0.22461,-1.57032 a 0.5,0.5 0 0 0 -0.56446,-0.42382 0.5,0.5 0 0 0 -0.42578,0.56445 l 0.11524,0.80469 -0.92969,-0.5293 a 0.5,0.5 0 0 0 -0.68164,0.18555 0.5,0.5 0 0 0 0.18555,0.68164 l 0.78711,0.44922 -0.67579,0.19336 a 0.5,0.5 0 0 0 -0.34375,0.61718 0.5,0.5 0 0 0 0.61915,0.34375 l 1.62109,-0.46093 1.86914,1.01953 -1.87109,1.01953 -1.61914,-0.46289 a 0.5,0.5 0 0 0 -0.61915,0.34375 0.5,0.5 0 0 0 0.34375,0.61719 l 0.67579,0.19335 -0.78711,0.44922 a 0.5,0.5 0 0 0 -0.18555,0.6836 0.5,0.5 0 0 0 0.68164,0.18554 l 0.92969,-0.53125 -0.11524,0.80469 a 0.5,0.5 0 0 0 0.42578,0.56641 0.5,0.5 0 0 0 0.56446,-0.42383 l 0.22461,-1.57031 1.89648,-1.03516 v 2.25 l -1.05664,0.63477 a 0.5,0.5 0 0 0 -0.16992,0.68554 0.5,0.5 0 0 0 0.68555,0.17188 l 0.54101,-0.32422 v 0.93359 a 0.5,0.5 0 0 0 0.5,0.5 0.5,0.5 0 0 0 0.5,-0.5 v -0.93359 l 0.53906,0.32422 a 0.5,0.5 0 0 0 0.6875,-0.17188 0.5,0.5 0 0 0 -0.17187,-0.68554 l -1.05469,-0.63282 v -2.25 l 1.89453,1.03321 0.22461,1.57031 a 0.5,0.5 0 0 0 0.56445,0.42383 0.5,0.5 0 0 0 0.42579,-0.56641 l -0.11524,-0.80469 0.92969,0.53125 a 0.5,0.5 0 0 0 0.68164,-0.18554 0.5,0.5 0 0 0 -0.18555,-0.6836 l -0.78711,-0.44922 0.67578,-0.19335 a 0.5,0.5 0 0 0 0.34375,-0.61719 0.5,0.5 0 0 0 -0.61914,-0.34375 l -1.61914,0.46289 -1.87109,-1.01953 1.86914,-1.01953 1.62109,0.46093 a 0.5,0.5 0 0 0 0.61914,-0.34375 0.5,0.5 0 0 0 -0.34375,-0.61718 l -0.67578,-0.19336 0.78711,-0.44922 a 0.5,0.5 0 0 0 0.18555,-0.68164 0.5,0.5 0 0 0 -0.68164,-0.18555 l -0.92969,0.5293 0.11524,-0.80469 a 0.5,0.5 0 0 0 -0.42579,-0.56445 0.5,0.5 0 0 0 -0.56445,0.42382 l -0.22461,1.57032 -1.89453,1.03125 v -2.45117 l 0.98242,-0.39454 a 0.5,0.5 0 0 0 0.2793,-0.65039 0.5,0.5 0 0 0 -0.65039,-0.27734 l -0.61133,0.24414 v -0.81836 a 0.5,0.5 0 0 0 -0.5,-0.5 z"
           id="path6" />
        <path
           style="baseline-shift:baseline;display:inline;overflow:visible;vector-effect:non-scaling-stroke;fill:#00ff00;stroke:#00ff00;stroke-width:0.264583;stroke-linecap:round;stroke-linejoin:round;stroke-dasharray:none;stroke-opacity:1;-inkscape-stroke:hairline;enable-background:accumulate;stop-color:#000000"
           d="m 108.10802,32.200125 a 0.5,0.5 0 0 0 -0.5,0.5 v 0.82031 l -0.61328,-0.24609 a 0.5,0.5 0 0 0 -0.65039,0.27734 0.5,0.5 0 0 0 0.2793,0.65039 l 0.98437,0.39454 v 2.45312 l -1.89648,-1.0332 -0.22461,-1.57032 a 0.5,0.5 0 0 0 -0.56446,-0.42382 0.5,0.5 0 0 0 -0.42578,0.56445 l 0.11524,0.80469 -0.92969,-0.5293 a 0.5,0.5 0 0 0 -0.68164,0.18555 0.5,0.5 0 0 0 0.18555,0.68164 l 0.78711,0.44922 -0.67579,0.19336 a 0.5,0.5 0 0 0 -0.34375,0.61718 0.5,0.5 0 0 0 0.61915,0.34375 l 1.62109,-0.46093 1.86914,1.01953 -1.87109,1.01953 -1.61914,-0.46289 a 0.5,0.5 0 0 0 -0.61915,0.34375 0.5,0.5 0 0 0 0.34375,0.61719 l 0.67579,0.19335 -0.78711,0.44922 a 0.5,0.5 0 0 0 -0.18555,0.6836 0.5,0.5 0 0 0 0.68164,0.18554 l 0.92969,-0.53125 -0.11524,0.80469 a 0.5,0.5 0 0 0 0.42578,0.56641 0.5,0.5 0 0 0 0.56446,-0.42383 l 0.22461,-1.57031 1.89648,-1.03516 v 2.25 l -1.05664,0.63477 a 0.5,0.5 0 0 0 -0.16992,0.68554 0.5,0.5 0 0 0 0.68555,0.17188 l 0.54101,-0.32422 v 0.93359 a 0.5,0.5 0 0 0 0.5,0.5 0.5,0.5 0 0 0 0.5,-0.5 v -0.93359 l 0.53906,0.32422 a 0.5,0.5 0 0 0 0.6875,-0.17188 0.5,0.5 0 0 0 -0.17187,-0.68554 l -1.05469,-0.63282 v -2.25 l 1.89453,1.03321 0.22461,1.57031 a 0.5,0.5 0 0 0 0.56445,0.42383 0.5,0.5 0 0 0 0.42579,-0.56641 l -0.11524,-0.80469 0.92969,0.53125 a 0.5,0.5 0 0 0 0.68164,-0.18554 0.5,0.5 0 0 0 -0.18555,-0.6836 l -0.78711,-0.44922 0.67578,-0.19335 a 0.5,0.5 0 0 0 0.34375,-0.61719 0.5,0.5 0 0 0 -0.61914,-0.34375 l -1.61914,0.46289 -1.87109,-1.01953 1.86914,-1.01953 1.62109,0.46093 a 0.5,0.5 0 0 0 0.61914,-0.34375 0.5,0.5 0 0 0 -0.34375,-0.61718 l -0.67578,-0.19336 0.78711,-0.44922 a 0.5,0.5 0 0 0 0.18555,-0.68164 0.5,0.5 0 0 0 -0.68164,-0.18555 l -0.92969,0.5293 0.11524,-0.80469 a 0.5,0.5 0 0 0 -0.42579,-0.56445 0.5,0.5 0 0 0 -0.56445,0.42382 l -0.22461,1.57032 -1.89453,1.03125 v -2.45117 l 0.98242,-0.39454 a 0.5,0.5 0 0 0 0.2793,-0.65039 0.5,0.5 0 0 0 -0.65039,-0.27734 l -0.61133,0.24414 v -0.81836 a 0.5,0.5 0 0 0 -0.5,-0.5 z"
           id="path7" />
        <text
           xml:space="preserve"
           transform="matrix(0.26458333,0,0,0.26458333,-0.36851021,-46.413483)"
           id="text1"
           style="font-size:37.3333px;font-family:'Brush Script MT';-inkscape-font-specification:'Brush Script MT, Normal';text-align:center;writing-mode:lr-tb;direction:ltr;white-space:pre;shape-inside:url(#rect4);display:inline;opacity:1;vector-effect:non-scaling-stroke;fill:#00ff00;stroke:#00ff00;-inkscape-stroke:hairline"
           x="63.00906"
           y="0"><tspan
             x="451.27477"
             y="353.25651"
             id="tspan1">Merry
</tspan><tspan
             x="428.16932"
             y="399.92314"
             id="tspan2">Christmas</tspan></text>
      </g>
    </g>
    <path
       id="path12"
       style="opacity:1;vector-effect:non-scaling-stroke;fill:none;stroke:#ff0000;stroke-width:0.264583;-inkscape-stroke:hairline"
       d="m 197.88167,93.919791 -70.53289,4.41e-4 a 11.999242,11.999242 135.00017 0 0 -11.99917,11.999098 l -8.5e-4,70.53341 c 0.48805,4.81081 18.97932,25.18793 20.15691,20.15639 0,0 -10.88943,-15.62947 -10.67532,-20.33985 4.71037,-1.07054 8.85127,4.65144 10.47172,3.36879 0.0957,-2.93501 -9.37867,-13.96667 -9.10539,-15.66106 0.98384,-1.31178 8.43562,4.5922 10.07535,3.28042 0.43726,-1.74904 -9.32246,-11.31854 -9.10383,-13.61416 0.49192,-0.81986 7.66609,4.68044 9.03252,3.31401 0.81987,-2.24096 -9.0526,-9.69391 -10.20041,-13.68391 1.47575,-1.25713 8.40079,4.35938 9.71775,2.574 -0.71055,-4.09932 -10.57101,-12.15124 -9.4232,-12.64316 0.87453,-1.74903 8.69244,3.94104 9.45938,0.80357 -0.62749,-2.8586 -8.51066,-10.1205 -9.38186,-14.09578 3.89263,-2.55199 6.76287,2.4775 9.417,0.74207 -0.6369,-3.95306 -8.4537,-10.91611 -6.84248,-13.13666 2.22055,-1.61122 9.18309,6.20609 13.13615,6.84299 1.73542,-2.65412 -3.29406,-5.52436 -0.74208,-9.41699 3.97529,0.87119 11.23718,8.75436 14.09578,9.38185 3.13747,-0.76694 -2.5526,-8.58484 -0.80356,-9.45937 0.49192,-1.1478 8.54384,8.71265 12.64315,9.4232 1.78538,-1.31697 -3.83112,-8.24201 -2.574,-9.71776 3.99001,1.1478 11.44297,11.02028 13.68392,10.20042 1.36644,-1.36644 -4.13388,-8.54061 -3.31401,-9.03253 2.29561,-0.21863 11.8651,9.5411 13.61415,9.10384 1.31178,-1.63972 -4.5922,-9.09151 -3.28042,-10.07535 1.69438,-0.27328 12.72656,9.20062 15.66158,9.10487 1.28265,-1.62045 -4.43984,-5.76083 -3.3693,-10.4712 4.71037,-0.21411 20.33984,10.67532 20.33984,10.67532 5.03154,-1.1776 -15.34558,-19.668859 -20.15639,-20.156909 z m -64.5325,6.580989 h 9.99991 v 2.50011 h -9.99991 z m 29.99972,0 h 9.99991 v 2.50011 h -9.99991 z m -42.49973,12.50001 h 2.49959 v 9.99991 h -2.49959 z m 0,29.99972 h 2.49959 v 9.99991 h -2.49959 z"
       inkscape:path-effect="#path-effect31"
       inkscape:original-d="m 197.88167,93.919791 -82.53191,5.16e-4 -0.001,82.532433 c 0.48805,4.81081 18.97932,25.18793 20.15691,20.15639 0,0 -10.88943,-15.62947 -10.67532,-20.33985 4.71037,-1.07054 8.85127,4.65144 10.47172,3.36879 0.0957,-2.93501 -9.37867,-13.96667 -9.10539,-15.66106 0.98384,-1.31178 8.43562,4.5922 10.07535,3.28042 0.43726,-1.74904 -9.32246,-11.31854 -9.10383,-13.61416 0.49192,-0.81986 7.66609,4.68044 9.03252,3.31401 0.81987,-2.24096 -9.0526,-9.69391 -10.20041,-13.68391 1.47575,-1.25713 8.40079,4.35938 9.71775,2.574 -0.71055,-4.09932 -10.57101,-12.15124 -9.4232,-12.64316 0.87453,-1.74903 8.69244,3.94104 9.45938,0.80357 -0.62749,-2.8586 -8.51066,-10.1205 -9.38186,-14.09578 3.89263,-2.55199 6.76287,2.4775 9.417,0.74207 -0.6369,-3.95306 -8.4537,-10.91611 -6.84248,-13.13666 2.22055,-1.61122 9.18309,6.20609 13.13615,6.84299 1.73542,-2.65412 -3.29406,-5.52436 -0.74208,-9.41699 3.97529,0.87119 11.23718,8.75436 14.09578,9.38185 3.13747,-0.76694 -2.5526,-8.58484 -0.80356,-9.45937 0.49192,-1.1478 8.54384,8.71265 12.64315,9.4232 1.78538,-1.31697 -3.83112,-8.24201 -2.574,-9.71776 3.99001,1.1478 11.44297,11.02028 13.68392,10.20042 1.36644,-1.36644 -4.13388,-8.54061 -3.31401,-9.03253 2.29561,-0.21863 11.8651,9.5411 13.61415,9.10384 1.31178,-1.63972 -4.5922,-9.09151 -3.28042,-10.07535 1.69438,-0.27328 12.72656,9.20062 15.66158,9.10487 1.28265,-1.62045 -4.43984,-5.76083 -3.3693,-10.4712 4.71037,-0.21411 20.33984,10.67532 20.33984,10.67532 5.03154,-1.1776 -15.34558,-19.668859 -20.15639,-20.156909 z m -64.5325,6.580989 h 9.99991 v 2.50011 h -9.99991 z m 29.99972,0 h 9.99991 v 2.50011 h -9.99991 z m -42.49973,12.50001 h 2.49959 v 9.99991 h -2.49959 z m 0,29.99972 h 2.49959 v 9.99991 h -2.49959 z"
       transform="translate(-95.76811,20.9747)" />
    <path
       style="baseline-shift:baseline;display:inline;overflow:visible;vector-effect:non-scaling-stroke;fill:#00ff00;stroke:#00ff00;stroke-width:0.264583;stroke-linecap:round;stroke-linejoin:round;stroke-dasharray:none;stroke-opacity:1;-inkscape-stroke:hairline;enable-background:accumulate;stop-color:#000000"
       d="m 339.47811,583.08952 a 0.5,0.5 0 0 0 -0.5,0.5 v 0.82031 l -0.61328,-0.24609 a 0.5,0.5 0 0 0 -0.65039,0.27734 0.5,0.5 0 0 0 0.2793,0.65039 l 0.98437,0.39454 v 2.45312 l -1.89648,-1.0332 -0.22461,-1.57032 a 0.5,0.5 0 0 0 -0.56446,-0.42382 0.5,0.5 0 0 0 -0.42578,0.56445 l 0.11524,0.80469 -0.92969,-0.5293 a 0.5,0.5 0 0 0 -0.68164,0.18555 0.5,0.5 0 0 0 0.18555,0.68164 l 0.78711,0.44922 -0.67579,0.19336 a 0.5,0.5 0 0 0 -0.34375,0.61718 0.5,0.5 0 0 0 0.61915,0.34375 l 1.62109,-0.46093 1.86914,1.01953 -1.87109,1.01953 -1.61914,-0.46289 a 0.5,0.5 0 0 0 -0.61915,0.34375 0.5,0.5 0 0 0 0.34375,0.61719 l 0.67579,0.19335 -0.78711,0.44922 a 0.5,0.5 0 0 0 -0.18555,0.6836 0.5,0.5 0 0 0 0.68164,0.18554 l 0.92969,-0.53125 -0.11524,0.80469 a 0.5,0.5 0 0 0 0.42578,0.56641 0.5,0.5 0 0 0 0.56446,-0.42383 l 0.22461,-1.57031 1.89648,-1.03516 v 2.25 l -1.05664,0.63477 a 0.5,0.5 0 0 0 -0.16992,0.68554 0.5,0.5 0 0 0 0.68555,0.17188 l 0.54101,-0.32422 v 0.93359 a 0.5,0.5 0 0 0 0.5,0.5 0.5,0.5 0 0 0 0.5,-0.5 v -0.93359 l 0.53906,0.32422 a 0.5,0.5 0 0 0 0.6875,-0.17188 0.5,0.5 0 0 0 -0.17187,-0.68554 l -1.05469,-0.63282 v -2.25 l 1.89453,1.03321 0.22461,1.57031 a 0.5,0.5 0 0 0 0.56445,0.42383 0.5,0.5 0 0 0 0.42579,-0.56641 l -0.11524,-0.80469 0.92969,0.53125 a 0.5,0.5 0 0 0 0.68164,-0.18554 0.5,0.5 0 0 0 -0.18555,-0.6836 l -0.78711,-0.44922 0.67578,-0.19335 a 0.5,0.5 0 0 0 0.34375,-0.61719 0.5,0.5 0 0 0 -0.61914,-0.34375 l -1.61914,0.46289 -1.87109,-1.01953 1.86914,-1.01953 1.62109,0.46093 a 0.5,0.5 0 0 0 0.61914,-0.34375 0.5,0.5 0 0 0 -0.34375,-0.61718 l -0.67578,-0.19336 0.78711,-0.44922 a 0.5,0.5 0 0 0 0.18555,-0.68164 0.5,0.5 0 0 0 -0.68164,-0.18555 l -0.92969,0.5293 0.11524,-0.80469 a 0.5,0.5 0 0 0 -0.42579,-0.56445 0.5,0.5 0 0 0 -0.56445,0.42382 l -0.22461,1.57032 -1.89453,1.03125 v -2.45117 l 0.98242,-0.39454 a 0.5,0.5 0 0 0 0.2793,-0.65039 0.5,0.5 0 0 0 -0.65039,-0.27734 l -0.61133,0.24414 v -0.81836 a 0.5,0.5 0 0 0 -0.5,-0.5 z"
       id="path14" />
  </g>
</svg>
